<svg width="32" height="32" viewBox="0 0 32 32" fill="none" xmlns="http://www.w3.org/2000/svg">
<path d="M27 10H5C4.44772 10 4 10.4477 4 11V15C4 15.5523 4.44772 16 5 16H27C27.5523 16 28 15.5523 28 15V11C28 10.4477 27.5523 10 27 10Z" stroke="#575D73" stroke-width="2" stroke-linecap="round" stroke-linejoin="round"/>
<path d="M26 16V25C26 25.2652 25.8946 25.5196 25.7071 25.7071C25.5196 25.8946 25.2652 26 25 26H7C6.73478 26 6.48043 25.8946 6.29289 25.7071C6.10536 25.5196 6 25.2652 6 25V16" stroke="#575D73" stroke-width="2" stroke-linecap="round" stroke-linejoin="round"/>
<path d="M16 10V26" stroke="#575D73" stroke-width="2" stroke-linecap="round" stroke-linejoin="round"/>
<path d="M21.6625 8.58751C20.2375 10 16 10 16 10C16 10 16 5.76251 17.4125 4.33751C17.9761 3.77392 18.7405 3.45731 19.5375 3.45731C20.3345 3.45731 21.0989 3.77392 21.6625 4.33751C22.2261 4.90109 22.5427 5.66548 22.5427 6.46251C22.5427 7.25954 22.2261 8.02392 21.6625 8.58751V8.58751Z" stroke="#575D73" stroke-width="2" stroke-linecap="round" stroke-linejoin="round"/>
<path d="M10.3375 8.58751C11.7625 10 16 10 16 10C16 10 16 5.76251 14.5875 4.33751C14.0239 3.77392 13.2595 3.45731 12.4625 3.45731C11.6654 3.45731 10.9011 3.77392 10.3375 4.33751C9.77389 4.90109 9.45728 5.66548 9.45728 6.46251C9.45728 7.25954 9.77389 8.02392 10.3375 8.58751V8.58751Z" stroke="#575D73" stroke-width="2" stroke-linecap="round" stroke-linejoin="round"/>
</svg>
