<svg width="15" height="14" viewBox="0 0 15 14" fill="none" xmlns="http://www.w3.org/2000/svg">
<path d="M10.3683 13.2484C10.3683 13.4012 10.3077 13.5477 10.1996 13.6558C10.0916 13.7638 9.9451 13.8245 9.79233 13.8245H5.18417C5.0314 13.8245 4.88489 13.7638 4.77687 13.6558C4.66884 13.5477 4.60815 13.4012 4.60815 13.2484C4.60815 13.0957 4.66884 12.9492 4.77687 12.8411C4.88489 12.7331 5.0314 12.6724 5.18417 12.6724H9.79233C9.9451 12.6724 10.0916 12.7331 10.1996 12.8411C10.3077 12.9492 10.3683 13.0957 10.3683 13.2484ZM14.9765 1.72806V9.79233C14.9746 10.2501 14.7919 10.6885 14.4683 11.0122C14.1446 11.3358 13.7062 11.5185 13.2484 11.5204H1.72806C1.27033 11.5185 0.831894 11.3358 0.50823 11.0122C0.184567 10.6885 0.00189537 10.2501 0 9.79233V1.72806C0.00189537 1.27033 0.184567 0.831894 0.50823 0.508231C0.831894 0.184567 1.27033 0.00189537 1.72806 0H13.2484C13.7062 0.00189537 14.1446 0.184567 14.4683 0.508231C14.7919 0.831894 14.9746 1.27033 14.9765 1.72806ZM10.0803 5.76019C10.0804 5.6638 10.0561 5.56895 10.0095 5.48457C9.96286 5.40018 9.89557 5.32903 9.81393 5.27778L6.64582 3.26171C6.55963 3.20576 6.45988 3.17421 6.35719 3.17041C6.2545 3.16661 6.1527 3.19069 6.0626 3.24011C5.97159 3.28923 5.89548 3.36196 5.84227 3.45064C5.78906 3.53933 5.76071 3.6407 5.76019 3.74413V7.77626C5.76071 7.87968 5.78906 7.98106 5.84227 8.06974C5.89548 8.15843 5.97159 8.23115 6.0626 8.28028C6.15221 8.33126 6.25426 8.35625 6.35729 8.35243C6.46031 8.34861 6.56023 8.31615 6.64582 8.25868L9.81393 6.24261C9.89557 6.19136 9.96286 6.1202 10.0095 6.03582C10.0561 5.95143 10.0804 5.85659 10.0803 5.76019Z" fill="#657795"/>
</svg>
