<svg viewBox="0 0 40 40" fill="none" xmlns="http://www.w3.org/2000/svg">
<path d="M19.75 0C15.8438 0 12.0254 1.15832 8.77749 3.32847C5.52962 5.49863 2.99822 8.58316 1.50339 12.192C0.00855737 15.8008 -0.382558 19.7719 0.3795 23.603C1.14156 27.4342 3.02256 30.9533 5.78465 33.7154C8.54674 36.4774 12.0658 38.3584 15.897 39.1205C19.7281 39.8826 23.6992 39.4914 27.308 37.9966C30.9168 36.5018 34.0014 33.9704 36.1715 30.7225C38.3417 27.4746 39.5 23.6562 39.5 19.75C39.49 14.5151 37.4059 9.4974 33.7043 5.79573C30.0026 2.09406 24.9849 0.0100383 19.75 0V0ZM29.1502 16.2937L18.0219 26.9284C17.7342 27.199 17.3534 27.3486 16.9584 27.3461C16.7654 27.3489 16.5737 27.3134 16.3944 27.2417C16.2151 27.17 16.0518 27.0635 15.9139 26.9284L10.3498 21.6111C10.1954 21.4764 10.0699 21.3119 9.98078 21.1276C9.89163 20.9432 9.84068 20.7427 9.831 20.5381C9.82132 20.3335 9.85311 20.1291 9.92445 19.9371C9.99579 19.7451 10.1052 19.5695 10.2461 19.4209C10.3871 19.2723 10.5566 19.1537 10.7445 19.0723C10.9325 18.9908 11.1349 18.9483 11.3397 18.9471C11.5445 18.9459 11.7475 18.9861 11.9363 19.0654C12.1252 19.1446 12.2961 19.2612 12.4387 19.4082L16.9584 23.719L27.0613 14.0909C27.3567 13.8331 27.7403 13.6996 28.1319 13.7181C28.5235 13.7366 28.8927 13.9058 29.1625 14.1903C29.4322 14.4747 29.5816 14.8525 29.5793 15.2445C29.577 15.6365 29.4233 16.0124 29.1502 16.2937Z" fill="#30CC8B"/>
</svg>
