<?xml version="1.0" encoding="utf-8"?>
<!-- Generator: Adobe Illustrator 26.0.1, SVG Export Plug-In . SVG Version: 6.00 Build 0)  -->
<svg version="1.1" id="Layer_1" xmlns="http://www.w3.org/2000/svg" xmlns:xlink="http://www.w3.org/1999/xlink" x="0px" y="0px"
	 viewBox="0 0 40 40" style="enable-background:new 0 0 40 40;" xml:space="preserve">
  <path d="M20,0.5c-3.9,0-7.6,1.1-10.8,3.3C6,5.9,3.5,9,2,12.5C0.5,16.1,0.1,20,0.9,23.8c0.8,3.8,2.6,7.3,5.3,10
    c2.7,2.7,6.2,4.6,10,5.3c3.8,0.8,7.7,0.4,11.3-1.1c3.6-1.5,6.6-4,8.8-7.2c2.1-3.2,3.3-7,3.3-10.8c0-5.2-2.1-10.1-5.7-13.8
    C30.1,2.6,25.2,0.5,20,0.5L20,0.5z M18.5,11c0-0.4,0.2-0.8,0.4-1.1c0.3-0.3,0.7-0.4,1.1-0.4s0.8,0.2,1.1,0.4
    c0.3,0.3,0.4,0.7,0.4,1.1v10.5c0,0.4-0.2,0.8-0.4,1.1S20.4,23,20,23s-0.8-0.2-1.1-0.4c-0.3-0.3-0.4-0.7-0.4-1.1V11z M20,30.5
    c-0.4,0-0.9-0.1-1.2-0.4s-0.7-0.6-0.8-1c-0.2-0.4-0.2-0.9-0.1-1.3c0.1-0.4,0.3-0.8,0.6-1.2c0.3-0.3,0.7-0.5,1.2-0.6
    c0.4-0.1,0.9,0,1.3,0.1c0.4,0.2,0.8,0.5,1,0.8s0.4,0.8,0.4,1.2c0,0.6-0.2,1.2-0.7,1.6C21.2,30.3,20.6,30.5,20,30.5z" fill="#E93636"/>
</svg>
