<?xml version="1.0" encoding="utf-8"?>
<!-- Generator: Adobe Illustrator 26.0.1, SVG Export Plug-In . SVG Version: 6.00 Build 0)  -->
<svg version="1.1" id="Layer_1" xmlns="http://www.w3.org/2000/svg" xmlns:xlink="http://www.w3.org/1999/xlink" x="0px" y="0px"
	 viewBox="0 0 40 40" style="enable-background:new 0 0 40 40;" xml:space="preserve">
  <path d="M39.1,31.2L23.7,4.6c-0.4-0.6-0.9-1.2-1.5-1.5c-0.6-0.4-1.4-0.6-2.1-0.6S18.6,2.7,18,3.1S16.8,4,16.5,4.6l0,0
    L1,31.2c-0.4,0.6-0.6,1.4-0.6,2.1s0.2,1.5,0.6,2.1s0.9,1.2,1.5,1.5c0.6,0.4,1.4,0.6,2.1,0.6h30.8c0.7,0,1.5-0.2,2.1-0.6
    c0.6-0.4,1.2-0.9,1.5-1.5c0.4-0.6,0.6-1.4,0.6-2.1C39.7,32.6,39.5,31.9,39.1,31.2L39.1,31.2z M18.7,16.5c0-0.4,0.1-0.7,0.4-1
    s0.6-0.4,1-0.4s0.7,0.1,1,0.4c0.3,0.3,0.4,0.6,0.4,1v7c0,0.4-0.1,0.7-0.4,1s-0.6,0.4-1,0.4s-0.7-0.1-1-0.4s-0.4-0.6-0.4-1V16.5z
    M20.1,31.9c-0.4,0-0.8-0.1-1.2-0.4c-0.3-0.2-0.6-0.6-0.8-0.9c-0.2-0.4-0.2-0.8-0.1-1.2c0.1-0.4,0.3-0.8,0.6-1.1
    c0.3-0.3,0.7-0.5,1.1-0.6s0.8,0,1.2,0.1c0.4,0.2,0.7,0.4,0.9,0.8c0.2,0.3,0.4,0.8,0.4,1.2c0,0.6-0.2,1.1-0.6,1.5
    C21.2,31.7,20.6,31.9,20.1,31.9z" fill="#E2B71D"/>
</svg>
