<?xml version="1.0" encoding="utf-8"?>
<!-- Generator: Adobe Illustrator 26.0.1, SVG Export Plug-In . SVG Version: 6.00 Build 0)  -->
<svg version="1.1" id="Layer_1" xmlns="http://www.w3.org/2000/svg" xmlns:xlink="http://www.w3.org/1999/xlink" x="0px" y="0px"
	 viewBox="0 0 40 40" style="enable-background:new 0 0 40 40;" xml:space="preserve">
<style type="text/css">
	.st0{clip-path:url(#SVGID_00000090986146346714275030000009056346653523615627_);fill:#FFFFFF;}
	.st1{clip-path:url(#SVGID_00000075121895986149507440000007437640740405240202_);fill:#FFFFFF;}
	.st2{clip-path:url(#SVGID_00000119796683286234725820000009162965724679843236_);fill:#FFFEFF;}
	.st3{clip-path:url(#SVGID_00000067205864594621298070000010556687755238690990_);fill:#FFFDFE;}
	.st4{clip-path:url(#SVGID_00000089535893592262886340000006129508483845532084_);fill:#FFFCFE;}
	.st5{clip-path:url(#SVGID_00000097502889566708058790000007639645783743059639_);fill:#FFFBFD;}
	.st6{clip-path:url(#SVGID_00000140731052084517879380000016474480641406450329_);fill:#FFFAFD;}
	.st7{clip-path:url(#SVGID_00000180351718367284210240000016419593764120211602_);fill:#FFF9FD;}
	.st8{clip-path:url(#SVGID_00000033364657213302256730000014230873306788523707_);fill:#FFF8FC;}
	.st9{clip-path:url(#SVGID_00000128448433913233995270000016385704040812926376_);fill:#FFF7FC;}
	.st10{clip-path:url(#SVGID_00000019636194334037288560000003654890155274649270_);fill:#FFF6FC;}
	.st11{clip-path:url(#SVGID_00000066493115244350437370000003994948472355581616_);fill:#FFF5FB;}
	.st12{clip-path:url(#SVGID_00000058576453721742475110000011699109453423378589_);fill:#FFF4FB;}
	.st13{clip-path:url(#SVGID_00000039112624293589002150000011191708553503724435_);fill:#FFF3FA;}
	.st14{clip-path:url(#SVGID_00000097492382092134487850000012095188477903738043_);fill:#FFF2FA;}
	.st15{clip-path:url(#SVGID_00000007386855914193456190000015103502625004377742_);fill:#FFF1FA;}
	.st16{clip-path:url(#SVGID_00000158715770330931040090000014782733767213916601_);fill:#FFF0F9;}
	.st17{clip-path:url(#SVGID_00000083766961281815178140000010970782862519020696_);fill:#FFEFF9;}
	.st18{clip-path:url(#SVGID_00000013174242144440248500000015899169398238784925_);fill:#FFEEF9;}
	.st19{clip-path:url(#SVGID_00000165199808206457172670000012640345159631718298_);fill:#FFEDF8;}
	.st20{clip-path:url(#SVGID_00000040563340125406969390000013717815322213912461_);fill:#FFECF8;}
	.st21{clip-path:url(#SVGID_00000176733112747381401050000009086547557901086607_);fill:#FFEBF7;}
	.st22{clip-path:url(#SVGID_00000176017185377245176590000002833826254579124396_);fill:#FFEAF7;}
	.st23{clip-path:url(#SVGID_00000042703478651141545940000017159684763974603163_);fill:#FFE9F7;}
	.st24{clip-path:url(#SVGID_00000054984881364906906320000004649436005929263527_);fill:#FFE8F6;}
	.st25{clip-path:url(#SVGID_00000075121327578221968450000017496484030707827350_);fill:#FFE7F6;}
	.st26{clip-path:url(#SVGID_00000006673816963218145480000004079400789260875700_);fill:#FFE6F5;}
	.st27{clip-path:url(#SVGID_00000144302075606274068290000014778288475318781871_);fill:#FFE5F5;}
	.st28{clip-path:url(#SVGID_00000145033590091351724640000001755143212770829465_);fill:#FFE4F5;}
	.st29{clip-path:url(#SVGID_00000031167531179908621460000000061132808353968779_);fill:#FFE2F4;}
	.st30{clip-path:url(#SVGID_00000114057096245196907210000009104448352720595113_);fill:#FFE1F4;}
	.st31{clip-path:url(#SVGID_00000052066772094529508900000002839966656167513009_);fill:#FFE0F4;}
	.st32{clip-path:url(#SVGID_00000170983801954289350120000010236067258308391056_);fill:#FFDFF3;}
	.st33{clip-path:url(#SVGID_00000170972872579916063840000001689136169704186281_);fill:#FFDEF3;}
	.st34{clip-path:url(#SVGID_00000153703764506375629360000017042377226730267825_);fill:#FFDDF2;}
	.st35{clip-path:url(#SVGID_00000001651188147934237440000018328492515431164825_);fill:#FFDCF2;}
	.st36{clip-path:url(#SVGID_00000039119531970368819200000006798401004474780334_);fill:#FFDBF2;}
	.st37{clip-path:url(#SVGID_00000026148559538766501660000004342621930930625425_);fill:#FFDAF1;}
	.st38{clip-path:url(#SVGID_00000138559004771967132150000005170706273406124675_);fill:#FFD9F1;}
	.st39{clip-path:url(#SVGID_00000070087161391306662640000010755439972717489837_);fill:#FFD8F0;}
	.st40{clip-path:url(#SVGID_00000047767103877526195770000009203444937971779211_);fill:#FFD7F0;}
	.st41{clip-path:url(#SVGID_00000072991002596514628890000000366459930523601281_);fill:#FFD6F0;}
	.st42{clip-path:url(#SVGID_00000070832388323075008770000015317705894472086705_);fill:#FFD5EF;}
	.st43{clip-path:url(#SVGID_00000056397710756147932020000010553954788750143366_);fill:#FFD4EF;}
	.st44{clip-path:url(#SVGID_00000026139442184744157940000013129459578318688920_);fill:#FFD3EF;}
	.st45{clip-path:url(#SVGID_00000119094368392011398740000012161409372699553427_);fill:#FFD2EE;}
	.st46{fill:#1D1B2B;}
	.st47{fill:#FFFFFF;}
</style>
<g>
	<g>
		<g>
			<g>
				<g>
					<g>
						<defs>
							<path id="SVGID_1_" d="M20.1,0.2c-2.9,0-6.7,0.6-9.6,2.4C8.4,4,6.6,5.8,5.3,8.1C5.2,8.2,5.1,8.4,5,8.6
								c-1.5,2.9-2.2,6.3-2.2,9.6c-0.1,3.5,0,6.7-0.1,10c0,1.4-0.2,3-1.1,4C1,33,0,33.7,0.2,34.7c0.1,0.6,0.8,1,1.3,1.2
								c11.8,5.2,25.3,5.2,37.1-0.1c0.5-0.2,0.9-0.5,1.1-1c0.3-0.8-0.4-1.6-0.9-2.2c-1.9-2.4-1.5-6-1.5-9.2
								c-0.1-4.2,0.1-8.6-1.4-12.6c-0.9-2.4-2.3-4.6-4.1-6.4C28.6,1.3,23.4,0.2,20.1,0.2z"/>
						</defs>
						<clipPath id="SVGID_00000018918372174887251900000015824477832139132297_">
							<use xlink:href="#SVGID_1_"  style="overflow:visible;"/>
						</clipPath>
						
							<rect y="38.8" style="clip-path:url(#SVGID_00000018918372174887251900000015824477832139132297_);fill:#FFFFFF;" width="40" height="2.3"/>
					</g>
					<g>
						<defs>
							<path id="SVGID_00000061450589948466646510000013504075378911607728_" d="M20.1,0.2c-2.9,0-6.7,0.6-9.6,2.4
								C8.4,4,6.6,5.8,5.3,8.1C5.2,8.2,5.1,8.4,5,8.6c-1.5,2.9-2.2,6.3-2.2,9.6c-0.1,3.5,0,6.7-0.1,10c0,1.4-0.2,3-1.1,4
								C1,33,0,33.7,0.2,34.7c0.1,0.6,0.8,1,1.3,1.2c11.8,5.2,25.3,5.2,37.1-0.1c0.5-0.2,0.9-0.5,1.1-1c0.3-0.8-0.4-1.6-0.9-2.2
								c-1.9-2.4-1.5-6-1.5-9.2c-0.1-4.2,0.1-8.6-1.4-12.6c-0.9-2.4-2.3-4.6-4.1-6.4C28.6,1.3,23.4,0.2,20.1,0.2z"/>
						</defs>
						<clipPath id="SVGID_00000055682935648448171650000016603174337301644678_">
							<use xlink:href="#SVGID_00000061450589948466646510000013504075378911607728_"  style="overflow:visible;"/>
						</clipPath>
						
							<rect y="37.9" style="clip-path:url(#SVGID_00000055682935648448171650000016603174337301644678_);fill:#FFFFFF;" width="40" height="0.9"/>
					</g>
					<g>
						<defs>
							<path id="SVGID_00000163034462217135671110000003281837544710597775_" d="M20.1,0.2c-2.9,0-6.7,0.6-9.6,2.4
								C8.4,4,6.6,5.8,5.3,8.1C5.2,8.2,5.1,8.4,5,8.6c-1.5,2.9-2.2,6.3-2.2,9.6c-0.1,3.5,0,6.7-0.1,10c0,1.4-0.2,3-1.1,4
								C1,33,0,33.7,0.2,34.7c0.1,0.6,0.8,1,1.3,1.2c11.8,5.2,25.3,5.2,37.1-0.1c0.5-0.2,0.9-0.5,1.1-1c0.3-0.8-0.4-1.6-0.9-2.2
								c-1.9-2.4-1.5-6-1.5-9.2c-0.1-4.2,0.1-8.6-1.4-12.6c-0.9-2.4-2.3-4.6-4.1-6.4C28.6,1.3,23.4,0.2,20.1,0.2z"/>
						</defs>
						<clipPath id="SVGID_00000075864108932851334380000002986285549391122838_">
							<use xlink:href="#SVGID_00000163034462217135671110000003281837544710597775_"  style="overflow:visible;"/>
						</clipPath>
						
							<rect y="37" style="clip-path:url(#SVGID_00000075864108932851334380000002986285549391122838_);fill:#FFFEFF;" width="40" height="0.9"/>
					</g>
					<g>
						<defs>
							<path id="SVGID_00000006692677491398917330000017482009431168088462_" d="M20.1,0.2c-2.9,0-6.7,0.6-9.6,2.4
								C8.4,4,6.6,5.8,5.3,8.1C5.2,8.2,5.1,8.4,5,8.6c-1.5,2.9-2.2,6.3-2.2,9.6c-0.1,3.5,0,6.7-0.1,10c0,1.4-0.2,3-1.1,4
								C1,33,0,33.7,0.2,34.7c0.1,0.6,0.8,1,1.3,1.2c11.8,5.2,25.3,5.2,37.1-0.1c0.5-0.2,0.9-0.5,1.1-1c0.3-0.8-0.4-1.6-0.9-2.2
								c-1.9-2.4-1.5-6-1.5-9.2c-0.1-4.2,0.1-8.6-1.4-12.6c-0.9-2.4-2.3-4.6-4.1-6.4C28.6,1.3,23.4,0.2,20.1,0.2z"/>
						</defs>
						<clipPath id="SVGID_00000003075014919243425030000011766347674950723261_">
							<use xlink:href="#SVGID_00000006692677491398917330000017482009431168088462_"  style="overflow:visible;"/>
						</clipPath>
						
							<rect y="36.2" style="clip-path:url(#SVGID_00000003075014919243425030000011766347674950723261_);fill:#FFFDFE;" width="40" height="0.9"/>
					</g>
					<g>
						<defs>
							<path id="SVGID_00000141442324025079556200000011100813681160334496_" d="M20.1,0.2c-2.9,0-6.7,0.6-9.6,2.4
								C8.4,4,6.6,5.8,5.3,8.1C5.2,8.2,5.1,8.4,5,8.6c-1.5,2.9-2.2,6.3-2.2,9.6c-0.1,3.5,0,6.7-0.1,10c0,1.4-0.2,3-1.1,4
								C1,33,0,33.7,0.2,34.7c0.1,0.6,0.8,1,1.3,1.2c11.8,5.2,25.3,5.2,37.1-0.1c0.5-0.2,0.9-0.5,1.1-1c0.3-0.8-0.4-1.6-0.9-2.2
								c-1.9-2.4-1.5-6-1.5-9.2c-0.1-4.2,0.1-8.6-1.4-12.6c-0.9-2.4-2.3-4.6-4.1-6.4C28.6,1.3,23.4,0.2,20.1,0.2z"/>
						</defs>
						<clipPath id="SVGID_00000012438998958180247690000011278953616519101884_">
							<use xlink:href="#SVGID_00000141442324025079556200000011100813681160334496_"  style="overflow:visible;"/>
						</clipPath>
						
							<rect y="35.3" style="clip-path:url(#SVGID_00000012438998958180247690000011278953616519101884_);fill:#FFFCFE;" width="40" height="0.9"/>
					</g>
					<g>
						<defs>
							<path id="SVGID_00000011004148776498408480000017310563633542503075_" d="M20.1,0.2c-2.9,0-6.7,0.6-9.6,2.4
								C8.4,4,6.6,5.8,5.3,8.1C5.2,8.2,5.1,8.4,5,8.6c-1.5,2.9-2.2,6.3-2.2,9.6c-0.1,3.5,0,6.7-0.1,10c0,1.4-0.2,3-1.1,4
								C1,33,0,33.7,0.2,34.7c0.1,0.6,0.8,1,1.3,1.2c11.8,5.2,25.3,5.2,37.1-0.1c0.5-0.2,0.9-0.5,1.1-1c0.3-0.8-0.4-1.6-0.9-2.2
								c-1.9-2.4-1.5-6-1.5-9.2c-0.1-4.2,0.1-8.6-1.4-12.6c-0.9-2.4-2.3-4.6-4.1-6.4C28.6,1.3,23.4,0.2,20.1,0.2z"/>
						</defs>
						<clipPath id="SVGID_00000144330688052182505440000016428669231102353283_">
							<use xlink:href="#SVGID_00000011004148776498408480000017310563633542503075_"  style="overflow:visible;"/>
						</clipPath>
						
							<rect y="34.4" style="clip-path:url(#SVGID_00000144330688052182505440000016428669231102353283_);fill:#FFFBFD;" width="40" height="0.9"/>
					</g>
					<g>
						<defs>
							<path id="SVGID_00000155850701760738328060000010413364524085188518_" d="M20.1,0.2c-2.9,0-6.7,0.6-9.6,2.4
								C8.4,4,6.6,5.8,5.3,8.1C5.2,8.2,5.1,8.4,5,8.6c-1.5,2.9-2.2,6.3-2.2,9.6c-0.1,3.5,0,6.7-0.1,10c0,1.4-0.2,3-1.1,4
								C1,33,0,33.7,0.2,34.7c0.1,0.6,0.8,1,1.3,1.2c11.8,5.2,25.3,5.2,37.1-0.1c0.5-0.2,0.9-0.5,1.1-1c0.3-0.8-0.4-1.6-0.9-2.2
								c-1.9-2.4-1.5-6-1.5-9.2c-0.1-4.2,0.1-8.6-1.4-12.6c-0.9-2.4-2.3-4.6-4.1-6.4C28.6,1.3,23.4,0.2,20.1,0.2z"/>
						</defs>
						<clipPath id="SVGID_00000048473522845518449670000008113787965347178399_">
							<use xlink:href="#SVGID_00000155850701760738328060000010413364524085188518_"  style="overflow:visible;"/>
						</clipPath>
						
							<rect y="33.6" style="clip-path:url(#SVGID_00000048473522845518449670000008113787965347178399_);fill:#FFFAFD;" width="40" height="0.9"/>
					</g>
					<g>
						<defs>
							<path id="SVGID_00000137131541068540407790000016247830109529001619_" d="M20.1,0.2c-2.9,0-6.7,0.6-9.6,2.4
								C8.4,4,6.6,5.8,5.3,8.1C5.2,8.2,5.1,8.4,5,8.6c-1.5,2.9-2.2,6.3-2.2,9.6c-0.1,3.5,0,6.7-0.1,10c0,1.4-0.2,3-1.1,4
								C1,33,0,33.7,0.2,34.7c0.1,0.6,0.8,1,1.3,1.2c11.8,5.2,25.3,5.2,37.1-0.1c0.5-0.2,0.9-0.5,1.1-1c0.3-0.8-0.4-1.6-0.9-2.2
								c-1.9-2.4-1.5-6-1.5-9.2c-0.1-4.2,0.1-8.6-1.4-12.6c-0.9-2.4-2.3-4.6-4.1-6.4C28.6,1.3,23.4,0.2,20.1,0.2z"/>
						</defs>
						<clipPath id="SVGID_00000108272877519578440370000001025939932002251165_">
							<use xlink:href="#SVGID_00000137131541068540407790000016247830109529001619_"  style="overflow:visible;"/>
						</clipPath>
						
							<rect y="32.7" style="clip-path:url(#SVGID_00000108272877519578440370000001025939932002251165_);fill:#FFF9FD;" width="40" height="0.9"/>
					</g>
					<g>
						<defs>
							<path id="SVGID_00000109720934535134491310000011648451755277933958_" d="M20.1,0.2c-2.9,0-6.7,0.6-9.6,2.4
								C8.4,4,6.6,5.8,5.3,8.1C5.2,8.2,5.1,8.4,5,8.6c-1.5,2.9-2.2,6.3-2.2,9.6c-0.1,3.5,0,6.7-0.1,10c0,1.4-0.2,3-1.1,4
								C1,33,0,33.7,0.2,34.7c0.1,0.6,0.8,1,1.3,1.2c11.8,5.2,25.3,5.2,37.1-0.1c0.5-0.2,0.9-0.5,1.1-1c0.3-0.8-0.4-1.6-0.9-2.2
								c-1.9-2.4-1.5-6-1.5-9.2c-0.1-4.2,0.1-8.6-1.4-12.6c-0.9-2.4-2.3-4.6-4.1-6.4C28.6,1.3,23.4,0.2,20.1,0.2z"/>
						</defs>
						<clipPath id="SVGID_00000162318190728897410240000002855588279128880782_">
							<use xlink:href="#SVGID_00000109720934535134491310000011648451755277933958_"  style="overflow:visible;"/>
						</clipPath>
						
							<rect y="31.8" style="clip-path:url(#SVGID_00000162318190728897410240000002855588279128880782_);fill:#FFF8FC;" width="40" height="0.9"/>
					</g>
					<g>
						<defs>
							<path id="SVGID_00000096747640785436913280000001512168473767242389_" d="M20.1,0.2c-2.9,0-6.7,0.6-9.6,2.4
								C8.4,4,6.6,5.8,5.3,8.1C5.2,8.2,5.1,8.4,5,8.6c-1.5,2.9-2.2,6.3-2.2,9.6c-0.1,3.5,0,6.7-0.1,10c0,1.4-0.2,3-1.1,4
								C1,33,0,33.7,0.2,34.7c0.1,0.6,0.8,1,1.3,1.2c11.8,5.2,25.3,5.2,37.1-0.1c0.5-0.2,0.9-0.5,1.1-1c0.3-0.8-0.4-1.6-0.9-2.2
								c-1.9-2.4-1.5-6-1.5-9.2c-0.1-4.2,0.1-8.6-1.4-12.6c-0.9-2.4-2.3-4.6-4.1-6.4C28.6,1.3,23.4,0.2,20.1,0.2z"/>
						</defs>
						<clipPath id="SVGID_00000063592068306203697200000018347425271494145700_">
							<use xlink:href="#SVGID_00000096747640785436913280000001512168473767242389_"  style="overflow:visible;"/>
						</clipPath>
						
							<rect y="31" style="clip-path:url(#SVGID_00000063592068306203697200000018347425271494145700_);fill:#FFF7FC;" width="40" height="0.9"/>
					</g>
					<g>
						<defs>
							<path id="SVGID_00000013157299449276695760000003349513374129929912_" d="M20.1,0.2c-2.9,0-6.7,0.6-9.6,2.4
								C8.4,4,6.6,5.8,5.3,8.1C5.2,8.2,5.1,8.4,5,8.6c-1.5,2.9-2.2,6.3-2.2,9.6c-0.1,3.5,0,6.7-0.1,10c0,1.4-0.2,3-1.1,4
								C1,33,0,33.7,0.2,34.7c0.1,0.6,0.8,1,1.3,1.2c11.8,5.2,25.3,5.2,37.1-0.1c0.5-0.2,0.9-0.5,1.1-1c0.3-0.8-0.4-1.6-0.9-2.2
								c-1.9-2.4-1.5-6-1.5-9.2c-0.1-4.2,0.1-8.6-1.4-12.6c-0.9-2.4-2.3-4.6-4.1-6.4C28.6,1.3,23.4,0.2,20.1,0.2z"/>
						</defs>
						<clipPath id="SVGID_00000160167297034968768660000008956667901020093587_">
							<use xlink:href="#SVGID_00000013157299449276695760000003349513374129929912_"  style="overflow:visible;"/>
						</clipPath>
						
							<rect y="30.1" style="clip-path:url(#SVGID_00000160167297034968768660000008956667901020093587_);fill:#FFF6FC;" width="40" height="0.9"/>
					</g>
					<g>
						<defs>
							<path id="SVGID_00000072961236756052102270000006627217966794170288_" d="M20.1,0.2c-2.9,0-6.7,0.6-9.6,2.4
								C8.4,4,6.6,5.8,5.3,8.1C5.2,8.2,5.1,8.4,5,8.6c-1.5,2.9-2.2,6.3-2.2,9.6c-0.1,3.5,0,6.7-0.1,10c0,1.4-0.2,3-1.1,4
								C1,33,0,33.7,0.2,34.7c0.1,0.6,0.8,1,1.3,1.2c11.8,5.2,25.3,5.2,37.1-0.1c0.5-0.2,0.9-0.5,1.1-1c0.3-0.8-0.4-1.6-0.9-2.2
								c-1.9-2.4-1.5-6-1.5-9.2c-0.1-4.2,0.1-8.6-1.4-12.6c-0.9-2.4-2.3-4.6-4.1-6.4C28.6,1.3,23.4,0.2,20.1,0.2z"/>
						</defs>
						<clipPath id="SVGID_00000061451857290518586430000006541355441525342346_">
							<use xlink:href="#SVGID_00000072961236756052102270000006627217966794170288_"  style="overflow:visible;"/>
						</clipPath>
						
							<rect y="29.2" style="clip-path:url(#SVGID_00000061451857290518586430000006541355441525342346_);fill:#FFF5FB;" width="40" height="0.9"/>
					</g>
					<g>
						<defs>
							<path id="SVGID_00000120542686423071063450000000505450966208064155_" d="M20.1,0.2c-2.9,0-6.7,0.6-9.6,2.4
								C8.4,4,6.6,5.8,5.3,8.1C5.2,8.2,5.1,8.4,5,8.6c-1.5,2.9-2.2,6.3-2.2,9.6c-0.1,3.5,0,6.7-0.1,10c0,1.4-0.2,3-1.1,4
								C1,33,0,33.7,0.2,34.7c0.1,0.6,0.8,1,1.3,1.2c11.8,5.2,25.3,5.2,37.1-0.1c0.5-0.2,0.9-0.5,1.1-1c0.3-0.8-0.4-1.6-0.9-2.2
								c-1.9-2.4-1.5-6-1.5-9.2c-0.1-4.2,0.1-8.6-1.4-12.6c-0.9-2.4-2.3-4.6-4.1-6.4C28.6,1.3,23.4,0.2,20.1,0.2z"/>
						</defs>
						<clipPath id="SVGID_00000133528992170648054940000016960040424049888420_">
							<use xlink:href="#SVGID_00000120542686423071063450000000505450966208064155_"  style="overflow:visible;"/>
						</clipPath>
						
							<rect y="28.4" style="clip-path:url(#SVGID_00000133528992170648054940000016960040424049888420_);fill:#FFF4FB;" width="40" height="0.9"/>
					</g>
					<g>
						<defs>
							<path id="SVGID_00000008119827539101434540000000687617348997178507_" d="M20.1,0.2c-2.9,0-6.7,0.6-9.6,2.4
								C8.4,4,6.6,5.8,5.3,8.1C5.2,8.2,5.1,8.4,5,8.6c-1.5,2.9-2.2,6.3-2.2,9.6c-0.1,3.5,0,6.7-0.1,10c0,1.4-0.2,3-1.1,4
								C1,33,0,33.7,0.2,34.7c0.1,0.6,0.8,1,1.3,1.2c11.8,5.2,25.3,5.2,37.1-0.1c0.5-0.2,0.9-0.5,1.1-1c0.3-0.8-0.4-1.6-0.9-2.2
								c-1.9-2.4-1.5-6-1.5-9.2c-0.1-4.2,0.1-8.6-1.4-12.6c-0.9-2.4-2.3-4.6-4.1-6.4C28.6,1.3,23.4,0.2,20.1,0.2z"/>
						</defs>
						<clipPath id="SVGID_00000064331356223243395160000010623984466305916805_">
							<use xlink:href="#SVGID_00000008119827539101434540000000687617348997178507_"  style="overflow:visible;"/>
						</clipPath>
						
							<rect y="27.5" style="clip-path:url(#SVGID_00000064331356223243395160000010623984466305916805_);fill:#FFF3FA;" width="40" height="0.9"/>
					</g>
					<g>
						<defs>
							<path id="SVGID_00000171682524410186990790000005811129307630537647_" d="M20.1,0.2c-2.9,0-6.7,0.6-9.6,2.4
								C8.4,4,6.6,5.8,5.3,8.1C5.2,8.2,5.1,8.4,5,8.6c-1.5,2.9-2.2,6.3-2.2,9.6c-0.1,3.5,0,6.7-0.1,10c0,1.4-0.2,3-1.1,4
								C1,33,0,33.7,0.2,34.7c0.1,0.6,0.8,1,1.3,1.2c11.8,5.2,25.3,5.2,37.1-0.1c0.5-0.2,0.9-0.5,1.1-1c0.3-0.8-0.4-1.6-0.9-2.2
								c-1.9-2.4-1.5-6-1.5-9.2c-0.1-4.2,0.1-8.6-1.4-12.6c-0.9-2.4-2.3-4.6-4.1-6.4C28.6,1.3,23.4,0.2,20.1,0.2z"/>
						</defs>
						<clipPath id="SVGID_00000078763078787120445770000007001818294259582600_">
							<use xlink:href="#SVGID_00000171682524410186990790000005811129307630537647_"  style="overflow:visible;"/>
						</clipPath>
						
							<rect y="26.6" style="clip-path:url(#SVGID_00000078763078787120445770000007001818294259582600_);fill:#FFF2FA;" width="40" height="0.9"/>
					</g>
					<g>
						<defs>
							<path id="SVGID_00000065050872124673854550000011491961441940586880_" d="M20.1,0.2c-2.9,0-6.7,0.6-9.6,2.4
								C8.4,4,6.6,5.8,5.3,8.1C5.2,8.2,5.1,8.4,5,8.6c-1.5,2.9-2.2,6.3-2.2,9.6c-0.1,3.5,0,6.7-0.1,10c0,1.4-0.2,3-1.1,4
								C1,33,0,33.7,0.2,34.7c0.1,0.6,0.8,1,1.3,1.2c11.8,5.2,25.3,5.2,37.1-0.1c0.5-0.2,0.9-0.5,1.1-1c0.3-0.8-0.4-1.6-0.9-2.2
								c-1.9-2.4-1.5-6-1.5-9.2c-0.1-4.2,0.1-8.6-1.4-12.6c-0.9-2.4-2.3-4.6-4.1-6.4C28.6,1.3,23.4,0.2,20.1,0.2z"/>
						</defs>
						<clipPath id="SVGID_00000057131134804002396060000009557613862229203384_">
							<use xlink:href="#SVGID_00000065050872124673854550000011491961441940586880_"  style="overflow:visible;"/>
						</clipPath>
						
							<rect y="25.8" style="clip-path:url(#SVGID_00000057131134804002396060000009557613862229203384_);fill:#FFF1FA;" width="40" height="0.9"/>
					</g>
					<g>
						<defs>
							<path id="SVGID_00000087385040504023843390000018418788957200632503_" d="M20.1,0.2c-2.9,0-6.7,0.6-9.6,2.4
								C8.4,4,6.6,5.8,5.3,8.1C5.2,8.2,5.1,8.4,5,8.6c-1.5,2.9-2.2,6.3-2.2,9.6c-0.1,3.5,0,6.7-0.1,10c0,1.4-0.2,3-1.1,4
								C1,33,0,33.7,0.2,34.7c0.1,0.6,0.8,1,1.3,1.2c11.8,5.2,25.3,5.2,37.1-0.1c0.5-0.2,0.9-0.5,1.1-1c0.3-0.8-0.4-1.6-0.9-2.2
								c-1.9-2.4-1.5-6-1.5-9.2c-0.1-4.2,0.1-8.6-1.4-12.6c-0.9-2.4-2.3-4.6-4.1-6.4C28.6,1.3,23.4,0.2,20.1,0.2z"/>
						</defs>
						<clipPath id="SVGID_00000076563080506624790950000010371028636572745404_">
							<use xlink:href="#SVGID_00000087385040504023843390000018418788957200632503_"  style="overflow:visible;"/>
						</clipPath>
						
							<rect y="24.9" style="clip-path:url(#SVGID_00000076563080506624790950000010371028636572745404_);fill:#FFF0F9;" width="40" height="0.9"/>
					</g>
					<g>
						<defs>
							<path id="SVGID_00000101804543001505160640000015307778896616661144_" d="M20.1,0.2c-2.9,0-6.7,0.6-9.6,2.4
								C8.4,4,6.6,5.8,5.3,8.1C5.2,8.2,5.1,8.4,5,8.6c-1.5,2.9-2.2,6.3-2.2,9.6c-0.1,3.5,0,6.7-0.1,10c0,1.4-0.2,3-1.1,4
								C1,33,0,33.7,0.2,34.7c0.1,0.6,0.8,1,1.3,1.2c11.8,5.2,25.3,5.2,37.1-0.1c0.5-0.2,0.9-0.5,1.1-1c0.3-0.8-0.4-1.6-0.9-2.2
								c-1.9-2.4-1.5-6-1.5-9.2c-0.1-4.2,0.1-8.6-1.4-12.6c-0.9-2.4-2.3-4.6-4.1-6.4C28.6,1.3,23.4,0.2,20.1,0.2z"/>
						</defs>
						<clipPath id="SVGID_00000013899847274804831830000000233545883125910147_">
							<use xlink:href="#SVGID_00000101804543001505160640000015307778896616661144_"  style="overflow:visible;"/>
						</clipPath>
						
							<rect y="24" style="clip-path:url(#SVGID_00000013899847274804831830000000233545883125910147_);fill:#FFEFF9;" width="40" height="0.9"/>
					</g>
					<g>
						<defs>
							<path id="SVGID_00000117652643455354779510000000732370446844200352_" d="M20.1,0.2c-2.9,0-6.7,0.6-9.6,2.4
								C8.4,4,6.6,5.8,5.3,8.1C5.2,8.2,5.1,8.4,5,8.6c-1.5,2.9-2.2,6.3-2.2,9.6c-0.1,3.5,0,6.7-0.1,10c0,1.4-0.2,3-1.1,4
								C1,33,0,33.7,0.2,34.7c0.1,0.6,0.8,1,1.3,1.2c11.8,5.2,25.3,5.2,37.1-0.1c0.5-0.2,0.9-0.5,1.1-1c0.3-0.8-0.4-1.6-0.9-2.2
								c-1.9-2.4-1.5-6-1.5-9.2c-0.1-4.2,0.1-8.6-1.4-12.6c-0.9-2.4-2.3-4.6-4.1-6.4C28.6,1.3,23.4,0.2,20.1,0.2z"/>
						</defs>
						<clipPath id="SVGID_00000155129756036335704530000000175185976145107875_">
							<use xlink:href="#SVGID_00000117652643455354779510000000732370446844200352_"  style="overflow:visible;"/>
						</clipPath>
						
							<rect y="23.1" style="clip-path:url(#SVGID_00000155129756036335704530000000175185976145107875_);fill:#FFEEF9;" width="40" height="0.9"/>
					</g>
					<g>
						<defs>
							<path id="SVGID_00000176745914730401483050000012806336722484400315_" d="M20.1,0.2c-2.9,0-6.7,0.6-9.6,2.4
								C8.4,4,6.6,5.8,5.3,8.1C5.2,8.2,5.1,8.4,5,8.6c-1.5,2.9-2.2,6.3-2.2,9.6c-0.1,3.5,0,6.7-0.1,10c0,1.4-0.2,3-1.1,4
								C1,33,0,33.7,0.2,34.7c0.1,0.6,0.8,1,1.3,1.2c11.8,5.2,25.3,5.2,37.1-0.1c0.5-0.2,0.9-0.5,1.1-1c0.3-0.8-0.4-1.6-0.9-2.2
								c-1.9-2.4-1.5-6-1.5-9.2c-0.1-4.2,0.1-8.6-1.4-12.6c-0.9-2.4-2.3-4.6-4.1-6.4C28.6,1.3,23.4,0.2,20.1,0.2z"/>
						</defs>
						<clipPath id="SVGID_00000060733723242332595490000001634423417351642253_">
							<use xlink:href="#SVGID_00000176745914730401483050000012806336722484400315_"  style="overflow:visible;"/>
						</clipPath>
						
							<rect y="22.3" style="clip-path:url(#SVGID_00000060733723242332595490000001634423417351642253_);fill:#FFEDF8;" width="40" height="0.9"/>
					</g>
					<g>
						<defs>
							<path id="SVGID_00000040550745487777584420000000758410058113256618_" d="M20.1,0.2c-2.9,0-6.7,0.6-9.6,2.4
								C8.4,4,6.6,5.8,5.3,8.1C5.2,8.2,5.1,8.4,5,8.6c-1.5,2.9-2.2,6.3-2.2,9.6c-0.1,3.5,0,6.7-0.1,10c0,1.4-0.2,3-1.1,4
								C1,33,0,33.7,0.2,34.7c0.1,0.6,0.8,1,1.3,1.2c11.8,5.2,25.3,5.2,37.1-0.1c0.5-0.2,0.9-0.5,1.1-1c0.3-0.8-0.4-1.6-0.9-2.2
								c-1.9-2.4-1.5-6-1.5-9.2c-0.1-4.2,0.1-8.6-1.4-12.6c-0.9-2.4-2.3-4.6-4.1-6.4C28.6,1.3,23.4,0.2,20.1,0.2z"/>
						</defs>
						<clipPath id="SVGID_00000091712846254972437900000013214413499904591794_">
							<use xlink:href="#SVGID_00000040550745487777584420000000758410058113256618_"  style="overflow:visible;"/>
						</clipPath>
						
							<rect y="21.4" style="clip-path:url(#SVGID_00000091712846254972437900000013214413499904591794_);fill:#FFECF8;" width="40" height="0.9"/>
					</g>
					<g>
						<defs>
							<path id="SVGID_00000050622890411462128450000006918849132186199463_" d="M20.1,0.2c-2.9,0-6.7,0.6-9.6,2.4
								C8.4,4,6.6,5.8,5.3,8.1C5.2,8.2,5.1,8.4,5,8.6c-1.5,2.9-2.2,6.3-2.2,9.6c-0.1,3.5,0,6.7-0.1,10c0,1.4-0.2,3-1.1,4
								C1,33,0,33.7,0.2,34.7c0.1,0.6,0.8,1,1.3,1.2c11.8,5.2,25.3,5.2,37.1-0.1c0.5-0.2,0.9-0.5,1.1-1c0.3-0.8-0.4-1.6-0.9-2.2
								c-1.9-2.4-1.5-6-1.5-9.2c-0.1-4.2,0.1-8.6-1.4-12.6c-0.9-2.4-2.3-4.6-4.1-6.4C28.6,1.3,23.4,0.2,20.1,0.2z"/>
						</defs>
						<clipPath id="SVGID_00000134956723128218873730000014747212991663680666_">
							<use xlink:href="#SVGID_00000050622890411462128450000006918849132186199463_"  style="overflow:visible;"/>
						</clipPath>
						
							<rect y="20.5" style="clip-path:url(#SVGID_00000134956723128218873730000014747212991663680666_);fill:#FFEBF7;" width="40" height="0.9"/>
					</g>
					<g>
						<defs>
							<path id="SVGID_00000042013878504789517810000002886984029806200970_" d="M20.1,0.2c-2.9,0-6.7,0.6-9.6,2.4
								C8.4,4,6.6,5.8,5.3,8.1C5.2,8.2,5.1,8.4,5,8.6c-1.5,2.9-2.2,6.3-2.2,9.6c-0.1,3.5,0,6.7-0.1,10c0,1.4-0.2,3-1.1,4
								C1,33,0,33.7,0.2,34.7c0.1,0.6,0.8,1,1.3,1.2c11.8,5.2,25.3,5.2,37.1-0.1c0.5-0.2,0.9-0.5,1.1-1c0.3-0.8-0.4-1.6-0.9-2.2
								c-1.9-2.4-1.5-6-1.5-9.2c-0.1-4.2,0.1-8.6-1.4-12.6c-0.9-2.4-2.3-4.6-4.1-6.4C28.6,1.3,23.4,0.2,20.1,0.2z"/>
						</defs>
						<clipPath id="SVGID_00000018227916600075664650000004189574246866099331_">
							<use xlink:href="#SVGID_00000042013878504789517810000002886984029806200970_"  style="overflow:visible;"/>
						</clipPath>
						
							<rect y="19.7" style="clip-path:url(#SVGID_00000018227916600075664650000004189574246866099331_);fill:#FFEAF7;" width="40" height="0.9"/>
					</g>
					<g>
						<defs>
							<path id="SVGID_00000016072037337204008790000009927608052063207089_" d="M20.1,0.2c-2.9,0-6.7,0.6-9.6,2.4
								C8.4,4,6.6,5.8,5.3,8.1C5.2,8.2,5.1,8.4,5,8.6c-1.5,2.9-2.2,6.3-2.2,9.6c-0.1,3.5,0,6.7-0.1,10c0,1.4-0.2,3-1.1,4
								C1,33,0,33.7,0.2,34.7c0.1,0.6,0.8,1,1.3,1.2c11.8,5.2,25.3,5.2,37.1-0.1c0.5-0.2,0.9-0.5,1.1-1c0.3-0.8-0.4-1.6-0.9-2.2
								c-1.9-2.4-1.5-6-1.5-9.2c-0.1-4.2,0.1-8.6-1.4-12.6c-0.9-2.4-2.3-4.6-4.1-6.4C28.6,1.3,23.4,0.2,20.1,0.2z"/>
						</defs>
						<clipPath id="SVGID_00000150807696221521878140000004991997934014485179_">
							<use xlink:href="#SVGID_00000016072037337204008790000009927608052063207089_"  style="overflow:visible;"/>
						</clipPath>
						
							<rect y="18.8" style="clip-path:url(#SVGID_00000150807696221521878140000004991997934014485179_);fill:#FFE9F7;" width="40" height="0.9"/>
					</g>
					<g>
						<defs>
							<path id="SVGID_00000084514207464486415670000003310696959034258854_" d="M20.1,0.2c-2.9,0-6.7,0.6-9.6,2.4
								C8.4,4,6.6,5.8,5.3,8.1C5.2,8.2,5.1,8.4,5,8.6c-1.5,2.9-2.2,6.3-2.2,9.6c-0.1,3.5,0,6.7-0.1,10c0,1.4-0.2,3-1.1,4
								C1,33,0,33.7,0.2,34.7c0.1,0.6,0.8,1,1.3,1.2c11.8,5.2,25.3,5.2,37.1-0.1c0.5-0.2,0.9-0.5,1.1-1c0.3-0.8-0.4-1.6-0.9-2.2
								c-1.9-2.4-1.5-6-1.5-9.2c-0.1-4.2,0.1-8.6-1.4-12.6c-0.9-2.4-2.3-4.6-4.1-6.4C28.6,1.3,23.4,0.2,20.1,0.2z"/>
						</defs>
						<clipPath id="SVGID_00000058578791989943792610000012383172789239653264_">
							<use xlink:href="#SVGID_00000084514207464486415670000003310696959034258854_"  style="overflow:visible;"/>
						</clipPath>
						
							<rect y="17.9" style="clip-path:url(#SVGID_00000058578791989943792610000012383172789239653264_);fill:#FFE8F6;" width="40" height="0.9"/>
					</g>
					<g>
						<defs>
							<path id="SVGID_00000168111191864700588090000007796528425639013510_" d="M20.1,0.2c-2.9,0-6.7,0.6-9.6,2.4
								C8.4,4,6.6,5.8,5.3,8.1C5.2,8.2,5.1,8.4,5,8.6c-1.5,2.9-2.2,6.3-2.2,9.6c-0.1,3.5,0,6.7-0.1,10c0,1.4-0.2,3-1.1,4
								C1,33,0,33.7,0.2,34.7c0.1,0.6,0.8,1,1.3,1.2c11.8,5.2,25.3,5.2,37.1-0.1c0.5-0.2,0.9-0.5,1.1-1c0.3-0.8-0.4-1.6-0.9-2.2
								c-1.9-2.4-1.5-6-1.5-9.2c-0.1-4.2,0.1-8.6-1.4-12.6c-0.9-2.4-2.3-4.6-4.1-6.4C28.6,1.3,23.4,0.2,20.1,0.2z"/>
						</defs>
						<clipPath id="SVGID_00000070078952479914823790000004488696996978778007_">
							<use xlink:href="#SVGID_00000168111191864700588090000007796528425639013510_"  style="overflow:visible;"/>
						</clipPath>
						
							<rect y="17.1" style="clip-path:url(#SVGID_00000070078952479914823790000004488696996978778007_);fill:#FFE7F6;" width="40" height="0.9"/>
					</g>
					<g>
						<defs>
							<path id="SVGID_00000075130085298569226120000004569212675584808839_" d="M20.1,0.2c-2.9,0-6.7,0.6-9.6,2.4
								C8.4,4,6.6,5.8,5.3,8.1C5.2,8.2,5.1,8.4,5,8.6c-1.5,2.9-2.2,6.3-2.2,9.6c-0.1,3.5,0,6.7-0.1,10c0,1.4-0.2,3-1.1,4
								C1,33,0,33.7,0.2,34.7c0.1,0.6,0.8,1,1.3,1.2c11.8,5.2,25.3,5.2,37.1-0.1c0.5-0.2,0.9-0.5,1.1-1c0.3-0.8-0.4-1.6-0.9-2.2
								c-1.9-2.4-1.5-6-1.5-9.2c-0.1-4.2,0.1-8.6-1.4-12.6c-0.9-2.4-2.3-4.6-4.1-6.4C28.6,1.3,23.4,0.2,20.1,0.2z"/>
						</defs>
						<clipPath id="SVGID_00000047766726030502953150000010023485457926448316_">
							<use xlink:href="#SVGID_00000075130085298569226120000004569212675584808839_"  style="overflow:visible;"/>
						</clipPath>
						
							<rect y="16.2" style="clip-path:url(#SVGID_00000047766726030502953150000010023485457926448316_);fill:#FFE6F5;" width="40" height="0.9"/>
					</g>
					<g>
						<defs>
							<path id="SVGID_00000168116181925040745410000002903075994739185055_" d="M20.1,0.2c-2.9,0-6.7,0.6-9.6,2.4
								C8.4,4,6.6,5.8,5.3,8.1C5.2,8.2,5.1,8.4,5,8.6c-1.5,2.9-2.2,6.3-2.2,9.6c-0.1,3.5,0,6.7-0.1,10c0,1.4-0.2,3-1.1,4
								C1,33,0,33.7,0.2,34.7c0.1,0.6,0.8,1,1.3,1.2c11.8,5.2,25.3,5.2,37.1-0.1c0.5-0.2,0.9-0.5,1.1-1c0.3-0.8-0.4-1.6-0.9-2.2
								c-1.9-2.4-1.5-6-1.5-9.2c-0.1-4.2,0.1-8.6-1.4-12.6c-0.9-2.4-2.3-4.6-4.1-6.4C28.6,1.3,23.4,0.2,20.1,0.2z"/>
						</defs>
						<clipPath id="SVGID_00000043452126976694784750000012308186940523659704_">
							<use xlink:href="#SVGID_00000168116181925040745410000002903075994739185055_"  style="overflow:visible;"/>
						</clipPath>
						
							<rect y="15.3" style="clip-path:url(#SVGID_00000043452126976694784750000012308186940523659704_);fill:#FFE5F5;" width="40" height="0.9"/>
					</g>
					<g>
						<defs>
							<path id="SVGID_00000177448109613987390960000011019027865223704209_" d="M20.1,0.2c-2.9,0-6.7,0.6-9.6,2.4
								C8.4,4,6.6,5.8,5.3,8.1C5.2,8.2,5.1,8.4,5,8.6c-1.5,2.9-2.2,6.3-2.2,9.6c-0.1,3.5,0,6.7-0.1,10c0,1.4-0.2,3-1.1,4
								C1,33,0,33.7,0.2,34.7c0.1,0.6,0.8,1,1.3,1.2c11.8,5.2,25.3,5.2,37.1-0.1c0.5-0.2,0.9-0.5,1.1-1c0.3-0.8-0.4-1.6-0.9-2.2
								c-1.9-2.4-1.5-6-1.5-9.2c-0.1-4.2,0.1-8.6-1.4-12.6c-0.9-2.4-2.3-4.6-4.1-6.4C28.6,1.3,23.4,0.2,20.1,0.2z"/>
						</defs>
						<clipPath id="SVGID_00000021812416521141934700000002333976695276009393_">
							<use xlink:href="#SVGID_00000177448109613987390960000011019027865223704209_"  style="overflow:visible;"/>
						</clipPath>
						
							<rect y="14.5" style="clip-path:url(#SVGID_00000021812416521141934700000002333976695276009393_);fill:#FFE4F5;" width="40" height="0.9"/>
					</g>
					<g>
						<defs>
							<path id="SVGID_00000111151405705220863100000001025211950351930558_" d="M20.1,0.2c-2.9,0-6.7,0.6-9.6,2.4
								C8.4,4,6.6,5.8,5.3,8.1C5.2,8.2,5.1,8.4,5,8.6c-1.5,2.9-2.2,6.3-2.2,9.6c-0.1,3.5,0,6.7-0.1,10c0,1.4-0.2,3-1.1,4
								C1,33,0,33.7,0.2,34.7c0.1,0.6,0.8,1,1.3,1.2c11.8,5.2,25.3,5.2,37.1-0.1c0.5-0.2,0.9-0.5,1.1-1c0.3-0.8-0.4-1.6-0.9-2.2
								c-1.9-2.4-1.5-6-1.5-9.2c-0.1-4.2,0.1-8.6-1.4-12.6c-0.9-2.4-2.3-4.6-4.1-6.4C28.6,1.3,23.4,0.2,20.1,0.2z"/>
						</defs>
						<clipPath id="SVGID_00000059989357482531445890000017046315160651017109_">
							<use xlink:href="#SVGID_00000111151405705220863100000001025211950351930558_"  style="overflow:visible;"/>
						</clipPath>
						
							<rect y="13.6" style="clip-path:url(#SVGID_00000059989357482531445890000017046315160651017109_);fill:#FFE2F4;" width="40" height="0.9"/>
					</g>
					<g>
						<defs>
							<path id="SVGID_00000035520961028888308890000003278063309023780273_" d="M20.1,0.2c-2.9,0-6.7,0.6-9.6,2.4
								C8.4,4,6.6,5.8,5.3,8.1C5.2,8.2,5.1,8.4,5,8.6c-1.5,2.9-2.2,6.3-2.2,9.6c-0.1,3.5,0,6.7-0.1,10c0,1.4-0.2,3-1.1,4
								C1,33,0,33.7,0.2,34.7c0.1,0.6,0.8,1,1.3,1.2c11.8,5.2,25.3,5.2,37.1-0.1c0.5-0.2,0.9-0.5,1.1-1c0.3-0.8-0.4-1.6-0.9-2.2
								c-1.9-2.4-1.5-6-1.5-9.2c-0.1-4.2,0.1-8.6-1.4-12.6c-0.9-2.4-2.3-4.6-4.1-6.4C28.6,1.3,23.4,0.2,20.1,0.2z"/>
						</defs>
						<clipPath id="SVGID_00000160892813641910849680000011144828949471446192_">
							<use xlink:href="#SVGID_00000035520961028888308890000003278063309023780273_"  style="overflow:visible;"/>
						</clipPath>
						
							<rect y="12.7" style="clip-path:url(#SVGID_00000160892813641910849680000011144828949471446192_);fill:#FFE1F4;" width="40" height="0.9"/>
					</g>
					<g>
						<defs>
							<path id="SVGID_00000140728387563177599840000012730772879254337939_" d="M20.1,0.2c-2.9,0-6.7,0.6-9.6,2.4
								C8.4,4,6.6,5.8,5.3,8.1C5.2,8.2,5.1,8.4,5,8.6c-1.5,2.9-2.2,6.3-2.2,9.6c-0.1,3.5,0,6.7-0.1,10c0,1.4-0.2,3-1.1,4
								C1,33,0,33.7,0.2,34.7c0.1,0.6,0.8,1,1.3,1.2c11.8,5.2,25.3,5.2,37.1-0.1c0.5-0.2,0.9-0.5,1.1-1c0.3-0.8-0.4-1.6-0.9-2.2
								c-1.9-2.4-1.5-6-1.5-9.2c-0.1-4.2,0.1-8.6-1.4-12.6c-0.9-2.4-2.3-4.6-4.1-6.4C28.6,1.3,23.4,0.2,20.1,0.2z"/>
						</defs>
						<clipPath id="SVGID_00000037688082872228396440000001000391440606982552_">
							<use xlink:href="#SVGID_00000140728387563177599840000012730772879254337939_"  style="overflow:visible;"/>
						</clipPath>
						
							<rect y="11.9" style="clip-path:url(#SVGID_00000037688082872228396440000001000391440606982552_);fill:#FFE0F4;" width="40" height="0.9"/>
					</g>
					<g>
						<defs>
							<path id="SVGID_00000062902141774892129720000006726931906645007260_" d="M20.1,0.2c-2.9,0-6.7,0.6-9.6,2.4
								C8.4,4,6.6,5.8,5.3,8.1C5.2,8.2,5.1,8.4,5,8.6c-1.5,2.9-2.2,6.3-2.2,9.6c-0.1,3.5,0,6.7-0.1,10c0,1.4-0.2,3-1.1,4
								C1,33,0,33.7,0.2,34.7c0.1,0.6,0.8,1,1.3,1.2c11.8,5.2,25.3,5.2,37.1-0.1c0.5-0.2,0.9-0.5,1.1-1c0.3-0.8-0.4-1.6-0.9-2.2
								c-1.9-2.4-1.5-6-1.5-9.2c-0.1-4.2,0.1-8.6-1.4-12.6c-0.9-2.4-2.3-4.6-4.1-6.4C28.6,1.3,23.4,0.2,20.1,0.2z"/>
						</defs>
						<clipPath id="SVGID_00000053539272798156628880000017065418397300399770_">
							<use xlink:href="#SVGID_00000062902141774892129720000006726931906645007260_"  style="overflow:visible;"/>
						</clipPath>
						
							<rect y="11" style="clip-path:url(#SVGID_00000053539272798156628880000017065418397300399770_);fill:#FFDFF3;" width="40" height="0.9"/>
					</g>
					<g>
						<defs>
							<path id="SVGID_00000040547372916521375320000005890058930478112652_" d="M20.1,0.2c-2.9,0-6.7,0.6-9.6,2.4
								C8.4,4,6.6,5.8,5.3,8.1C5.2,8.2,5.1,8.4,5,8.6c-1.5,2.9-2.2,6.3-2.2,9.6c-0.1,3.5,0,6.7-0.1,10c0,1.4-0.2,3-1.1,4
								C1,33,0,33.7,0.2,34.7c0.1,0.6,0.8,1,1.3,1.2c11.8,5.2,25.3,5.2,37.1-0.1c0.5-0.2,0.9-0.5,1.1-1c0.3-0.8-0.4-1.6-0.9-2.2
								c-1.9-2.4-1.5-6-1.5-9.2c-0.1-4.2,0.1-8.6-1.4-12.6c-0.9-2.4-2.3-4.6-4.1-6.4C28.6,1.3,23.4,0.2,20.1,0.2z"/>
						</defs>
						<clipPath id="SVGID_00000160153280092721671810000004859756486784431748_">
							<use xlink:href="#SVGID_00000040547372916521375320000005890058930478112652_"  style="overflow:visible;"/>
						</clipPath>
						
							<rect y="10.1" style="clip-path:url(#SVGID_00000160153280092721671810000004859756486784431748_);fill:#FFDEF3;" width="40" height="0.9"/>
					</g>
					<g>
						<defs>
							<path id="SVGID_00000163059607669502062840000017743019053605817518_" d="M20.1,0.2c-2.9,0-6.7,0.6-9.6,2.4
								C8.4,4,6.6,5.8,5.3,8.1C5.2,8.2,5.1,8.4,5,8.6c-1.5,2.9-2.2,6.3-2.2,9.6c-0.1,3.5,0,6.7-0.1,10c0,1.4-0.2,3-1.1,4
								C1,33,0,33.7,0.2,34.7c0.1,0.6,0.8,1,1.3,1.2c11.8,5.2,25.3,5.2,37.1-0.1c0.5-0.2,0.9-0.5,1.1-1c0.3-0.8-0.4-1.6-0.9-2.2
								c-1.9-2.4-1.5-6-1.5-9.2c-0.1-4.2,0.1-8.6-1.4-12.6c-0.9-2.4-2.3-4.6-4.1-6.4C28.6,1.3,23.4,0.2,20.1,0.2z"/>
						</defs>
						<clipPath id="SVGID_00000151511471683653591520000015804692774727439535_">
							<use xlink:href="#SVGID_00000163059607669502062840000017743019053605817518_"  style="overflow:visible;"/>
						</clipPath>
						
							<rect y="9.3" style="clip-path:url(#SVGID_00000151511471683653591520000015804692774727439535_);fill:#FFDDF2;" width="40" height="0.9"/>
					</g>
					<g>
						<defs>
							<path id="SVGID_00000144318015516876581950000010115243927339900334_" d="M20.1,0.2c-2.9,0-6.7,0.6-9.6,2.4
								C8.4,4,6.6,5.8,5.3,8.1C5.2,8.2,5.1,8.4,5,8.6c-1.5,2.9-2.2,6.3-2.2,9.6c-0.1,3.5,0,6.7-0.1,10c0,1.4-0.2,3-1.1,4
								C1,33,0,33.7,0.2,34.7c0.1,0.6,0.8,1,1.3,1.2c11.8,5.2,25.3,5.2,37.1-0.1c0.5-0.2,0.9-0.5,1.1-1c0.3-0.8-0.4-1.6-0.9-2.2
								c-1.9-2.4-1.5-6-1.5-9.2c-0.1-4.2,0.1-8.6-1.4-12.6c-0.9-2.4-2.3-4.6-4.1-6.4C28.6,1.3,23.4,0.2,20.1,0.2z"/>
						</defs>
						<clipPath id="SVGID_00000132053964521438257980000004376603876963634310_">
							<use xlink:href="#SVGID_00000144318015516876581950000010115243927339900334_"  style="overflow:visible;"/>
						</clipPath>
						
							<rect y="8.4" style="clip-path:url(#SVGID_00000132053964521438257980000004376603876963634310_);fill:#FFDCF2;" width="40" height="0.9"/>
					</g>
					<g>
						<defs>
							<path id="SVGID_00000069375009007884915410000012084705223235533990_" d="M20.1,0.2c-2.9,0-6.7,0.6-9.6,2.4
								C8.4,4,6.6,5.8,5.3,8.1C5.2,8.2,5.1,8.4,5,8.6c-1.5,2.9-2.2,6.3-2.2,9.6c-0.1,3.5,0,6.7-0.1,10c0,1.4-0.2,3-1.1,4
								C1,33,0,33.7,0.2,34.7c0.1,0.6,0.8,1,1.3,1.2c11.8,5.2,25.3,5.2,37.1-0.1c0.5-0.2,0.9-0.5,1.1-1c0.3-0.8-0.4-1.6-0.9-2.2
								c-1.9-2.4-1.5-6-1.5-9.2c-0.1-4.2,0.1-8.6-1.4-12.6c-0.9-2.4-2.3-4.6-4.1-6.4C28.6,1.3,23.4,0.2,20.1,0.2z"/>
						</defs>
						<clipPath id="SVGID_00000027591519312448932060000002674521480899297195_">
							<use xlink:href="#SVGID_00000069375009007884915410000012084705223235533990_"  style="overflow:visible;"/>
						</clipPath>
						
							<rect y="7.5" style="clip-path:url(#SVGID_00000027591519312448932060000002674521480899297195_);fill:#FFDBF2;" width="40" height="0.9"/>
					</g>
					<g>
						<defs>
							<path id="SVGID_00000097466014070156734330000018119008136695687863_" d="M20.1,0.2c-2.9,0-6.7,0.6-9.6,2.4
								C8.4,4,6.6,5.8,5.3,8.1C5.2,8.2,5.1,8.4,5,8.6c-1.5,2.9-2.2,6.3-2.2,9.6c-0.1,3.5,0,6.7-0.1,10c0,1.4-0.2,3-1.1,4
								C1,33,0,33.7,0.2,34.7c0.1,0.6,0.8,1,1.3,1.2c11.8,5.2,25.3,5.2,37.1-0.1c0.5-0.2,0.9-0.5,1.1-1c0.3-0.8-0.4-1.6-0.9-2.2
								c-1.9-2.4-1.5-6-1.5-9.2c-0.1-4.2,0.1-8.6-1.4-12.6c-0.9-2.4-2.3-4.6-4.1-6.4C28.6,1.3,23.4,0.2,20.1,0.2z"/>
						</defs>
						<clipPath id="SVGID_00000083079768499160939580000002773316710753211056_">
							<use xlink:href="#SVGID_00000097466014070156734330000018119008136695687863_"  style="overflow:visible;"/>
						</clipPath>
						
							<rect y="6.6" style="clip-path:url(#SVGID_00000083079768499160939580000002773316710753211056_);fill:#FFDAF1;" width="40" height="0.9"/>
					</g>
					<g>
						<defs>
							<path id="SVGID_00000058584356311605613920000016150045757713579408_" d="M20.1,0.2c-2.9,0-6.7,0.6-9.6,2.4
								C8.4,4,6.6,5.8,5.3,8.1C5.2,8.2,5.1,8.4,5,8.6c-1.5,2.9-2.2,6.3-2.2,9.6c-0.1,3.5,0,6.7-0.1,10c0,1.4-0.2,3-1.1,4
								C1,33,0,33.7,0.2,34.7c0.1,0.6,0.8,1,1.3,1.2c11.8,5.2,25.3,5.2,37.1-0.1c0.5-0.2,0.9-0.5,1.1-1c0.3-0.8-0.4-1.6-0.9-2.2
								c-1.9-2.4-1.5-6-1.5-9.2c-0.1-4.2,0.1-8.6-1.4-12.6c-0.9-2.4-2.3-4.6-4.1-6.4C28.6,1.3,23.4,0.2,20.1,0.2z"/>
						</defs>
						<clipPath id="SVGID_00000075845908238826625400000012510611160665630597_">
							<use xlink:href="#SVGID_00000058584356311605613920000016150045757713579408_"  style="overflow:visible;"/>
						</clipPath>
						
							<rect y="5.8" style="clip-path:url(#SVGID_00000075845908238826625400000012510611160665630597_);fill:#FFD9F1;" width="40" height="0.9"/>
					</g>
					<g>
						<defs>
							<path id="SVGID_00000047757054525194763150000002456340682455169461_" d="M20.1,0.2c-2.9,0-6.7,0.6-9.6,2.4
								C8.4,4,6.6,5.8,5.3,8.1C5.2,8.2,5.1,8.4,5,8.6c-1.5,2.9-2.2,6.3-2.2,9.6c-0.1,3.5,0,6.7-0.1,10c0,1.4-0.2,3-1.1,4
								C1,33,0,33.7,0.2,34.7c0.1,0.6,0.8,1,1.3,1.2c11.8,5.2,25.3,5.2,37.1-0.1c0.5-0.2,0.9-0.5,1.1-1c0.3-0.8-0.4-1.6-0.9-2.2
								c-1.9-2.4-1.5-6-1.5-9.2c-0.1-4.2,0.1-8.6-1.4-12.6c-0.9-2.4-2.3-4.6-4.1-6.4C28.6,1.3,23.4,0.2,20.1,0.2z"/>
						</defs>
						<clipPath id="SVGID_00000051348588743116802470000001633313117524182157_">
							<use xlink:href="#SVGID_00000047757054525194763150000002456340682455169461_"  style="overflow:visible;"/>
						</clipPath>
						
							<rect y="4.9" style="clip-path:url(#SVGID_00000051348588743116802470000001633313117524182157_);fill:#FFD8F0;" width="40" height="0.9"/>
					</g>
					<g>
						<defs>
							<path id="SVGID_00000051382489426439920660000003018019370891297153_" d="M20.1,0.2c-2.9,0-6.7,0.6-9.6,2.4
								C8.4,4,6.6,5.8,5.3,8.1C5.2,8.2,5.1,8.4,5,8.6c-1.5,2.9-2.2,6.3-2.2,9.6c-0.1,3.5,0,6.7-0.1,10c0,1.4-0.2,3-1.1,4
								C1,33,0,33.7,0.2,34.7c0.1,0.6,0.8,1,1.3,1.2c11.8,5.2,25.3,5.2,37.1-0.1c0.5-0.2,0.9-0.5,1.1-1c0.3-0.8-0.4-1.6-0.9-2.2
								c-1.9-2.4-1.5-6-1.5-9.2c-0.1-4.2,0.1-8.6-1.4-12.6c-0.9-2.4-2.3-4.6-4.1-6.4C28.6,1.3,23.4,0.2,20.1,0.2z"/>
						</defs>
						<clipPath id="SVGID_00000059293702624119336140000001360157132647433360_">
							<use xlink:href="#SVGID_00000051382489426439920660000003018019370891297153_"  style="overflow:visible;"/>
						</clipPath>
						
							<rect y="4" style="clip-path:url(#SVGID_00000059293702624119336140000001360157132647433360_);fill:#FFD7F0;" width="40" height="0.9"/>
					</g>
					<g>
						<defs>
							<path id="SVGID_00000170268887129915914900000010352499974422115500_" d="M20.1,0.2c-2.9,0-6.7,0.6-9.6,2.4
								C8.4,4,6.6,5.8,5.3,8.1C5.2,8.2,5.1,8.4,5,8.6c-1.5,2.9-2.2,6.3-2.2,9.6c-0.1,3.5,0,6.7-0.1,10c0,1.4-0.2,3-1.1,4
								C1,33,0,33.7,0.2,34.7c0.1,0.6,0.8,1,1.3,1.2c11.8,5.2,25.3,5.2,37.1-0.1c0.5-0.2,0.9-0.5,1.1-1c0.3-0.8-0.4-1.6-0.9-2.2
								c-1.9-2.4-1.5-6-1.5-9.2c-0.1-4.2,0.1-8.6-1.4-12.6c-0.9-2.4-2.3-4.6-4.1-6.4C28.6,1.3,23.4,0.2,20.1,0.2z"/>
						</defs>
						<clipPath id="SVGID_00000123436790536674588720000012719220988143637644_">
							<use xlink:href="#SVGID_00000170268887129915914900000010352499974422115500_"  style="overflow:visible;"/>
						</clipPath>
						
							<rect y="3.2" style="clip-path:url(#SVGID_00000123436790536674588720000012719220988143637644_);fill:#FFD6F0;" width="40" height="0.9"/>
					</g>
					<g>
						<defs>
							<path id="SVGID_00000003091413043892447630000001266546031989514142_" d="M20.1,0.2c-2.9,0-6.7,0.6-9.6,2.4
								C8.4,4,6.6,5.8,5.3,8.1C5.2,8.2,5.1,8.4,5,8.6c-1.5,2.9-2.2,6.3-2.2,9.6c-0.1,3.5,0,6.7-0.1,10c0,1.4-0.2,3-1.1,4
								C1,33,0,33.7,0.2,34.7c0.1,0.6,0.8,1,1.3,1.2c11.8,5.2,25.3,5.2,37.1-0.1c0.5-0.2,0.9-0.5,1.1-1c0.3-0.8-0.4-1.6-0.9-2.2
								c-1.9-2.4-1.5-6-1.5-9.2c-0.1-4.2,0.1-8.6-1.4-12.6c-0.9-2.4-2.3-4.6-4.1-6.4C28.6,1.3,23.4,0.2,20.1,0.2z"/>
						</defs>
						<clipPath id="SVGID_00000103978116915317622890000010407028949154571157_">
							<use xlink:href="#SVGID_00000003091413043892447630000001266546031989514142_"  style="overflow:visible;"/>
						</clipPath>
						
							<rect y="2.3" style="clip-path:url(#SVGID_00000103978116915317622890000010407028949154571157_);fill:#FFD5EF;" width="40" height="0.9"/>
					</g>
					<g>
						<defs>
							<path id="SVGID_00000176737943936596983000000007461901653307844785_" d="M20.1,0.2c-2.9,0-6.7,0.6-9.6,2.4
								C8.4,4,6.6,5.8,5.3,8.1C5.2,8.2,5.1,8.4,5,8.6c-1.5,2.9-2.2,6.3-2.2,9.6c-0.1,3.5,0,6.7-0.1,10c0,1.4-0.2,3-1.1,4
								C1,33,0,33.7,0.2,34.7c0.1,0.6,0.8,1,1.3,1.2c11.8,5.2,25.3,5.2,37.1-0.1c0.5-0.2,0.9-0.5,1.1-1c0.3-0.8-0.4-1.6-0.9-2.2
								c-1.9-2.4-1.5-6-1.5-9.2c-0.1-4.2,0.1-8.6-1.4-12.6c-0.9-2.4-2.3-4.6-4.1-6.4C28.6,1.3,23.4,0.2,20.1,0.2z"/>
						</defs>
						<clipPath id="SVGID_00000168110594437402215340000007824184069559080593_">
							<use xlink:href="#SVGID_00000176737943936596983000000007461901653307844785_"  style="overflow:visible;"/>
						</clipPath>
						
							<rect y="1.4" style="clip-path:url(#SVGID_00000168110594437402215340000007824184069559080593_);fill:#FFD4EF;" width="40" height="0.9"/>
					</g>
					<g>
						<defs>
							<path id="SVGID_00000018232783389487562290000008517843368293322889_" d="M20.1,0.2c-2.9,0-6.7,0.6-9.6,2.4
								C8.4,4,6.6,5.8,5.3,8.1C5.2,8.2,5.1,8.4,5,8.6c-1.5,2.9-2.2,6.3-2.2,9.6c-0.1,3.5,0,6.7-0.1,10c0,1.4-0.2,3-1.1,4
								C1,33,0,33.7,0.2,34.7c0.1,0.6,0.8,1,1.3,1.2c11.8,5.2,25.3,5.2,37.1-0.1c0.5-0.2,0.9-0.5,1.1-1c0.3-0.8-0.4-1.6-0.9-2.2
								c-1.9-2.4-1.5-6-1.5-9.2c-0.1-4.2,0.1-8.6-1.4-12.6c-0.9-2.4-2.3-4.6-4.1-6.4C28.6,1.3,23.4,0.2,20.1,0.2z"/>
						</defs>
						<clipPath id="SVGID_00000045582657913821574560000008704575164935371400_">
							<use xlink:href="#SVGID_00000018232783389487562290000008517843368293322889_"  style="overflow:visible;"/>
						</clipPath>
						
							<rect y="0.6" style="clip-path:url(#SVGID_00000045582657913821574560000008704575164935371400_);fill:#FFD3EF;" width="40" height="0.9"/>
					</g>
					<g>
						<defs>
							<path id="SVGID_00000051377637767468729150000006262176937780331137_" d="M20.1,0.2c-2.9,0-6.7,0.6-9.6,2.4
								C8.4,4,6.6,5.8,5.3,8.1C5.2,8.2,5.1,8.4,5,8.6c-1.5,2.9-2.2,6.3-2.2,9.6c-0.1,3.5,0,6.7-0.1,10c0,1.4-0.2,3-1.1,4
								C1,33,0,33.7,0.2,34.7c0.1,0.6,0.8,1,1.3,1.2c11.8,5.2,25.3,5.2,37.1-0.1c0.5-0.2,0.9-0.5,1.1-1c0.3-0.8-0.4-1.6-0.9-2.2
								c-1.9-2.4-1.5-6-1.5-9.2c-0.1-4.2,0.1-8.6-1.4-12.6c-0.9-2.4-2.3-4.6-4.1-6.4C28.6,1.3,23.4,0.2,20.1,0.2z"/>
						</defs>
						<clipPath id="SVGID_00000178168343591342257400000000584671388335673478_">
							<use xlink:href="#SVGID_00000051377637767468729150000006262176937780331137_"  style="overflow:visible;"/>
						</clipPath>
						
							<rect y="0.2" style="clip-path:url(#SVGID_00000178168343591342257400000000584671388335673478_);fill:#FFD2EE;" width="40" height="0.4"/>
					</g>
				</g>
				<path class="st46" d="M20,40c-6.3,0-12.6-1.3-18.5-3.9c-0.6-0.3-1.3-0.6-1.4-1.4c-0.2-0.9,0.4-1.5,1-2.1
					c0.2-0.2,0.3-0.3,0.5-0.5c0.8-1,1-2.5,1-3.9c0.1-1.8,0.1-3.6,0.1-5.5c0-1.5,0-3,0-4.6c0.1-3.7,0.9-7,2.3-9.7
					C4.9,8.3,5,8.1,5.1,7.9c1.2-2.2,3-4.1,5.2-5.5c3.5-2.2,8-2.4,9.8-2.4c3.4,0,8.6,1.1,11.8,4.4c1.8,1.8,3.3,4.1,4.2,6.5
					c1.3,3.6,1.4,7.6,1.4,11.4v1.2c0,0.5,0,1.1,0,1.6c0,2.7-0.1,5.5,1.5,7.4l0.1,0.2c0.5,0.6,1.1,1.4,0.8,2.2
					c-0.2,0.6-0.7,0.9-1.2,1.1C32.8,38.7,26.4,40,20,40z M20.1,0.4c-1.7,0-6.1,0.2-9.5,2.4C8.4,4.2,6.7,6,5.5,8.2
					C5.4,8.3,5.3,8.5,5.2,8.7c-1.4,2.6-2.1,5.9-2.2,9.5c0,1.6,0,3.1,0,4.5c0,1.9,0,3.6-0.1,5.5c-0.1,1.5-0.2,3.1-1.1,4.2
					c-0.1,0.2-0.3,0.4-0.5,0.5c-0.5,0.6-1,1.1-0.9,1.7c0.1,0.5,0.7,0.8,1.2,1.1c11.7,5.2,25.2,5.2,36.9-0.1c0.4-0.2,0.9-0.4,1-0.8
					c0.2-0.6-0.3-1.3-0.8-1.8l-0.1-0.2C37,30.7,37,27.9,37,25.1c0-0.5,0-1.1,0-1.6v-1.2c0-3.8-0.1-7.7-1.4-11.3
					c-0.9-2.4-2.3-4.6-4.1-6.3C28.5,1.5,23.4,0.4,20.1,0.4z"/>
			</g>
			<g>
				<path class="st46" d="M21.9,27c-0.1,0-0.3-0.1-0.3-0.2l0,0c0-0.5,0-1.2-0.2-1.8c-0.2-0.6-0.7-0.9-1.4-0.9s-1.2,0.3-1.4,0.9
					c-0.2,0.6-0.2,1.3-0.2,1.8l0,0c0,0.1-0.1,0.2-0.3,0.2c-0.1,0-0.3-0.1-0.3-0.2c0-0.5,0-1.3,0.2-1.9c0.3-0.8,1-1.2,1.9-1.2
					s1.6,0.4,1.9,1.2c0.2,0.6,0.2,1.4,0.2,1.9C22.2,26.9,22.1,27,21.9,27z"/>
			</g>
			<g>
				<path class="st46" d="M14.5,22.4h-2.4c-0.7,0-1.3-0.6-1.3-1.3v-6.7c0-0.7,0.6-1.3,1.3-1.3h2.4c0.7,0,1.3,0.6,1.3,1.3v6.7
					C15.8,21.8,15.2,22.4,14.5,22.4z"/>
				<path class="st46" d="M13.3,22.6c-1.5,0-2.7-1.3-2.7-2.8v-4.1c0-1.5,1.2-2.8,2.7-2.8s2.7,1.3,2.7,2.8v4.1
					C16,21.3,14.8,22.6,13.3,22.6z M13.3,13.3c-1.3,0-2.3,1.1-2.3,2.4v4.1c0,1.3,1,2.4,2.3,2.4s2.3-1.1,2.3-2.4v-4.1
					C15.6,14.4,14.6,13.3,13.3,13.3z"/>
			</g>
			<g>
				<path class="st46" d="M27.6,22.4h-2.4c-0.7,0-1.3-0.6-1.3-1.3v-6.7c0-0.7,0.6-1.3,1.3-1.3h2.4c0.7,0,1.3,0.6,1.3,1.3v6.7
					C28.9,21.8,28.3,22.4,27.6,22.4z"/>
				<path class="st46" d="M26.4,22.6c-1.5,0-2.7-1.3-2.7-2.8v-4.1c0-1.5,1.2-2.8,2.7-2.8s2.7,1.3,2.7,2.8v4.1
					C29.1,21.3,27.9,22.6,26.4,22.6z M26.4,13.3c-1.3,0-2.3,1.1-2.3,2.4v4.1c0,1.3,1,2.4,2.3,2.4s2.3-1.1,2.3-2.4v-4.1
					C28.7,14.4,27.7,13.3,26.4,13.3z"/>
			</g>
			<g>
				<path class="st47" d="M13.7,14.6c-0.2,0-0.5,0.1-0.7,0.2c-0.3,0.2-0.3,0.6,0,0.8l0.3,0.2c0.2,0.2,0.3,0.6,0,0.8L13,16.9
					c-0.3,0.2-0.2,0.7,0.1,0.8c0.2,0.1,0.4,0.2,0.6,0.2c0.8,0,1.4-0.7,1.4-1.6C15.1,15.3,14.4,14.6,13.7,14.6z"/>
			</g>
			<g>
				<path class="st47" d="M26.7,14.6c-0.2,0-0.5,0.1-0.7,0.2c-0.3,0.2-0.3,0.6,0,0.8l0.3,0.2c0.2,0.2,0.3,0.6,0,0.8L26,16.9
					c-0.3,0.2-0.2,0.7,0.1,0.8c0.2,0.1,0.4,0.2,0.6,0.2c0.8,0,1.4-0.7,1.4-1.6C28.1,15.3,27.5,14.6,26.7,14.6z"/>
			</g>
			<g>
				<ellipse class="st47" cx="14.6" cy="20.5" rx="0.4" ry="0.5"/>
			</g>
			<g>
				<ellipse class="st47" cx="27.7" cy="20.5" rx="0.4" ry="0.5"/>
			</g>
		</g>
	</g>
</g>
</svg>
