<svg width="32" height="32" viewBox="0 0 32 32" fill="none" xmlns="http://www.w3.org/2000/svg">
<path fill-rule="evenodd" clip-rule="evenodd" d="M27.2814 15.8764L27 15.5856V25.181C27 26.8378 25.6569 28.181 24 28.181H8C6.34315 28.181 5 26.8378 5 25.181V15.5856L4.71858 15.8764C4.33449 16.2733 3.70141 16.2836 3.30455 15.8995C2.90769 15.5155 2.89734 14.8824 3.28142 14.4855L5.28142 12.419L5.29526 12.405L13.8858 3.87161C15.0557 2.70946 16.9443 2.70946 18.1142 3.87161L26.7047 12.405L26.7186 12.419L28.7186 14.4855C29.1027 14.8824 29.0923 15.5155 28.6954 15.8995C28.2986 16.2836 27.6655 16.2733 27.2814 15.8764ZM17 19.181C17 18.6287 16.5523 18.181 16 18.181C15.4477 18.181 15 18.6287 15 19.181V23.181C15 23.7333 15.4477 24.181 16 24.181C16.5523 24.181 17 23.7333 17 23.181V19.181Z" fill="#D53893"/>
</svg>
