<svg width="16" height="21" viewBox="0 0 16 21" fill="none" xmlns="http://www.w3.org/2000/svg">
<path d="M8.00011 14.8674C9.15812 14.8662 10.2683 14.4057 11.0872 13.5868C11.906 12.768 12.3666 11.6578 12.3678 10.4998V4.67624C12.3678 3.51787 11.9076 2.40694 11.0885 1.58785C10.2694 0.768755 9.15849 0.308594 8.00011 0.308594C6.84174 0.308594 5.73081 0.768755 4.91172 1.58785C4.09263 2.40694 3.63247 3.51787 3.63247 4.67624V10.4998C3.63367 11.6578 4.09422 12.768 4.91305 13.5868C5.73188 14.4057 6.84211 14.8662 8.00011 14.8674ZM5.08835 4.67624C5.08835 3.90399 5.39512 3.16337 5.94119 2.61731C6.48725 2.07125 7.22787 1.76448 8.00011 1.76448C8.77236 1.76448 9.51298 2.07125 10.059 2.61731C10.6051 3.16337 10.9119 3.90399 10.9119 4.67624V10.4998C10.9119 11.272 10.6051 12.0126 10.059 12.5587C9.51298 13.1048 8.77236 13.4115 8.00011 13.4115C7.22787 13.4115 6.48725 13.1048 5.94119 12.5587C5.39512 12.0126 5.08835 11.272 5.08835 10.4998V4.67624ZM8.72806 17.7428V19.963C8.72806 20.1561 8.65136 20.3412 8.51485 20.4777C8.37833 20.6143 8.19318 20.6909 8.00011 20.6909C7.80705 20.6909 7.6219 20.6143 7.48538 20.4777C7.34887 20.3412 7.27217 20.1561 7.27217 19.963V17.7428C5.47747 17.5602 3.81424 16.7185 2.60411 15.3807C1.39398 14.0428 0.72292 12.3037 0.720703 10.4998C0.720703 10.3067 0.797397 10.1216 0.933912 9.98504C1.07043 9.84852 1.25558 9.77183 1.44864 9.77183C1.64171 9.77183 1.82686 9.84852 1.96338 9.98504C2.09989 10.1216 2.17659 10.3067 2.17659 10.4998C2.17659 12.0443 2.79013 13.5255 3.88226 14.6176C4.97438 15.7097 6.45562 16.3233 8.00011 16.3233C9.54461 16.3233 11.0258 15.7097 12.118 14.6176C13.2101 13.5255 13.8236 12.0443 13.8236 10.4998C13.8236 10.3067 13.9003 10.1216 14.0369 9.98504C14.1734 9.84852 14.3585 9.77183 14.5516 9.77183C14.7446 9.77183 14.9298 9.84852 15.0663 9.98504C15.2028 10.1216 15.2795 10.3067 15.2795 10.4998C15.2773 12.3037 14.6063 14.0428 13.3961 15.3807C12.186 16.7185 10.5228 17.5602 8.72806 17.7428Z" fill="#404650"/>
</svg>
