<svg width="14" height="16" viewBox="0 0 14 16" fill="none" xmlns="http://www.w3.org/2000/svg">
<path d="M13.0419 13.8092L1.79188 1.43416C1.74248 1.37847 1.68252 1.33315 1.61548 1.30081C1.54844 1.26847 1.47564 1.24976 1.40131 1.24576C1.32698 1.24176 1.2526 1.25255 1.18247 1.27751C1.11235 1.30247 1.04787 1.3411 0.992785 1.39117C0.937699 1.44123 0.893096 1.50172 0.861563 1.56915C0.830029 1.63658 0.812191 1.70959 0.809084 1.78396C0.805977 1.85834 0.817662 1.93258 0.843461 2.00241C0.86926 2.07223 0.908661 2.13624 0.95938 2.19072L3.62563 5.12345V7.99994C3.62571 8.60567 3.78881 9.20022 4.09782 9.72121C4.40683 10.2422 4.85035 10.6704 5.38187 10.9609C5.91338 11.2515 6.51329 11.3936 7.11865 11.3724C7.72401 11.3512 8.31252 11.1675 8.82243 10.8406L9.58743 11.6843C8.91317 12.158 8.1218 12.4374 7.29961 12.4922C6.47742 12.5469 5.65599 12.3749 4.92488 11.9948C4.19377 11.6147 3.58107 11.0411 3.15358 10.3367C2.72609 9.63225 2.50023 8.82395 2.50063 7.99994C2.50063 7.85075 2.44137 7.70768 2.33588 7.60219C2.23039 7.4967 2.08731 7.43744 1.93813 7.43744C1.78895 7.43744 1.64587 7.4967 1.54038 7.60219C1.43489 7.70768 1.37563 7.85075 1.37563 7.99994C1.37734 9.39391 1.89589 10.7377 2.83099 11.7715C3.76609 12.8053 5.05132 13.4557 6.43813 13.5968V15.3124C6.43813 15.4616 6.49739 15.6047 6.60288 15.7102C6.70837 15.8157 6.85145 15.8749 7.00063 15.8749C7.14981 15.8749 7.29289 15.8157 7.39838 15.7102C7.50387 15.6047 7.56313 15.4616 7.56313 15.3124V13.5961C8.57197 13.4957 9.53472 13.1237 10.3489 12.5196L12.2094 14.5657C12.2588 14.6214 12.3187 14.6667 12.3858 14.6991C12.4528 14.7314 12.5256 14.7501 12.5999 14.7541C12.6743 14.7581 12.7487 14.7473 12.8188 14.7224C12.8889 14.6974 12.9534 14.6588 13.0085 14.6087C13.0636 14.5586 13.1082 14.4981 13.1397 14.4307C13.1712 14.3633 13.1891 14.2903 13.1922 14.2159C13.1953 14.1415 13.1836 14.0673 13.1578 13.9975C13.132 13.9276 13.0926 13.8636 13.0419 13.8092ZM7.00063 10.2499C6.40389 10.2499 5.8316 10.0129 5.40964 9.59093C4.98768 9.16897 4.75063 8.59667 4.75063 7.99994V6.36095L8.04969 9.99048C7.72627 10.1609 7.3662 10.25 7.00063 10.2499ZM4.12907 1.72666C4.51494 1.10181 5.0941 0.619882 5.77866 0.353985C6.46322 0.088088 7.21584 0.052735 7.92231 0.25329C8.62878 0.453845 9.25056 0.879362 9.69331 1.46528C10.1361 2.0512 10.3756 2.76555 10.3756 3.49994V7.74892C10.3756 7.89811 10.3164 8.04118 10.2109 8.14667C10.1054 8.25216 9.96231 8.31142 9.81313 8.31142C9.66395 8.31142 9.52087 8.25216 9.41538 8.14667C9.30989 8.04118 9.25063 7.89811 9.25063 7.74892V3.49994C9.2509 3.01008 9.0913 2.53352 8.79606 2.14263C8.50083 1.75174 8.08609 1.46787 7.61484 1.33415C7.14359 1.20043 6.64157 1.22415 6.18503 1.40172C5.72849 1.57929 5.34237 1.90099 5.08532 2.31798C5.04786 2.38356 4.99759 2.44093 4.93749 2.48666C4.87739 2.53239 4.80869 2.56555 4.7355 2.58417C4.66231 2.60278 4.58612 2.60646 4.51147 2.595C4.43683 2.58353 4.36525 2.55716 4.30102 2.51743C4.23679 2.47771 4.18121 2.42547 4.13761 2.36381C4.094 2.30215 4.06326 2.23234 4.04721 2.15854C4.03116 2.08474 4.03014 2.00847 4.0442 1.93427C4.05827 1.86007 4.08713 1.78946 4.12907 1.72666ZM11.1941 9.63611C11.3976 9.11466 11.5016 8.55969 11.5006 7.99994C11.5006 7.85075 11.5599 7.70768 11.6654 7.60219C11.7709 7.4967 11.9139 7.43744 12.0631 7.43744C12.2123 7.43744 12.3554 7.4967 12.4609 7.60219C12.5664 7.70768 12.6256 7.85075 12.6256 7.99994C12.6266 8.69974 12.4964 9.39352 12.2417 10.0453C12.216 10.1156 12.1765 10.1801 12.1255 10.235C12.0745 10.2898 12.0131 10.3339 11.9448 10.3647C11.8765 10.3955 11.8028 10.4123 11.728 10.4143C11.6531 10.4162 11.5786 10.4031 11.5089 10.3759C11.4391 10.3487 11.3755 10.3078 11.3218 10.2556C11.268 10.2034 11.2252 10.1411 11.1959 10.0722C11.1666 10.0033 11.1513 9.92922 11.151 9.85433C11.1507 9.77945 11.1653 9.70526 11.1941 9.63611Z" fill="white"/>
</svg>
