<svg width="23" height="15" viewBox="0 0 23 15" fill="none" xmlns="http://www.w3.org/2000/svg">
<path d="M20.9276 4.05322C15.8184 -1.0542 7.18502 -1.0542 2.07578 4.05322C0.25593 5.87307 0.081224 8.55645 1.64903 10.5783C1.7853 10.753 1.95966 10.8943 2.15882 10.9915C2.35798 11.0886 2.57668 11.139 2.79826 11.1388C2.97726 11.1389 3.15471 11.1056 3.32147 11.0405L7.78011 9.46L7.8065 9.44999C8.03153 9.35999 8.23054 9.21523 8.38546 9.02884C8.54039 8.84246 8.64633 8.62035 8.69368 8.38265L9.23053 5.69655C10.6943 5.19054 12.285 5.18701 13.751 5.68654L14.3161 8.39357C14.3651 8.62866 14.4715 8.84798 14.6258 9.03199C14.7802 9.21599 14.9776 9.35897 15.2006 9.44817L15.2269 9.45818L19.6856 11.0405C19.9769 11.1534 20.2967 11.1695 20.5979 11.0866C20.899 11.0037 21.1655 10.8261 21.358 10.5801C22.9222 8.55645 22.7466 5.87307 20.9276 4.05322ZM20.207 9.68293L20.1797 9.67202L15.7374 8.09511L15.1724 5.38899C15.1211 5.14412 15.0076 4.9166 14.8428 4.72837C14.678 4.54014 14.4674 4.39756 14.2315 4.31437C12.4514 3.70491 10.5185 3.70907 8.74099 4.3262C8.50322 4.41115 8.29164 4.55648 8.127 4.74791C7.96237 4.93934 7.85035 5.1703 7.80195 5.41811L7.26509 8.1033L2.82374 9.6702C2.81464 9.6702 2.80827 9.68202 2.79917 9.68566C1.67724 8.23797 1.79826 6.389 3.10491 5.08326C5.37973 2.80844 8.44163 1.6683 11.5017 1.6683C14.5618 1.6683 17.6228 2.80662 19.8985 5.08326C21.2024 6.389 21.3289 8.23797 20.207 9.68293ZM20.2361 14.0506C20.2361 14.2436 20.1594 14.4288 20.0229 14.5653C19.8864 14.7018 19.7012 14.7785 19.5082 14.7785H3.49436C3.3013 14.7785 3.11614 14.7018 2.97963 14.5653C2.84311 14.4288 2.76642 14.2436 2.76642 14.0506C2.76642 13.8575 2.84311 13.6724 2.97963 13.5358C3.11614 13.3993 3.3013 13.3226 3.49436 13.3226H19.5091C19.7021 13.3226 19.8873 13.3993 20.0238 13.5358C20.1603 13.6724 20.237 13.8575 20.237 14.0506H20.2361Z" fill="white"/>
</svg>
