<svg width="32" height="32" viewBox="0 0 32 32" fill="none" xmlns="http://www.w3.org/2000/svg">
<path d="M12 28H20" stroke="#30CC8B" stroke-width="2" stroke-linecap="round" stroke-linejoin="round"/>
<path d="M7.02538 13.9999C7.02538 12.8213 7.25753 11.6542 7.70857 10.5653C8.1596 9.47642 8.8207 8.48702 9.6541 7.65362C10.4875 6.82021 11.4769 6.15912 12.5658 5.70808C13.6547 5.25705 14.8218 5.0249 16.0004 5.0249C17.179 5.0249 18.3461 5.25705 19.435 5.70808C20.5239 6.15912 21.5133 6.82021 22.3467 7.65362C23.1801 8.48702 23.8412 9.47642 24.2922 10.5653C24.7432 11.6542 24.9754 12.8213 24.9754 13.9999C24.9754 18.4749 25.9129 21.0749 26.7379 22.4999C26.8255 22.6517 26.8717 22.8238 26.8719 22.999C26.872 23.1743 26.8261 23.3465 26.7388 23.4984C26.6514 23.6503 26.5257 23.7766 26.3741 23.8646C26.2226 23.9526 26.0506 23.9993 25.8754 23.9999H6.12538C5.95015 23.9993 5.77815 23.9526 5.62662 23.8646C5.47509 23.7766 5.34935 23.6503 5.262 23.4984C5.17465 23.3465 5.12875 23.1743 5.12891 22.999C5.12906 22.8238 5.17526 22.6517 5.26288 22.4999C6.08788 21.0749 7.02538 18.4749 7.02538 13.9999Z" stroke="#30CC8B" stroke-width="2" stroke-linecap="round" stroke-linejoin="round"/>
<path d="M22.9248 3C24.9609 4.28526 26.6041 6.10584 27.6748 8.2625" stroke="#30CC8B" stroke-width="2" stroke-linecap="round" stroke-linejoin="round"/>
<path d="M4.3252 8.2625C5.39585 6.10584 7.03913 4.28526 9.0752 3" stroke="#30CC8B" stroke-width="2" stroke-linecap="round" stroke-linejoin="round"/>
</svg>
