<svg width="23" height="15" viewBox="0 0 23 15" fill="none" xmlns="http://www.w3.org/2000/svg">
<path d="M22.5946 2.01801C22.4724 1.95153 22.3346 1.91995 22.1961 1.92663C22.0575 1.9333 21.9233 1.97799 21.8078 2.05593L18.4 4.35621V1.92079C18.4 1.50823 18.2385 1.11257 17.9509 0.820846C17.6633 0.529123 17.2733 0.365234 16.8667 0.365234H1.53333C1.12667 0.365234 0.736659 0.529123 0.449103 0.820846C0.161547 1.11257 0 1.50823 0 1.92079V12.8097C0 13.2222 0.161547 13.6179 0.449103 13.9096C0.736659 14.2013 1.12667 14.3652 1.53333 14.3652H16.8667C17.2733 14.3652 17.6633 14.2013 17.9509 13.9096C18.2385 13.6179 18.4 13.2222 18.4 12.8097V10.3791L21.8078 12.6843C21.9344 12.7676 22.0824 12.8113 22.2333 12.8097C22.4367 12.8097 22.6317 12.7277 22.7754 12.5819C22.9192 12.436 23 12.2382 23 12.0319V2.69857C22.999 2.55862 22.9609 2.42154 22.8895 2.30176C22.8182 2.18199 22.7163 2.08396 22.5946 2.01801ZM16.8667 12.8097H9.2H1.53333V1.92079H16.8667V12.8097ZM21.4667 10.5784L18.4 8.50468V6.22579L21.4667 4.1569V10.5784Z" fill="white"/>
</svg>
