<svg width="25" height="19" viewBox="0 0 25 19" fill="none" xmlns="http://www.w3.org/2000/svg">
<path d="M23.7371 4.31411C23.6133 4.24964 23.4737 4.219 23.3334 4.22548C23.1931 4.23196 23.0572 4.2753 22.9402 4.35089L19.4888 6.58186V4.21982C19.4888 3.81969 19.3252 3.43595 19.034 3.15302C18.7427 2.87008 18.3477 2.71113 17.9359 2.71113H10.274C10.0681 2.71113 9.87061 2.79061 9.725 2.93207C9.57938 3.07354 9.49757 3.26541 9.49757 3.46548C9.49757 3.66554 9.57938 3.85741 9.725 3.99888C9.87061 4.14034 10.0681 4.21982 10.274 4.21982H17.9359V12.4827C17.9359 12.6828 18.0177 12.8747 18.1633 13.0161C18.3089 13.1576 18.5064 13.2371 18.7123 13.2371C18.9183 13.2371 19.1158 13.1576 19.2614 13.0161C19.407 12.8747 19.4888 12.6828 19.4888 12.4827V12.4233L22.9402 14.659C23.0684 14.7399 23.2183 14.7822 23.3712 14.7806C23.5771 14.7806 23.7746 14.7012 23.9202 14.5597C24.0658 14.4182 24.1476 14.2264 24.1476 14.0263V4.97416C24.1467 4.83844 24.108 4.70548 24.0357 4.58931C23.9635 4.47315 23.8603 4.37807 23.7371 4.31411ZM22.5947 12.6166L19.4888 10.6053V8.39511L22.5947 6.38856V12.6166ZM4.53399 0.695147C4.4658 0.620473 4.38303 0.55969 4.29048 0.516321C4.19794 0.472951 4.09745 0.447858 3.99485 0.442496C3.89225 0.437133 3.78957 0.451608 3.69277 0.485081C3.59596 0.518554 3.50696 0.57036 3.43092 0.637496C3.35488 0.704631 3.29331 0.785762 3.24978 0.876185C3.20625 0.966608 3.18163 1.06452 3.17734 1.16426C3.17305 1.264 3.18918 1.36357 3.2248 1.4572C3.26041 1.55084 3.3148 1.63668 3.38481 1.70974L4.32143 2.71113H2.40646C1.99459 2.71113 1.59959 2.87008 1.30836 3.15302C1.01713 3.43595 0.853516 3.81969 0.853516 4.21982V14.7806C0.853516 15.1808 1.01713 15.5645 1.30836 15.8474C1.59959 16.1304 1.99459 16.2893 2.40646 16.2893H17.0274L18.9142 18.3053C18.9824 18.38 19.0652 18.4408 19.1577 18.4841C19.2503 18.5275 19.3508 18.5526 19.4534 18.558C19.556 18.5633 19.6586 18.5489 19.7554 18.5154C19.8522 18.4819 19.9412 18.4301 20.0173 18.363C20.0933 18.2958 20.1549 18.2147 20.1984 18.1243C20.242 18.0338 20.2666 17.9359 20.2709 17.8362C20.2752 17.7365 20.259 17.6369 20.2234 17.5433C20.1878 17.4496 20.1334 17.3638 20.0634 17.2907L4.53399 0.695147ZM2.40646 14.7806V4.21982H5.73363L15.6162 14.7806H2.40646Z" fill="white"/>
</svg>
