<svg width="24" height="13" viewBox="0 0 24 13" fill="none" xmlns="http://www.w3.org/2000/svg">
<path d="M23.2371 1.55707C23.1133 1.49562 22.9737 1.46643 22.8334 1.4726C22.6931 1.47877 22.5572 1.52008 22.4402 1.59212L18.9888 3.71843V1.46721C18.9888 1.08585 18.8252 0.720111 18.534 0.45045C18.2427 0.18079 17.8477 0.0292969 17.4359 0.0292969H1.90646C1.49459 0.0292969 1.09959 0.18079 0.808361 0.45045C0.517129 0.720111 0.353516 1.08585 0.353516 1.46721V11.5326C0.353516 11.9139 0.517129 12.2797 0.808361 12.5493C1.09959 12.819 1.49459 12.9705 1.90646 12.9705H17.4359C17.8477 12.9705 18.2427 12.819 18.534 12.5493C18.8252 12.2797 18.9888 11.9139 18.9888 11.5326V9.28583L22.4402 11.4166C22.5684 11.4937 22.7183 11.534 22.8712 11.5326C23.0771 11.5326 23.2746 11.4568 23.4202 11.322C23.5658 11.1872 23.6476 11.0043 23.6476 10.8136V2.18616C23.6467 2.0568 23.608 1.93008 23.5357 1.81937C23.4635 1.70865 23.3603 1.61803 23.2371 1.55707ZM17.4359 11.5326H9.67116H1.90646V1.46721H17.4359V11.5326ZM22.0947 9.47006L18.9888 7.55315V5.44662L22.0947 3.5342V9.47006Z" fill="#404650"/>
</svg>
