<svg width="18" height="19" viewBox="0 0 18 19" fill="none" xmlns="http://www.w3.org/2000/svg">
<path d="M4.81922 8.90777L3.67344 9.5L4.81922 10.0922C6.35517 10.8861 7.61386 12.1448 8.40777 13.6808L8.99954 14.8257L9.59204 13.6812C10.3875 12.1447 11.6451 10.886 13.1808 10.0922L14.3257 9.50046L13.1812 8.90796C11.6447 8.11254 10.386 6.85493 9.59223 5.31922L9.00046 4.17433L8.40796 5.31884C7.61254 6.85534 6.35493 8.11399 4.81922 8.90777ZM1 9.16667C5.23219 9.16667 8.66667 5.73219 8.66667 1.5C8.66667 1.31619 8.81619 1.16667 9 1.16667C9.18381 1.16667 9.33333 1.31619 9.33333 1.5C9.33333 5.73219 12.7678 9.16667 17 9.16667C17.1838 9.16667 17.3333 9.31619 17.3333 9.5C17.3333 9.68381 17.1838 9.83333 17 9.83333C12.7678 9.83333 9.33333 13.2678 9.33333 17.5C9.33333 17.6838 9.18381 17.8333 9 17.8333C8.81619 17.8333 8.66667 17.6838 8.66667 17.5C8.66667 13.2678 5.23219 9.83333 1 9.83333C0.81619 9.83333 0.666667 9.68381 0.666667 9.5C0.666667 9.31619 0.81619 9.16667 1 9.16667Z" fill="#CA37ED" stroke="#CA37ED" stroke-width="1.33333"/>
</svg>
