<svg width="33" height="33" viewBox="0 0 33 33" fill="none" xmlns="http://www.w3.org/2000/svg">
<g id="community-group 1">
<g id="Group">
<path id="Vector" fill-rule="evenodd" clip-rule="evenodd" d="M14.5503 6.32338C14.6523 6.71984 14.4136 7.12395 14.0172 7.22599C13.0065 7.48614 11.9354 8.02867 10.9852 8.66891C10.6457 8.89766 10.185 8.80786 9.9563 8.46836C9.72755 8.12886 9.81733 7.66819 10.1568 7.43944C11.1963 6.7391 12.423 6.10552 13.6478 5.7903C14.0442 5.68826 14.4483 5.92692 14.5503 6.32338ZM18.4516 6.32338C18.5536 5.92692 18.9577 5.68826 19.3541 5.7903C20.6685 6.1286 21.891 6.69489 22.9767 7.44408C23.3137 7.67658 23.3984 8.13821 23.1659 8.47515C22.9333 8.8121 22.4717 8.89677 22.1348 8.66427C21.1897 8.0122 20.1268 7.51995 18.9847 7.22599C18.5881 7.12395 18.3495 6.71984 18.4516 6.32338ZM24.9656 10.3005C25.3057 10.0728 25.7662 10.164 25.9939 10.5042C26.6979 11.5561 27.2321 12.7321 27.5564 13.9926C27.6584 14.389 27.4197 14.7932 27.0233 14.8952C26.6269 14.9973 26.2228 14.7586 26.1206 14.3622C25.8388 13.2668 25.3745 12.2443 24.7618 11.3288C24.5341 10.9886 24.6254 10.5282 24.9656 10.3005ZM8.02003 10.3077C8.35624 10.5413 8.43945 11.0032 8.20589 11.3394C7.58831 12.2284 7.1876 13.1714 6.88114 14.3622C6.77911 14.7586 6.37501 14.9973 5.97854 14.8952C5.58208 14.7932 5.34342 14.389 5.44544 13.9926C5.78567 12.6707 6.24959 11.5571 6.98837 10.4936C7.22193 10.1574 7.68381 10.0742 8.02003 10.3077ZM5.97854 18.7963C6.37501 18.6942 6.77911 18.9328 6.88114 19.3294C7.16318 20.4253 7.62775 21.4482 8.24087 22.3641C8.46863 22.7041 8.37748 23.1646 8.0373 23.3923C7.69713 23.62 7.23673 23.5288 7.00899 23.1888C6.30448 22.1365 5.77002 20.96 5.44544 19.6988C5.34342 19.3024 5.58208 18.8983 5.97854 18.7963ZM27.0233 18.7963C27.4197 18.8983 27.6584 19.3024 27.5564 19.6988C27.2319 20.96 26.6973 22.1365 25.9928 23.1888C25.7651 23.5288 25.3047 23.62 24.9646 23.3923C24.6244 23.1646 24.5332 22.7041 24.7609 22.3641C25.3741 21.4482 25.8387 20.4253 26.1206 19.3294C26.2228 18.9328 26.6269 18.6942 27.0233 18.7963ZM9.98237 25.3309C10.209 24.9901 10.6691 24.8975 11.01 25.124C11.9188 25.7281 12.9323 26.1862 14.0172 26.4655C14.4136 26.5675 14.6523 26.9716 14.5503 27.3682C14.4483 27.7646 14.0442 28.0033 13.6478 27.9011C12.3992 27.5799 11.2336 27.0527 10.1893 26.3586C9.84842 26.1321 9.75575 25.6719 9.98237 25.3309ZM23.0194 25.3309C23.2461 25.6719 23.1534 26.1321 22.8125 26.3586C21.7682 27.0527 20.6027 27.5799 19.3541 27.9011C18.9577 28.0033 18.5536 27.7646 18.4516 27.3682C18.3495 26.9716 18.5881 26.5675 18.9847 26.4655C20.0696 26.1862 21.083 25.7281 21.9918 25.124C22.3327 24.8975 22.7929 24.9901 23.0194 25.3309Z" fill="#D53A94" stroke="#D53A94" stroke-width="0.3"/>
<path id="Vector_2" fill-rule="evenodd" clip-rule="evenodd" d="M16.4976 4.24518C15.4332 4.24518 14.5704 5.10803 14.5704 6.17241C14.5704 7.23678 15.4332 8.09963 16.4976 8.09963C17.562 8.09963 18.4248 7.23678 18.4248 6.17241C18.4248 5.10803 17.562 4.24518 16.4976 4.24518ZM13.0879 6.17241C13.0879 4.28928 14.6145 2.7627 16.4976 2.7627C18.3808 2.7627 19.9073 4.28928 19.9073 6.17241C19.9073 8.05553 18.3808 9.58211 16.4976 9.58211C14.6145 9.58211 13.0879 8.05553 13.0879 6.17241Z" fill="#D53A94"/>
<path id="Vector_3" fill-rule="evenodd" clip-rule="evenodd" d="M27.1734 14.9193C26.1091 14.9193 25.2462 15.7821 25.2462 16.8465C25.2462 17.9109 26.1091 18.7737 27.1734 18.7737C28.2378 18.7737 29.1006 17.9109 29.1006 16.8465C29.1006 15.7821 28.2378 14.9193 27.1734 14.9193ZM23.7637 16.8465C23.7637 14.9633 25.2903 13.4368 27.1734 13.4368C29.0566 13.4368 30.5831 14.9633 30.5831 16.8465C30.5831 18.7297 29.0566 20.2562 27.1734 20.2562C25.2903 20.2562 23.7637 18.7297 23.7637 16.8465Z" fill="#D53A94"/>
<path id="Vector_4" fill-rule="evenodd" clip-rule="evenodd" d="M16.4976 25.5936C15.4332 25.5936 14.5704 26.4564 14.5704 27.5208C14.5704 28.5852 15.4332 29.448 16.4976 29.448C17.562 29.448 18.4248 28.5852 18.4248 27.5208C18.4248 26.4564 17.562 25.5936 16.4976 25.5936ZM13.0879 27.5208C13.0879 25.6376 14.6145 24.1111 16.4976 24.1111C18.3808 24.1111 19.9073 25.6376 19.9073 27.5208C19.9073 29.4038 18.3808 30.9305 16.4976 30.9305C14.6145 30.9305 13.0879 29.4038 13.0879 27.5208Z" fill="#D53A94"/>
<path id="Vector_5" fill-rule="evenodd" clip-rule="evenodd" d="M5.82573 14.9193C4.76135 14.9193 3.8985 15.7821 3.8985 16.8465C3.8985 17.9109 4.76135 18.7737 5.82573 18.7737C6.8901 18.7737 7.75295 17.9109 7.75295 16.8465C7.75295 15.7821 6.8901 14.9193 5.82573 14.9193ZM2.41602 16.8465C2.41602 14.9633 3.9426 13.4368 5.82573 13.4368C7.70885 13.4368 9.23544 14.9633 9.23544 16.8465C9.23544 18.7297 7.70885 20.2562 5.82573 20.2562C3.9426 20.2562 2.41602 18.7297 2.41602 16.8465Z" fill="#D53A94"/>
<path id="Vector_6" fill-rule="evenodd" clip-rule="evenodd" d="M16.4976 4.24518C15.4332 4.24518 14.5704 5.10803 14.5704 6.17241C14.5704 7.23678 15.4332 8.09963 16.4976 8.09963C17.562 8.09963 18.4248 7.23678 18.4248 6.17241C18.4248 5.10803 17.562 4.24518 16.4976 4.24518ZM13.0879 6.17241C13.0879 4.28928 14.6145 2.7627 16.4976 2.7627C18.3808 2.7627 19.9073 4.28928 19.9073 6.17241C19.9073 8.05553 18.3808 9.58211 16.4976 9.58211C14.6145 9.58211 13.0879 8.05553 13.0879 6.17241Z" fill="#D53A94" stroke="#D53A94" stroke-width="0.3"/>
<path id="Vector_7" fill-rule="evenodd" clip-rule="evenodd" d="M27.1734 14.9193C26.1091 14.9193 25.2462 15.7821 25.2462 16.8465C25.2462 17.9109 26.1091 18.7737 27.1734 18.7737C28.2378 18.7737 29.1006 17.9109 29.1006 16.8465C29.1006 15.7821 28.2378 14.9193 27.1734 14.9193ZM23.7637 16.8465C23.7637 14.9633 25.2903 13.4368 27.1734 13.4368C29.0566 13.4368 30.5831 14.9633 30.5831 16.8465C30.5831 18.7297 29.0566 20.2562 27.1734 20.2562C25.2903 20.2562 23.7637 18.7297 23.7637 16.8465Z" fill="#D53A94" stroke="#D53A94" stroke-width="0.3"/>
<path id="Vector_8" fill-rule="evenodd" clip-rule="evenodd" d="M16.4976 25.5936C15.4332 25.5936 14.5704 26.4564 14.5704 27.5208C14.5704 28.5852 15.4332 29.448 16.4976 29.448C17.562 29.448 18.4248 28.5852 18.4248 27.5208C18.4248 26.4564 17.562 25.5936 16.4976 25.5936ZM13.0879 27.5208C13.0879 25.6376 14.6145 24.1111 16.4976 24.1111C18.3808 24.1111 19.9073 25.6376 19.9073 27.5208C19.9073 29.4038 18.3808 30.9305 16.4976 30.9305C14.6145 30.9305 13.0879 29.4038 13.0879 27.5208Z" fill="#D53A94" stroke="#D53A94" stroke-width="0.3"/>
<path id="Vector_9" fill-rule="evenodd" clip-rule="evenodd" d="M5.82573 14.9193C4.76135 14.9193 3.8985 15.7821 3.8985 16.8465C3.8985 17.9109 4.76135 18.7737 5.82573 18.7737C6.8901 18.7737 7.75295 17.9109 7.75295 16.8465C7.75295 15.7821 6.8901 14.9193 5.82573 14.9193ZM2.41602 16.8465C2.41602 14.9633 3.9426 13.4368 5.82573 13.4368C7.70885 13.4368 9.23544 14.9633 9.23544 16.8465C9.23544 18.7297 7.70885 20.2562 5.82573 20.2562C3.9426 20.2562 2.41602 18.7297 2.41602 16.8465Z" fill="#D53A94" stroke="#D53A94" stroke-width="0.3"/>
</g>
</g>
</svg>
