<svg width="33" height="33" viewBox="0 0 33 33" fill="none" xmlns="http://www.w3.org/2000/svg">
<g id="token-gated">
<path id="Vector" d="M7.30762 7.05693C5.48953 8.87501 4.25141 11.1914 3.7498 13.7131C3.24819 16.2349 3.50563 18.8488 4.48957 21.2242C5.47351 23.5996 7.13975 25.63 9.27759 27.0584C11.4154 28.4869 13.9288 29.2493 16.5 29.2493C19.0712 29.2493 21.5846 28.4869 23.7224 27.0584C25.8603 25.63 27.5265 23.5996 28.5104 21.2242C29.4944 18.8488 29.7518 16.2349 29.2502 13.7131C28.7486 11.1914 27.5105 8.87501 25.6924 7.05693C23.2526 4.62232 19.9467 3.255 16.5 3.255C13.0533 3.255 9.74737 4.62232 7.30762 7.05693ZM24.2782 24.0275C22.7398 25.5659 20.7798 26.6135 18.646 27.038C16.5122 27.4624 14.3005 27.2446 12.2905 26.412C10.2805 25.5794 8.56254 24.1695 7.35384 22.3606C6.14514 20.5517 5.50001 18.4249 5.50001 16.2493C5.50001 14.0737 6.14514 11.947 7.35384 10.138C8.56254 8.32911 10.2805 6.91921 12.2905 6.08664C14.3005 5.25408 16.5122 5.03624 18.646 5.46068C20.7798 5.88512 22.7398 6.93277 24.2782 8.47115C26.338 10.5357 27.4948 13.333 27.4948 16.2493C27.4948 19.1657 26.338 21.963 24.2782 24.0275ZM15.7929 11.2996L11.5503 15.5422C11.3627 15.7297 11.2574 15.9841 11.2574 16.2493C11.2574 16.5145 11.3627 16.7689 11.5503 16.9564L15.7929 21.1991C15.9804 21.3866 16.2348 21.492 16.5 21.492C16.7652 21.492 17.0196 21.3866 17.2071 21.1991L21.4498 16.9564C21.6373 16.7689 21.7426 16.5145 21.7426 16.2493C21.7426 15.9841 21.6373 15.7297 21.4498 15.5422L17.2071 11.2996C17.0196 11.112 16.7652 11.0067 16.5 11.0067C16.2348 11.0067 15.9804 11.112 15.7929 11.2996ZM19.3284 16.2493L16.5 19.0777L13.6716 16.2493L16.5 13.4209L19.3284 16.2493Z" fill="#D53A94"/>
</g>
</svg>
