<svg width="16" height="17" viewBox="0 0 16 17" fill="none" xmlns="http://www.w3.org/2000/svg">
<path d="M8 0.375C6.41775 0.375 4.87103 0.844192 3.55544 1.72324C2.23985 2.60229 1.21447 3.85172 0.608967 5.31353C0.00346628 6.77534 -0.15496 8.38387 0.153721 9.93572C0.462403 11.4876 1.22433 12.913 2.34315 14.0319C3.46197 15.1507 4.88743 15.9126 6.43928 16.2213C7.99113 16.53 9.59966 16.3715 11.0615 15.766C12.5233 15.1605 13.7727 14.1352 14.6518 12.8196C15.5308 11.504 16 9.95725 16 8.375C15.9959 6.25452 15.1518 4.22205 13.6524 2.72264C12.153 1.22323 10.1205 0.379066 8 0.375ZM12.3077 8.99038H8C7.83679 8.99038 7.68027 8.92555 7.56486 8.81014C7.44945 8.69473 7.38462 8.53821 7.38462 8.375V4.06731C7.38462 3.9041 7.44945 3.74757 7.56486 3.63216C7.68027 3.51676 7.83679 3.45192 8 3.45192C8.16321 3.45192 8.31974 3.51676 8.43514 3.63216C8.55055 3.74757 8.61539 3.9041 8.61539 4.06731V7.75961H12.3077C12.4709 7.75961 12.6274 7.82445 12.7428 7.93986C12.8582 8.05526 12.9231 8.21179 12.9231 8.375C12.9231 8.53821 12.8582 8.69473 12.7428 8.81014C12.6274 8.92555 12.4709 8.99038 12.3077 8.99038Z" fill="#E93636"/>
</svg>
