<svg width="28" height="25" viewBox="0 0 28 25" fill="none" xmlns="http://www.w3.org/2000/svg">
<g id="Group 4361">
<g id="Group 4362">
<path id="Subtract" d="M22.5 24V25C22.7531 25 22.9968 24.904 23.182 24.7314L22.5 24ZM5.5 24L4.81803 24.7314C5.00316 24.904 5.24687 25 5.5 25V24ZM15.7622 16.2928L14.8238 15.947L14.8224 15.951L15.7622 16.2928ZM14.4303 19.9553L15.3678 20.3033L15.3701 20.2971L14.4303 19.9553ZM16.0377 16.0172L15.696 15.0774L15.692 15.0789L16.0377 16.0172ZM19.7003 14.6853L20.0421 15.6252L20.0483 15.6228L19.7003 14.6853ZM19.9175 14.517L19.0966 13.946L19.0966 13.9461L19.9175 14.517ZM19.9175 13.9926L19.0966 14.5635L19.0966 14.5636L19.9175 13.9926ZM19.7003 13.8242L20.0483 12.8867L20.0421 12.8844L19.7003 13.8242ZM16.0377 12.4924L15.692 13.4307L15.696 13.4322L16.0377 12.4924ZM15.7622 12.2168L14.8224 12.5586L14.8238 12.5626L15.7622 12.2168ZM14.4303 8.55423L15.3701 8.21248L15.3678 8.20626L14.4303 8.55423ZM14.262 8.33701L14.833 7.51604L14.8329 7.51604L14.262 8.33701ZM13.7375 8.33701L13.1666 7.51604L13.1666 7.51604L13.7375 8.33701ZM13.5692 8.55423L12.6317 8.20625L12.6294 8.21249L13.5692 8.55423ZM12.2373 12.2168L13.1757 12.5626L13.1771 12.5586L12.2373 12.2168ZM11.9618 12.4924L12.3035 13.4322L12.3075 13.4307L11.9618 12.4924ZM8.2992 13.8242L7.95745 12.8844L7.95122 12.8867L8.2992 13.8242ZM8.08198 13.9926L7.26101 13.4216L7.26101 13.4216L8.08198 13.9926ZM8.08198 14.517L7.26101 15.088L7.26101 15.088L8.08198 14.517ZM8.2992 14.6853L7.95121 15.6229L7.95746 15.6251L8.2992 14.6853ZM11.9618 16.0172L12.3075 15.0789L12.3035 15.0774L11.9618 16.0172ZM12.2373 16.2928L13.1772 15.951L13.1757 15.947L12.2373 16.2928ZM13.5692 19.9553L12.6294 20.2971L12.6317 20.3033L13.5692 19.9553ZM13.7375 20.1726L14.3085 19.3516L14.3085 19.3516L13.7375 20.1726ZM14.262 20.1726L13.691 19.3516L13.691 19.3516L14.262 20.1726ZM13.9999 0C6.26795 0 0 6.26795 0 13.9999H2C2 7.37252 7.37252 2 13.9999 2V0ZM27.9997 13.9999C27.9997 6.26795 21.7318 0 13.9999 0V2C20.6272 2 25.9997 7.37252 25.9997 13.9999H27.9997ZM23.182 24.7314C25.9021 22.195 27.9997 18.0671 27.9997 13.9999H25.9997C25.9997 17.441 24.1878 21.0589 21.818 23.2686L23.182 24.7314ZM22 25H22.5V23H22V25ZM5.5 25H22V23H5.5V25ZM0 13.9999C0 18.0671 2.09794 22.195 4.81803 24.7314L6.18197 23.2686C3.81214 21.0589 2 17.4409 2 13.9999H0ZM14.8224 15.951L13.4905 19.6136L15.3701 20.2971L16.702 16.6345L14.8224 15.951ZM15.1626 15.4176C15.0127 15.5675 14.8971 15.7481 14.8238 15.947L16.7005 16.6385C16.6737 16.7111 16.6315 16.7771 16.5768 16.8318L15.1626 15.4176ZM15.692 15.0789C15.4931 15.1522 15.3125 15.2677 15.1626 15.4176L16.5768 16.8318C16.5221 16.8866 16.4561 16.9288 16.3835 16.9555L15.692 15.0789ZM19.3586 13.7456L15.696 15.0774L16.3795 16.957L20.0421 15.6251L19.3586 13.7456ZM19.0966 13.9461C19.1596 13.8554 19.2488 13.7863 19.3523 13.7478L20.0483 15.6228C20.3276 15.5192 20.5684 15.3325 20.7385 15.088L19.0966 13.9461ZM18.9998 14.2548C18.9998 14.1444 19.0335 14.0367 19.0966 13.946L20.7385 15.088C20.9086 14.8434 20.9998 14.5527 20.9998 14.2548H18.9998ZM19.0966 14.5636C19.0335 14.4729 18.9998 14.3652 18.9998 14.2548H20.9998C20.9998 13.9569 20.9086 13.6662 20.7385 13.4216L19.0966 14.5636ZM19.3523 14.7617C19.2488 14.7233 19.1596 14.6542 19.0966 14.5635L20.7385 13.4216C20.5684 13.177 20.3276 12.9904 20.0483 12.8867L19.3523 14.7617ZM15.696 13.4322L19.3586 14.764L20.0421 12.8844L16.3795 11.5526L15.696 13.4322ZM15.1626 13.092C15.3125 13.2419 15.4931 13.3574 15.692 13.4307L16.3835 11.5541C16.4561 11.5808 16.5221 11.623 16.5768 11.6778L15.1626 13.092ZM14.8238 12.5626C14.8971 12.7615 15.0127 12.9421 15.1626 13.092L16.5768 11.6778C16.6315 11.7325 16.6737 11.7985 16.7005 11.8711L14.8238 12.5626ZM13.4905 8.89598L14.8224 12.5586L16.702 11.8751L15.3701 8.21249L13.4905 8.89598ZM13.691 9.15798C13.6004 9.09496 13.5312 9.00571 13.4928 8.90221L15.3678 8.20626C15.2642 7.92698 15.0775 7.68613 14.833 7.51604L13.691 9.15798ZM13.9998 9.25479C13.8894 9.25479 13.7816 9.22101 13.691 9.15798L14.8329 7.51604C14.5884 7.34596 14.2976 7.25479 13.9998 7.25479V9.25479ZM14.3085 9.15798C14.2179 9.22101 14.1101 9.25479 13.9998 9.25479V7.25479C13.7019 7.25479 13.4111 7.34596 13.1666 7.51604L14.3085 9.15798ZM14.5067 8.90221C14.4683 9.00571 14.3991 9.09496 14.3085 9.15798L13.1666 7.51604C12.922 7.68613 12.7354 7.92698 12.6317 8.20626L14.5067 8.90221ZM13.1771 12.5586L14.509 8.89598L12.6294 8.21249L11.2976 11.8751L13.1771 12.5586ZM12.8369 13.092C12.9868 12.9421 13.1024 12.7615 13.1757 12.5626L11.299 11.8711C11.3258 11.7985 11.368 11.7325 11.4227 11.6778L12.8369 13.092ZM12.3075 13.4307C12.5064 13.3574 12.687 13.2419 12.8369 13.092L11.4227 11.6778C11.4775 11.623 11.5434 11.5808 11.616 11.5541L12.3075 13.4307ZM8.64094 14.764L12.3035 13.4322L11.62 11.5526L7.95746 12.8844L8.64094 14.764ZM8.90294 14.5635C8.83992 14.6542 8.75067 14.7233 8.64718 14.7617L7.95122 12.8867C7.67194 12.9904 7.43109 13.177 7.26101 13.4216L8.90294 14.5635ZM8.99976 14.2548C8.99976 14.3652 8.96597 14.4729 8.90295 14.5635L7.26101 13.4216C7.09092 13.6662 6.99976 13.9569 6.99976 14.2548H8.99976ZM8.90295 13.946C8.96597 14.0367 8.99976 14.1444 8.99976 14.2548H6.99976C6.99976 14.5527 7.09092 14.8434 7.26101 15.088L8.90295 13.946ZM8.64718 13.7478C8.75067 13.7863 8.83992 13.8554 8.90294 13.946L7.26101 15.088C7.43109 15.3325 7.67194 15.5192 7.95122 15.6228L8.64718 13.7478ZM12.3035 15.0774L8.64094 13.7456L7.95746 15.6251L11.62 16.957L12.3035 15.0774ZM12.8369 15.4176C12.6871 15.2677 12.5064 15.1522 12.3075 15.0789L11.616 16.9555C11.5434 16.9288 11.4775 16.8866 11.4227 16.8318L12.8369 15.4176ZM13.1757 15.947C13.1024 15.7481 12.9868 15.5675 12.8369 15.4176L11.4227 16.8318C11.368 16.7771 11.3258 16.7111 11.299 16.6385L13.1757 15.947ZM14.509 19.6136L13.1771 15.951L11.2976 16.6345L12.6294 20.2971L14.509 19.6136ZM14.3085 19.3516C14.3991 19.4146 14.4683 19.5039 14.5067 19.6074L12.6317 20.3033C12.7354 20.5826 12.922 20.8235 13.1666 20.9935L14.3085 19.3516ZM13.9998 19.2548C14.1101 19.2548 14.2179 19.2886 14.3085 19.3516L13.1665 20.9935C13.4111 21.1636 13.7019 21.2548 13.9998 21.2548V19.2548ZM13.691 19.3516C13.7816 19.2886 13.8894 19.2548 13.9998 19.2548V21.2548C14.2976 21.2548 14.5884 21.1636 14.833 20.9935L13.691 19.3516ZM13.4928 19.6074C13.5312 19.5039 13.6004 19.4146 13.691 19.3516L14.8329 20.9935C15.0775 20.8235 15.2642 20.5826 15.3678 20.3033L13.4928 19.6074Z" fill="#575D73"/>
<path id="Vector 12" d="M2 24L25.6361 24" stroke="#575D73" stroke-width="2" stroke-linecap="round" stroke-linejoin="round"/>
</g>
</g>
</svg>
