<svg width="20" height="10" viewBox="0 0 20 10" fill="none" xmlns="http://www.w3.org/2000/svg">
<path d="M4.1957 9.18C3.6517 9.18 3.1337 9.084 2.6417 8.892C2.1497 8.696 1.7137 8.408 1.3337 8.028C0.957703 7.648 0.659703 7.178 0.439703 6.618C0.223703 6.058 0.115703 5.412 0.115703 4.68C0.115703 3.724 0.297703 2.912 0.661703 2.244C1.0297 1.572 1.5217 1.06 2.1377 0.707999C2.7577 0.356 3.4437 0.18 4.1957 0.18C5.3077 0.18 6.1817 0.438 6.8177 0.954C7.4537 1.47 7.8797 2.2 8.0957 3.144L6.4277 3.384C6.2717 2.88 6.0157 2.478 5.6597 2.178C5.3077 1.874 4.8557 1.72 4.3037 1.716C3.7557 1.708 3.2997 1.826 2.9357 2.07C2.5717 2.314 2.2977 2.66 2.1137 3.108C1.9337 3.556 1.8437 4.08 1.8437 4.68C1.8437 5.28 1.9337 5.8 2.1137 6.24C2.2977 6.68 2.5717 7.022 2.9357 7.266C3.2997 7.51 3.7557 7.636 4.3037 7.644C4.6757 7.652 5.0117 7.588 5.3117 7.452C5.6157 7.316 5.8717 7.102 6.0797 6.81C6.2877 6.518 6.4357 6.144 6.5237 5.688H5.1557V4.428H8.2637C8.2717 4.48 8.2777 4.572 8.2817 4.704C8.2857 4.836 8.2877 4.912 8.2877 4.932C8.2877 5.76 8.1197 6.494 7.7837 7.134C7.4477 7.774 6.9737 8.276 6.3617 8.64C5.7497 9 5.0277 9.18 4.1957 9.18ZM10.4502 9V0.36H12.0822V9H10.4502ZM14.721 9V0.36H20.001V1.992H16.353V3.864H19.281V5.496H16.353V9H14.721Z" fill="#494D5F"/>
</svg>
