<svg width="32" height="33" viewBox="0 0 32 33" fill="none" xmlns="http://www.w3.org/2000/svg">
<g id="BellRinging" clip-path="url(#clip0_21762_34035)">
<path id="Vector" d="M12 24.25C12 25.3109 12.4214 26.3283 13.1716 27.0784C13.9217 27.8286 14.9391 28.25 16 28.25C17.0609 28.25 18.0783 27.8286 18.8284 27.0784C19.5786 26.3283 20 25.3109 20 24.25" stroke="#D53A94" stroke-width="2" stroke-linecap="round" stroke-linejoin="round"/>
<path id="Vector_2" d="M23 3.25C24.9311 4.48215 26.4973 6.2085 27.5362 8.25" stroke="#D53A94" stroke-width="2" stroke-linecap="round" stroke-linejoin="round"/>
<path id="Vector_3" d="M4.46387 8.25C5.50283 6.2085 7.06906 4.48215 9.00012 3.25" stroke="#D53A94" stroke-width="2" stroke-linecap="round" stroke-linejoin="round"/>
<path id="Vector_4" d="M7.00009 14.25C7.00009 11.8631 7.9483 9.57387 9.63613 7.88604C11.324 6.19821 13.6131 5.25 16.0001 5.25C18.387 5.25 20.6762 6.19821 22.364 7.88604C24.0519 9.57387 25.0001 11.8631 25.0001 14.25C25.0001 18.7275 26.0376 21.325 26.8626 22.75C26.9502 22.9018 26.9964 23.0739 26.9966 23.2491C26.9967 23.4244 26.9508 23.5966 26.8635 23.7485C26.7761 23.9004 26.6504 24.0267 26.4989 24.1147C26.3473 24.2027 26.1753 24.2494 26.0001 24.25H6.00009C5.82506 24.2489 5.65338 24.202 5.5022 24.1138C5.35101 24.0256 5.22563 23.8992 5.13857 23.7474C5.05152 23.5956 5.00584 23.4235 5.0061 23.2485C5.00637 23.0735 5.05257 22.9016 5.14009 22.75C5.96384 21.325 7.00009 18.7263 7.00009 14.25Z" stroke="#D53A94" stroke-width="2" stroke-linecap="round" stroke-linejoin="round"/>
</g>
<defs>
<clipPath id="clip0_21762_34035">
<rect width="32" height="32" fill="white" transform="translate(0 0.25)"/>
</clipPath>
</defs>
</svg>
