<svg width="19" height="22" viewBox="0 0 19 22" fill="none" xmlns="http://www.w3.org/2000/svg">
<path d="M18.1492 9.46076L2.42734 0.399788C2.19564 0.267157 1.93331 0.198203 1.66671 0.199858C1.40012 0.201513 1.13865 0.273719 0.908595 0.409216C0.683185 0.540102 0.496046 0.728412 0.366026 0.955182C0.236005 1.18195 0.167693 1.43918 0.16797 1.70095V19.8229C0.170446 20.2214 0.329574 20.6027 0.61061 20.8835C0.891647 21.1644 1.27176 21.3221 1.66797 21.322C1.9336 21.3211 2.19473 21.253 2.42734 21.124L18.1492 12.0631C18.3821 11.936 18.5766 11.748 18.7122 11.519C18.8477 11.29 18.9192 11.0284 18.9192 10.7619C18.9192 10.4954 18.8477 10.2338 18.7122 10.0048C18.5766 9.77581 18.3821 9.58784 18.1492 9.46076ZM10.6867 11.8274L12.4586 13.6094L4.18984 18.3614L10.6867 11.8274ZM4.18984 3.15296L12.4586 7.91445L10.6867 9.69647L4.18984 3.15296ZM13.7992 12.8268L11.7461 10.7619L13.7992 8.69703L17.3992 10.7619L13.7992 12.8268Z" fill="white"/>
</svg>
