<svg width="32" height="32" viewBox="0 0 32 32" fill="none" xmlns="http://www.w3.org/2000/svg">
<path d="M3 14C3 14.5523 3.44772 15 4 15H28C28.5523 15 29 14.5523 29 14V11.4774C29 11.1068 28.7951 10.7666 28.4675 10.5934L17.4025 4.7417C16.5251 4.27768 15.4749 4.27768 14.5975 4.7417L3.5325 10.5934C3.20492 10.7666 3 11.1068 3 11.4774V14Z" stroke="#575D73" stroke-width="2" stroke-linecap="round" stroke-linejoin="round"/>
<path d="M16 9L16 11" stroke="#575D73" stroke-width="2" stroke-linecap="round" stroke-linejoin="round"/>
<path d="M6 15V27" stroke="#575D73" stroke-width="2" stroke-linecap="round" stroke-linejoin="round"/>
<path d="M11 15V27" stroke="#575D73" stroke-width="2" stroke-linecap="round" stroke-linejoin="round"/>
<path d="M3 28L29 28" stroke="#575D73" stroke-width="2" stroke-linecap="round" stroke-linejoin="round"/>
<path d="M16 15V27" stroke="#575D73" stroke-width="2" stroke-linecap="round" stroke-linejoin="round"/>
<path d="M21 15V27" stroke="#575D73" stroke-width="2" stroke-linecap="round" stroke-linejoin="round"/>
<path d="M26 15V27" stroke="#575D73" stroke-width="2" stroke-linecap="round" stroke-linejoin="round"/>
</svg>
