<svg width="32" height="32" viewBox="0 0 32 32" fill="none" xmlns="http://www.w3.org/2000/svg">
<path fill-rule="evenodd" clip-rule="evenodd" d="M12.49 5.3995C12.9761 4.00585 14.3639 3 16 3C17.6415 3 19.033 4.01236 19.5148 5.41303C22.869 6.74121 25.2384 9.91127 25.2384 13.585V14.3606C25.2384 18.1073 26.0583 20.2265 26.7396 21.3407C26.908 21.606 26.9979 21.9092 27 22.2186C27.002 22.528 26.9161 22.8322 26.7512 23.0994C26.5895 23.3666 26.3556 23.5883 26.0736 23.7418C25.7915 23.8954 25.4714 23.9753 25.146 23.9733H6.85401C6.52859 23.9753 6.20846 23.8954 5.92641 23.7418C5.64437 23.5883 5.41053 23.3666 5.24884 23.0994C5.08394 22.8322 4.998 22.528 5.00004 22.2186C5.00207 21.9092 5.09199 21.606 5.26039 21.3407C5.94172 20.2265 6.76163 18.1073 6.76163 14.3606V13.4867C6.76011 12.3387 6.99803 11.2016 7.46176 10.1407C7.92549 9.07985 8.60593 8.11591 9.46409 7.30414C10.3223 6.49238 11.3413 5.84873 12.4628 5.41007C12.4719 5.40653 12.4809 5.40301 12.49 5.3995Z" fill="#D53893"/>
<path d="M16 29C18.2091 29 20 27.2091 20 25H12C12 27.2091 13.7909 29 16 29Z" fill="#D53893"/>
</svg>
