<svg width="32" height="32" viewBox="0 0 32 32" fill="none" xmlns="http://www.w3.org/2000/svg">
<path d="M18.5248 20.0759L15.8611 27.4011C15.7959 27.5769 15.6784 27.7285 15.5244 27.8356C15.3705 27.9426 15.1875 28 15 28C14.8125 28 14.6295 27.9426 14.4756 27.8356C14.3216 27.7285 14.2041 27.5769 14.1389 27.4011L11.4752 20.0759C11.4287 19.9497 11.3553 19.835 11.2601 19.7399C11.165 19.6447 11.0503 19.5713 10.9241 19.5248L3.59889 16.8611C3.4231 16.7959 3.2715 16.6784 3.16444 16.5244C3.05738 16.3705 3 16.1875 3 16C3 15.8125 3.05738 15.6295 3.16444 15.4756C3.2715 15.3216 3.4231 15.2041 3.59889 15.1389L10.9241 12.4752C11.0503 12.4287 11.165 12.3553 11.2601 12.2601C11.3553 12.165 11.4287 12.0503 11.4752 11.9241L14.1389 4.59889C14.2041 4.4231 14.3216 4.2715 14.4756 4.16444C14.6295 4.05738 14.8125 4 15 4C15.1875 4 15.3705 4.05738 15.5244 4.16444C15.6784 4.2715 15.7959 4.4231 15.8611 4.59889L18.5248 11.9241C18.5713 12.0503 18.6447 12.165 18.7399 12.2601C18.835 12.3553 18.9497 12.4287 19.0759 12.4752L26.4011 15.1389C26.5769 15.2041 26.7285 15.3216 26.8356 15.4756C26.9426 15.6295 27 15.8125 27 16C27 16.1875 26.9426 16.3705 26.8356 16.5244C26.7285 16.6784 26.5769 16.7959 26.4011 16.8611L19.0759 19.5248C18.9497 19.5713 18.835 19.6447 18.7399 19.7399C18.6447 19.835 18.5713 19.9497 18.5248 20.0759V20.0759Z" stroke="#575D73" stroke-width="2" stroke-linecap="round" stroke-linejoin="round"/>
</svg>
