<svg width="32" height="32" viewBox="0 0 32 32" fill="none" xmlns="http://www.w3.org/2000/svg">
<path fill-rule="evenodd" clip-rule="evenodd" d="M15 3C14.6084 3 14.2261 3.11986 13.9046 3.34347C13.5831 3.56708 13.3377 3.88373 13.2014 4.25089L10.5479 11.5479L3.25714 14.1991L3.2509 14.2014C2.88374 14.3377 2.56708 14.5831 2.34347 14.9046C2.11986 15.2261 2 15.6084 2 16C2 16.3916 2.11986 16.7739 2.34347 17.0954C2.56708 17.4169 2.88373 17.6623 3.25089 17.7986L10.5479 20.4521L13.1991 27.7429L13.2014 27.7491C13.3377 28.1163 13.5831 28.4329 13.9046 28.6565C14.2261 28.8801 14.6084 29 15 29C15.3916 29 15.7739 28.8801 16.0954 28.6565C16.4169 28.4329 16.6623 28.1163 16.7986 27.7491L19.4521 20.4521L26.7429 17.8009L26.7491 17.7986C27.1163 17.6623 27.4329 17.4169 27.6565 17.0954C27.8801 16.7739 28 16.3916 28 16C28 15.6084 27.8801 15.2261 27.6565 14.9046C27.4329 14.5831 27.1163 14.3377 26.7491 14.2014L19.4521 11.5479L16.8009 4.25714L16.7986 4.2509C16.6623 3.88374 16.4169 3.56708 16.0954 3.34347C15.7739 3.11986 15.3916 3 15 3Z" fill="#D53893"/>
</svg>
