<svg width="32" height="32" viewBox="0 0 32 32" fill="none" xmlns="http://www.w3.org/2000/svg">
<path d="M27.4625 6.03751L20.9125 29.275C20.8033 29.6685 20.5755 30.0188 20.2602 30.2782C19.9448 30.5377 19.5572 30.6937 19.15 30.725H18.975C18.5983 30.7242 18.2295 30.6169 17.9111 30.4157C17.5926 30.2145 17.3375 29.9274 17.175 29.5875L12.7125 20.1625C12.6687 20.0679 12.6548 19.9621 12.6727 19.8594C12.6906 19.7566 12.7394 19.6618 12.8125 19.5875L19.225 13.175C19.3254 13.084 19.4063 12.9736 19.4627 12.8505C19.5191 12.7273 19.55 12.594 19.5533 12.4586C19.5566 12.3231 19.5324 12.1885 19.4821 12.0627C19.4318 11.9369 19.3565 11.8226 19.2607 11.7269C19.1649 11.6311 19.0507 11.5557 18.9249 11.5054C18.7991 11.4551 18.6644 11.4309 18.529 11.4343C18.3936 11.4376 18.2602 11.4684 18.1371 11.5248C18.0139 11.5813 17.9035 11.6621 17.8125 11.7625L11.4 18.1875C11.3258 18.2607 11.2309 18.3095 11.1282 18.3273C11.0254 18.3452 10.9197 18.3313 10.825 18.2875L1.45004 13.85C1.08311 13.6767 0.775053 13.3996 0.563988 13.053C0.352924 12.7064 0.248118 12.3055 0.262542 11.9C0.284668 11.4825 0.437922 11.0825 0.700498 10.7571C0.963074 10.4317 1.32159 10.1974 1.72504 10.0875L25.0125 3.52501C25.4198 3.40869 25.8536 3.42469 26.2512 3.57071C26.6488 3.71673 26.9898 3.98523 27.225 4.33751C27.3829 4.58784 27.4857 4.86888 27.5266 5.16197C27.5676 5.45505 27.5457 5.7535 27.4625 6.03751Z" fill="#D53893"/>
</svg>
