<svg width="32" height="32" viewBox="0 0 32 32" fill="none" xmlns="http://www.w3.org/2000/svg">
<path d="M16 28C22.6274 28 28 22.6274 28 16C28 9.37258 22.6274 4 16 4C9.37258 4 4 9.37258 4 16C4 22.6274 9.37258 28 16 28Z" stroke="#575D73" stroke-width="2" stroke-linecap="round" stroke-linejoin="round"/>
<path d="M16 21C18.7614 21 21 18.7614 21 16C21 13.2386 18.7614 11 16 11C13.2386 11 11 13.2386 11 16C11 18.7614 13.2386 21 16 21Z" stroke="#575D73" stroke-width="2" stroke-linecap="round" stroke-linejoin="round"/>
<path d="M12.4625 12.4625L7.51245 7.51251" stroke="#575D73" stroke-width="2" stroke-linecap="round" stroke-linejoin="round"/>
<path d="M19.5376 12.4625L24.4876 7.51251" stroke="#575D73" stroke-width="2" stroke-linecap="round" stroke-linejoin="round"/>
<path d="M19.5376 19.5375L24.4876 24.4875" stroke="#575D73" stroke-width="2" stroke-linecap="round" stroke-linejoin="round"/>
<path d="M12.4625 19.5375L7.51245 24.4875" stroke="#575D73" stroke-width="2" stroke-linecap="round" stroke-linejoin="round"/>
</svg>
