<svg width="26" height="25" viewBox="0 0 26 25" fill="none" xmlns="http://www.w3.org/2000/svg">
<g id="Group 4361">
<g id="Subtract">
<mask id="path-1-inside-1_22226_2930" fill="white">
<path fill-rule="evenodd" clip-rule="evenodd" d="M0 13.745C0 6.56535 5.82024 0.745117 12.9999 0.745117C20.1795 0.745117 25.9997 6.56535 25.9997 13.745C25.9997 17.4992 24.4084 20.8817 21.8634 23.2547H4.13632C1.59136 20.8817 0 17.4992 0 13.745ZM13.4306 19.7006L14.7624 16.038C14.7857 15.9748 14.8224 15.9175 14.8699 15.8699C14.9175 15.8224 14.9748 15.7857 15.038 15.7624L18.7006 14.4306C18.7884 14.3979 18.8643 14.3392 18.9178 14.2622C18.9713 14.1853 19 14.0938 19 14C19 13.9062 18.9713 13.8147 18.9178 13.7378C18.8643 13.6608 18.7884 13.6021 18.7006 13.5694L15.038 12.2376C14.9748 12.2143 14.9175 12.1776 14.8699 12.1301C14.8224 12.0825 14.7857 12.0252 14.7624 11.962L13.4306 8.29944C13.3979 8.21155 13.3392 8.13575 13.2622 8.08222C13.1853 8.02869 13.0938 8 13 8C12.9062 8 12.8147 8.02869 12.7378 8.08222C12.6608 8.13575 12.6021 8.21155 12.5694 8.29944L11.2376 11.962C11.2143 12.0252 11.1776 12.0825 11.1301 12.1301C11.0825 12.1776 11.0252 12.2143 10.962 12.2376L7.29944 13.5694C7.21155 13.6021 7.13575 13.6608 7.08222 13.7378C7.02869 13.8147 7 13.9062 7 14C7 14.0938 7.02869 14.1853 7.08222 14.2622C7.13575 14.3392 7.21155 14.3979 7.29944 14.4306L10.962 15.7624C11.0252 15.7857 11.0825 15.8224 11.1301 15.8699C11.1776 15.9175 11.2143 15.9748 11.2376 16.038L12.5694 19.7006C12.6021 19.7884 12.6608 19.8643 12.7378 19.9178C12.8147 19.9713 12.9062 20 13 20C13.0938 20 13.1853 19.9713 13.2622 19.9178C13.3392 19.8643 13.3979 19.7884 13.4306 19.7006Z"/>
</mask>
<path fill-rule="evenodd" clip-rule="evenodd" d="M0 13.745C0 6.56535 5.82024 0.745117 12.9999 0.745117C20.1795 0.745117 25.9997 6.56535 25.9997 13.745C25.9997 17.4992 24.4084 20.8817 21.8634 23.2547H4.13632C1.59136 20.8817 0 17.4992 0 13.745ZM13.4306 19.7006L14.7624 16.038C14.7857 15.9748 14.8224 15.9175 14.8699 15.8699C14.9175 15.8224 14.9748 15.7857 15.038 15.7624L18.7006 14.4306C18.7884 14.3979 18.8643 14.3392 18.9178 14.2622C18.9713 14.1853 19 14.0938 19 14C19 13.9062 18.9713 13.8147 18.9178 13.7378C18.8643 13.6608 18.7884 13.6021 18.7006 13.5694L15.038 12.2376C14.9748 12.2143 14.9175 12.1776 14.8699 12.1301C14.8224 12.0825 14.7857 12.0252 14.7624 11.962L13.4306 8.29944C13.3979 8.21155 13.3392 8.13575 13.2622 8.08222C13.1853 8.02869 13.0938 8 13 8C12.9062 8 12.8147 8.02869 12.7378 8.08222C12.6608 8.13575 12.6021 8.21155 12.5694 8.29944L11.2376 11.962C11.2143 12.0252 11.1776 12.0825 11.1301 12.1301C11.0825 12.1776 11.0252 12.2143 10.962 12.2376L7.29944 13.5694C7.21155 13.6021 7.13575 13.6608 7.08222 13.7378C7.02869 13.8147 7 13.9062 7 14C7 14.0938 7.02869 14.1853 7.08222 14.2622C7.13575 14.3392 7.21155 14.3979 7.29944 14.4306L10.962 15.7624C11.0252 15.7857 11.0825 15.8224 11.1301 15.8699C11.1776 15.9175 11.2143 15.9748 11.2376 16.038L12.5694 19.7006C12.6021 19.7884 12.6608 19.8643 12.7378 19.9178C12.8147 19.9713 12.9062 20 13 20C13.0938 20 13.1853 19.9713 13.2622 19.9178C13.3392 19.8643 13.3979 19.7884 13.4306 19.7006Z" fill="#D53893"/>
<path d="M21.8634 23.2547V25.2547H22.6512L23.2274 24.7175L21.8634 23.2547ZM4.13632 23.2547L2.77237 24.7175L3.34854 25.2547H4.13632V23.2547ZM14.7624 16.038L12.8857 15.3465L12.8828 15.3545L14.7624 16.038ZM13.4306 19.7006L15.3056 20.3965L15.3101 20.384L13.4306 19.7006ZM15.038 15.7624L14.3545 13.8828L14.3465 13.8858L15.038 15.7624ZM18.7006 14.4306L19.3841 16.3102L19.3965 16.3056L18.7006 14.4306ZM18.9178 14.2622L17.2759 13.1203L17.2758 13.1203L18.9178 14.2622ZM18.9178 13.7378L17.2758 14.8797L17.2759 14.8797L18.9178 13.7378ZM18.7006 13.5694L19.3965 11.6944L19.384 11.6899L18.7006 13.5694ZM15.038 12.2376L14.3465 14.1143L14.3545 14.1172L15.038 12.2376ZM14.7624 11.962L12.8828 12.6455L12.8858 12.6535L14.7624 11.962ZM13.4306 8.29944L15.3102 7.61594L15.3056 7.60349L13.4306 8.29944ZM13.2622 8.08222L14.4042 6.44029L14.4042 6.44028L13.2622 8.08222ZM12.7378 8.08222L11.5958 6.44028L11.5958 6.44029L12.7378 8.08222ZM12.5694 8.29944L10.6944 7.60347L10.6899 7.61596L12.5694 8.29944ZM11.2376 11.962L13.1143 12.6535L13.1172 12.6455L11.2376 11.962ZM10.962 12.2376L11.6455 14.1172L11.6535 14.1142L10.962 12.2376ZM7.29944 13.5694L6.61594 11.6898L6.60349 11.6944L7.29944 13.5694ZM7.08222 13.7378L5.44029 12.5958L5.44028 12.5958L7.08222 13.7378ZM7.08222 14.2622L5.44028 15.4042L5.44029 15.4042L7.08222 14.2622ZM7.29944 14.4306L6.60347 16.3056L6.61596 16.3101L7.29944 14.4306ZM10.962 15.7624L11.6535 13.8857L11.6455 13.8828L10.962 15.7624ZM11.2376 16.038L13.1172 15.3545L13.1142 15.3465L11.2376 16.038ZM12.5694 19.7006L10.6898 20.3841L10.6944 20.3965L12.5694 19.7006ZM12.7378 19.9178L13.8797 18.2759L13.8797 18.2758L12.7378 19.9178ZM13.2622 19.9178L12.1203 18.2758L12.1203 18.2759L13.2622 19.9178ZM12.9999 -1.25488C4.71567 -1.25488 -2 5.46078 -2 13.745H2C2 7.66992 6.92481 2.74512 12.9999 2.74512V-1.25488ZM27.9997 13.745C27.9997 5.46078 21.2841 -1.25488 12.9999 -1.25488V2.74512C19.0749 2.74512 23.9997 7.66992 23.9997 13.745H27.9997ZM23.2274 24.7175C26.161 21.982 27.9997 18.0767 27.9997 13.745H23.9997C23.9997 16.9217 22.6557 19.7814 20.4995 21.792L23.2274 24.7175ZM4.13632 25.2547H21.8634V21.2547H4.13632V25.2547ZM-2 13.745C-2 18.0767 -0.161295 21.982 2.77237 24.7175L5.50027 21.792C3.34402 19.7814 2 16.9217 2 13.745H-2ZM12.8828 15.3545L11.551 19.0171L15.3101 20.384L16.642 16.7214L12.8828 15.3545ZM13.4557 14.4557C13.2035 14.7079 13.0091 15.0118 12.8858 15.3465L16.6391 16.7295C16.5623 16.9379 16.4412 17.1271 16.2841 17.2841L13.4557 14.4557ZM14.3465 13.8858C14.0118 14.0091 13.7079 14.2035 13.4557 14.4557L16.2841 17.2841C16.1271 17.4412 15.9379 17.5623 15.7295 17.6391L14.3465 13.8858ZM18.0171 12.551L14.3545 13.8828L15.7214 17.642L19.384 16.3101L18.0171 12.551ZM17.2758 13.1203C17.4554 12.8621 17.7097 12.665 18.0046 12.5556L19.3965 16.3056C19.8672 16.1309 20.2731 15.8163 20.5597 15.4042L17.2758 13.1203ZM17 14C17 13.6855 17.0962 13.3785 17.2759 13.1203L20.5597 15.4042C20.8464 14.992 21 14.502 21 14H17ZM17.2759 14.8797C17.0962 14.6215 17 14.3145 17 14H21C21 13.498 20.8464 13.008 20.5597 12.5958L17.2759 14.8797ZM18.0046 15.4444C17.7097 15.335 17.4554 15.1379 17.2758 14.8797L20.5597 12.5958C20.2731 12.1837 19.8672 11.8691 19.3965 11.6944L18.0046 15.4444ZM14.3545 14.1172L18.0171 15.449L19.384 11.6899L15.7214 10.358L14.3545 14.1172ZM13.4557 13.5443C13.7079 13.7965 14.0118 13.9909 14.3465 14.1142L15.7295 10.3609C15.9378 10.4377 16.1271 10.5588 16.2841 10.7159L13.4557 13.5443ZM12.8858 12.6535C13.0091 12.9882 13.2035 13.2921 13.4557 13.5443L16.2841 10.7159C16.4412 10.8729 16.5623 11.0622 16.6391 11.2705L12.8858 12.6535ZM11.551 8.98293L12.8828 12.6455L16.642 11.2786L15.3101 7.61596L11.551 8.98293ZM12.1203 9.72416C11.8621 9.54458 11.665 9.29028 11.5556 8.9954L15.3056 7.60349C15.1309 7.13282 14.8163 6.72692 14.4042 6.44029L12.1203 9.72416ZM13 10C12.6855 10 12.3785 9.90374 12.1203 9.72416L14.4042 6.44028C13.992 6.15364 13.502 6 13 6V10ZM13.8797 9.72416C13.6215 9.90374 13.3145 10 13 10V6C12.498 6 12.008 6.15364 11.5958 6.44028L13.8797 9.72416ZM14.4444 8.9954C14.335 9.29028 14.1379 9.54458 13.8797 9.72416L11.5958 6.44029C11.1837 6.72692 10.8691 7.13282 10.6944 7.60349L14.4444 8.9954ZM13.1172 12.6455L14.449 8.98293L10.6899 7.61596L9.35801 11.2786L13.1172 12.6455ZM12.5443 13.5443C12.7965 13.2921 12.9909 12.9882 13.1142 12.6535L9.36094 11.2705C9.43772 11.0622 9.5588 10.8729 9.71586 10.7159L12.5443 13.5443ZM11.6535 14.1142C11.9882 13.9909 12.2921 13.7965 12.5443 13.5443L9.71586 10.7159C9.87292 10.5588 10.0622 10.4377 10.2705 10.3609L11.6535 14.1142ZM7.98293 15.449L11.6455 14.1172L10.2786 10.358L6.61596 11.6899L7.98293 15.449ZM8.72416 14.8797C8.54458 15.1379 8.29028 15.335 7.9954 15.4444L6.60349 11.6944C6.13282 11.8691 5.72692 12.1837 5.44029 12.5958L8.72416 14.8797ZM9 14C9 14.3145 8.90374 14.6215 8.72416 14.8797L5.44028 12.5958C5.15364 13.008 5 13.498 5 14H9ZM8.72416 13.1203C8.90374 13.3785 9 13.6855 9 14H5C5 14.502 5.15364 14.992 5.44028 15.4042L8.72416 13.1203ZM7.9954 12.5556C8.29028 12.665 8.54458 12.8621 8.72416 13.1203L5.44029 15.4042C5.72692 15.8163 6.13282 16.1309 6.60349 16.3056L7.9954 12.5556ZM11.6455 13.8828L7.98293 12.551L6.61596 16.3101L10.2786 17.642L11.6455 13.8828ZM12.5443 14.4557C12.2921 14.2035 11.9882 14.0091 11.6535 13.8858L10.2705 17.6391C10.0622 17.5623 9.87291 17.4412 9.71586 17.2841L12.5443 14.4557ZM13.1142 15.3465C12.9909 15.0118 12.7965 14.7079 12.5443 14.4557L9.71586 17.2841C9.55881 17.1271 9.43772 16.9378 9.36094 16.7295L13.1142 15.3465ZM14.449 19.0171L13.1172 15.3545L9.35801 16.7214L10.6899 20.384L14.449 19.0171ZM13.8797 18.2758C14.1379 18.4554 14.335 18.7097 14.4444 19.0046L10.6944 20.3965C10.8691 20.8672 11.1837 21.2731 11.5958 21.5597L13.8797 18.2758ZM13 18C13.3145 18 13.6215 18.0962 13.8797 18.2759L11.5958 21.5597C12.008 21.8464 12.498 22 13 22V18ZM12.1203 18.2759C12.3785 18.0962 12.6855 18 13 18V22C13.502 22 13.992 21.8464 14.4042 21.5597L12.1203 18.2759ZM11.5556 19.0046C11.665 18.7097 11.8621 18.4554 12.1203 18.2758L14.4042 21.5597C14.8163 21.2731 15.1309 20.8672 15.3056 20.3965L11.5556 19.0046Z" fill="#D53893" mask="url(#path-1-inside-1_22226_2930)"/>
</g>
<path id="Vector 12" d="M1.18164 23.1992L24.8177 23.1992" stroke="#D53893" stroke-width="2" stroke-linecap="round"/>
</g>
</svg>
