<svg width="28" height="26" viewBox="0 0 28 26" fill="none" xmlns="http://www.w3.org/2000/svg">
<g id="Group 4361">
<path id="Vector" d="M14.3389 19.2361C14.3132 19.3053 14.2669 19.3651 14.2063 19.4072L14.3389 19.2361ZM14.3389 19.2361L14.4423 18.9518M14.3389 19.2361L14.4423 18.9518M14.4423 18.9518L14.6003 18.8944L14.5317 18.7059L15.3882 16.3505M14.4423 18.9518L12.2693 16.4764L12.0523 17.0731L11.7729 16.9716M15.3882 16.3505L15.7301 16.4764L15.9471 17.0731L15.9511 17.0717M15.3882 16.3505L15.7294 16.4745L15.3882 16.3505ZM15.9511 17.0717L16.2264 16.9716M15.9511 17.0717L15.732 16.4771L16.3266 16.6962M15.9511 17.0717C16.0371 17.04 16.1152 16.99 16.18 16.9252C16.2449 16.8603 16.2949 16.7822 16.3266 16.6962M16.2264 16.9716L15.2787 19.5778L15.2764 19.5841L15.2764 19.5841C15.1797 19.8447 15.0055 20.0695 14.7773 20.2282L14.7772 20.2282C14.549 20.3869 14.2777 20.472 13.9997 20.472C13.7217 20.472 13.4503 20.3869 13.2221 20.2282L13.2221 20.2282C12.9939 20.0695 12.8197 19.8447 12.723 19.5841L12.7206 19.5779L12.7207 19.5778L11.7729 16.9716M16.2264 16.9716L18.8327 16.0238L18.8327 16.0238L18.839 16.0215C19.0996 15.9248 19.3244 15.7506 19.4831 15.5224L19.4831 15.5224C19.6418 15.2941 19.7269 15.0228 19.7269 14.7448C19.7269 14.4668 19.6418 14.1955 19.4831 13.9672L19.4831 13.9672C19.3244 13.739 19.0996 13.5648 18.839 13.4681L18.839 13.4681L18.8327 13.4658L16.2264 12.518L15.2787 9.91176L15.2787 9.91175L15.2764 9.90552C15.1797 9.64489 15.0055 9.42012 14.7773 9.26139L14.209 10.0784L14.7772 9.26139C14.549 9.10266 14.2777 9.01758 13.9997 9.01758C13.7217 9.01758 13.4503 9.10266 13.2221 9.26139C12.9939 9.42012 12.8197 9.64489 12.723 9.90552L12.7229 9.90551L12.7207 9.91176L11.7729 12.518L9.16664 13.4658L9.16663 13.4658L9.1604 13.4681C8.89977 13.5648 8.675 13.739 8.51627 13.9672C8.35754 14.1955 8.27246 14.4668 8.27246 14.7448C8.27246 15.0228 8.35754 15.2941 8.51627 15.5224L9.33331 14.9541L8.51627 15.5224C8.675 15.7506 8.89977 15.9248 9.1604 16.0215L9.16039 16.0215L9.16664 16.0238L11.7729 16.9716M16.2264 16.9716L16.3266 16.6962M11.7729 16.9716L11.6728 16.6962L15.7313 16.4752L16.328 16.6922L16.3266 16.6962" stroke="#575D73" stroke-width="2" stroke-linecap="round" stroke-linejoin="round"/>
<path id="Ellipse 15" d="M5.13632 24.2547C2.59136 21.8817 1 18.4992 1 14.745C1 7.56535 6.82024 1.74512 13.9999 1.74512C21.1795 1.74512 26.9997 7.56535 26.9997 14.745C26.9997 18.4992 25.4084 21.8817 22.8634 24.2547" stroke="#575D73" stroke-width="2"/>
<path id="Vector 12" d="M2.18164 24.1992L25.8177 24.1992" stroke="#575D73" stroke-width="2" stroke-linecap="round"/>
</g>
</svg>
