<?xml version="1.0" encoding="utf-8"?>
<!-- Generator: Adobe Illustrator 23.1.0, SVG Export Plug-In . SVG Version: 6.00 Build 0)  -->
<svg version="1.1" id="layer" xmlns="http://www.w3.org/2000/svg" xmlns:xlink="http://www.w3.org/1999/xlink" x="0px" y="0px"
	 viewBox="0 0 120.9 182.7" style="enable-background:new 0 0 120.9 182.7;" xml:space="preserve">
<style type="text/css">
	.st0{fill:#133444;}
	.st1{fill:#C42370;}
	.st2{fill:#1C4D6B;}
	.st3{fill:#1D4259;}
	.st4{fill:#4B6B9A;}
	.st5{fill:#343535;}
	.st6{fill:#3E5578;}
	.st7{fill:#6DB2D8;}
	.st8{fill:#335F8A;}
	.st9{fill:#529BBA;}
</style>
<g id="Layer_2-2">
	<g id="Layer_1-2-2">
		<polygon class="st0" points="1.9,105 6.3,103.1 60.5,79.5 119.1,105 97.1,150.5 43.3,158.1 2.8,114.4 		"/>
		<path class="st1" d="M107,77c-9.7-11.7-23.4-19.2-38.4-21.2l-1-0.1c-4.7-0.6-9.4-0.6-14.1,0l-1,0.1c-15,2-28.7,9.6-38.4,21.2l0,0
			l-2.4,4l-4.1,6.7l-3,4.9l0,0c0,0.1-0.1,0.3-0.2,0.4v0.1l6.5,3.9l41.5,24.6l8,4.7V67.6l-8,3.6v-8.8l8-3.6l8,3.6L109.2,81L107,77z"
			/>
		<path class="st2" d="M120.9,119.6c-0.1,19.3-8.8,37.5-23.7,49.7c-5.7,4.7-12.1,8.2-19.1,10.6c-5.7,1.9-11.6,2.8-17.6,2.8
			C27.1,182.7,0,153,0,119.6c0-4.9,0.6-9.8,1.8-14.6l58.6,34.7L119,105C120.3,109.8,121,114.7,120.9,119.6z"/>
		<polygon points="53.5,55.7 60.5,58.8 52.5,62.5 52.5,55.2 		"/>
		<polygon points="52.5,71.3 60.5,67.6 60.5,126.4 52.5,121.6 		"/>
		<polygon class="st3" points="60.5,67.6 60.5,126.4 116.7,93.2 		"/>
		<polygon class="st4" points="60.5,0 60.5,67.6 116.7,93.2 		"/>
		<path class="st5" d="M60.5,67.6v58.7l-8-4.7L4.4,93.2H4.3h0.1c0-0.1,0.1-0.3,0.2-0.4l0,0l7-11.7l40.8-18.5v8.7L60.5,67.6z"/>
		<polygon class="st6" points="60.5,67.6 60.5,126.4 52.5,121.6 4.4,93.2 4.4,93.2 4.5,93.1 52.5,71.3 		"/>
		<polygon class="st7" points="60.5,0 60.5,67.6 4.4,93.2 		"/>
		<path class="st8" d="M37.8,177.9c0.8,0.4,1.7,0.7,2.5,1C39.5,178.6,38.7,178.2,37.8,177.9z"/>
		<path class="st8" d="M40.3,178.9c0.8,0.3,1.7,0.7,2.6,0.9C42.1,179.6,41.2,179.3,40.3,178.9z"/>
		<path class="st8" d="M45.2,180.5c0.7,0.2,1.3,0.4,2,0.5C46.5,180.9,45.8,180.7,45.2,180.5z"/>
		<path class="st7" d="M1.9,105l58.6,34.7c-0.8,5.3-2.2,10.4-4.2,15.4c-4.7,11.4-14.1,23.4-32.5,14.2l0,0
			C8.9,157.1,0.2,138.9,0.1,119.6C0.1,114.7,0.7,109.8,1.9,105z"/>
		<path class="st9" d="M97.2,169.3l-0.2,0.1c-0.3,0.2-0.6,0.5-0.9,0.7l-0.1,0.1c-0.3,0.3-0.7,0.5-1,0.8c-0.4,0.3-0.7,0.6-1.1,0.8
			c-0.4,0.2-0.8,0.5-1.1,0.8c-0.4,0.3-0.7,0.4-1,0.7l-0.2,0.1c-0.4,0.2-0.7,0.4-1,0.7c0,0-0.1,0-0.1,0.1c-0.4,0.2-0.7,0.4-1.1,0.7
			c-0.4,0.2-0.8,0.4-1.2,0.7c-0.4,0.2-0.8,0.4-1.2,0.6l0,0l-1.2,0.6c-0.4,0.2-0.8,0.4-1.2,0.6c-0.4,0.2-0.8,0.4-1.2,0.6
			c-0.8,0.4-1.7,0.7-2.5,1s-1.7,0.6-2.6,0.9c-0.3,0.1-0.7,0.2-1,0.3l-1.2,0.4c-0.7,0.2-1.3,0.4-2,0.5c-0.2,0.1-0.5,0.1-0.8,0.2
			l-0.4,0.1l-1.1,0.2c-0.4,0.1-0.6,0.1-1,0.2c-0.3,0.1-0.6,0.1-0.9,0.2c-0.3,0-0.7,0.1-1,0.2c-0.2,0-0.3,0-0.5,0.1l-0.8,0.1h-0.4
			c-0.3,0-0.6,0.1-0.8,0.1c-0.3,0-0.7,0.1-1,0.1s-0.5,0-0.8,0s-0.5,0-0.7,0l0,0c-0.3,0-0.6,0-0.8,0c-0.2,0-0.8,0-1.1,0h-2.4
			c-0.4,0-0.8,0-1.1,0c-0.3,0-0.6,0-0.8,0l0,0c-0.2,0-0.5,0-0.7,0s-0.5,0-0.8,0s-0.7-0.1-1-0.1s-0.6,0-0.8-0.1H54
			c-0.2,0-0.5-0.1-0.8-0.1c-0.2,0-0.3,0-0.5-0.1c-0.3,0-0.7-0.1-1-0.2c-0.3,0-0.6-0.1-0.9-0.2c-0.3,0-0.7-0.1-1-0.2
			s-0.7-0.2-1.1-0.2l-0.4-0.1c-0.3,0-0.6-0.1-0.8-0.1c-0.7-0.2-1.4-0.4-2-0.5l-1.2-0.4c-0.4-0.1-0.7-0.2-1-0.3
			c-0.9-0.3-1.7-0.6-2.6-0.9c-0.9-0.3-1.7-0.7-2.5-1c-0.4-0.2-0.8-0.4-1.2-0.6l-1.2-0.6l-1.2-0.6l0,0c-0.4-0.2-0.8-0.4-1.2-0.6
			s-0.8-0.4-1.2-0.7c-0.4-0.2-0.7-0.4-1.1-0.7l-0.1-0.1c-0.4-0.2-0.7-0.4-1-0.7l-0.2-0.1c-0.3-0.2-0.7-0.4-1-0.7
			c-0.3-0.2-0.8-0.5-1.1-0.8c-0.4-0.3-0.8-0.5-1.1-0.8l-1-0.8l-0.1-0.1c-0.3-0.2-0.6-0.5-0.9-0.7l-0.2-0.1
			c18.3,9.1,27.8-2.9,32.5-14.2c2-4.9,3.4-10.1,4.2-15.4c0.8,5.3,2.2,10.4,4.2,15.4C69.4,166.4,78.9,178.4,97.2,169.3z"/>
		<path class="st8" d="M73.9,181.1c0.7-0.2,1.4-0.4,2-0.5C75.3,180.7,74.6,180.9,73.9,181.1z"/>
		<path class="st8" d="M78.1,179.8c0.9-0.3,1.7-0.6,2.6-0.9C79.9,179.3,79,179.6,78.1,179.8z"/>
		<path class="st8" d="M80.7,178.9c0.8-0.3,1.7-0.7,2.5-1C82.4,178.2,81.6,178.6,80.7,178.9z"/>
		<path class="st4" d="M120.9,119.6c-0.1,19.3-8.8,37.5-23.7,49.7c-18.3,9.1-27.8-2.9-32.5-14.2c-2-4.9-3.4-10.1-4.2-15.4l58.6-34.7
			C120.3,109.8,120.9,114.7,120.9,119.6z"/>
	</g>
</g>
</svg>
