<?xml version="1.0" encoding="utf-8"?>
<!-- Generator: Adobe Illustrator 23.1.0, SVG Export Plug-In . SVG Version: 6.00 Build 0)  -->
<svg version="1.1" id="trezor" xmlns="http://www.w3.org/2000/svg" xmlns:xlink="http://www.w3.org/1999/xlink" x="0px" y="0px"
	 viewBox="0 0 497.2 722.4" style="enable-background:new 0 0 497.2 722.4;" xml:space="preserve">
<style type="text/css">
	.st0{display:none;fill:#FFFFFF;stroke:#000000;}
</style>
<path id="rect25" class="st0" d="M1186,2932.6h46.2v147H1186V2932.6z"/>
<path id="path7" d="M249,0C149.9,0,69.7,80.2,69.7,179.3v67.2C34.9,252.8,0,261.2,0,272.1v350.7c0,0,0,9.7,10.9,14.3
	c39.5,16,194.9,71,230.6,83.6c4.6,1.7,5.9,1.7,7.1,1.7c1.7,0,2.5,0,7.1-1.7c35.7-12.6,191.5-67.6,231-83.6
	c10.1-4.2,10.5-13.9,10.5-13.9V272.1c0-10.9-34.4-19.7-69.3-25.6v-67.2C428.4,80.2,347.7,0,249,0z M249,85.7
	c58.4,0,93.7,35.3,93.7,93.7v58.4c-65.5-4.6-121.4-4.6-187.3,0v-58.4C155.4,120.9,190.7,85.7,249,85.7z M248.6,323.8
	c81.5,0,149.9,6.3,149.9,17.6v218.8c0,3.4-0.4,3.8-3.4,5c-2.9,1.3-139,50.4-139,50.4s-5.5,1.7-7.1,1.7c-1.7,0-7.1-2.1-7.1-2.1
	s-136.1-49.1-139-50.4s-3.4-1.7-3.4-5V341C98.7,329.7,167.1,323.8,248.6,323.8z"/>
</svg>
