<svg width="24" height="16" viewBox="0 0 24 16" fill="none" xmlns="http://www.w3.org/2000/svg">
<path fill-rule="evenodd" clip-rule="evenodd" d="M10.8985 3.42857C10.8985 5.32572 9.44757 6.85714 7.63666 6.85714C5.82575 6.85714 4.36393 5.32572 4.36393 3.42857C4.36393 1.53143 5.82575 0 7.63666 0C9.44757 0 10.8985 1.53143 10.8985 3.42857ZM19.6257 3.42857C19.6257 5.32572 18.1748 6.85714 16.3639 6.85714C14.553 6.85714 13.0911 5.32572 13.0911 3.42857C13.0911 1.53143 14.553 0 16.3639 0C18.1748 0 19.6257 1.53143 19.6257 3.42857ZM7.63637 9.14258C5.09455 9.14258 0 10.4797 0 13.1426V14.8569C0 15.4854 0.490909 15.9997 1.09091 15.9997H14.1818C14.7818 15.9997 15.2727 15.4854 15.2727 14.8569V13.1426C15.2727 10.4797 10.1782 9.14258 7.63637 9.14258ZM15.306 9.19972C15.6878 9.16543 16.0478 9.14258 16.3642 9.14258C18.906 9.14258 24.0005 10.4797 24.0005 13.1426V14.8569C24.0005 15.4854 23.5096 15.9997 22.9096 15.9997H17.2587C17.3787 15.6454 17.4551 15.2569 17.4551 14.8569V13.1426C17.4551 11.4626 16.5933 10.194 15.3496 9.24544C15.3463 9.24198 15.343 9.23747 15.3394 9.23255C15.3311 9.22121 15.3212 9.20769 15.306 9.19972Z" fill="#6D7D8B"/>
</svg>