<svg width="32" height="32" viewBox="0 0 32 32" fill="none" xmlns="http://www.w3.org/2000/svg">
<path d="M16 20C18.2091 20 20 18.2091 20 16C20 13.7909 18.2091 12 16 12C13.7909 12 12 13.7909 12 16C12 18.2091 13.7909 20 16 20Z" stroke="#575D73" stroke-width="2" stroke-linecap="round" stroke-linejoin="round"/>
<path d="M9.63749 22.3625C8.81628 21.5422 8.16247 20.57 7.71249 19.5C7.24216 18.3931 6.99976 17.2027 6.99976 16C6.99976 14.7973 7.24216 13.6069 7.71249 12.5C8.16247 11.43 8.81628 10.4578 9.63749 9.63751" stroke="#575D73" stroke-width="2" stroke-linecap="round" stroke-linejoin="round"/>
<path d="M22.3625 9.63751C23.1838 10.4578 23.8376 11.43 24.2875 12.5C24.7579 13.6069 25.0003 14.7973 25.0003 16C25.0003 17.2027 24.7579 18.3931 24.2875 19.5C23.8376 20.57 23.1838 21.5422 22.3625 22.3625" stroke="#575D73" stroke-width="2" stroke-linecap="round" stroke-linejoin="round"/>
<path d="M6.1001 25.9C4.82466 24.6222 3.80625 23.1116 3.1001 21.45C2.37402 19.7248 2 17.8718 2 16C2 14.1282 2.37402 12.2753 3.1001 10.55C3.80625 8.88843 4.82466 7.37779 6.1001 6.10001" stroke="#575D73" stroke-width="2" stroke-linecap="round" stroke-linejoin="round"/>
<path d="M25.8999 6.10001C27.1753 7.37779 28.1938 8.88843 28.8999 10.55C29.626 12.2753 30 14.1282 30 16C30 17.8718 29.626 19.7248 28.8999 21.45C28.1938 23.1116 27.1753 24.6222 25.8999 25.9" stroke="#575D73" stroke-width="2" stroke-linecap="round" stroke-linejoin="round"/>
</svg>
