<svg width="56" height="50" viewBox="0 0 56 50" fill="none" xmlns="http://www.w3.org/2000/svg">
<g id="Group 4363">
<g id="Group 4327">
<path id="Vector 2" d="M55.5598 9.63382C55.7179 10.2266 55.8319 10.8376 55.8981 11.4629L55.4008 11.5154C55.4472 11.9542 55.4691 12.4005 55.4649 12.8529L55.4503 14.4173L55.9502 14.422L55.9308 16.5079L55.4308 16.5032L55.4016 19.632L55.9016 19.6367L55.8822 21.7225L55.3822 21.7178L55.353 24.8466L55.853 24.8513L55.8335 26.9371L55.3336 26.9324L55.3044 30.0612L55.8044 30.0659L55.7849 32.1518L55.2849 32.1471L55.2704 33.7115C55.2665 34.1273 55.1221 34.4733 54.8998 34.7357L55.2813 35.059C54.8565 35.5603 54.2088 35.8385 53.5573 35.8001L53.5867 35.3009C53.2455 35.2808 52.8992 35.1453 52.6013 34.8575L51.6635 33.9514L51.3161 34.311L50.0657 33.1029L50.4131 32.7433L48.5374 30.9312L48.19 31.2907L46.9396 30.0826L47.287 29.7231L46.3492 28.817C46.1857 28.6591 45.9678 28.5691 45.7396 28.5669L44.4217 28.5543L44.4169 29.0543L42.6597 29.0375L42.6644 28.5376L40.0286 28.5124L40.0239 29.0124L38.2666 28.9956L38.2714 28.4957L35.6355 28.4705L35.6308 28.9705L33.8736 28.9538L33.8783 28.4538L32.5604 28.4412C32.0218 28.4361 31.4911 28.399 30.9701 28.3319L30.9062 28.8278C30.1682 28.7327 29.4484 28.5794 28.7514 28.3727L28.8936 27.8933C27.8643 27.588 26.8864 27.1616 25.9758 26.6303L25.7238 27.0622C25.0874 26.6909 24.4828 26.2703 23.915 25.8056L24.2317 25.4187C23.4093 24.7457 22.667 23.9767 22.0214 23.1286L21.6236 23.4315C21.1799 22.8487 20.7803 22.23 20.4298 21.5805L20.8698 21.343C20.3698 20.4166 19.9732 19.4253 19.6957 18.385L19.2126 18.5138C19.0253 17.8119 18.8903 17.0884 18.812 16.3481L19.3093 16.2955C19.2539 15.7725 19.2279 15.2405 19.233 14.7013C19.238 14.1621 19.2739 13.6308 19.339 13.1089L18.8428 13.047C18.9349 12.3083 19.0833 11.5876 19.2836 10.8893L19.7643 11.0273C20.0611 9.99244 20.4761 9.00883 20.9932 8.09211L20.5577 7.8464C20.9204 7.20366 21.3314 6.59265 21.7859 6.01843L22.178 6.32874C22.8393 5.49314 23.5958 4.73836 24.4306 4.08112L24.1213 3.68826C24.6977 3.23448 25.31 2.82548 25.9533 2.46638L26.1971 2.90297C27.1174 2.3892 28.1031 1.98152 29.1379 1.69588L29.0049 1.21391C29.7056 1.0205 30.4281 0.880987 31.1677 0.800008L31.2221 1.29704C31.7443 1.23986 32.2756 1.21294 32.8141 1.21808L34.5349 1.23449L34.5397 0.73451L36.8341 0.75639L36.8294 1.25637L40.271 1.28919L40.2758 0.789211L42.5702 0.811091L42.5655 1.31107L44.2863 1.32748C44.7381 1.33179 45.1832 1.36287 45.6202 1.41917L45.684 0.923269C46.3073 1.00357 46.9152 1.13302 47.5038 1.30763L47.3617 1.78698C48.2249 2.04305 49.0451 2.40068 49.8088 2.84625L50.0608 2.41438C50.5983 2.72795 51.1089 3.08316 51.5884 3.47559L51.2717 3.86252C51.9615 4.42706 52.5842 5.07215 53.1258 5.78353L53.5236 5.48067C53.8983 5.97284 54.2358 6.49536 54.5318 7.0439L54.0918 7.28135C54.5112 8.05847 54.8439 8.89004 55.0767 9.76267L55.5598 9.63382Z" fill="white" fill-opacity="0.1" stroke="#CCCCCC" stroke-dasharray="3 2"/>
</g>
<g id="Group 4326">
<path id="Vector 2_2" d="M0.0371248 26.321L0.231625 47.1795C0.248791 49.0207 2.43152 49.9524 3.74802 48.6805L10.0002 42.6399C10.0722 42.5704 10.1676 42.5312 10.2671 42.5302L23.4463 42.4046C31.153 42.3311 37.3417 35.9535 37.269 28.16C37.1963 20.3664 30.8899 14.108 23.1831 14.1815L11.7109 14.2909C5.20229 14.3529 -0.0242523 19.739 0.0371248 26.321Z" fill="#B1B2B6"/>
</g>
<path id="Vector 15" d="M8.20312 25.6499H28.1484" stroke="white" stroke-width="1.74999" stroke-linecap="round"/>
<path id="Vector 16" d="M8.20312 31.7451H20.9102" stroke="white" stroke-width="1.74999" stroke-linecap="round"/>
<path id="Vector" d="M11.3364 6.78235L10.3243 9.56566C10.2995 9.63245 10.2548 9.69005 10.1963 9.73073C10.1379 9.77141 10.0683 9.79321 9.99707 9.79321C9.92583 9.79321 9.85629 9.77141 9.7978 9.73073C9.73931 9.69005 9.69467 9.63245 9.66988 9.56566L8.65777 6.78235C8.64009 6.73437 8.61221 6.69081 8.57606 6.65465C8.53991 6.6185 8.49634 6.59062 8.44836 6.57295L5.66506 5.56083C5.59826 5.53604 5.54066 5.4914 5.49998 5.43291C5.4593 5.37442 5.4375 5.30489 5.4375 5.23364C5.4375 5.1624 5.4593 5.09286 5.49998 5.03437C5.54066 4.97588 5.59826 4.93124 5.66506 4.90645L8.44836 3.89434C8.49634 3.87666 8.53991 3.84879 8.57606 3.81263C8.61221 3.77648 8.64009 3.73291 8.65777 3.68494L9.66988 0.901628C9.69467 0.834837 9.73931 0.777233 9.7978 0.736554C9.85629 0.695876 9.92583 0.674072 9.99707 0.674072C10.0683 0.674072 10.1379 0.695876 10.1963 0.736554C10.2548 0.777233 10.2995 0.834837 10.3243 0.901628L11.3364 3.68494C11.3541 3.73291 11.3819 3.77648 11.4181 3.81263C11.4542 3.84879 11.4978 3.87666 11.5458 3.89434L14.3291 4.90645C14.3959 4.93124 14.4535 4.97588 14.4942 5.03437C14.5348 5.09286 14.5566 5.1624 14.5566 5.23364C14.5566 5.30489 14.5348 5.37442 14.4942 5.43291C14.4535 5.4914 14.3959 5.53604 14.3291 5.56083L11.5458 6.57295C11.4978 6.59062 11.4542 6.6185 11.4181 6.65465C11.3819 6.69081 11.3541 6.73437 11.3364 6.78235V6.78235Z" stroke="#CCCCCC" stroke-linecap="round" stroke-linejoin="round"/>
</g>
</svg>
