<svg width="39" height="42" viewBox="0 0 39 42" fill="none" xmlns="http://www.w3.org/2000/svg">
<path d="M36.4275 15.0938L32.7556 8.72305C32.3186 7.97571 31.7006 7.35035 30.9585 6.90457C30.2164 6.45879 29.3741 6.20692 28.5091 6.17218C27.6441 6.13743 26.7842 6.32092 26.0087 6.70574C25.2333 7.09056 24.5671 7.66434 24.0716 8.37422L20.8954 2.86641C20.2118 1.68525 19.0881 0.823085 17.7702 0.468665C16.4523 0.114245 15.0476 0.296451 13.8638 0.975391C13.1268 1.41048 12.5038 2.0146 12.0462 2.73789C11.4425 2.19671 10.7188 1.80659 9.9349 1.59961C9.28518 1.41682 8.60508 1.36813 7.93595 1.4565C7.26683 1.54488 6.62268 1.76847 6.04271 2.11367C5.45668 2.44866 4.94263 2.89618 4.53014 3.43051C4.11764 3.96483 3.81482 4.57541 3.63909 5.22716C3.46335 5.8789 3.41817 6.55895 3.50615 7.22822C3.59412 7.89748 3.8135 8.54276 4.15169 9.12695L4.77591 10.1918C4.01276 10.2569 3.27322 10.4888 2.60951 10.8711C1.43642 11.5577 0.581686 12.6794 0.231036 13.9927C-0.119614 15.3059 0.0621568 16.7044 0.736849 17.8844L8.44779 31.25C9.49195 33.1191 10.8972 34.762 12.5818 36.0832C14.2665 37.4045 16.1969 38.3777 18.261 38.9464C20.3251 39.515 22.4816 39.6678 24.6052 39.3957C26.7288 39.1237 28.7772 38.4323 30.6312 37.3617C32.4853 36.2911 34.1081 34.8627 35.4053 33.1595C36.7025 31.4562 37.6482 29.5122 38.1875 27.4402C38.7269 25.3683 38.849 23.2099 38.5468 21.0903C38.2447 18.9708 37.5243 16.9324 36.4275 15.0938ZM35.1974 26.5867C34.7562 28.2654 33.9851 29.8394 32.9292 31.2169C31.8732 32.5943 30.5535 33.7477 29.047 34.6098C26.0102 36.3612 22.4025 36.8365 19.0157 35.9313C15.6289 35.0261 12.7394 32.8143 10.9814 29.7812L3.27044 16.4156C2.97829 15.9092 2.89927 15.3075 3.05076 14.7429C3.20226 14.1782 3.57186 13.6968 4.07826 13.4047C4.58465 13.1125 5.18637 13.0335 5.75103 13.185C6.31569 13.3365 6.79704 13.7061 7.08919 14.2125L11.1283 21.2074C11.2247 21.375 11.3532 21.5219 11.5064 21.6398C11.6596 21.7577 11.8346 21.8443 12.0213 21.8946C12.2079 21.9449 12.4027 21.9579 12.5944 21.9329C12.7861 21.908 12.971 21.8455 13.1386 21.749C13.3062 21.6526 13.4531 21.5241 13.571 21.3709C13.6889 21.2176 13.7755 21.0427 13.8258 20.856C13.8761 20.6693 13.8891 20.4746 13.8641 20.2829C13.8391 20.0912 13.7766 19.9062 13.6802 19.7387L9.64115 12.7437L6.70365 7.6582C6.41171 7.1525 6.33247 6.55159 6.48333 5.9875C6.55622 5.70664 6.68478 5.44328 6.86139 5.21305C7.038 4.98282 7.25907 4.79042 7.51146 4.64727C8.01716 4.35533 8.61807 4.27609 9.18216 4.42695C9.74337 4.58681 10.2226 4.95444 10.5224 5.45508L11.9728 8.00703H11.9911L16.7646 16.2688C16.8886 16.4951 17.0722 16.6833 17.2955 16.8127C17.5188 16.9422 17.7733 17.008 18.0314 17.0031C18.2906 17.0082 18.5456 16.9381 18.7658 16.8012C19.1008 16.6056 19.3449 16.2853 19.4446 15.9104C19.5444 15.5354 19.4917 15.1363 19.2982 14.8L14.5247 6.53828C14.2326 6.03188 14.1536 5.43017 14.3051 4.86551C14.4566 4.30085 14.8262 3.8195 15.3326 3.52734C15.8389 3.23519 16.4407 3.15617 17.0053 3.30766C17.57 3.45916 18.0513 3.82876 18.3435 4.33516L23.8513 13.8637L25.0079 15.8832C23.408 17.2147 22.3298 19.0686 21.9637 21.1176C21.5975 23.1667 21.967 25.2792 23.0068 27.0824C23.2166 27.3868 23.5335 27.6009 23.8942 27.6819C24.2549 27.7629 24.6329 27.7049 24.9527 27.5195C25.2725 27.3341 25.5107 27.0349 25.6196 26.6816C25.7285 26.3284 25.7002 25.947 25.5404 25.6137C24.7618 24.2648 24.5508 22.6619 24.9536 21.1575C25.3564 19.653 26.3401 18.3701 27.6884 17.5906C27.8581 17.4938 28.007 17.3646 28.1267 17.2102C28.2464 17.0559 28.3346 16.8794 28.3861 16.691C28.4757 16.3183 28.4233 15.9256 28.2392 15.5895L26.4033 12.3949C26.1907 12.0179 26.0939 11.5865 26.125 11.1548C26.156 10.723 26.3136 10.31 26.578 9.96729C26.8424 9.62456 27.2019 9.3673 27.6116 9.22765C28.0213 9.088 28.4631 9.07213 28.8818 9.18203C29.1578 9.25495 29.4166 9.3817 29.6435 9.55499C29.8703 9.72828 30.0607 9.94469 30.2036 10.1918L33.8755 16.5625C34.7533 18.0607 35.3225 19.7195 35.5495 21.441C35.7765 23.1626 35.6568 24.9121 35.1974 26.5867ZM12.1013 40.907C11.9627 41.0991 11.7807 41.2557 11.5701 41.3641C11.3596 41.4726 11.1264 41.5299 10.8896 41.5312C10.5894 41.5276 10.2964 41.4385 10.0451 41.2742C7.37472 39.4291 5.15351 37.0071 3.54583 34.1875C3.43088 34.0207 3.35167 33.832 3.31316 33.6332C3.27466 33.4343 3.2777 33.2296 3.32209 33.032C3.36648 32.8344 3.45126 32.6481 3.57111 32.4848C3.69096 32.3216 3.84328 32.1848 4.0185 32.0833C4.19373 31.9817 4.38807 31.9174 4.58932 31.8946C4.79057 31.8717 4.99437 31.8907 5.18791 31.9504C5.38146 32.0101 5.56057 32.1091 5.714 32.2414C5.86742 32.3736 5.99184 32.5361 6.07943 32.7188C7.48239 35.1597 9.41465 37.255 11.7341 38.8508C12.0533 39.0765 12.2708 39.4188 12.3395 39.8036C12.4082 40.1884 12.3226 40.5848 12.1013 40.907ZM26.8439 1.69141C26.8439 1.30187 26.9986 0.928287 27.2741 0.652843C27.5495 0.377399 27.9231 0.222656 28.3126 0.222656C30.2467 0.225127 32.1463 0.735095 33.8216 1.70161C35.4969 2.66812 36.8892 4.05734 37.8595 5.73047C37.9571 5.89745 38.0203 6.08225 38.0453 6.27401C38.0704 6.46576 38.0569 6.6606 38.0056 6.84706C37.9543 7.03352 37.8662 7.20783 37.7465 7.35975C37.6268 7.51166 37.478 7.6381 37.3087 7.73164C37.0895 7.87057 36.8338 7.94089 36.5743 7.93359C36.3174 7.93269 36.0652 7.86439 35.8429 7.73553C35.6206 7.60666 35.436 7.42174 35.3076 7.19922C34.5986 5.97133 33.579 4.95165 32.3512 4.24265C31.1233 3.53366 29.7305 3.16032 28.3126 3.16016C27.9231 3.16016 27.5495 3.00541 27.2741 2.72997C26.9986 2.45452 26.8439 2.08094 26.8439 1.69141Z" fill="#D53893"/>
</svg>
