<svg width="29" height="29" viewBox="0 0 29 29" fill="none" xmlns="http://www.w3.org/2000/svg">
<g id="chat 1" clip-path="url(#clip0_23910_28340)">
<g id="Group">
<g id="Group_2">
<path id="Vector" d="M17.0714 6.09595H6.78494C6.31176 6.09595 5.92773 6.47998 5.92773 6.95315C5.92773 7.42633 6.31176 7.81036 6.78494 7.81036H17.0714C17.5446 7.81036 17.9286 7.42633 17.9286 6.95315C17.9286 6.47998 17.5446 6.09595 17.0714 6.09595Z" fill="#D53A94"/>
</g>
</g>
<g id="Group_3">
<g id="Group_4">
<path id="Vector_2" d="M13.6426 9.52478H6.78494C6.31176 9.52478 5.92773 9.90881 5.92773 10.382C5.92773 10.8552 6.31176 11.2392 6.78494 11.2392H13.6426C14.1158 11.2392 14.4998 10.8552 14.4998 10.382C14.4998 9.90881 14.1158 9.52478 13.6426 9.52478Z" fill="#D53A94"/>
</g>
</g>
<g id="Group_5">
<g id="Group_6">
<path id="Vector_3" d="M19.6398 0.952759H4.21008C2.31908 0.952759 0.78125 2.49059 0.78125 4.38158V21.5257C0.78125 21.8583 0.973264 22.1618 1.275 22.3023C1.38987 22.3555 1.51502 22.3829 1.63846 22.3829C1.83561 22.3829 2.03106 22.3143 2.18707 22.184L7.092 18.0969H19.6398C21.5308 18.0969 23.0686 16.5591 23.0686 14.6681V4.38158C23.0686 2.49059 21.5308 0.952759 19.6398 0.952759ZM21.3542 14.6681C21.3542 15.6127 20.5861 16.3825 19.6398 16.3825H6.78169C6.58111 16.3825 6.38738 16.4528 6.23308 16.5813L2.49566 19.6964V4.38158C2.49566 3.43694 3.26372 2.66717 4.21008 2.66717H19.6398C20.5861 2.66717 21.3542 3.43694 21.3542 4.38158V14.6681Z" fill="#D53A94"/>
</g>
</g>
<g id="Group_7">
<g id="Group_8">
<path id="Vector_4" d="M24.7848 7.81055C24.3116 7.81055 23.9275 8.19458 23.9275 8.66775C23.9275 9.14093 24.3116 9.52496 24.7848 9.52496C25.7311 9.52496 26.4992 10.2947 26.4992 11.2394V25.7416L23.6052 23.4271C23.4544 23.3071 23.2641 23.2403 23.0703 23.2403H11.0695C10.1231 23.2403 9.35504 22.4705 9.35504 21.5258V20.6686C9.35504 20.1955 8.97101 19.8114 8.49783 19.8114C8.02465 19.8114 7.64062 20.1955 7.64062 20.6686V21.5258C7.64062 23.4168 9.17845 24.9547 11.0695 24.9547H22.7686L26.8198 28.1966C26.9758 28.3201 27.1661 28.3835 27.3564 28.3835C27.4815 28.3835 27.6084 28.3561 27.7284 28.2995C28.025 28.1555 28.2136 27.8555 28.2136 27.5263V11.2394C28.2136 9.34837 26.6757 7.81055 24.7848 7.81055Z" fill="#D53A94"/>
</g>
</g>
</g>
<defs>
<clipPath id="clip0_23910_28340">
<rect width="27.4306" height="27.4306" fill="white" transform="translate(0.785156 0.952759)"/>
</clipPath>
</defs>
</svg>
