<svg width="252" height="252" viewBox="0 0 252 252" fill="none" xmlns="http://www.w3.org/2000/svg">
<path d="M0 126C0 56.4121 56.4121 0 126 0C195.588 0 252 56.4121 252 126V252H0V126Z" fill="url(#paint0_linear_6814_10102)"/>
<g filter="url(#filter0_b_6814_10102)">
<rect x="25.2095" y="74" width="206.647" height="137.186" rx="12.1557" fill="white" fill-opacity="0.2"/>
<rect x="25.7095" y="74.5" width="205.647" height="136.186" rx="11.6557" stroke="#EAA7D7"/>
</g>
<rect x="66.8862" y="79.2096" width="159.76" height="127.635" rx="8.68263" fill="white"/>
<rect x="75.2007" y="155.249" width="91.0359" height="22.4431" rx="5.36078" fill="white"/>
<path fill-rule="evenodd" clip-rule="evenodd" d="M83.4918 163.051C83.7615 163.051 83.9802 163.269 83.9802 163.537V163.542C83.9802 163.81 83.7615 164.028 83.4918 164.028C83.2221 164.028 83.0034 163.81 83.0034 163.542V163.537C83.0034 163.269 83.2221 163.051 83.4918 163.051Z" fill="#494D5F"/>
<rect x="81.5382" y="161.586" width="3.90719" height="3.90719" rx="0.488398" stroke="#494D5F" stroke-width="0.976796"/>
<path fill-rule="evenodd" clip-rule="evenodd" d="M89.3527 163.051C89.6224 163.051 89.8411 163.269 89.8411 163.537V163.542C89.8411 163.81 89.6224 164.028 89.3527 164.028C89.0829 164.028 88.8643 163.81 88.8643 163.542V163.537C88.8643 163.269 89.0829 163.051 89.3527 163.051Z" fill="#494D5F"/>
<rect x="87.399" y="161.586" width="3.90719" height="3.90719" rx="0.488398" stroke="#494D5F" stroke-width="0.976796"/>
<path fill-rule="evenodd" clip-rule="evenodd" d="M83.4918 168.912C83.7615 168.912 83.9802 169.13 83.9802 169.398V169.403C83.9802 169.671 83.7615 169.889 83.4918 169.889C83.2221 169.889 83.0034 169.671 83.0034 169.403V169.398C83.0034 169.13 83.2221 168.912 83.4918 168.912Z" fill="#494D5F"/>
<rect x="81.5382" y="167.447" width="3.90719" height="3.90719" rx="0.488398" stroke="#494D5F" stroke-width="0.976796"/>
<path fill-rule="evenodd" clip-rule="evenodd" d="M86.9106 171.354C86.9106 171.084 87.173 170.866 87.4967 170.866H89.255C89.5786 170.866 89.841 171.084 89.841 171.354C89.841 171.624 89.5786 171.843 89.255 171.843H87.4967C87.173 171.843 86.9106 171.624 86.9106 171.354Z" fill="#494D5F"/>
<path fill-rule="evenodd" clip-rule="evenodd" d="M86.9106 167.447C86.9106 167.177 87.173 166.958 87.4967 166.958H89.255C89.5786 166.958 89.841 167.177 89.841 167.447C89.841 167.717 89.5786 167.935 89.255 167.935H87.4967C87.173 167.935 86.9106 167.717 86.9106 167.447Z" fill="#494D5F"/>
<path fill-rule="evenodd" clip-rule="evenodd" d="M87.3988 169.889C87.6686 169.889 87.8872 169.627 87.8872 169.303V167.545C87.8872 167.221 87.6686 166.959 87.3988 166.959C87.1291 166.959 86.9104 167.221 86.9104 167.545V169.303C86.9104 169.627 87.1291 169.889 87.3988 169.889Z" fill="#494D5F"/>
<path fill-rule="evenodd" clip-rule="evenodd" d="M91.7944 169.401C91.7944 169.131 91.532 168.912 91.2084 168.912H89.4501C89.1264 168.912 88.864 169.131 88.864 169.401C88.864 169.67 89.1264 169.889 89.4501 169.889H91.2084C91.532 169.889 91.7944 169.67 91.7944 169.401Z" fill="#494D5F"/>
<path fill-rule="evenodd" clip-rule="evenodd" d="M91.3063 171.843C91.0365 171.843 90.8179 171.58 90.8179 171.256V169.498C90.8179 169.175 91.0365 168.912 91.3063 168.912C91.576 168.912 91.7947 169.175 91.7947 169.498V171.256C91.7947 171.58 91.576 171.843 91.3063 171.843Z" fill="#494D5F"/>
<path fill-rule="evenodd" clip-rule="evenodd" d="M91.3063 166.958C91.576 166.958 91.7947 167.176 91.7947 167.444V167.449C91.7947 167.718 91.576 167.935 91.3063 167.935C91.0365 167.935 90.8179 167.718 90.8179 167.449V167.444C90.8179 167.176 91.0365 166.958 91.3063 166.958Z" fill="#494D5F"/>
<path d="M102.798 168.97V168.407H100.242V163.5H99.6564V168.97H102.798ZM103.932 164.524C104.166 164.524 104.354 164.344 104.354 164.109C104.354 163.875 104.166 163.687 103.932 163.687C103.705 163.687 103.518 163.875 103.518 164.109C103.518 164.344 103.705 164.524 103.932 164.524ZM104.205 168.97V165.454H103.658V168.97H104.205ZM106.014 168.97V166.993C106.014 166.329 106.444 165.899 107.014 165.899C107.577 165.899 107.952 166.282 107.952 166.884V168.97H108.499V166.766C108.499 165.977 107.96 165.368 107.108 165.368C106.483 165.368 106.092 165.719 105.967 165.969V165.454H105.467V168.97H106.014ZM110.89 166.993L112.625 165.454H111.827L110.257 166.876V163.5H109.71V168.97H110.257V167.134L112.015 168.97H112.796L110.89 166.993ZM118.678 169.087L120.881 164.711V168.97H121.452V163.5H120.881L118.67 167.899L116.458 163.5H115.888V168.97H116.458V164.711L118.67 169.087H118.678ZM124.522 169.056C125.553 169.056 126.382 168.29 126.382 167.22C126.382 166.141 125.553 165.368 124.522 165.368C123.498 165.368 122.662 166.141 122.662 167.22C122.662 168.29 123.498 169.056 124.522 169.056ZM124.522 168.509C123.803 168.509 123.248 167.97 123.248 167.22C123.248 166.462 123.803 165.915 124.522 165.915C125.233 165.915 125.796 166.462 125.796 167.22C125.796 167.97 125.233 168.509 124.522 168.509ZM129.22 165.368C128.72 165.368 128.266 165.579 127.946 165.938V163.5H127.399V168.97H127.946V168.493C128.266 168.845 128.72 169.056 129.22 169.056C130.243 169.056 131.08 168.29 131.08 167.22C131.08 166.141 130.243 165.368 129.22 165.368ZM129.22 168.509C128.509 168.509 127.946 167.97 127.946 167.22C127.946 166.462 128.509 165.915 129.22 165.915C129.939 165.915 130.493 166.462 130.493 167.22C130.493 167.97 129.939 168.509 129.22 168.509ZM132.366 164.524C132.6 164.524 132.788 164.344 132.788 164.109C132.788 163.875 132.6 163.687 132.366 163.687C132.139 163.687 131.952 163.875 131.952 164.109C131.952 164.344 132.139 164.524 132.366 164.524ZM132.639 168.97V165.454H132.092V168.97H132.639ZM135.081 169.025V168.493C134.659 168.493 134.409 168.251 134.409 167.806V163.5H133.862V167.806C133.862 168.611 134.299 169.025 135.034 169.025H135.081ZM137.541 169.056C138.221 169.056 138.823 168.712 139.143 168.157L138.698 167.868C138.463 168.267 138.018 168.509 137.541 168.509C136.971 168.509 136.361 168.11 136.267 167.391H139.284C139.424 166.258 138.588 165.368 137.502 165.368C136.408 165.368 135.673 166.219 135.673 167.212C135.673 168.212 136.478 169.056 137.541 169.056ZM136.291 166.884C136.416 166.329 136.845 165.907 137.502 165.907C138.182 165.907 138.643 166.399 138.682 166.884H136.291ZM146.925 168.97L144.706 163.5H144.205L141.963 168.97H142.596L143.088 167.743H145.8L146.292 168.97H146.925ZM144.448 164.367L145.581 167.196H143.307L144.448 164.367ZM149.488 165.368C148.988 165.368 148.535 165.579 148.214 165.938V165.454H147.667V170.775H148.214V168.493C148.535 168.845 148.988 169.056 149.488 169.056C150.512 169.056 151.348 168.29 151.348 167.22C151.348 166.141 150.512 165.368 149.488 165.368ZM149.488 168.509C148.777 168.509 148.214 167.97 148.214 167.22C148.214 166.462 148.777 165.915 149.488 165.915C150.207 165.915 150.762 166.462 150.762 167.22C150.762 167.97 150.207 168.509 149.488 168.509ZM154.181 165.368C153.681 165.368 153.228 165.579 152.908 165.938V165.454H152.361V170.775H152.908V168.493C153.228 168.845 153.681 169.056 154.181 169.056C155.205 169.056 156.041 168.29 156.041 167.22C156.041 166.141 155.205 165.368 154.181 165.368ZM154.181 168.509C153.47 168.509 152.908 167.97 152.908 167.22C152.908 166.462 153.47 165.915 154.181 165.915C154.9 165.915 155.455 166.462 155.455 167.22C155.455 167.97 154.9 168.509 154.181 168.509Z" fill="#657795"/>
<rect x="75.2007" y="155.249" width="91.0359" height="22.4431" rx="5.36078" stroke="#D53893"/>
<rect x="34.7603" y="91.3652" width="18.2335" height="2.60479" rx="1.3024" fill="#D1D2DD"/>
<rect x="75" y="91" width="34" height="3" rx="1.5" fill="#D1D2DD"/>
<rect x="128" y="91" width="86" height="3" rx="1.5" fill="#D1D2DD"/>
<rect x="34.7603" y="102.653" width="25.1796" height="2.60479" rx="1.3024" fill="#D1D2DD"/>
<rect x="34.7603" y="177.323" width="17.3653" height="2.60479" rx="1.3024" fill="#D1D2DD"/>
<rect x="34.7603" y="187.742" width="17.3653" height="2.60479" rx="1.3024" fill="#D1D2DD"/>
<rect x="34.7603" y="156.485" width="25.1796" height="2.60479" rx="1.3024" fill="#D1D2DD"/>
<rect x="88.5928" y="191.216" width="19.1018" height="2.60479" rx="1.3024" fill="#D1D2DD"/>
<rect x="34.7603" y="166.904" width="22.5749" height="2.60479" rx="1.3024" fill="#D1D2DD"/>
<rect x="34.7603" y="113.94" width="25.1796" height="2.60479" rx="1.3024" fill="#DD44B9"/>
<circle cx="79.4761" cy="192.518" r="4.77545" fill="#D1D1DD"/>
<path d="M115.825 187.634C116.446 187.634 116.949 187.1 116.949 186.44C116.949 185.781 116.446 185.246 115.825 185.246C115.203 185.246 114.7 185.781 114.7 186.44C114.7 187.1 115.203 187.634 115.825 187.634Z" fill="#DD44B9"/>
<path d="M115.825 192.409C116.446 192.409 116.949 191.875 116.949 191.216C116.949 190.556 116.446 190.022 115.825 190.022C115.203 190.022 114.7 190.556 114.7 191.216C114.7 191.875 115.203 192.409 115.825 192.409Z" fill="#DD44B9"/>
<path d="M115.825 197.185C116.446 197.185 116.949 196.65 116.949 195.991C116.949 195.332 116.446 194.797 115.825 194.797C115.203 194.797 114.7 195.332 114.7 195.991C114.7 196.65 115.203 197.185 115.825 197.185Z" fill="#DD44B9"/>
<path d="M138.434 102C138.434 101.687 138.687 101.434 139 101.434H167.599C170.673 101.434 173.165 103.926 173.165 107C173.165 110.074 170.673 112.566 167.599 112.566H145C141.374 112.566 138.434 109.626 138.434 106V102Z" stroke="#D1D1DD" stroke-width="0.868263"/>
<path d="M212.566 114C212.566 113.687 212.313 113.434 212 113.434H188C184.926 113.434 182.434 115.926 182.434 119C182.434 122.074 184.926 124.566 188 124.566H206C209.626 124.566 212.566 121.626 212.566 118V114Z" stroke="#D1D1DD" stroke-width="0.868263"/>
<path d="M138.434 140C138.434 136.926 140.926 134.434 144 134.434H156C156.313 134.434 156.566 134.687 156.566 135V139C156.566 142.626 153.626 145.566 150 145.566H144C140.926 145.566 138.434 143.074 138.434 140Z" stroke="#D1D1DD" stroke-width="0.868263"/>
<path d="M172.434 134C172.434 130.926 174.926 128.434 178 128.434H212.491C212.804 128.434 213.057 128.687 213.057 129V133C213.057 136.626 210.117 139.566 206.491 139.566H178C174.926 139.566 172.434 137.074 172.434 134Z" stroke="#D1D1DD" stroke-width="0.868263"/>
<path d="M20.5 214.659C20.5 212.537 22.2198 210.817 24.3413 210.817H233.593C235.714 210.817 237.434 212.537 237.434 214.659C237.434 216.78 235.714 218.5 233.593 218.5H24.3413C22.2198 218.5 20.5 216.78 20.5 214.659Z" fill="white" stroke="#EAA7D7"/>
<path d="M147.102 210.817C146.857 212.703 145.245 214.159 143.293 214.159H114.641C112.689 214.159 111.077 212.703 110.832 210.817H147.102Z" fill="white" stroke="#EAA7D7"/>
<defs>
<filter id="filter0_b_6814_10102" x="10.2095" y="59" width="236.646" height="167.186" filterUnits="userSpaceOnUse" color-interpolation-filters="sRGB">
<feFlood flood-opacity="0" result="BackgroundImageFix"/>
<feGaussianBlur in="BackgroundImageFix" stdDeviation="7.5"/>
<feComposite in2="SourceAlpha" operator="in" result="effect1_backgroundBlur_6814_10102"/>
<feBlend mode="normal" in="SourceGraphic" in2="effect1_backgroundBlur_6814_10102" result="shape"/>
</filter>
<linearGradient id="paint0_linear_6814_10102" x1="150.521" y1="24.251" x2="150.964" y2="178.999" gradientUnits="userSpaceOnUse">
<stop stop-color="#F4A8E4"/>
<stop offset="1" stop-color="#F4A8E4" stop-opacity="0"/>
</linearGradient>
</defs>
</svg>
