<svg width="48" height="48" viewBox="0 0 48 48" fill="none" xmlns="http://www.w3.org/2000/svg">
<g id="unlock 1">
<g id="Unlock">
<path id="Vector" d="M31.5 43.8126H16.5C12.3578 43.8126 9 40.4548 9 36.3126V21.3126C9 19.2416 10.679 17.5626 12.75 17.5626H35.25C37.321 17.5626 39 19.2416 39 21.3126V36.3126C39 40.4548 35.6422 43.8126 31.5 43.8126Z" stroke="#D53893" stroke-width="2.5" stroke-miterlimit="10" stroke-linecap="round" stroke-linejoin="round"/>
<path id="Vector_2" d="M24 35.2895C24 34.0068 24.6085 32.7307 25.7437 32.1334C26.9366 31.5058 27.75 30.2542 27.75 28.8126C27.75 26.7416 26.071 25.0626 24 25.0626C21.929 25.0626 20.25 26.7416 20.25 28.8126C20.25 30.2542 21.0634 31.5058 22.2563 32.1334C23.3915 32.7307 24 34.0068 24 35.2895ZM24 35.2895V36.3126" stroke="#D53893" stroke-width="2.5" stroke-miterlimit="10" stroke-linecap="round" stroke-linejoin="round"/>
<path id="Vector_3" d="M16.5 16.6873V11.6873C16.5 7.5451 19.8578 4.18726 24 4.18726C28.1422 4.18726 31.5 7.5451 31.5 11.6873V16.6873" stroke="#D53893" stroke-width="2.5" stroke-miterlimit="10" stroke-linecap="round" stroke-linejoin="round"/>
</g>
</g>
</svg>
