<svg width="38" height="33" viewBox="0 0 38 33" fill="none" xmlns="http://www.w3.org/2000/svg">
<path d="M34.5 6H4.5C4.10218 6 3.72064 5.84196 3.43934 5.56066C3.15804 5.27936 3 4.89782 3 4.5C3 4.10218 3.15804 3.72064 3.43934 3.43934C3.72064 3.15804 4.10218 3 4.5 3H30C30.3978 3 30.7794 2.84196 31.0607 2.56066C31.342 2.27936 31.5 1.89782 31.5 1.5C31.5 1.10218 31.342 0.720645 31.0607 0.43934C30.7794 0.158036 30.3978 0 30 0H4.5C3.30653 0 2.16193 0.474106 1.31802 1.31802C0.474106 2.16193 0 3.30653 0 4.5V28.5C0 29.6935 0.474106 30.8381 1.31802 31.682C2.16193 32.5259 3.30653 33 4.5 33H34.5C35.2957 33 36.0587 32.6839 36.6213 32.1213C37.1839 31.5587 37.5 30.7956 37.5 30V9C37.5 8.20435 37.1839 7.44129 36.6213 6.87868C36.0587 6.31607 35.2957 6 34.5 6ZM34.5 30H4.5C4.10218 30 3.72064 29.842 3.43934 29.5607C3.15804 29.2794 3 28.8978 3 28.5V8.74312C3.48164 8.91386 3.98899 9.00074 4.5 9H34.5V30ZM25.5 18.75C25.5 18.305 25.632 17.87 25.8792 17.5C26.1264 17.13 26.4778 16.8416 26.889 16.6713C27.3001 16.501 27.7525 16.4564 28.189 16.5432C28.6254 16.63 29.0263 16.8443 29.341 17.159C29.6557 17.4737 29.87 17.8746 29.9568 18.311C30.0436 18.7475 29.999 19.1999 29.8287 19.611C29.6584 20.0222 29.37 20.3736 29 20.6208C28.63 20.868 28.195 21 27.75 21C27.1533 21 26.581 20.7629 26.159 20.341C25.7371 19.919 25.5 19.3467 25.5 18.75Z" fill="#D53A94"/>
</svg>
