<?xml version="1.0" encoding="UTF-8"?>
<svg version="1.1" xmlns="http://www.w3.org/2000/svg" width="2500" height="2500">
<path d="M0 0 C2.07344586 -0.00702076 4.14689149 -0.01410759 6.22033691 -0.02125549 C12.81095693 -0.04066083 19.4015418 -0.04568949 25.9921875 -0.046875 C27.11443474 -0.04731686 28.23668198 -0.04775871 29.39293671 -0.04821396 C61.68928385 -0.05488549 93.86503746 0.03478253 126.05499268 2.94989014 C129.0175449 3.21666451 131.98102211 3.47065535 134.94482422 3.72314453 C181.26359666 7.71320696 227.26306492 14.17233428 272.8671875 23.203125 C273.73200745 23.3743689 274.59682739 23.54561279 275.487854 23.7220459 C369.58842643 42.4518802 461.35337856 72.24328161 560.8671875 118.203125 C561.91551758 118.6990918 562.96384766 119.19505859 564.04394531 119.70605469 C585.32501601 129.79884393 606.40418274 140.18285572 627.00146484 151.61425781 C629.9382922 153.24254819 632.88113631 154.85961018 635.82421875 156.4765625 C650.67431457 164.67412795 665.20363174 173.33498267 679.64599609 182.22363281 C682.54382225 184.00441002 685.44809808 185.77393065 688.35546875 187.5390625 C717.46634372 205.28378393 745.56264883 224.80689025 772.8671875 245.203125 C774.28112391 246.25407591 775.69518371 247.30486084 777.109375 248.35546875 C790.70107423 258.47536647 803.93640247 269.00702596 817.05859375 279.7265625 C818.6595423 281.03360041 820.26316726 282.33735856 821.8671875 283.640625 C828.37082404 288.93428265 834.78780517 294.3244703 841.17138672 299.76171875 C842.86953596 301.20512116 844.57308943 302.64193923 846.27734375 304.078125 C853.25251407 309.97935774 860.01524501 316.06229076 866.66552734 322.32763672 C870.43158626 325.87502765 874.25649899 329.32561483 878.1796875 332.69921875 C880.5591527 334.81980695 882.76934094 337.09340073 885.00001526 339.36839294 C886.77284891 341.11042544 888.59992366 342.72548856 890.49194336 344.33618164 C895.32740242 348.54301093 899.84610377 353.03824041 904.37109375 357.57421875 C905.2532103 358.45537857 906.13532684 359.33653839 907.04417419 360.24440002 C909.36951559 362.5688925 911.69242368 364.89578407 914.01452637 367.22351074 C915.42863574 368.63957178 916.84467871 370.05366821 918.26147461 371.46704102 C921.0090547 374.20840756 923.75310856 376.95325534 926.49609375 379.69921875 C927.33169327 380.53279404 928.16729279 381.36636932 929.0282135 382.22520447 C933.29064742 386.50454949 937.40768826 390.84558579 941.32359314 395.44544983 C942.93421867 397.27945271 944.624707 398.99460376 946.3671875 400.703125 C949.35953125 403.64912715 952.12042922 406.73295507 954.859375 409.9140625 C956.81081537 412.13885639 958.80902398 414.31483001 960.82177734 416.48413086 C965.65023235 421.69019794 970.2322388 427.0212848 974.6875 432.5546875 C976.84476149 435.17587619 979.0802975 437.69466781 981.3671875 440.203125 C986.07182322 445.3782243 990.47236889 450.76453697 994.8671875 456.203125 C995.86636407 457.42255017 996.86641315 458.64126077 997.8671875 459.859375 C1005.18656597 468.78558229 1012.27098631 477.8664316 1019.2421875 487.06640625 C1020.85851047 489.19171554 1022.48579172 491.30811941 1024.1171875 493.421875 C1031.91410379 503.53267704 1039.47058687 513.79607744 1046.8671875 524.203125 C1047.41987305 524.97994629 1047.97255859 525.75676758 1048.54199219 526.55712891 C1075.14741329 564.03960762 1099.74004779 602.91572873 1121.8671875 643.203125 C1122.88130486 645.03657205 1123.89562249 646.86990833 1124.91015625 648.703125 C1168.2306261 727.25444093 1202.99461902 810.345333 1237.8671875 931.203125 C1238.21526459 932.5300235 1238.21526459 932.5300235 1238.57037354 933.88372803 C1263.06346696 1027.58818818 1277.86627264 1125.35087491 1278.0703125 1222.3359375 C1278.07733326 1224.40938336 1278.08442009 1226.48282899 1278.09156799 1228.55627441 C1278.11097333 1235.14689443 1278.11600199 1241.7374793 1278.1171875 1248.328125 C1278.11762936 1249.45037224 1278.11807121 1250.57261948 1278.11852646 1251.72887421 C1278.12519799 1284.02522135 1278.03552997 1316.20097496 1275.12042236 1348.39093018 C1274.85364799 1351.3534824 1274.59965715 1354.31695961 1274.34716797 1357.28076172 C1270.35710554 1403.59953416 1263.89797822 1449.59900242 1254.8671875 1495.203125 C1254.6959436 1496.06794495 1254.52469971 1496.93276489 1254.3482666 1497.8237915 C1235.6184323 1591.92436393 1205.82703089 1683.68931606 1159.8671875 1783.203125 C1159.1232373 1784.77562012 1159.1232373 1784.77562012 1158.36425781 1786.37988281 C1148.27146857 1807.66095351 1137.88745678 1828.74012024 1126.45605469 1849.33740234 C1124.82776431 1852.2742297 1123.21070232 1855.21707381 1121.59375 1858.16015625 C1113.39618455 1873.01025207 1104.73532983 1887.53956924 1095.84667969 1901.98193359 C1094.06590248 1904.87975975 1092.29638185 1907.78403558 1090.53125 1910.69140625 C1072.78652857 1939.80228122 1053.26342225 1967.89858633 1032.8671875 1995.203125 C1031.81623659 1996.61706141 1030.76545166 1998.03112121 1029.71484375 1999.4453125 C1019.59368894 2013.03870009 1009.06058268 2026.2754045 998.33935547 2039.39892578 C997.04447239 2040.98585546 995.75428272 2042.57661237 994.46484375 2044.16796875 C989.83633644 2049.8678123 985.09747793 2055.46170311 980.29956055 2061.01879883 C977.33196871 2064.46383696 974.44758141 2067.95602656 971.6171875 2071.515625 C966.94080423 2077.28830324 961.84244198 2082.64371669 956.71386719 2088.01489258 C952.85608376 2092.05871367 949.10353794 2096.16216322 945.46337891 2100.40356445 C943.31539514 2102.82522067 941.01306053 2105.069892 938.70256042 2107.33517456 C936.96035564 2109.10830314 935.34503785 2110.93560988 933.73413086 2112.82788086 C929.52730157 2117.66333992 925.03207209 2122.18204127 920.49609375 2126.70703125 C919.61493393 2127.5891478 918.73377411 2128.47126434 917.82591248 2129.38011169 C915.50142 2131.70545309 913.17452843 2134.02836118 910.84680176 2136.35046387 C909.43074072 2137.76457324 908.01664429 2139.18061621 906.60327148 2140.59741211 C903.86190494 2143.3449922 901.11705716 2146.08904606 898.37109375 2148.83203125 C897.12073082 2150.08543053 897.12073082 2150.08543053 895.84510803 2151.364151 C891.56576301 2155.62658492 887.22472671 2159.74362576 882.62486267 2163.65953064 C880.79085979 2165.27015617 879.07570874 2166.9606445 877.3671875 2168.703125 C874.42118535 2171.69546875 871.33735743 2174.45636672 868.15625 2177.1953125 C865.93145611 2179.14675287 863.75548249 2181.14496148 861.58618164 2183.15771484 C856.38011456 2187.98616985 851.0490277 2192.5681763 845.515625 2197.0234375 C842.89443631 2199.18069899 840.37564469 2201.416235 837.8671875 2203.703125 C832.6920882 2208.40776072 827.30577553 2212.80830639 821.8671875 2217.203125 C820.64776233 2218.20230157 819.42905173 2219.20235065 818.2109375 2220.203125 C809.28473021 2227.52250347 800.2038809 2234.60692381 791.00390625 2241.578125 C788.87859696 2243.19444797 786.76219309 2244.82172922 784.6484375 2246.453125 C774.53763546 2254.25004129 764.27423506 2261.80652437 753.8671875 2269.203125 C753.09036621 2269.75581055 752.31354492 2270.30849609 751.51318359 2270.87792969 C714.03070488 2297.48335079 675.15458377 2322.07598529 634.8671875 2344.203125 C633.03374045 2345.21724236 631.20040417 2346.23155999 629.3671875 2347.24609375 C550.81587157 2390.5665636 467.7249795 2425.33055652 346.8671875 2460.203125 C345.540289 2460.55120209 345.540289 2460.55120209 344.18658447 2460.90631104 C250.48212432 2485.39940446 152.71943759 2500.20221014 55.734375 2500.40625 C53.66092914 2500.41327076 51.58748351 2500.42035759 49.51403809 2500.42750549 C42.92341807 2500.44691083 36.3328332 2500.45193949 29.7421875 2500.453125 C28.61994026 2500.45356686 27.49769302 2500.45400871 26.34143829 2500.45446396 C-5.95490885 2500.46113549 -38.13066246 2500.37146747 -70.32061768 2497.45635986 C-73.2831699 2497.18958549 -76.24664711 2496.93559465 -79.21044922 2496.68310547 C-125.52922166 2492.69304304 -171.52868992 2486.23391572 -217.1328125 2477.203125 C-217.99763245 2477.0318811 -218.86245239 2476.86063721 -219.753479 2476.6842041 C-313.85405143 2457.9543698 -405.61900356 2428.16296839 -505.1328125 2382.203125 C-506.70530762 2381.4591748 -506.70530762 2381.4591748 -508.30957031 2380.70019531 C-529.59064101 2370.60740607 -550.66980774 2360.22339428 -571.26708984 2348.79199219 C-574.2039172 2347.16370181 -577.14676131 2345.54663982 -580.08984375 2343.9296875 C-594.93993957 2335.73212205 -609.46925674 2327.07126733 -623.91162109 2318.18261719 C-626.80944725 2316.40183998 -629.71372308 2314.63231935 -632.62109375 2312.8671875 C-661.73196872 2295.12246607 -689.82827383 2275.59935975 -717.1328125 2255.203125 C-718.54674891 2254.15217409 -719.96080871 2253.10138916 -721.375 2252.05078125 C-734.96669923 2241.93088353 -748.20202747 2231.39922404 -761.32421875 2220.6796875 C-762.9251673 2219.37264959 -764.52879226 2218.06889144 -766.1328125 2216.765625 C-772.63644904 2211.47196735 -779.05343017 2206.0817797 -785.43701172 2200.64453125 C-787.13516096 2199.20112884 -788.83871443 2197.76431077 -790.54296875 2196.328125 C-797.51813907 2190.42689226 -804.28087001 2184.34395924 -810.93115234 2178.07861328 C-814.69721126 2174.53122235 -818.52212399 2171.08063517 -822.4453125 2167.70703125 C-824.8247777 2165.58644305 -827.03496594 2163.31284927 -829.26564026 2161.03785706 C-831.03847391 2159.29582456 -832.86554866 2157.68076144 -834.75756836 2156.07006836 C-839.59302742 2151.86323907 -844.11172877 2147.36800959 -848.63671875 2142.83203125 C-849.5188353 2141.95087143 -850.40095184 2141.06971161 -851.30979919 2140.16184998 C-853.63514059 2137.8373575 -855.95804868 2135.51046593 -858.28015137 2133.18273926 C-859.69426074 2131.76667822 -861.11030371 2130.35258179 -862.52709961 2128.93920898 C-865.2746797 2126.19784244 -868.01873356 2123.45299466 -870.76171875 2120.70703125 C-871.59731827 2119.87345596 -872.43291779 2119.03988068 -873.2938385 2118.18104553 C-877.55627242 2113.90170051 -881.67331326 2109.56066421 -885.58921814 2104.96080017 C-887.19984367 2103.12679729 -888.890332 2101.41164624 -890.6328125 2099.703125 C-893.62515625 2096.75712285 -896.38605422 2093.67329493 -899.125 2090.4921875 C-901.07644037 2088.26739361 -903.07464898 2086.09141999 -905.08740234 2083.92211914 C-909.91585735 2078.71605206 -914.4978638 2073.3849652 -918.953125 2067.8515625 C-921.11038649 2065.23037381 -923.3459225 2062.71158219 -925.6328125 2060.203125 C-930.33744822 2055.0280257 -934.73799389 2049.64171303 -939.1328125 2044.203125 C-940.13198907 2042.98369983 -941.13203815 2041.76498923 -942.1328125 2040.546875 C-949.45219097 2031.62066771 -956.53661131 2022.5398184 -963.5078125 2013.33984375 C-965.12413547 2011.21453446 -966.75141672 2009.09813059 -968.3828125 2006.984375 C-976.17972879 1996.87357296 -983.73621187 1986.61017256 -991.1328125 1976.203125 C-991.68549805 1975.42630371 -992.23818359 1974.64948242 -992.80761719 1973.84912109 C-1019.41303829 1936.36664238 -1044.00567279 1897.49052127 -1066.1328125 1857.203125 C-1067.14692986 1855.36967795 -1068.16124749 1853.53634167 -1069.17578125 1851.703125 C-1112.4962511 1773.15180907 -1147.26024402 1690.060917 -1182.1328125 1569.203125 C-1182.36486389 1568.318526 -1182.59691528 1567.433927 -1182.83599854 1566.52252197 C-1207.32909196 1472.81806182 -1222.13189764 1375.05537509 -1222.3359375 1278.0703125 C-1222.34295826 1275.99686664 -1222.35004509 1273.92342101 -1222.35719299 1271.84997559 C-1222.37659833 1265.25935557 -1222.38162699 1258.6687707 -1222.3828125 1252.078125 C-1222.38325436 1250.95587776 -1222.38369621 1249.83363052 -1222.38415146 1248.67737579 C-1222.39082299 1216.38102865 -1222.30115497 1184.20527504 -1219.38604736 1152.01531982 C-1219.11927299 1149.0527676 -1218.86528215 1146.08929039 -1218.61279297 1143.12548828 C-1214.62273054 1096.80671584 -1208.16360322 1050.80724758 -1199.1328125 1005.203125 C-1198.9615686 1004.33830505 -1198.79032471 1003.47348511 -1198.6138916 1002.5824585 C-1179.8840573 908.48188607 -1150.09265589 816.71693394 -1104.1328125 717.203125 C-1103.6368457 716.15479492 -1103.14087891 715.10646484 -1102.62988281 714.02636719 C-1092.53709357 692.74529649 -1082.15308178 671.66612976 -1070.72167969 651.06884766 C-1069.09338931 648.1320203 -1067.47632732 645.18917619 -1065.859375 642.24609375 C-1057.66180955 627.39599793 -1049.00095483 612.86668076 -1040.11230469 598.42431641 C-1038.33152748 595.52649025 -1036.56200685 592.62221442 -1034.796875 589.71484375 C-1017.05215357 560.60396878 -997.52904725 532.50766367 -977.1328125 505.203125 C-976.08186159 503.78918859 -975.03107666 502.37512879 -973.98046875 500.9609375 C-963.85931394 487.36754991 -953.32620768 474.1308455 -942.60498047 461.00732422 C-941.31009739 459.42039454 -940.01990772 457.82963763 -938.73046875 456.23828125 C-934.10196144 450.5384377 -929.36310293 444.94454689 -924.56518555 439.38745117 C-921.59759371 435.94241304 -918.71320641 432.45022344 -915.8828125 428.890625 C-911.20642923 423.11794676 -906.10806698 417.76253331 -900.97949219 412.39135742 C-897.12170876 408.34753633 -893.36916294 404.24408678 -889.72900391 400.00268555 C-887.58102014 397.58102933 -885.27868553 395.336358 -882.96818542 393.07107544 C-881.22598064 391.29794686 -879.61066285 389.47064012 -877.99975586 387.57836914 C-873.79292657 382.74291008 -869.29769709 378.22420873 -864.76171875 373.69921875 C-863.88055893 372.8171022 -862.99939911 371.93498566 -862.09153748 371.02613831 C-859.767045 368.70079691 -857.44015343 366.37788882 -855.11242676 364.05578613 C-853.69636572 362.64167676 -852.28226929 361.22563379 -850.86889648 359.80883789 C-848.12752994 357.0612578 -845.38268216 354.31720394 -842.63671875 351.57421875 C-841.80314346 350.73861923 -840.96956818 349.90301971 -840.11073303 349.042099 C-835.83138801 344.77966508 -831.49035171 340.66262424 -826.89048767 336.74671936 C-825.05648479 335.13609383 -823.34133374 333.4456055 -821.6328125 331.703125 C-818.68681035 328.71078125 -815.60298243 325.94988328 -812.421875 323.2109375 C-810.19708111 321.25949713 -808.02110749 319.26128852 -805.85180664 317.24853516 C-800.64573956 312.42008015 -795.3146527 307.8380737 -789.78125 303.3828125 C-787.16006131 301.22555101 -784.64126969 298.990015 -782.1328125 296.703125 C-776.9577132 291.99848928 -771.57140053 287.59794361 -766.1328125 283.203125 C-764.91338733 282.20394843 -763.69467673 281.20389935 -762.4765625 280.203125 C-753.55035521 272.88374653 -744.4695059 265.79932619 -735.26953125 258.828125 C-733.14422196 257.21180203 -731.02781809 255.58452078 -728.9140625 253.953125 C-718.80326046 246.15620871 -708.53986006 238.59972563 -698.1328125 231.203125 C-697.35599121 230.65043945 -696.57916992 230.09775391 -695.77880859 229.52832031 C-658.29632988 202.92289921 -619.42020877 178.33026471 -579.1328125 156.203125 C-577.29936545 155.18900764 -575.46602917 154.17469001 -573.6328125 153.16015625 C-495.08149657 109.8396864 -411.9906045 75.07569348 -291.1328125 40.203125 C-290.2482135 39.97107361 -289.3636145 39.73902222 -288.45220947 39.49993896 C-194.74774932 15.00684554 -96.98506259 0.20403986 0 0 Z " fill="#7FA8FE" transform="translate(1222.1328125,-0.203125)"/>
<path d="M0 0 C0 0.99 0 1.98 0 3 C-1.485 3.99 -1.485 3.99 -3 5 C-3.33 4.34 -3.66 3.68 -4 3 C-17.64582332 2.96950461 -31.29164731 2.94905694 -44.9375 2.9375 C-45.94163689 2.93664398 -46.94577377 2.93578796 -47.98033905 2.93490601 C-77.02860092 2.91301875 -106.05792267 3.01322046 -135.09660339 3.84754944 C-138.09344478 3.93326219 -141.07758243 3.99876834 -144.07568359 3.95117188 C-147.03252466 3.92981708 -147.03252466 3.92981708 -150.04138184 4.49794006 C-154.81452254 5.10330351 -159.45739936 5.11624513 -164.26220703 5.08178711 C-165.26956909 5.07872055 -166.27693115 5.07565399 -167.31481934 5.07249451 C-169.49244109 5.06536489 -171.67005642 5.05598834 -173.84766006 5.04459953 C-177.29410479 5.02716011 -180.74050286 5.01689505 -184.1869812 5.00868225 C-193.98260913 4.98426663 -203.77817381 4.94857799 -213.57373047 4.90405273 C-219.57290103 4.87728377 -225.57203563 4.86023345 -231.57125473 4.84918404 C-233.85582691 4.84297475 -236.14039203 4.83297009 -238.42493057 4.81910515 C-241.61552771 4.79990603 -244.80593495 4.79299552 -247.99658203 4.78881836 C-249.4118367 4.77567596 -249.4118367 4.77567596 -250.85568237 4.76226807 C-255.34774094 4.76898773 -258.92438669 4.85478498 -263 7 C-263 6.34 -263 5.68 -263 5 C-263.85464844 5.15597656 -264.70929687 5.31195312 -265.58984375 5.47265625 C-267.24693359 5.76462891 -267.24693359 5.76462891 -268.9375 6.0625 C-270.03964844 6.25972656 -271.14179687 6.45695312 -272.27734375 6.66015625 C-273.17582031 6.77230469 -274.07429687 6.88445312 -275 7 C-275.33 6.67 -275.66 6.34 -276 6 C-278.37900783 5.98287238 -280.7258753 6.0300856 -283.1015625 6.12109375 C-284.62394083 6.16996001 -286.14632045 6.21878635 -287.66870117 6.26757812 C-288.87990128 6.30927124 -288.87990128 6.30927124 -290.11557007 6.35180664 C-304.27204154 6.83522942 -318.40173858 7.11921843 -332.56689453 6.96264648 C-339.19291963 6.91383511 -345.77244288 7.05993224 -352.39085388 7.35791016 C-369.10670901 8.1040242 -385.79165692 8.08244388 -402.51931763 8.01831055 C-411.2954015 7.98525567 -420.07151595 7.97385207 -428.84765625 7.96875 C-429.72131018 7.96820114 -430.5949641 7.96765228 -431.49509239 7.96708679 C-448.12194113 7.96139335 -464.73619468 8.2058995 -481.35913086 8.57275391 C-494.81473314 8.86654871 -508.26396166 9.04164969 -521.72265625 9.03125 C-522.42954905 9.03074142 -523.13644184 9.03023285 -523.86475563 9.02970886 C-531.43604993 9.02262411 -539.00716199 8.99920026 -546.57836914 8.96289062 C-548.46772438 8.95654602 -548.46772438 8.95654602 -550.39524841 8.95007324 C-552.72694386 8.94202756 -555.058631 8.92981233 -557.39027405 8.91223145 C-564.22940599 8.89121501 -570.98004987 9.21608098 -577.79653931 9.77734375 C-583.11561187 10.14704541 -588.42140724 10.0573332 -593.75 10 C-609.19270759 9.91424508 -624.62302967 10.20214285 -640.0625 10.5 C-659.09667089 10.8648674 -678.11643225 11.05844946 -697.15380859 10.98974609 C-710.54791185 10.94560248 -723.91232669 11.13731358 -737.29919434 11.57275391 C-750.99523758 12.01648488 -764.67476609 12.07154069 -778.37719727 11.96289062 C-779.12811646 11.95866089 -779.87903564 11.95443115 -780.65270996 11.95007324 C-782.68069223 11.93828863 -784.7086373 11.92053037 -786.73657227 11.90234375 C-789.77653971 11.85744952 -789.77653971 11.85744952 -791.724823 12.5 C-795.02716204 13.22573234 -798.30297794 13.12170019 -801.66625977 13.09765625 C-802.43737909 13.09621864 -803.20849842 13.09478104 -804.002985 13.09329987 C-805.68209788 13.08952992 -807.36120677 13.08343528 -809.04030418 13.07530212 C-811.73051399 13.06231115 -814.42068104 13.05534332 -817.11091614 13.04992676 C-820.94242361 13.04167254 -824.77391232 13.03098319 -828.60540771 13.01831055 C-838.48040678 12.98657403 -848.35542289 12.97395829 -858.23046875 12.96875 C-859.19558632 12.96820114 -860.16070389 12.96765228 -861.15506744 12.96708679 C-877.43190958 12.96202989 -893.69353244 13.12386856 -909.96313477 13.64453125 C-917.8582357 13.89659915 -925.7371348 14.0253307 -933.63671875 14.00390625 C-949.50147555 13.96177471 -965.36316069 14.16972244 -981.22631836 14.37231445 C-985.62878465 14.42825036 -990.03130004 14.47808278 -994.4338522 14.52671719 C-997.84721749 14.5654871 -1001.26051776 14.60859658 -1004.67381477 14.65294075 C-1006.30017194 14.67331143 -1007.92655063 14.6920331 -1009.55294609 14.70907402 C-1011.79897486 14.73300262 -1014.04483993 14.76304467 -1016.29077148 14.79467773 C-1018.20405495 14.81799416 -1018.20405495 14.81799416 -1020.1559906 14.84178162 C-1022.89965038 14.6774044 -1022.89965038 14.6774044 -1024 16 C-1025.86695629 16.10879359 -1027.73804985 16.14689256 -1029.60813904 16.15821838 C-1030.8277684 16.1680072 -1032.04739777 16.17779602 -1033.3039856 16.18788147 C-1034.66937216 16.19378791 -1036.03475914 16.19959821 -1037.40014648 16.20532227 C-1038.82966903 16.21489909 -1040.25918874 16.22490905 -1041.68870544 16.23532104 C-1045.59628194 16.2625028 -1049.50387052 16.28346709 -1053.4114902 16.30332303 C-1057.53721151 16.32526873 -1061.66289688 16.35265248 -1065.78858948 16.37937927 C-1072.76228185 16.42378005 -1079.73598784 16.46448297 -1086.7097168 16.50268555 C-1096.3874136 16.55571378 -1106.06505718 16.61575514 -1115.74270439 16.6770823 C-1179.6817051 17.07992844 -1179.6817051 17.07992844 -1205.51841736 16.97840881 C-1219.69203688 16.93314027 -1233.84008369 17.37729491 -1248 18 C-1248 17.01 -1248 16.02 -1248 15 C-1218.63888172 13.97653081 -1189.27366887 13.64694741 -1159.89791632 13.32575035 C-1153.7240517 13.25790875 -1147.55022875 13.18642006 -1141.37640168 13.11525899 C-1129.10268451 12.97386104 -1116.82894107 12.8349072 -1104.55517578 12.69775391 C-1077.83563183 12.3991557 -1051.11613736 12.09621783 -1024.39667348 11.79054 C-1020.20584161 11.74260173 -1016.01500831 11.69479031 -1011.82417393 11.64707178 C-980.57298231 11.2911362 -949.32268098 10.91943287 -918.07365417 10.40452385 C-895.74510454 10.03756151 -873.41616835 9.77377801 -851.0859375 9.53515625 C-850.19197533 9.52559284 -849.29801316 9.51602944 -848.37696123 9.50617623 C-839.1692447 9.40778265 -829.96151616 9.31054387 -820.7537812 9.21389228 C-799.88006182 8.99476052 -779.00641215 8.76931386 -758.1328125 8.5390625 C-757.13128458 8.52802105 -756.12975666 8.51697959 -755.09787941 8.50560355 C-714.81408486 8.06078647 -674.53197783 7.52238399 -634.25 6.9375 C-622.71876028 6.77011566 -611.18751918 6.60284526 -599.65625 6.4375 C-598.97227756 6.42768333 -598.28830512 6.41786666 -597.58360624 6.40775251 C-566.99110353 5.96919608 -536.39787181 5.6443119 -505.80367088 5.3518877 C-501.06963112 5.30657883 -496.33559498 5.26090793 -491.6015625 5.21484375 C-490.69969334 5.20607649 -489.79782417 5.19730923 -488.86862564 5.18827629 C-470.67012589 5.00974745 -452.47401652 4.7340899 -434.27709961 4.43722534 C-415.62536524 4.13636721 -396.97370202 3.92022721 -378.3203125 3.75 C-376.60226347 3.734282 -376.60226347 3.734282 -374.84950638 3.71824646 C-363.3659923 3.61367471 -351.8824534 3.51281301 -340.39884567 3.41907406 C-316.17276317 3.22012902 -291.95013745 2.93902795 -267.7265625 2.53515625 C-229.77014804 1.90344165 -191.81168377 1.46682648 -153.85252047 1.03720868 C-147.05562679 0.96004184 -140.25876491 0.88040587 -133.46191406 0.79956055 C-88.97278098 0.2709327 -44.4928469 -0.17265056 0 0 Z " fill="#1A5AD3" transform="translate(1248,1251)"/>
<path d="M0 0 C-3.64804735 2.43203157 -6.43248572 2.33930322 -10.65771484 2.39648438 C-11.82877966 2.42351692 -11.82877966 2.42351692 -13.02350235 2.45109558 C-15.62754626 2.50836432 -18.23161323 2.55127558 -20.8359375 2.59375 C-22.68412423 2.63056234 -24.53229923 2.66796795 -26.38046265 2.70593262 C-46.45598795 3.10166022 -66.53499241 3.2908917 -86.61336899 3.47232056 C-95.99100468 3.55850898 -105.36854847 3.65456166 -114.74609375 3.75 C-116.28374736 3.76553673 -116.28374736 3.76553673 -117.85246468 3.78138733 C-134.79897839 3.95358998 -151.7427409 4.19988008 -168.6875 4.5 C-198.39150696 5.02234897 -228.09731135 5.27007762 -257.80455399 5.53125 C-287.18890603 5.78984621 -316.57047618 6.08267017 -345.9520874 6.5625 C-373.88326589 7.01613966 -401.81568358 7.29238413 -429.74917603 7.56149292 C-459.74864365 7.84489266 -459.74864365 7.84489266 -489.74609375 8.28515625 C-491.11263499 8.30880958 -492.47917654 8.33244555 -493.84571838 8.35606384 C-494.5145338 8.36764935 -495.18334921 8.37923487 -495.87243176 8.39117146 C-546.91172304 9.27528717 -597.9546969 9.09447478 -649 9 C-648.67 8.34 -648.34 7.68 -648 7 C-647.12105324 7.00343666 -647.12105324 7.00343666 -646.22434998 7.00694275 C-630.97565006 7.0578543 -615.73732578 6.9200602 -600.49145508 6.62768555 C-597.06792691 6.56260317 -593.64433372 6.50277958 -590.22070312 6.44335938 C-580.35166322 6.26269187 -570.49759788 6.04371191 -560.63859558 5.55281067 C-549.70681134 5.01876167 -538.94131859 5.13221715 -528.00907898 5.61616516 C-513.96105331 6.19923513 -499.93587119 5.92477884 -485.88397217 5.66339111 C-483.04969836 5.61240126 -480.21533385 5.56860358 -477.38093853 5.52498245 C-461.91301512 5.28561615 -446.45489428 4.90940104 -430.99380684 4.39271927 C-420.55080805 4.04641568 -410.1347713 3.89671506 -399.6875 4 C-391.52458995 4.08013141 -383.45965367 4.15288977 -375.34301758 3.12109375 C-372.72427155 2.98574958 -370.55235515 3.43361311 -368 4 C-365.58475992 4.09289385 -363.16702072 4.12997329 -360.75 4.125 C-358.88601563 4.12886719 -358.88601563 4.12886719 -356.984375 4.1328125 C-354.17730248 4.03924342 -351.57907792 3.85005935 -348.81225586 3.49560547 C-344.19344827 2.96887302 -339.66358798 2.88814239 -335.01953125 2.9375 C-333.23046952 2.94612557 -331.44140697 2.95458021 -329.65234375 2.96289062 C-328.70601074 2.96909424 -327.75967773 2.97529785 -326.78466797 2.98168945 C-306.68333917 3.10552711 -286.59762852 2.87244737 -266.5 2.5 C-245.1804361 2.10742243 -223.87541351 1.9468328 -202.55252075 2.01025391 C-186.57094989 2.05381252 -170.61543362 1.90044026 -154.64257812 1.35546875 C-146.99215922 1.09838205 -139.3582498 0.97593025 -131.703125 1 C-123.32653692 1.02570548 -114.95714612 0.94016469 -106.58203125 0.78125 C-105.40448273 0.75900864 -104.2269342 0.73676727 -103.01370239 0.71385193 C-100.55318783 0.66695334 -98.09267765 0.61982414 -95.63217163 0.57247925 C-63.75173454 -0.03246022 -31.8858179 -0.11728692 0 0 Z " fill="#D6EEFD" transform="translate(1152,1250)"/>
<path d="M0 0 C0 0.99 0 1.98 0 3 C-1.485 3.99 -1.485 3.99 -3 5 C-3.33 4.34 -3.66 3.68 -4 3 C-17.64582332 2.96950461 -31.29164731 2.94905694 -44.9375 2.9375 C-45.94163689 2.93664398 -46.94577377 2.93578796 -47.98033905 2.93490601 C-77.02860092 2.91301875 -106.05792267 3.01322046 -135.09660339 3.84754944 C-138.09344478 3.93326219 -141.07758243 3.99876834 -144.07568359 3.95117188 C-147.03252466 3.92981708 -147.03252466 3.92981708 -150.04138184 4.49794006 C-154.81452254 5.10330351 -159.45739936 5.11624513 -164.26220703 5.08178711 C-165.26956909 5.07872055 -166.27693115 5.07565399 -167.31481934 5.07249451 C-169.49244109 5.06536489 -171.67005642 5.05598834 -173.84766006 5.04459953 C-177.29410479 5.02716011 -180.74050286 5.01689505 -184.1869812 5.00868225 C-193.98260913 4.98426663 -203.77817381 4.94857799 -213.57373047 4.90405273 C-219.57290103 4.87728377 -225.57203563 4.86023345 -231.57125473 4.84918404 C-233.85582691 4.84297475 -236.14039203 4.83297009 -238.42493057 4.81910515 C-241.61552771 4.79990603 -244.80593495 4.79299552 -247.99658203 4.78881836 C-249.4118367 4.77567596 -249.4118367 4.77567596 -250.85568237 4.76226807 C-255.34774094 4.76898773 -258.92438669 4.85478498 -263 7 C-263 6.34 -263 5.68 -263 5 C-263.85464844 5.15597656 -264.70929688 5.31195312 -265.58984375 5.47265625 C-267.24693359 5.76462891 -267.24693359 5.76462891 -268.9375 6.0625 C-270.03964844 6.25972656 -271.14179687 6.45695312 -272.27734375 6.66015625 C-273.17582031 6.77230469 -274.07429688 6.88445312 -275 7 C-275.33 6.67 -275.66 6.34 -276 6 C-278.37900783 5.98287238 -280.7258753 6.0300856 -283.1015625 6.12109375 C-284.62394083 6.16996001 -286.14632045 6.21878635 -287.66870117 6.26757812 C-288.87990128 6.30927124 -288.87990128 6.30927124 -290.11557007 6.35180664 C-304.27204154 6.83522942 -318.40173858 7.11921843 -332.56689453 6.96264648 C-339.19291963 6.91383511 -345.77244288 7.05993224 -352.39085388 7.35791016 C-369.10753138 8.10406091 -385.79330508 8.08244901 -402.52178955 8.01831055 C-411.28533088 7.98529442 -420.04890227 7.97385089 -428.8125 7.96875 C-429.68506062 7.96820114 -430.55762123 7.96765228 -431.45662308 7.96708679 C-447.18412193 7.96169656 -462.90084861 8.16205508 -478.625 8.5 C-497.31401316 8.89683359 -515.99402113 9.11094115 -534.6875 9.125 C-535.84171448 9.12749756 -536.99592896 9.12999512 -538.18511963 9.13256836 C-541.41901768 9.13839825 -544.65281994 9.13701576 -547.88671875 9.1328125 C-549.31988182 9.13578842 -549.31988182 9.13578842 -550.78199768 9.13882446 C-554.9804522 9.12401747 -558.90877619 9.07694743 -563 8 C-563 7.67 -563 7.34 -563 7 C-562.06449216 6.99061433 -561.12898432 6.98122866 -560.16512775 6.97155857 C-537.1220979 6.7402666 -514.07909707 6.50622907 -491.03612232 6.26950932 C-479.89152533 6.15508118 -468.74692118 6.04147617 -457.60229492 5.92993164 C-399.14858252 5.37746242 -399.14858252 5.37746242 -340.69921875 4.49609375 C-339.69228281 4.47824389 -338.68534687 4.46039402 -337.64789772 4.44200325 C-327.87326471 4.26487957 -318.11588239 3.9808226 -308.35131836 3.5 C-295.46543568 2.87253309 -282.57835453 2.68614956 -269.6796875 2.50390625 C-268.34357361 2.48407447 -267.00746194 2.46409329 -265.67135239 2.44397163 C-228.39967585 1.88279311 -191.12601145 1.45907575 -153.85255027 1.0372082 C-147.05564664 0.96004316 -140.25877484 0.88040599 -133.46191406 0.79956055 C-88.97278098 0.2709327 -44.4928469 -0.17265056 0 0 Z " fill="#1556D5" transform="translate(1248,1251)"/>
<path d="M0 0 C-0.33 0.66 -0.66 1.32 -1 2 C-31.10179693 2.76427944 -61.20322956 3.144931 -91.3125 3.4375 C-120.20516892 3.71900595 -149.09696495 4.04080608 -177.98828125 4.4375 C-179.06747699 4.45231434 -179.06747699 4.45231434 -180.16847467 4.46742797 C-188.40606858 4.58060319 -196.64364933 4.69472198 -204.88122559 4.80917358 C-262.56637042 5.61063074 -320.25203978 6.35104894 -377.93883348 7.02405912 C-384.58579927 7.10167384 -391.23275198 7.18034527 -397.87969971 7.25949097 C-406.0178996 7.35633851 -414.1561169 7.45154605 -422.29435903 7.54477948 C-426.45132652 7.592413 -430.60828545 7.64057775 -434.76522636 7.69048119 C-456.84444541 7.95478143 -478.91920824 8.04872384 -501 8 C-501 7.34 -501 6.68 -501 6 C-468.99863506 4.41677458 -436.91254229 3.9248091 -404.875 3.875 C-404.11054565 3.8724118 -403.34609131 3.86982361 -402.55847168 3.86715698 C-388.16155264 3.82810957 -388.16155264 3.82810957 -381 5 C-381 4.34 -381 3.68 -381 3 C-380.24404037 3.00222061 -379.48808075 3.00444122 -378.70921326 3.00672913 C-371.51769205 3.02692671 -364.32618497 3.04207205 -357.1346426 3.05181217 C-353.43911447 3.05698828 -349.74361014 3.06398769 -346.0480957 3.07543945 C-342.46893651 3.0864588 -338.88979994 3.0923163 -335.31062508 3.09487724 C-333.30867389 3.09757201 -331.30673155 3.10535222 -329.30479431 3.11329651 C-321.82564283 3.11374479 -314.46299369 2.81628148 -307.01478577 2.11766052 C-302.44840941 1.8484197 -297.93962025 2.37482517 -293.39111233 2.75919819 C-288.17484284 3.12960383 -282.98331262 3.09413379 -277.75683594 3.03759766 C-276.03396614 3.02559578 -276.03396614 3.02559578 -274.27629089 3.01335144 C-270.5122537 2.98568659 -266.74834082 2.95007821 -262.984375 2.9140625 C-260.32432273 2.89223059 -257.66426966 2.87076491 -255.00421143 2.84970093 C-249.42968998 2.80467917 -243.85522067 2.75528635 -238.28076172 2.703125 C-232.62942441 2.6502813 -226.97807317 2.60163222 -221.32666016 2.55761719 C-183.79726736 2.31203615 -183.79726736 2.31203615 -146.28115845 1.3646698 C-125.43343643 0.65484771 -104.56423249 0.64028797 -83.70672607 0.46777344 C-78.92394932 0.42734849 -74.14120797 0.38337846 -69.35846329 0.33934593 C-22.15968293 -0.09407042 -22.15968293 -0.09407042 0 0 Z " fill="#D1EBFD" transform="translate(501,1258)"/>
<path d="M0 0 C-3.72707028 2.41828979 -7.37910746 2.26316927 -11.66625977 2.21118164 C-12.43737909 2.20989006 -13.20849842 2.20859848 -14.002985 2.20726776 C-16.56591721 2.20081501 -19.12854843 2.18033731 -21.69140625 2.16015625 C-23.49790614 2.15352987 -25.30441004 2.14792875 -27.11091614 2.14329529 C-30.9424555 2.13198487 -34.77391138 2.11512702 -38.60540771 2.09375 C-48.48035451 2.03950417 -58.35540066 2.02183879 -68.23046875 2.00390625 C-69.6781451 2.00084158 -69.6781451 2.00084158 -71.15506744 1.997715 C-87.4332065 1.96546396 -103.69216198 2.12429023 -119.96313477 2.64477539 C-127.85823613 2.89645576 -135.73714395 3.02533067 -143.63671875 3.00390625 C-159.50147555 2.96177471 -175.36316069 3.16972244 -191.22631836 3.37231445 C-195.62878465 3.42825036 -200.03130004 3.47808278 -204.4338522 3.52671719 C-207.84721749 3.5654871 -211.26051776 3.60859658 -214.67381477 3.65294075 C-216.30017194 3.67331143 -217.92655063 3.6920331 -219.55294609 3.70907402 C-221.79897486 3.73300262 -224.04483993 3.76304467 -226.29077148 3.79467773 C-228.20405495 3.81799416 -228.20405495 3.81799416 -230.1559906 3.84178162 C-232.89965038 3.6774044 -232.89965038 3.6774044 -234 5 C-235.86695629 5.10879359 -237.73804985 5.14689256 -239.60813904 5.15821838 C-240.8277684 5.1680072 -242.04739777 5.17779602 -243.3039856 5.18788147 C-244.66937216 5.19378791 -246.03475914 5.19959821 -247.40014648 5.20532227 C-248.82966903 5.21489909 -250.25918874 5.22490905 -251.68870544 5.23532104 C-255.59628194 5.2625028 -259.50387052 5.28346709 -263.4114902 5.30332303 C-267.53721151 5.32526873 -271.66289688 5.35265248 -275.78858948 5.37937927 C-282.76228185 5.42378005 -289.73598784 5.46448297 -296.7097168 5.50268555 C-306.3874136 5.55571378 -316.06505718 5.61575514 -325.74270439 5.6770823 C-389.6817051 6.07992844 -389.6817051 6.07992844 -415.51841736 5.97840881 C-429.69203688 5.93314027 -443.84008369 6.37729491 -458 7 C-458 6.01 -458 5.02 -458 4 C-435.24702415 3.27908766 -412.5013035 2.78532821 -389.73856115 2.52760363 C-386.40907715 2.48947533 -383.0796194 2.44925777 -379.75015914 2.40911782 C-368.86227512 2.27797155 -357.97431158 2.15433762 -347.08632565 2.03199673 C-343.28117205 1.9890706 -339.47602585 1.94550716 -335.67087948 1.90194571 C-247.6416495 0.89485005 -159.60629336 0.10853644 0 0 Z " fill="#1053DC" transform="translate(458,1262)"/>
<path d="M0 0 C2.69726406 0.00568105 5.39452985 0.00968435 8.09179688 0.01367188 C14.45705427 0.02427453 20.82227175 0.04063727 27.1875 0.0625 C25.8125 1.5625 25.8125 1.5625 24.1875 3.0625 C23.5275 3.0625 22.8675 3.0625 22.1875 3.0625 C22.1875 2.4025 22.1875 1.7425 22.1875 1.0625 C21.33285156 1.21847656 20.47820312 1.37445312 19.59765625 1.53515625 C18.49292969 1.72980469 17.38820313 1.92445312 16.25 2.125 C15.14785156 2.32222656 14.04570313 2.51945312 12.91015625 2.72265625 C12.01167969 2.83480469 11.11320312 2.94695312 10.1875 3.0625 C9.8575 2.7325 9.5275 2.4025 9.1875 2.0625 C6.80849217 2.04537238 4.4616247 2.0925856 2.0859375 2.18359375 C0.56355917 2.23246001 -0.95882045 2.28128635 -2.48120117 2.33007812 C-3.69240128 2.37177124 -3.69240128 2.37177124 -4.92807007 2.41430664 C-19.08454154 2.89772942 -33.21423858 3.18171843 -47.37939453 3.02514648 C-54.00541963 2.97633511 -60.58494288 3.12243224 -67.20335388 3.42041016 C-83.92003138 4.16656091 -100.60580508 4.14494901 -117.33428955 4.08081055 C-126.09783088 4.04779442 -134.86140227 4.03635089 -143.625 4.03125 C-144.49756062 4.03070114 -145.37012123 4.03015228 -146.26912308 4.02958679 C-161.99662193 4.02419656 -177.71334861 4.22455508 -193.4375 4.5625 C-212.12651316 4.95933359 -230.80652113 5.17344115 -249.5 5.1875 C-250.65421448 5.18999756 -251.80842896 5.19249512 -252.99761963 5.19506836 C-256.23151768 5.20089825 -259.46531994 5.19951576 -262.69921875 5.1953125 C-264.13238182 5.19828842 -264.13238182 5.19828842 -265.59449768 5.20132446 C-269.7929522 5.18651747 -273.72127619 5.13944743 -277.8125 4.0625 C-277.8125 3.7325 -277.8125 3.4025 -277.8125 3.0625 C-276.87699216 3.05311433 -275.94148432 3.04372866 -274.97762775 3.03405857 C-251.9345979 2.8027666 -228.89159707 2.56872907 -205.84862232 2.33200932 C-194.70402533 2.21758118 -183.55942122 2.10397276 -172.41479492 1.99243164 C-159.53301362 1.863399 -146.65125879 1.7319506 -133.76953125 1.59765625 C-132.72180613 1.58675689 -131.67408101 1.57585753 -130.59460664 1.56462789 C-104.76203413 1.29504603 -78.93361353 0.97355722 -53.10510635 0.43434525 C-35.39981075 0.06473518 -17.7091707 -0.06107008 0 0 Z " fill="#0751E8" transform="translate(962.8125,1254.9375)"/>
<path d="M0 0 C0.66 0.66 1.32 1.32 2 2 C-1.48455281 3.06146095 -4.72728246 3.14937572 -8.35961914 3.18945312 C-10.30059227 3.21452942 -10.30059227 3.21452942 -12.28077698 3.2401123 C-13.31799991 3.25013527 -13.31799991 3.25013527 -14.37617683 3.26036072 C-16.57250667 3.28161139 -18.76870221 3.30863762 -20.96495056 3.33703613 C-24.87214295 3.38660673 -28.77937411 3.43109641 -32.68664551 3.47393799 C-39.59455558 3.54971453 -46.50239513 3.63040488 -53.41015625 3.71875 C-54.54363589 3.73310939 -54.54363589 3.73310939 -55.70001411 3.74775887 C-66.53684481 3.88937472 -77.35715695 4.19020129 -88.18655396 4.62901306 C-100.58231463 5.12358981 -112.97992183 5.35129187 -125.38382339 5.53242874 C-127.4746755 5.56304435 -129.56550736 5.59486516 -131.65634155 5.62667847 C-179.43202362 6.33886085 -227.22062503 6.08843019 -275 6 C-274.67 5.34 -274.34 4.68 -274 4 C-273.12105324 4.00343666 -273.12105324 4.00343666 -272.22434998 4.00694275 C-256.97565006 4.0578543 -241.73732578 3.9200602 -226.49145508 3.62768555 C-223.06792691 3.56260317 -219.64433372 3.50277958 -216.22070312 3.44335938 C-206.35166322 3.26269187 -196.49759788 3.04371191 -186.63859558 2.55281067 C-175.70681134 2.01876167 -164.94131859 2.13221715 -154.00907898 2.61616516 C-139.96105331 3.19923513 -125.93587119 2.92477884 -111.88397217 2.66339111 C-109.04969804 2.61240125 -106.21533321 2.56860356 -103.38093758 2.52498245 C-87.9144356 2.28563803 -72.45774455 1.90944664 -56.99808121 1.39271927 C-46.53284292 1.04563372 -36.09452421 0.89685198 -25.625 1 C-13.69697895 1.15221237 -13.69697895 1.15221237 -1.83349609 0.0234375 C-1.22844238 0.01570313 -0.62338867 0.00796875 0 0 Z " fill="#DCF4FE" transform="translate(778,1253)"/>
<path d="M0 0 C0.86782986 0.00002518 1.73565971 0.00005035 2.62978745 0.00007629 C5.49199652 0.00189029 8.35411749 0.01141671 11.21630859 0.02148438 C13.25737476 0.02528053 15.29844127 0.02889808 17.33950806 0.03234863 C39.89028454 0.08321206 62.43960865 0.32376803 84.98883057 0.57879639 C90.53599071 0.6409719 96.08318225 0.70021649 101.63037109 0.75976562 C112.37519389 0.87551446 123.11998051 0.99429804 133.86474609 1.11523438 C133.86474609 1.44523437 133.86474609 1.77523438 133.86474609 2.11523438 C132.67302292 2.12554184 131.48129974 2.1358493 130.25346375 2.14646912 C116.25889438 2.26783522 102.26435485 2.39241191 88.26983261 2.51909256 C85.79445316 2.54149318 83.31907321 2.56383981 80.84369278 2.58613205 C44.07189401 2.90494074 44.07189401 2.90494074 7.30224609 3.40429688 C6.59258823 3.41592236 5.88293037 3.42754784 5.15176773 3.4395256 C0.45189563 3.51709036 -4.24793028 3.59728648 -8.94775391 3.67773438 C-42.67672619 4.25352096 -76.4025943 4.21810274 -110.13525391 4.11523438 C-110.13525391 3.78523438 -110.13525391 3.45523437 -110.13525391 3.11523438 C-109.28858154 3.10492691 -108.44190918 3.09461945 -107.56958008 3.08399963 C-99.56642565 2.98577118 -91.56334052 2.88322221 -83.56030273 2.77589512 C-79.44647744 2.72087585 -75.33264483 2.66749109 -71.21875 2.61791992 C-67.24405167 2.56996458 -63.26943273 2.5176136 -59.29483032 2.46229362 C-57.7831115 2.44201034 -56.27137104 2.42327548 -54.75961304 2.40616035 C-47.48850256 2.3229117 -40.33796159 2.19084017 -33.13525391 1.11523438 C-29.42322997 1.0533028 -25.72587233 1.11475729 -22.01416016 1.17773438 C-19.22327492 1.13276543 -16.70809525 0.97150505 -13.96377563 0.61853027 C-9.29228423 0.08264813 -4.69815778 -0.02105802 0 0 Z " fill="#C1E1FC" transform="translate(817.13525390625,1252.884765625)"/>
<path d="M0 0 C1.65 0.33 3.3 0.66 5 1 C3.125 4.875 3.125 4.875 2 6 C-7.82773605 7.67571425 -18.07921423 7.12777435 -28.01171875 7.09765625 C-29.834457 7.09578769 -31.65719576 7.09436586 -33.47993469 7.09336853 C-38.24243595 7.08957784 -43.00490597 7.07977759 -47.76739502 7.06866455 C-52.64114968 7.05837571 -57.51490945 7.053855 -62.38867188 7.04882812 C-71.92579486 7.03815173 -81.46289482 7.02111748 -91 7 C-91 6.34 -91 5.68 -91 5 C-90.01386719 5.00785522 -90.01386719 5.00785522 -89.0078125 5.01586914 C-72.25079127 5.12797997 -55.50577012 4.95770045 -38.75195312 4.62667847 C-36.58791911 4.58397048 -34.42385571 4.54272569 -32.25976562 4.50296021 C-29.18347485 4.44556892 -26.10737615 4.38197447 -23.03125 4.31640625 C-22.10735474 4.29968872 -21.18345947 4.28297119 -20.23156738 4.26574707 C-15.71547833 4.16160246 -11.45217447 3.83415174 -7 3 C-5.00034285 2.96296931 -2.99943335 2.95239444 -1 3 C-0.67 2.01 -0.34 1.02 0 0 Z " fill="#E6FCFF" transform="translate(1248,1244)"/>
<path d="M0 0 C1.98 0.99 1.98 0.99 4 2 C4 2.66 4 3.32 4 4 C4.66 4 5.32 4 6 4 C6 4.66 6 5.32 6 6 C6.763125 6.2475 7.52625 6.495 8.3125 6.75 C11.26080945 8.12130672 12.35834532 9.2351079 14 12 C14 12.66 14 13.32 14 14 C14.66 14 15.32 14 16 14 C16 14.66 16 15.32 16 16 C16.99 16.33 17.98 16.66 19 17 C20.6875 18.4375 20.6875 18.4375 22 20 C22 20.66 22 21.32 22 22 C23.98 22.66 25.96 23.32 28 24 C28 25.32 28 26.64 28 28 C28.66 28 29.32 28 30 28 C30 28.66 30 29.32 30 30 C30.66 30 31.32 30 32 30 C33.36639342 31.6396721 34.6949419 33.31110128 36 35 C38.42517546 37.64564595 39.56239233 38.85413078 43 40 C44.01866229 41.65532623 45.01810813 43.32260138 46 45 C46.99 45.66 47.98 46.32 49 47 C49 47.66 49 48.32 49 49 C49.66 49 50.32 49 51 49 C50.505 49.99 50.505 49.99 50 51 C43.81760304 45.75187805 38.02154568 40.18202544 32.28515625 34.453125 C31.38880966 33.56010681 30.49246307 32.66708862 29.56895447 31.74700928 C27.68942335 29.87251184 25.81103961 27.99693968 23.93432617 26.11962891 C21.52964842 23.71484862 19.11810637 21.31707724 16.70484257 18.92091751 C14.39380196 16.62363719 12.08991914 14.31920081 9.78515625 12.015625 C8.91858902 11.15624329 8.05202179 10.29686157 7.15919495 9.41143799 C6.36424118 8.61340759 5.56928741 7.8153772 4.75024414 6.99316406 C4.0482338 6.29257874 3.34622345 5.59199341 2.62294006 4.87017822 C1 3 1 3 0 0 Z " fill="#2864E4" transform="translate(341,2108)"/>
<path d="M0 0 C2.64 0 5.28 0 8 0 C8 0.99 8 1.98 8 3 C9.32 2.67 10.64 2.34 12 2 C12 1.34 12 0.68 12 0 C12.66 0 13.32 0 14 0 C14 0.66 14 1.32 14 2 C14.66 2 15.32 2 16 2 C16 1.34 16 0.68 16 0 C16.66 0 17.32 0 18 0 C18.2475 0.78375 18.495 1.5675 18.75 2.375 C19.88704012 5.45624577 19.88704012 5.45624577 24 7 C12.45 6.01 0.9 5.02 -11 4 C-6.8204355 1.21362367 -4.85331323 2.20437488 0 3 C0 2.01 0 1.02 0 0 Z " fill="#4678E4" transform="translate(1128,2490)"/>
<path d="M0 0 C2.00451121 0.30503431 4.00448218 0.64080679 6 1 C8.27650745 0.6422386 8.27650745 0.6422386 10 0 C10 0.66 10 1.32 10 2 C12.64 2 15.28 2 18 2 C18.495 2.99 18.495 2.99 19 4 C14.57128352 4.43151008 10.14216878 4.85859968 5.71264648 5.28173828 C4.20829995 5.42605482 2.70406531 5.57154289 1.19995117 5.71826172 C-0.9718784 5.92990172 -3.14408598 6.13721488 -5.31640625 6.34375 C-6.62037354 6.46943359 -7.92434082 6.59511719 -9.26782227 6.72460938 C-12.86149417 6.98977991 -16.39816362 7.04892138 -20 7 C-14.57737638 4.18826923 -10.08639589 2.75370729 -3.98828125 2.34375 C-1.77328395 2.15748857 -1.77328395 2.15748857 0 0 Z " fill="#4B7DE3" transform="translate(1364,2490)"/>
<path d="M0 0 C0.89203125 0.03609375 1.7840625 0.0721875 2.703125 0.109375 C3.71632813 0.17898437 3.71632813 0.17898437 4.75 0.25 C4.97558594 0.88679688 5.20117188 1.52359375 5.43359375 2.1796875 C6.58148488 4.47134867 6.58148488 4.47134867 9.09765625 5.0078125 C9.99355469 5.12898438 10.88945313 5.25015625 11.8125 5.375 C14.53515625 5.7578125 14.53515625 5.7578125 16.75 6.25 C17.08 6.91 17.41 7.57 17.75 8.25 C8.58808082 7.68708547 -0.26728306 6.04203512 -9.25 4.25 C-6.25595527 0.69632074 -4.64721574 -0.2445903 0 0 Z " fill="#4173DC" transform="translate(1019.25,2473.75)"/>
<path d="M0 0 C2.475 0.495 2.475 0.495 5 1 C3.125 4.875 3.125 4.875 2 6 C-8.12744336 7.77944233 -18.76027074 7.09026206 -29 7 C-29 6.67 -29 6.34 -29 6 C-27.91460938 5.86722656 -26.82921875 5.73445313 -25.7109375 5.59765625 C-24.26561678 5.41933746 -22.82030474 5.24094831 -21.375 5.0625 C-20.66214844 4.97548828 -19.94929688 4.88847656 -19.21484375 4.79882812 C-16.02362604 4.40358556 -12.85869473 3.97600476 -9.6875 3.4375 C-6.75317456 2.95981911 -3.96777543 2.92933868 -1 3 C-0.67 2.01 -0.34 1.02 0 0 Z " fill="#C7E4FE" transform="translate(1248,1244)"/>
<path d="M0 0 C0.94875 -0.20625 1.8975 -0.4125 2.875 -0.625 C6.33278038 -1.03993365 7.74807562 -0.27626457 10.7890625 1.23046875 C15.61379037 2.90974682 20.93275751 2.77902251 26 3 C26 3.66 26 4.32 26 5 C18.52007951 5.29919682 11.3781506 4.1530795 4 3 C2.74832031 2.80921875 1.49664063 2.6184375 0.20703125 2.421875 C-2.86282987 1.95319391 -5.93174998 1.47909552 -9 1 C-5.402853 -0.99588536 -4.0008569 -0.85732648 0 0 Z " fill="#4176E6" transform="translate(1065,2485)"/>
<path d="M0 0 C0.33 0 0.66 0 1 0 C1.33851178 2.68693722 1.670936 5.37440289 2 8.0625 C2.09539063 8.81466797 2.19078125 9.56683594 2.2890625 10.34179688 C2.84571902 14.93421317 3.09829028 19.3742135 3 24 C1.33388095 24.042721 -0.33382885 24.04063832 -2 24 C-3 23 -3 23 -3.1875 20.5625 C-3 18 -3 18 -1 16 C-0.6936141 13.26565038 -0.4886664 10.61720179 -0.375 7.875 C-0.33632812 7.12089844 -0.29765625 6.36679688 -0.2578125 5.58984375 C-0.16348969 3.72696816 -0.08065338 1.86351745 0 0 Z " fill="#98B4F1" transform="translate(2493,1120)"/>
<path d="M0 0 C18.15 0 36.3 0 55 0 C53.68 1.32 52.36 2.64 51 4 C50.505 3.01 50.505 3.01 50 2 C33.83 2 17.66 2 1 2 C0.67 1.34 0.34 0.68 0 0 Z " fill="#0C55E1" transform="translate(1194,1252)"/>
<path d="M0 0 C0.66 0 1.32 0 2 0 C2.061875 0.763125 2.12375 1.52625 2.1875 2.3125 C3.27406463 5.90652146 4.76125975 6.23341441 8 8 C9.70884005 9.62339805 11.37446717 11.29319053 13 13 C16.48327032 16.80207393 16.48327032 16.80207393 21 19 C21 19.99 21 20.98 21 22 C18.13500094 20.67959547 15.8780517 19.20848879 13.50390625 17.13671875 C12.86259766 16.57919922 12.22128906 16.02167969 11.56054688 15.44726562 C10.90119141 14.86654297 10.24183594 14.28582031 9.5625 13.6875 C8.90701172 13.11837891 8.25152344 12.54925781 7.57617188 11.96289062 C3.91299368 8.76266173 0.39341737 5.48495464 -3 2 C-2.34 2 -1.68 2 -1 2 C-0.67 1.34 -0.34 0.68 0 0 Z " fill="#2263E7" transform="translate(426,2186)"/>
<path d="M0 0 C0.33 0 0.66 0 1 0 C1.67263581 4.39494155 2.33706636 8.79108538 3 13.1875 C3.19078125 14.43337891 3.3815625 15.67925781 3.578125 16.96289062 C3.75859375 18.16494141 3.9390625 19.36699219 4.125 20.60546875 C4.29257813 21.71043701 4.46015625 22.81540527 4.6328125 23.95385742 C4.96105202 26.67689233 5.07129462 29.26184109 5 32 C4.34 32 3.68 32 3 32 C2.87882812 30.92878906 2.75765625 29.85757812 2.6328125 28.75390625 C2.46402399 27.35671248 2.29472687 25.95958009 2.125 24.5625 C2.04636719 23.85544922 1.96773437 23.14839844 1.88671875 22.41992188 C1.66072324 20.60326568 1.33699273 18.79937478 1 17 C0.34 16.67 -0.32 16.34 -1 16 C-0.67 10.72 -0.34 5.44 0 0 Z " fill="#8EACEB" transform="translate(2485,1056)"/>
<path d="M0 0 C0.66 0.66 1.32 1.32 2 2 C-2.43668741 2.83769934 -6.87447591 3.6694138 -11.3125 4.5 C-12.57513672 4.73847656 -13.83777344 4.97695312 -15.13867188 5.22265625 C-16.95141602 5.56103516 -16.95141602 5.56103516 -18.80078125 5.90625 C-20.47394409 6.22045898 -20.47394409 6.22045898 -22.1809082 6.54101562 C-25 7 -25 7 -28 7 C-28 6.34 -28 5.68 -28 5 C-27.08476563 4.87882812 -26.16953125 4.75765625 -25.2265625 4.6328125 C-24.03804687 4.46523437 -22.84953125 4.29765625 -21.625 4.125 C-20.44164062 3.96257813 -19.25828125 3.80015625 -18.0390625 3.6328125 C-14.90433341 3.2697415 -14.90433341 3.2697415 -13 1 C-10.9765625 0.83984375 -10.9765625 0.83984375 -8.625 0.9375 C-6.14213995 1.03299462 -4.23264069 1.06676872 -1.8359375 0.37890625 C-1.23007813 0.25386719 -0.62421875 0.12882812 0 0 Z " fill="#4679E5" transform="translate(1488,2476)"/>
<path d="M0 0 C3.3125 -0.25 3.3125 -0.25 7 0 C8.9375 2 8.9375 2 10 4 C9.34 4 8.68 4 8 4 C7.34 4.66 6.68 5.32 6 6 C6 5.34 6 4.68 6 4 C4.08533633 4.12177688 4.08533633 4.12177688 2 5 C0.22851628 7.47933197 0.22851628 7.47933197 -1 10 C-1.66 9.01 -2.32 8.02 -3 7 C-2.34 7 -1.68 7 -1 7 C-1.33 6.01 -1.66 5.02 -2 4 C-1.0625 1.8125 -1.0625 1.8125 0 0 Z " fill="#6295FE" transform="translate(1248,1251)"/>
<path d="M0 0 C2.34165499 -0.26871451 4.67884289 -0.59038404 7 -1 C7.33 -0.34 7.66 0.32 8 1 C4.79279138 1.5073957 1.58407837 2.004579 -1.625 2.5 C-2.52863281 2.64308594 -3.43226562 2.78617188 -4.36328125 2.93359375 C-8.95439866 3.63734167 -13.33831815 4.18584778 -18 4 C-15.25686894 2.17124596 -13.22925051 1.27962972 -10.125 0.3125 C-9.28195312 0.04050781 -8.43890625 -0.23148438 -7.5703125 -0.51171875 C-4.69519815 -1.05790309 -2.82728574 -0.64858574 0 0 Z " fill="#4D7FE7" transform="translate(1436,2485)"/>
<path d="M0 0 C2.31 0 4.62 0 7 0 C7.33 0.66 7.66 1.32 8 2 C10.69708095 3.14119148 10.69708095 3.14119148 13.875 4.125 C14.94492187 4.47820313 16.01484375 4.83140625 17.1171875 5.1953125 C19.98275471 6.13442764 19.98275471 6.13442764 23 6 C24.6875 8 24.6875 8 26 10 C20.11792344 9.38443385 15.03902565 7.17339219 9.625 4.9375 C8.69816406 4.56044922 7.77132812 4.18339844 6.81640625 3.79492188 C4.54197521 2.86873604 2.27000333 1.93697332 0 1 C0 0.67 0 0.34 0 0 Z " fill="#366CE7" transform="translate(791,2413)"/>
<path d="M0 0 C10.8 0 10.8 0 14 1 C15.47966997 3.2797878 16.1432393 5.38212008 17 8 C11.08030998 6.24009216 5.58365008 3.60305395 0 1 C0 0.67 0 0.34 0 0 Z " fill="#2D6DEB" transform="translate(706,2376)"/>
<path d="M0 0 C0.99 0 1.98 0 3 0 C3.33 0.99 3.66 1.98 4 3 C6.50447516 4.21869929 6.50447516 4.21869929 9 5 C9 5.66 9 6.32 9 7 C9.99 7 10.98 7 12 7 C12 7.66 12 8.32 12 9 C13.98 8.67 15.96 8.34 18 8 C18 9.65 18 11.3 18 13 C13.44435939 11.41467191 9.68524231 9.00996919 5.6875 6.375 C5.04232422 5.95476563 4.39714844 5.53453125 3.73242188 5.1015625 C2.15239276 4.07161759 0.57583953 3.03634372 -1 2 C-0.67 1.34 -0.34 0.68 0 0 Z " fill="#2B68E7" transform="translate(574,2300)"/>
<path d="M0 0 C2.475 0.99 2.475 0.99 5 2 C5 2.66 5 3.32 5 4 C5.99 4 6.98 4 8 4 C8 4.66 8 5.32 8 6 C9.051875 6.2475 10.10375 6.495 11.1875 6.75 C14.82738728 7.76681062 17.12611204 9.53666746 20 12 C20.66 12 21.32 12 22 12 C22.33 12.99 22.66 13.98 23 15 C17.23684231 13.45196735 12.62543026 10.51721614 7.625 7.375 C6.37783203 6.6015625 6.37783203 6.6015625 5.10546875 5.8125 C3.06682038 4.54713205 1.03187118 3.27621134 -1 2 C-0.67 1.34 -0.34 0.68 0 0 Z " fill="#2C65E8" transform="translate(599,2316)"/>
<path d="M0 0 C2.375 -0.125 2.375 -0.125 5 0 C5.66 0.66 6.32 1.32 7 2 C9.06874034 2.6425235 9.06874034 2.6425235 11 3 C8.89936424 3.69821417 6.79434263 4.38324472 4.6875 5.0625 C3.51574219 5.44535156 2.34398437 5.82820313 1.13671875 6.22265625 C-2 7 -2 7 -5 6 C-4.360625 5.38125 -3.72125 4.7625 -3.0625 4.125 C-0.96116416 2.17402388 -0.96116416 2.17402388 0 0 Z " fill="#5284E3" transform="translate(1610,2442)"/>
<path d="M0 0 C0.78375 0.04125 1.5675 0.0825 2.375 0.125 C-1.95834121 3.94853636 -6.67576669 6.39168086 -11.8125 8.9375 C-13.04129883 9.56688477 -13.04129883 9.56688477 -14.29492188 10.20898438 C-15.07802734 10.60021484 -15.86113281 10.99144531 -16.66796875 11.39453125 C-17.73567505 11.92977417 -17.73567505 11.92977417 -18.82495117 12.47583008 C-19.41896729 12.69005615 -20.0129834 12.90428223 -20.625 13.125 C-21.285 12.795 -21.945 12.465 -22.625 12.125 C-19.21301789 9.32168806 -15.45742632 7.45961674 -11.5 5.5625 C-7.74230814 3.76018547 -3.89083102 0.18527767 0 0 Z " fill="#5788EB" transform="translate(1830.625,2355.875)"/>
<path d="M0 0 C0.63421875 0.33257813 1.2684375 0.66515625 1.921875 1.0078125 C4.26927338 2.12856285 6.16777157 2.39715631 8.75 2.625 C9.54921875 2.69976563 10.3484375 2.77453125 11.171875 2.8515625 C11.77515625 2.90054688 12.3784375 2.94953125 13 3 C13 3.66 13 4.32 13 5 C4.75569133 4.52087184 -3.00044527 3.02214499 -11 1 C-6.97130432 -1.29706332 -4.54699243 -0.97435552 0 0 Z " fill="#3C73E3" transform="translate(983,2469)"/>
<path d="M0 0 C1.32 0.33 2.64 0.66 4 1 C4 1.66 4 2.32 4 3 C7.26545761 4.88391785 10.28111761 5.49287967 14 6 C14.33 6.99 14.66 7.98 15 9 C3.47835991 5.92482916 3.47835991 5.92482916 -2 4 C-1.34 2.68 -0.68 1.36 0 0 Z " fill="#3573E3" transform="translate(835,2426)"/>
<path d="M0 0 C0.9075 0.309375 1.815 0.61875 2.75 0.9375 C7.28923591 2.47817276 7.28923591 2.47817276 12 3 C12 3.66 12 4.32 12 5 C12.556875 5.12375 13.11375 5.2475 13.6875 5.375 C16.22114364 6.05976855 18.57921032 6.99133763 21 8 C21 8.66 21 9.32 21 10 C13.39162534 7.92957946 6.2271408 5.14169523 -1 2 C-0.67 1.34 -0.34 0.68 0 0 Z " fill="#366DE9" transform="translate(762,2400)"/>
<path d="M0 0 C0.99 0.66 1.98 1.32 3 2 C-1.95 5.3 -6.9 8.6 -12 12 C-12.66 11.67 -13.32 11.34 -14 11 C-13.34 10.01 -12.68 9.02 -12 8 C-11.34 8 -10.68 8 -10 8 C-9.608125 7.195625 -9.21625 6.39125 -8.8125 5.5625 C-7 3 -7 3 -3.3125 2.1875 C-2.219375 2.125625 -1.12625 2.06375 0 2 C0 1.34 0 0.68 0 0 Z " fill="#5485E6" transform="translate(1949,2284)"/>
<path d="M0 0 C0.99 0.495 0.99 0.495 2 1 C2.309375 2.155 2.61875 3.31 2.9375 4.5 C3.288125 5.655 3.63875 6.81 4 8 C4.99 8.33 5.98 8.66 7 9 C6.4140625 15.15234375 6.4140625 15.15234375 6 17 C5.34 17.33 4.68 17.66 4 18 C3.32678716 15.75194998 2.66165877 13.50147776 2 11.25 C1.62875 9.99703125 1.2575 8.7440625 0.875 7.453125 C0 4 0 4 0 0 Z " fill="#1451E6" transform="translate(46,1587)"/>
<path d="M0 0 C-1.10690752 6.40593286 -2.33945169 12.71363856 -4 19 C-4.33 19 -4.66 19 -5 19 C-4.85915204 17.20793453 -4.71216299 15.41635083 -4.5625 13.625 C-4.48128906 12.62726563 -4.40007813 11.62953125 -4.31640625 10.6015625 C-4 8 -4 8 -3 6 C-3.66 6 -4.32 6 -5 6 C-5 4.68 -5 3.36 -5 2 C-2 0 -2 0 0 0 Z " fill="#79A2EB" transform="translate(2464,1550)"/>
<path d="M0 0 C0.8353125 0.30744141 0.8353125 0.30744141 1.6875 0.62109375 C5.61396083 2.0072936 9.28182195 3.15074474 13.4375 3.5625 C17.65829284 4.08084298 18.11684287 5.11684287 21 8 C15.73378394 7.40421223 11.05591981 6.18691204 6.0625 4.4375 C5.37865234 4.20353516 4.69480469 3.96957031 3.99023438 3.72851562 C2.32491499 3.15788171 0.66217507 2.57972902 -1 2 C-0.67 1.34 -0.34 0.68 0 0 Z " fill="#3973E9" transform="translate(858,2436)"/>
<path d="M0 0 C2.97 0.33 5.94 0.66 9 1 C9.33 1.99 9.66 2.98 10 4 C12.31 4 14.62 4 17 4 C17.33 5.32 17.66 6.64 18 8 C11.79522136 6.06375702 5.89174281 3.74390859 0 1 C0 0.67 0 0.34 0 0 Z " fill="#2D70E8" transform="translate(741,2392)"/>
<path d="M0 0 C-2.95105384 1.7004792 -5.91190122 3.38311093 -8.875 5.0625 C-9.71675781 5.54783203 -10.55851562 6.03316406 -11.42578125 6.53320312 C-12.23144531 6.98759766 -13.03710938 7.44199219 -13.8671875 7.91015625 C-14.61081543 8.33433838 -15.35444336 8.75852051 -16.12060547 9.19555664 C-17.05090576 9.5937561 -17.05090576 9.5937561 -18 10 C-18.66 9.67 -19.32 9.34 -20 9 C-15.67116765 4.21550109 -6.46455713 -2.15485238 0 0 Z " fill="#5484E7" transform="translate(1861,2342)"/>
<path d="M0 0 C0.66 0 1.32 0 2 0 C2.33 1.32 2.66 2.64 3 4 C4.32 4.33 5.64 4.66 7 5 C7.103125 6.11375 7.20625 7.2275 7.3125 8.375 C7.539375 9.57125 7.76625 10.7675 8 12 C8.99 12.66 9.98 13.32 11 14 C10.34 15.32 9.68 16.64 9 18 C7.49667622 15.18926431 5.99790265 12.37612794 4.5 9.5625 C4.07074219 8.76005859 3.64148438 7.95761719 3.19921875 7.13085938 C2.79316406 6.36708984 2.38710937 5.60332031 1.96875 4.81640625 C1.59169922 4.10943604 1.21464844 3.40246582 0.82617188 2.67407227 C0 1 0 1 0 0 Z " fill="#155BE6" transform="translate(133,1813)"/>
<path d="M0 0 C0.66 0.66 1.32 1.32 2 2 C4.06874034 2.6425235 4.06874034 2.6425235 6 3 C6.75 5.25 6.75 5.25 7 8 C5.0625 10.3125 5.0625 10.3125 3 12 C2.49440092 10.56445975 1.9957251 9.1264798 1.5 7.6875 C1.2215625 6.88699219 0.943125 6.08648438 0.65625 5.26171875 C0 3 0 3 0 0 Z " fill="#1159E5" transform="translate(63,1643)"/>
<path d="M0 0 C0.66 0.33 1.32 0.66 2 1 C0.44066679 2.27471705 -1.12261706 3.54460214 -2.6875 4.8125 C-3.55761719 5.52019531 -4.42773438 6.22789062 -5.32421875 6.95703125 C-7.79999632 8.84729646 -10.29796238 10.45667401 -13 12 C-12.43850643 8.74333728 -11.62770014 7.04376677 -9 5 C-7.66666667 4.66666667 -6.33333333 4.33333333 -5 4 C-3.37485532 2.54166642 -3.37485532 2.54166642 -2 1 C-1.34 0.67 -0.68 0.34 0 0 Z " fill="#5984E6" transform="translate(2002,2247)"/>
<path d="M0 0 C1.32 0 2.64 0 4 0 C4.66 2.31 5.32 4.62 6 7 C7.32 6.67 8.64 6.34 10 6 C9.34 7.32 8.68 8.64 8 10 C8.66 10.66 9.32 11.32 10 12 C9.67 12.99 9.34 13.98 9 15 C7.49726004 12.68923915 5.99770448 10.37652089 4.5 8.0625 C4.07074219 7.40314453 3.64148438 6.74378906 3.19921875 6.06445312 C0 1.11328125 0 1.11328125 0 0 Z " fill="#135CED" transform="translate(198,1926)"/>
<path d="M0 0 C0.66 0 1.32 0 2 0 C0.45730076 4.72065967 -1.07794619 9.41664092 -3 14 C-4.32 13.67 -5.64 13.34 -7 13 C-7 11.68 -7 10.36 -7 9 C-6.21625 8.54625 -5.4325 8.0925 -4.625 7.625 C-1.25938418 5.54152354 -0.91748986 3.75336759 0 0 Z " fill="#6E9CE8" transform="translate(2417,1695)"/>
<path d="M0 0 C4.38235776 1.00578703 7.91016198 2.69577228 11.8125 4.875 C7.74964243 6.50629887 4.61147816 5.17468777 0.5625 3.9375 C-0.70078125 3.55722656 -1.9640625 3.17695313 -3.265625 2.78515625 C-4.22984375 2.48480469 -5.1940625 2.18445312 -6.1875 1.875 C-3.1875 -0.125 -3.1875 -0.125 0 0 Z " fill="#3C70E2" transform="translate(915.1875,2452.125)"/>
<path d="M0 0 C4.88456906 2.09338674 7.87961101 5.1533966 10 10 C10.37125 10.7425 10.7425 11.485 11.125 12.25 C11.558125 13.11625 11.558125 13.11625 12 14 C11.01 14 10.02 14 9 14 C7.29476885 12.07388399 5.80449683 10.20475316 4.3125 8.125 C3.89677734 7.56941406 3.48105469 7.01382812 3.05273438 6.44140625 C0 2.28086515 0 2.28086515 0 0 Z " fill="#205CE8" transform="translate(253,2004)"/>
<path d="M0 0 C4.49155941 4.14909447 7.77549254 9.44061494 8.3125 15.5625 C8.1578125 16.7690625 8.1578125 16.7690625 8 18 C5.38333372 15.38333372 4.28365993 12.35651983 2.875 9 C2.59785156 8.35804687 2.32070312 7.71609375 2.03515625 7.0546875 C0 2.26254618 0 2.26254618 0 0 Z " fill="#1857EA" transform="translate(107,1757)"/>
<path d="M0 0 C0.66 0.99 1.32 1.98 2 3 C4.58380177 3.25030977 4.58380177 3.25030977 7 3 C7.33 3.99 7.66 4.98 8 6 C8.66 6.66 9.32 7.32 10 8 C8.39431334 7.71682074 6.79047953 7.42312209 5.1875 7.125 C4.29417969 6.96257813 3.40085937 6.80015625 2.48046875 6.6328125 C0 6 0 6 -3 4 C-2.01 2.68 -1.02 1.36 0 0 Z " fill="#3871E5" transform="translate(885,2441)"/>
<path d="M0 0 C1.32963842 3.98891525 0.38405007 7.18462836 -0.4375 11.1875 C-0.65889648 12.31188477 -0.65889648 12.31188477 -0.88476562 13.45898438 C-1.24972791 15.30734174 -1.62397411 17.15386161 -2 19 C-2.33 17.68 -2.66 16.36 -3 15 C-3.66 15 -4.32 15 -5 15 C-5 14.34 -5 13.68 -5 13 C-4.34 13 -3.68 13 -3 13 C-2.95101562 12.31292969 -2.90203125 11.62585937 -2.8515625 10.91796875 C-2.77679687 10.01691406 -2.70203125 9.11585937 -2.625 8.1875 C-2.52058594 6.84751953 -2.52058594 6.84751953 -2.4140625 5.48046875 C-2 3 -2 3 0 0 Z " fill="#799FE2" transform="translate(2480,1471)"/>
<path d="M0 0 C-2.79738782 1.5067748 -5.40322432 2.48224115 -8.5 3.1875 C-9.2528125 3.36667969 -10.005625 3.54585937 -10.78125 3.73046875 C-13.14833379 4.01801942 -14.74544015 3.72248395 -17 3 C-11.04268146 -1.27372852 -7.1216296 -1.31828958 0 0 Z " fill="#4981E5" transform="translate(1528,2469)"/>
<path d="M0 0 C0.66 2.31 1.32 4.62 2 7 C-1.91211733 5.84414715 -4.8745041 4.64465038 -8 2 C-2.25 0 -2.25 0 0 0 Z " fill="#3071EB" transform="translate(688,2361)"/>
<path d="M0 0 C2.08984375 0.421875 2.08984375 0.421875 4 1 C2.54712339 2.33927721 1.08752741 3.67126847 -0.375 5 C-1.18710938 5.7425 -1.99921875 6.485 -2.8359375 7.25 C-5 9 -5 9 -7 9 C-7.33 8.01 -7.66 7.02 -8 6 C-7.236875 5.566875 -6.47375 5.13375 -5.6875 4.6875 C-3.02111332 3.18659846 -3.02111332 3.18659846 -1.4375 1.25 C-0.7259375 0.63125 -0.7259375 0.63125 0 0 Z " fill="#5B8AE6" transform="translate(2060,2199)"/>
<path d="M0 0 C0 4.20547571 -2.36738124 6.16710361 -5 9.1875 C-5.47695312 9.74630859 -5.95390625 10.30511719 -6.4453125 10.88085938 C-7.62366206 12.25952836 -8.81098952 13.63051472 -10 15 C-10.33 14.01 -10.66 13.02 -11 12 C-10.29875 11.319375 -9.5975 10.63875 -8.875 9.9375 C-5.72065663 6.79219487 -2.86065696 3.4111614 0 0 Z " fill="#638FEC" transform="translate(2225,2031)"/>
<path d="M0 0 C1.98 0.99 1.98 0.99 4 2 C3.34 5.96 2.68 9.92 2 14 C2.99 14.33 3.98 14.66 5 15 C4.01 15.33 3.02 15.66 2 16 C0.00383446 14.00383446 0.59016573 10.18298037 0.4375 7.4375 C0.39431641 6.72658203 0.35113281 6.01566406 0.30664062 5.28320312 C0.20028223 3.52238088 0.09961154 1.7612168 0 0 Z " fill="#084EE2" transform="translate(3,1348)"/>
<path d="M0 0 C0.66 0 1.32 0 2 0 C4.61109045 3.82959933 3.86230768 6.8261539 3.125 11.25 C2.92132813 12.51328125 2.71765625 13.7765625 2.5078125 15.078125 C2.34023438 16.04234375 2.17265625 17.0065625 2 18 C1.67 18 1.34 18 1 18 C0.67 12.06 0.34 6.12 0 0 Z " fill="#0E52E0" transform="translate(1,1319)"/>
<path d="M0 0 C0.66 0.33 1.32 0.66 2 1 C-1.96 3.64 -5.92 6.28 -10 9 C-10.66 8.67 -11.32 8.34 -12 8 C-11.67 7.34 -11.34 6.68 -11 6 C-11.66 5.67 -12.32 5.34 -13 5 C-12.39671875 4.80664062 -11.7934375 4.61328125 -11.171875 4.4140625 C-10.37265625 4.15367187 -9.5734375 3.89328125 -8.75 3.625 C-7.96109375 3.36976563 -7.1721875 3.11453125 -6.359375 2.8515625 C-3.98216847 2.05806266 -3.98216847 2.05806266 -1.828125 0.8359375 C-1.22484375 0.56007813 -0.6215625 0.28421875 0 0 Z " fill="#5387E8" transform="translate(1922,2303)"/>
<path d="M0 0 C2.29296875 -0.23828125 2.29296875 -0.23828125 5 0 C6.80078125 1.64453125 6.80078125 1.64453125 8.3125 3.8125 C8.82425781 4.52019531 9.33601563 5.22789062 9.86328125 5.95703125 C11 8 11 8 11 11 C9.16365304 9.35742342 7.3308593 7.71117305 5.5 6.0625 C4.97535156 5.59392578 4.45070313 5.12535156 3.91015625 4.64257812 C2.5878256 3.44904592 1.29166061 2.22665821 0 1 C0 0.67 0 0.34 0 0 Z " fill="#2764E8" transform="translate(401,2168)"/>
<path d="M0 0 C3.02805726 5.40724511 4.30134946 10.82233616 4 17 C2.47700477 14.06279492 1.19899698 11.0831351 0 8 C-0.33 8 -0.66 8 -1 8 C-0.67 5.36 -0.34 2.72 0 0 Z " fill="#96B3F1" transform="translate(2453,909)"/>
<path d="M0 0 C1.98 0.495 1.98 0.495 4 1 C4 1.66 4 2.32 4 3 C4.99 3.33 5.98 3.66 7 4 C7 4.66 7 5.32 7 6 C8.32 6.33 9.64 6.66 11 7 C11 7.66 11 8.32 11 9 C6.32894208 7.44298069 2.91294315 4.91552627 -1 2 C-0.67 1.34 -0.34 0.68 0 0 Z " fill="#255FE3" transform="translate(554,2287)"/>
<path d="M0 0 C0.66 0.33 1.32 0.66 2 1 C1.05065487 2.67180274 0.09026687 4.33733936 -0.875 6 C-1.40867187 6.928125 -1.94234375 7.85625 -2.4921875 8.8125 C-2.98976563 9.534375 -3.48734375 10.25625 -4 11 C-4.66 11 -5.32 11 -6 11 C-6.33 9.68 -6.66 8.36 -7 7 C-6.34 6.67 -5.68 6.34 -5 6 C-4.34 6.33 -3.68 6.66 -3 7 C-2.814375 5.824375 -2.814375 5.824375 -2.625 4.625 C-2 2 -2 2 0 0 Z " fill="#6996EB" transform="translate(2339,1862)"/>
<path d="M0 0 C1.90318884 2.85478326 2.4619099 4.41941308 3.125 7.6875 C3.29257813 8.49574219 3.46015625 9.30398438 3.6328125 10.13671875 C3.75398438 10.75160156 3.87515625 11.36648438 4 12 C3.38125 11.525625 2.7625 11.05125 2.125 10.5625 C0.09294454 8.97582559 0.09294454 8.97582559 -2 8 C-2 6.68 -2 5.36 -2 4 C-1.34 4 -0.68 4 0 4 C0 2.68 0 1.36 0 0 Z " fill="#93B1EC" transform="translate(2445,882)"/>
<path d="M0 0 C5.53640692 2.25557319 9.41663021 6.68973987 12 12 C11.67 12.66 11.34 13.32 11 14 C9.16369327 11.85664848 7.33085819 9.71049702 5.5 7.5625 C4.71302734 6.64500977 4.71302734 6.64500977 3.91015625 5.70898438 C0 1.11328125 0 1.11328125 0 0 Z " fill="#1B5FE4" transform="translate(300,2063)"/>
<path d="M0 0 C1.32 0.66 2.64 1.32 4 2 C4 2.99 4 3.98 4 5 C4.515625 6.010625 5.03125 7.02125 5.5625 8.0625 C6.036875 9.031875 6.51125 10.00125 7 11 C6.67 11.66 6.34 12.32 6 13 C4.80008401 11.4050992 3.61538682 9.79873853 2.4375 8.1875 C1.44556641 6.84751953 1.44556641 6.84751953 0.43359375 5.48046875 C-0.03949219 4.66191406 -0.51257813 3.84335938 -1 3 C-0.67 2.01 -0.34 1.02 0 0 Z " fill="#1758E8" transform="translate(209,1940)"/>
<path d="M0 0 C0.66 0 1.32 0 2 0 C2 0.99 2 1.98 2 3 C4.31 3.66 6.62 4.32 9 5 C4.47907032 6.45606519 1.48351204 5.27032841 -3 4 C-1.625 2 -1.625 2 0 0 Z " fill="#3A76E8" transform="translate(942,2458)"/>
<path d="M0 0 C3 2 3 2 3.75 5.4375 C4 9 4 9 3 12 C2.29773859 10.75823305 1.61370891 9.50614401 0.9375 8.25 C0.36322266 7.20585938 0.36322266 7.20585938 -0.22265625 6.140625 C-1.1312406 3.63859372 -0.88336837 2.4667645 0 0 Z " fill="#145AE7" transform="translate(121,1784)"/>
<path d="M0 0 C2.8670615 2.8670615 4 4.91591468 4 9 C4.66 9.66 5.32 10.32 6 11 C5.34 12.32 4.68 13.64 4 15 C2.1866078 11.79989612 1.47786026 8.86716157 0.875 5.25 C0.70742188 4.26515625 0.53984375 3.2803125 0.3671875 2.265625 C0.24601562 1.51796875 0.12484375 0.7703125 0 0 Z " fill="#1551EF" transform="translate(31,1530)"/>
<path d="M0 0 C-1.56116819 0.33951619 -3.12401338 0.67132544 -4.6875 1 C-5.99267578 1.2784375 -5.99267578 1.2784375 -7.32421875 1.5625 C-9.93712964 1.98972047 -12.35813038 2.07616201 -15 2 C-13.27051517 -0.11762004 -12.28554791 -0.93104272 -9.58984375 -1.58203125 C-8.71457031 -1.65808594 -7.83929687 -1.73414062 -6.9375 -1.8125 C-6.05964844 -1.90144531 -5.18179687 -1.99039063 -4.27734375 -2.08203125 C-2 -2 -2 -2 0 0 Z " fill="#5478E2" transform="translate(1490,2478)"/>
<path d="M0 0 C0.99 0 1.98 0 3 0 C3 0.66 3 1.32 3 2 C3.99 2.33 4.98 2.66 6 3 C1.71 3.99 -2.58 4.98 -7 6 C-6.67 5.34 -6.34 4.68 -6 4 C-4.68 4 -3.36 4 -2 4 C-1.34 2.68 -0.68 1.36 0 0 Z " fill="#5181E8" transform="translate(1585,2451)"/>
<path d="M0 0 C0.99 0.66 1.98 1.32 3 2 C-3.93 4.97 -3.93 4.97 -11 8 C-11.33 7.34 -11.66 6.68 -12 6 C-10.948125 5.566875 -9.89625 5.13375 -8.8125 4.6875 C-5.70539018 3.36129459 -2.85481805 1.8167024 0 0 Z " fill="#5282EC" transform="translate(1754,2392)"/>
<path d="M0 0 C4.70943467 4.39547236 6.13112086 7.62821966 7 14 C6.34 14 5.68 14 5 14 C4.16235732 12.04350603 3.33000941 10.08474444 2.5 8.125 C2.0359375 7.03445313 1.571875 5.94390625 1.09375 4.8203125 C0 2 0 2 0 0 Z " fill="#1259E5" transform="translate(93,1725)"/>
<path d="M0 0 C4.20710482 5.15709623 5.12440607 7.28207197 5 14 C2.81385576 11.81385576 2.31743465 10.46120051 1.375 7.5625 C1.11460938 6.78003906 0.85421875 5.99757813 0.5859375 5.19140625 C0 3 0 3 0 0 Z " fill="#1257EA" transform="translate(67,1655)"/>
<path d="M0 0 C1.4540625 0.0309375 1.4540625 0.0309375 2.9375 0.0625 C0.68152173 2.31847827 -1.10853867 3.02824192 -4.0625 4.1875 C-4.949375 4.54070313 -5.83625 4.89390625 -6.75 5.2578125 C-9.0625 6.0625 -9.0625 6.0625 -11.0625 6.0625 C-11.0625 5.4025 -11.0625 4.7425 -11.0625 4.0625 C-9.928125 3.588125 -8.79375 3.11375 -7.625 2.625 C-1.72003425 0.03510274 -1.72003425 0.03510274 0 0 Z " fill="#5084EB" transform="translate(1706.0625,2412.9375)"/>
<path d="M0 0 C2.64 0.33 5.28 0.66 8 1 C5.06171403 3.50298434 2.82097239 4.46930939 -1 5 C-0.67 3.35 -0.34 1.7 0 0 Z " fill="#5183F2" transform="translate(1784,2376)"/>
<path d="M0 0 C1.98 0.99 1.98 0.99 4 2 C4 2.66 4 3.32 4 4 C4.66 4 5.32 4 6 4 C6 4.66 6 5.32 6 6 C8.475 6.99 8.475 6.99 11 8 C10.67 8.66 10.34 9.32 10 10 C5.48872628 7.67991637 3.02444984 4.97499121 0 1 C0 0.67 0 0.34 0 0 Z " fill="#1D5EE2" transform="translate(341,2108)"/>
<path d="M0 0 C2.31 0.66 4.62 1.32 7 2 C7.33 4.31 7.66 6.62 8 9 C4.36905358 6.35039045 2.10148204 3.98175544 0 0 Z " fill="#245CED" transform="translate(325,2091)"/>
<path d="M0 0 C0.66 0.33 1.32 0.66 2 1 C0.33248852 4.94139078 -2.22710649 7.7892812 -5 11 C-6 9 -6 9 -5.3125 6.5 C-3.84432962 3.70348499 -2.90696099 3.06588569 0 2 C0 1.34 0 0.68 0 0 Z " fill="#6392EF" transform="translate(2206,2052)"/>
<path d="M0 0 C3.53271727 2.35514485 4.44025604 4.10064011 6 8 C5.6875 10.375 5.6875 10.375 5 12 C2.32522069 9.32522069 1.3535886 6.507025 0 3 C0 2.01 0 1.02 0 0 Z " fill="#1A58EA" transform="translate(101,1743)"/>
<path d="M0 0 C0.99 0.33 1.98 0.66 3 1 C1.68 5.29 0.36 9.58 -1 14 C-1.33 14 -1.66 14 -2 14 C-1.85923685 12.0412957 -1.7122324 10.08303907 -1.5625 8.125 C-1.48128906 7.03445313 -1.40007813 5.94390625 -1.31640625 4.8203125 C-1 2 -1 2 0 0 Z " fill="#789AE1" transform="translate(2445,1611)"/>
<path d="M0 0 C1.46726798 3.81489674 0.43336419 6.29011622 -1 10 C-1.99 10 -2.98 10 -4 10 C-4 9.34 -4 8.68 -4 8 C-4.99 8.33 -5.98 8.66 -7 9 C-7 8.34 -7 7.68 -7 7 C-5.02 6.67 -3.04 6.34 -1 6 C-0.67 4.02 -0.34 2.04 0 0 Z " fill="#81A8EF" transform="translate(2449,1601)"/>
<path d="M0 0 C1.65 0 3.3 0 5 0 C1.83047153 3.26008643 -1.39937989 6.22237877 -5 9 C-5 8.01 -5 7.02 -5 6 C-4.34 6 -3.68 6 -3 6 C-2.67 5.01 -2.34 4.02 -2 3 C-1.34 3 -0.68 3 0 3 C0 2.01 0 1.02 0 0 Z " fill="#5784E0" transform="translate(2072,2188)"/>
<path d="M0 0 C0.66 0.33 1.32 0.66 2 1 C0.68 3.31 -0.64 5.62 -2 8 C-3.32 7.67 -4.64 7.34 -6 7 C-6 6.34 -6 5.68 -6 5 C-4.04072937 3.2856382 -2.04119788 1.61594832 0 0 Z " fill="#6794E9" transform="translate(2344,1853)"/>
<path d="M0 0 C0.99 0 1.98 0 3 0 C3 2.64 3 5.28 3 8 C2.01 8 1.02 8 0 8 C0 5.36 0 2.72 0 0 Z " fill="#9BBBF7" transform="translate(2493,1352)"/>
<path d="M0 0 C1.485 0.99 1.485 0.99 3 2 C5.05709596 2.24055468 5.05709596 2.24055468 7.1875 2.125 C8.445625 2.08375 9.70375 2.0425 11 2 C11 2.99 11 3.98 11 5 C5.06 4.01 5.06 4.01 -1 3 C-0.67 2.01 -0.34 1.02 0 0 Z " fill="#4177E9" transform="translate(1097,2488)"/>
<path d="M0 0 C-2.85478326 1.90318884 -4.41941308 2.4619099 -7.6875 3.125 C-8.49574219 3.29257813 -9.30398438 3.46015625 -10.13671875 3.6328125 C-10.75160156 3.75398438 -11.36648438 3.87515625 -12 4 C-7.62086703 -0.52510407 -6.25424506 -1.22365664 0 0 Z " fill="#5384E8" transform="translate(1643,2437)"/>
<path d="M0 0 C-4.455 3.465 -4.455 3.465 -9 7 C-9.33 6.01 -9.66 5.02 -10 4 C-9.01 4 -8.02 4 -7 4 C-6.87625 3.360625 -6.7525 2.72125 -6.625 2.0625 C-6.41875 1.381875 -6.2125 0.70125 -6 0 C-4 -1 -4 -1 0 0 Z " fill="#5D8CEB" transform="translate(2029,2229)"/>
<path d="M0 0 C0.99 0.33 1.98 0.66 3 1 C0.525 4.465 0.525 4.465 -2 8 C-2.99 7.34 -3.98 6.68 -5 6 C-4.67 5.01 -4.34 4.02 -4 3 C-3.01 2.67 -2.02 2.34 -1 2 C-0.67 1.34 -0.34 0.68 0 0 Z " fill="#6592E2" transform="translate(2256,1989)"/>
<path d="M0 0 C0.99 0 1.98 0 3 0 C3.69289369 3.72430357 4.11144596 7.21083746 4 11 C1.55160412 7.32740617 0 4.45351799 0 0 Z " fill="#1454EC" transform="translate(75,1678)"/>
<path d="M0 0 C0.66 0 1.32 0 2 0 C1.38461538 6.52307692 1.38461538 6.52307692 -0.5625 8.9375 C-1.036875 9.288125 -1.51125 9.63875 -2 10 C-2.33 9.01 -2.66 8.02 -3 7 C-2.34 7 -1.68 7 -1 7 C-1.33 6.01 -1.66 5.02 -2 4 C-1.0625 1.8125 -1.0625 1.8125 0 0 Z " fill="#3376FB" transform="translate(1248,1251)"/>
<path d="M0 0 C4.95 0 9.9 0 15 0 C13.68 1.32 12.36 2.64 11 4 C10.67 3.34 10.34 2.68 10 2 C7.64400765 1.53248212 7.64400765 1.53248212 4.9375 1.375 C4.01839844 1.30023437 3.09929687 1.22546875 2.15234375 1.1484375 C1.08693359 1.07496094 1.08693359 1.07496094 0 1 C0 0.67 0 0.34 0 0 Z " fill="#1D5DF0" transform="translate(1234,1252)"/>
<path d="M0 0 C-5.445 2.475 -5.445 2.475 -11 5 C-11 3.66666667 -11 2.33333333 -11 1 C-3.375 -1.125 -3.375 -1.125 0 0 Z " fill="#5286E8" transform="translate(1770,2388)"/>
<path d="M0 0 C-1.61992165 0.86375896 -3.24611861 1.71575854 -4.875 2.5625 C-6.23238281 3.27599609 -6.23238281 3.27599609 -7.6171875 4.00390625 C-8.40351562 4.33261719 -9.18984375 4.66132813 -10 5 C-10.66 4.67 -11.32 4.34 -12 4 C-5.27272727 -1.63636364 -5.27272727 -1.63636364 0 0 Z " fill="#5988EB" transform="translate(1804,2372)"/>
<path d="M0 0 C1.65 0 3.3 0 5 0 C5 0.66 5 1.32 5 2 C6.2065625 2.433125 6.2065625 2.433125 7.4375 2.875 C10 4 10 4 11 6 C6.95743617 4.77782954 3.50711041 3.37245704 0 1 C0 0.67 0 0.34 0 0 Z " fill="#306AE6" transform="translate(669,2357)"/>
<path d="M0 0 C-2.64 1.98 -5.28 3.96 -8 6 C-8.66 5.67 -9.32 5.34 -10 5 C-6.58244111 0.23982869 -6.58244111 0.23982869 -3.875 -0.875 C-2 -1 -2 -1 0 0 Z " fill="#5A8BEC" transform="translate(1977,2268)"/>
<path d="M0 0 C0.99 0 1.98 0 3 0 C3 0.99 3 1.98 3 3 C3.66 3.66 4.32 4.32 5 5 C5.33 5.99 5.66 6.98 6 8 C3.11562221 6.70700306 1.12780579 5.34058637 -1 3 C-0.67 2.01 -0.34 1.02 0 0 Z " fill="#2968F1" transform="translate(473,2226)"/>
<path d="M0 0 C0.99 0 1.98 0 3 0 C1.68775452 3.93673644 0.08089673 6.22719294 -3 9 C-3 8.34 -3 7.68 -3 7 C-3.66 6.67 -4.32 6.34 -5 6 C-4.01 5.67 -3.02 5.34 -2 5 C-0.78130071 2.49552484 -0.78130071 2.49552484 0 0 Z " fill="#6791E9" transform="translate(2293,1935)"/>
<path d="M0 0 C2.72107452 2.3500189 3.96702492 4.55674975 5 8 C4.67 8.99 4.34 9.98 4 11 C3.13341385 9.73760288 2.28207941 8.46472499 1.4375 7.1875 C0.72400391 6.12595703 0.72400391 6.12595703 -0.00390625 5.04296875 C-1 3 -1 3 0 0 Z " fill="#1D58E7" transform="translate(181,1896)"/>
<path d="M0 0 C2.5 2.0625 2.5 2.0625 5 5 C5.3125 8.8125 5.3125 8.8125 5 12 C2.65085508 9.65085508 2.26859643 8.04320554 1.375 4.875 C1.11460938 3.96492188 0.85421875 3.05484375 0.5859375 2.1171875 C0.39257812 1.41851563 0.19921875 0.71984375 0 0 Z " fill="#1759EC" transform="translate(86,1707)"/>
<path d="M0 0 C1.73684533 3.47369066 2.30084112 5.07619937 2.625 8.75 C2.69976563 9.54921875 2.77453125 10.3484375 2.8515625 11.171875 C2.90054688 11.77515625 2.94953125 12.3784375 3 13 C2.67 12.34 2.34 11.68 2 11 C1.34 11 0.68 11 0 11 C0 7.37 0 3.74 0 0 Z " fill="#96B1EA" transform="translate(2469,972)"/>
<path d="M0 0 C-2.85584773 1.90389849 -4.9311762 2.69462177 -8.1875 3.625 C-9.08855469 3.88539063 -9.98960938 4.14578125 -10.91796875 4.4140625 C-11.94857422 4.70410156 -11.94857422 4.70410156 -13 5 C-8.82383994 0.37639422 -6.09215567 -0.16922655 0 0 Z " fill="#487FE2" transform="translate(1689,2421)"/>
<path d="M0 0 C2.66355234 -0.39169887 4.39224373 -0.40564529 6.66796875 1.11328125 C8.1510888 2.36389317 9.57954352 3.67864514 11 5 C10.01 5.495 10.01 5.495 9 6 C6.8359375 5.00390625 6.8359375 5.00390625 4.375 3.5625 C3.55773437 3.08941406 2.74046875 2.61632813 1.8984375 2.12890625 C1.27195312 1.75636719 0.64546875 1.38382813 0 1 C0 0.67 0 0.34 0 0 Z " fill="#2C65E0" transform="translate(625,2333)"/>
<path d="M0 0 C0.061875 0.61875 0.12375 1.2375 0.1875 1.875 C0.455625 2.57625 0.72375 3.2775 1 4 C2.64551962 4.71727778 4.31422289 5.38325228 6 6 C6.99 7.485 6.99 7.485 8 9 C3.56541027 7.6062718 1.12621626 5.39417765 -2 2 C-1.34 1.34 -0.68 0.68 0 0 Z " fill="#2D67E6" transform="translate(525,2265)"/>
<path d="M0 0 C0.99 0 1.98 0 3 0 C6 5.75 6 5.75 6 8 C2.24623848 6.74874616 1.75926711 5.4347596 0 2 C0 1.34 0 0.68 0 0 Z " fill="#195EEC" transform="translate(192,1916)"/>
<path d="M0 0 C1.7074998 1.28062485 3.37373596 2.61767557 5 4 C5 4.66 5 5.32 5 6 C5.66 6.33 6.32 6.66 7 7 C6.67 7.99 6.34 8.98 6 10 C3.25722422 6.80009492 1.3697164 3.99500618 0 0 Z " fill="#175AE8" transform="translate(174,1887)"/>
<path d="M0 0 C0.66 0 1.32 0 2 0 C1.32829194 3.8063457 0.27253436 7.35206816 -1 11 C-1.33 11 -1.66 11 -2 11 C-1.85957123 9.35369672 -1.71250671 7.70795821 -1.5625 6.0625 C-1.48128906 5.14597656 -1.40007813 4.22945312 -1.31640625 3.28515625 C-1 1 -1 1 0 0 Z " fill="#6896E7" transform="translate(2423,1678)"/>
<path d="M0 0 C4.29 0.99 8.58 1.98 13 3 C12.34 3.66 11.68 4.32 11 5 C7.16131924 4.57347992 3.4967607 2.54664416 0 1 C0 0.67 0 0.34 0 0 Z " fill="#B9C8EF" transform="translate(1567,40)"/>
<path d="M0 0 C1.4800841 0.11362262 2.95910074 0.24122908 4.4375 0.375 C5.26121094 0.44460937 6.08492187 0.51421875 6.93359375 0.5859375 C7.95646484 0.79089844 7.95646484 0.79089844 9 1 C9.33 1.66 9.66 2.32 10 3 C4.375 4.125 4.375 4.125 1 3 C0.67 2.01 0.34 1.02 0 0 Z " fill="#AFC2EF" transform="translate(1471,19)"/>
<path d="M0 0 C2.475 0.495 2.475 0.495 5 1 C5.33 1.99 5.66 2.98 6 4 C6.99 4.33 7.98 4.66 9 5 C9 5.66 9 6.32 9 7 C5.18315774 5.44499019 2.80804268 2.96404505 0 0 Z " fill="#2563E7" transform="translate(450,2211)"/>
<path d="M0 0 C0.66 0.33 1.32 0.66 2 1 C0.71451591 2.33929505 -0.57858155 3.67128643 -1.875 5 C-2.59429688 5.7425 -3.31359375 6.485 -4.0546875 7.25 C-6 9 -6 9 -8 9 C-6.90101298 5.70303895 -6.05402613 4.95329411 -3.4375 2.8125 C-2.79683594 2.28269531 -2.15617187 1.75289062 -1.49609375 1.20703125 C-0.75552734 0.60955078 -0.75552734 0.60955078 0 0 Z " fill="#5C87E9" transform="translate(2091,2173)"/>
<path d="M0 0 C0.99 0.33 1.98 0.66 3 1 C1.35 2.98 -0.3 4.96 -2 7 C-2.66 6.67 -3.32 6.34 -4 6 C-4 5.01 -4 4.02 -4 3 C-2.1875 1.25 -2.1875 1.25 0 0 Z " fill="#6288EF" transform="translate(2173,2090)"/>
<path d="M0 0 C0.99 0 1.98 0 3 0 C6.22265625 5.2734375 6.22265625 5.2734375 7 7 C6.67 7.66 6.34 8.32 6 9 C4.99406757 7.8803014 3.9954151 6.7540588 3 5.625 C2.443125 4.99851562 1.88625 4.37203125 1.3125 3.7265625 C0 2 0 2 0 0 Z " fill="#1A59E3" transform="translate(246,1995)"/>
<path d="M0 0 C2.475 0.495 2.475 0.495 5 1 C5 3.31 5 5.62 5 8 C2.74754119 5.31158141 1.11786042 3.35358125 0 0 Z " fill="#165BF0" transform="translate(163,1869)"/>
<path d="M0 0 C0.66 0.33 1.32 0.66 2 1 C-0.96283313 3.38672669 -3.94270509 5.7353371 -7 8 C-7 6.68 -7 5.36 -7 4 C-1.7265625 0.77734375 -1.7265625 0.77734375 0 0 Z " fill="#D2DCEF" transform="translate(595,184)"/>
<path d="M0 0 C2.475 0.99 2.475 0.99 5 2 C5 2.66 5 3.32 5 4 C5.99 4 6.98 4 8 4 C8 4.66 8 5.32 8 6 C4.22454612 4.90931332 1.52956528 4.0916909 -1 1 C-0.67 0.67 -0.34 0.34 0 0 Z " fill="#2F6CEF" transform="translate(599,2316)"/>
<path d="M0 0 C0.66 0 1.32 0 2 0 C2 0.66 2 1.32 2 2 C2.99 2.33 3.98 2.66 5 3 C6.75 5.4375 6.75 5.4375 8 8 C7.67 8.66 7.34 9.32 7 10 C5.83043409 8.52312468 4.66441854 7.04343707 3.5 5.5625 C2.8503125 4.73878906 2.200625 3.91507813 1.53125 3.06640625 C0 1 0 1 0 0 Z " fill="#1F5DE5" transform="translate(281,2040)"/>
<path d="M0 0 C3.16115776 1.36983503 3.9927092 1.9890638 6 5 C5.625 7.1875 5.625 7.1875 5 9 C4.16094435 7.87926138 3.32892169 6.75325453 2.5 5.625 C2.0359375 4.99851562 1.571875 4.37203125 1.09375 3.7265625 C0 2 0 2 0 0 Z " fill="#1F57E9" transform="translate(230,1973)"/>
<path d="M0 0 C0.33 0 0.66 0 1 0 C1.33 3.3 1.66 6.6 2 10 C1.34 10 0.68 10 0 10 C-0.66 8.68 -1.32 7.36 -2 6 C-1.34 6 -0.68 6 0 6 C0 4.02 0 2.04 0 0 Z " fill="#9CB7F3" transform="translate(2477,1010)"/>
<path d="M0 0 C4.875 4.625 4.875 4.625 6 8 C5.01 7.67 4.02 7.34 3 7 C3 6.34 3 5.68 3 5 C1.68 4.67 0.36 4.34 -1 4 C-0.67 2.68 -0.34 1.36 0 0 Z " fill="#9DB6EE" transform="translate(2229,472)"/>
<path d="M0 0 C0.33 0.99 0.66 1.98 1 3 C-2.3 3 -5.6 3 -9 3 C-5.87496336 0.91664224 -3.72863529 0 0 0 Z " fill="#4C73C7" transform="translate(1146,2493)"/>
<path d="M0 0 C2.38564077 0.57584432 4.66682784 1.22227595 7 2 C7.6875 4.0625 7.6875 4.0625 8 6 C4.63408134 4.55746343 2.48952921 2.66735273 0 0 Z " fill="#265FDF" transform="translate(497,2248)"/>
<path d="M0 0 C1 2 1 2 0.44140625 4.1640625 C0.15136719 4.97617188 -0.13867188 5.78828125 -0.4375 6.625 C-0.72496094 7.44226562 -1.01242188 8.25953125 -1.30859375 9.1015625 C-1.53675781 9.72804688 -1.76492187 10.35453125 -2 11 C-2.33 11 -2.66 11 -3 11 C-3.36923077 4.6 -3.36923077 4.6 -1.5 1.5625 C-1.005 1.046875 -0.51 0.53125 0 0 Z " fill="#789FEB" transform="translate(2440,1632)"/>
<path d="M0 0 C1.33333333 1.33333333 2.66666667 2.66666667 4 4 C-2.625 3.25 -2.625 3.25 -6 1 C-3 0 -3 0 0 0 Z " fill="#306DE2" transform="translate(875,2440)"/>
<path d="M0 0 C2.64 0 5.28 0 8 0 C8.33 1.32 8.66 2.64 9 4 C6.03 3.01 3.06 2.02 0 1 C0 0.67 0 0.34 0 0 Z " fill="#3168E5" transform="translate(817,2423)"/>
<path d="M0 0 C-6.75 4 -6.75 4 -9 4 C-8 1 -8 1 -5.625 -0.25 C-3 -1 -3 -1 0 0 Z " fill="#5483E2" transform="translate(1887,2327)"/>
<path d="M0 0 C1.32 0 2.64 0 4 0 C2.92598892 2.91517292 2.22189824 4.77810176 0 7 C-0.38133299 5.0085944 -0.71325582 3.00720923 -1 1 C-0.67 0.67 -0.34 0.34 0 0 Z " fill="#6A97F3" transform="translate(2309,1908)"/>
<path d="M0 0 C2.12508244 3.18762365 2.5020163 5.26512223 3 9 C2.01 8.67 1.02 8.34 0 8 C-1.09658936 4.71023192 -0.79953138 3.28696233 0 0 Z " fill="#95B2EF" transform="translate(2437,857)"/>
</svg>
