<?xml version="1.0" encoding="UTF-8"?>
<!DOCTYPE svg PUBLIC "-//W3C//DTD SVG 1.1//EN" "http://www.w3.org/Graphics/SVG/1.1/DTD/svg11.dtd">
<svg version="1.1" xmlns="http://www.w3.org/2000/svg" xmlns:xlink="http://www.w3.org/1999/xlink" x="0" y="0" width="397.048" height="437.282" viewBox="0, 0, 397.048, 437.282">
  <g id="Pic">
    <path d="M214.006,-0 C207.075,-0 201.751,1.784 198.264,6.223 L155.488,1.891 C147.469,1.891 142.117,8.571 142.117,16.35 L142.117,25.025 C142.117,32.63 147.554,39.063 155.291,39.346 L200.594,36.135 C202.198,37.821 205.087,39.243 207.711,40.305 L207.711,66.305 C194.593,67.626 185.451,71.825 183.439,77.357 C182.441,78.802 180.682,81.77 180.574,88.16 C180.567,88.665 180.532,89.147 180.521,89.389 C180.49,90.029 180.52,90.894 180.666,91.629 C178.429,91.686 176.643,92.09 175.242,92.186 C175.06,92.179 174.874,92.596 174.691,92.596 C168.248,92.596 162.442,98.389 158.023,106.26 L120.902,106.26 L115.967,105.332 C66.195,107.008 19.188,107.386 12.061,147.23 C7.384,173.373 5.574,200.454 4.885,215.77 C3.489,217.143 2.47,218.65 1.9,220.223 C0.663,222.014 0.177,225.652 0.045,233.576 C0.035,234.201 0.027,234.711 0.012,235.008 C-0.592,247.909 20.644,254.69 41.951,255.684 C43.615,255.762 45.297,255.801 46.951,255.801 C66.567,255.801 86.694,250.026 87.209,238.982 C87.238,238.352 87.322,237.291 87.422,236.018 C87.655,233.012 87.811,230.696 87.889,228.887 C88.06,228.259 88.168,227.617 88.201,226.963 C88.257,225.758 88.063,224.58 87.664,223.43 C87.584,223.137 87.483,222.898 87.371,222.682 C86.463,220.607 84.845,218.635 82.602,216.828 C83.131,206.515 84.268,194.468 86.527,189.838 C89.128,184.511 110.685,183.602 124.949,183 C125.005,183 130.765,182.91 138.605,182.91 C144.254,182.91 151.434,182.96 158.469,183.137 C162.768,190.42 168.304,194.785 174.428,194.906 C175.674,195.041 190.639,196.605 208.787,196.605 C223.863,196.605 241.134,195.526 254.564,191.646 L255.188,191.467 L255.65,191.02 C257.694,189.06 259.588,186.84 261.326,184.41 C262.051,184.419 262.697,184.42 263.414,184.428 C271.744,204.693 285.785,218.941 302.123,221.656 C304.35,222.714 309.587,223.838 327.18,223.838 C332.169,223.838 336.934,223.748 340.414,223.684 C342.395,223.646 343.959,223.617 344.902,223.617 C360.078,223.617 373.649,215.333 383.115,200.295 C392.099,186.021 397.047,166.292 397.047,144.742 C397.047,105.716 379.44,73.003 355.967,64.863 L355.99,64.266 L353.76,64.178 C350.773,63.353 347.708,62.896 344.574,62.896 C342.62,62.896 339.237,62.834 335.322,62.758 C329.306,62.643 321.82,62.504 315.125,62.504 C314.456,62.504 313.827,62.507 313.209,62.508 C311.44,62.237 309.649,62.096 307.842,62.096 C304.95,62.096 302.118,62.467 299.355,63.156 C298.535,63.298 298.013,63.458 297.633,63.619 L297.58,63.641 C283.025,68.06 270.623,81.682 263.1,100.355 C261.14,97.313 258.958,94.574 256.537,92.238 L255.746,91.469 L254.65,91.504 C253.79,91.531 252.53,91.543 250.918,91.547 C250.948,91.112 251.03,90.603 251.074,90.031 C251.264,87.608 251.472,85.741 251.535,84.283 C251.672,83.775 251.925,83.26 251.947,82.732 C251.993,81.76 252.165,80.81 251.84,79.881 C251.771,79.68 252.464,79.478 252.375,79.283 C250.101,74.062 243.13,69.699 232.635,67.459 L232.635,39.4 C233.947,38.576 233.863,38.692 234.996,37.605 L276.508,41.979 L276.648,41.979 C284.67,41.979 294.293,32.803 294.293,25.025 L294.293,16.35 C294.293,8.571 286.094,2.328 278.074,2.328 L276.422,2.664 L235.543,6.047 C231.965,1.707 225.896,-0 218.91,-0 L214.006,-0 z M155.291,39.346 L155.057,39.363 L155.816,39.373 C155.638,39.373 155.467,39.352 155.291,39.346 z" fill="#1F67A3" id="path42894"/>
    <path d="M268.901,184.364 L270.738,188.299 L309.68,188.509 C310.338,187.408 310.712,186.536 311.181,184.55 z" fill="#FFFFFF" id="path43264"/>
    <path d="M8.663,241.74 L8.991,234.47 C9.042,234.506 9.096,234.539 9.149,234.576 L8.827,241.868 C8.77,241.823 8.716,241.78 8.663,241.74" fill="#FFFFFF" id="path43250"/>
    <path d="M9.747,227.483 C9.904,220.063 10.98,183.83 17.225,148.92 C23.607,113.254 68.555,112.178 116.144,110.577 L120.993,111.507 L169.149,111.507 C174.362,111.507 178.889,118.825 181.141,129.222 C153.648,129.33 75.936,129.195 57.283,137.808 C33.142,148.954 32.146,182.947 30.996,222.24 C30.873,226.488 30.739,230.851 30.582,235.222 C22.408,233.674 15.211,231.262 9.747,227.483" fill="#FFFFFF" id="path43248"/>
    <path d="M10.951,243.323 L11.281,235.862 C11.461,235.958 11.653,236.056 11.837,236.154 L11.509,243.643 C11.321,243.535 11.13,243.43 10.951,243.323" fill="#FFFFFF" id="path43246"/>
    <path d="M13.649,244.757 L13.979,237.217 C14.074,237.26 14.16,237.307 14.255,237.348 C14.458,237.44 14.684,237.522 14.889,237.612 L14.564,245.178 C14.251,245.039 13.947,244.899 13.649,244.757" fill="#FFFFFF" id="path43244"/>
    <path d="M16.714,246.07 L17.041,238.508 C17.439,238.661 17.856,238.805 18.263,238.951 L17.939,246.518 C17.523,246.371 17.113,246.22 16.714,246.07" fill="#FFFFFF" id="path43242"/>
    <path d="M20.101,247.227 L20.421,239.704 C20.908,239.861 21.419,240.002 21.917,240.151 L21.598,247.669 C21.091,247.527 20.59,247.381 20.101,247.227" fill="#FFFFFF" id="path43240"/>
    <path d="M23.765,248.247 L24.08,240.779 C24.643,240.927 25.23,241.052 25.805,241.191 L25.494,248.658 C24.907,248.524 24.331,248.388 23.765,248.247" fill="#FFFFFF" id="path43238"/>
    <path d="M27.664,249.108 L27.976,241.701 C28.601,241.834 29.248,241.947 29.888,242.067 L29.582,249.459 C28.935,249.349 28.294,249.231 27.664,249.108" fill="#FFFFFF" id="path43236"/>
    <path d="M31.757,249.808 L32.061,242.467 C32.9,242.605 33.754,242.726 34.61,242.843 L34.271,250.149 C33.419,250.046 32.582,249.931 31.757,249.808" fill="#FFFFFF" id="path43234"/>
    <path d="M36.45,250.392 L36.788,243.118 C37.972,243.253 39.161,243.373 40.37,243.471 L39.991,250.684 C38.792,250.605 37.609,250.507 36.45,250.392" fill="#FFFFFF" id="path43232"/>
    <path d="M42.176,251.001 L42.553,243.7 C43.004,243.725 43.45,243.848 43.902,243.87 C44.636,243.905 45.366,244.068 46.102,244.086 L45.69,250.989 z" fill="#FFFFFF" id="path43230"/>
    <path d="M46.281,236.673 C45.402,236.673 44.529,236.659 43.66,236.635 C43.834,231.92 43.975,227.252 44.11,222.679 C45.133,187.741 46.017,157.568 62.782,149.827 C76.29,143.591 139.267,141.325 182.62,141.239 C182.689,145.034 182.46,148.87 181.938,152.598 C169.829,152.491 78.561,152.021 67.116,162.014 C54.967,172.621 55.341,224.172 55.597,236.195 C52.689,236.496 49.579,236.673 46.281,236.673" fill="#FFFFFF" id="path43228"/>
    <path d="M47.881,251.033 L48.278,244.214 C48.278,244.214 51.838,243.757 52.789,243.731 L52.4,250.564 L51.733,250.564 C50.422,250.564 50.394,250.854 49.239,250.865 z" fill="#FFFFFF" id="path43226"/>
    <path d="M53.483,250.839 L53.486,250.704 L53.94,243.692 C55.04,243.638 56.134,243.569 57.199,243.476 L56.73,250.435 C55.682,250.54 54.647,250.632 53.553,250.704 L53.547,250.839 C53.532,250.839 53.52,250.837 53.507,250.837 C53.499,250.837 53.491,250.839 53.483,250.839" fill="#FFFFFF" id="path43224"/>
    <path d="M58.905,250.176 L59.39,243.261 C60.4,243.149 61.393,243.023 62.365,242.879 L61.847,249.741 C60.892,249.903 59.912,250.048 58.905,250.176" fill="#FFFFFF" id="path43222"/>
    <path d="M64.072,249.333 L64.588,242.521 C65.484,242.362 66.357,242.188 67.214,242.003 L66.666,248.757 C65.828,248.962 64.965,249.155 64.072,249.333" fill="#FFFFFF" id="path43220"/>
    <path d="M68.908,248.165 L69.451,241.481 C70.205,241.288 70.932,241.083 71.647,240.87 L71.068,247.493 C70.379,247.726 69.654,247.95 68.908,248.165" fill="#FFFFFF" id="path43218"/>
    <path d="M73.338,246.659 L73.906,240.148 C74.481,239.949 75.04,239.741 75.584,239.526 L74.989,245.941 C74.461,246.187 73.915,246.425 73.338,246.659" fill="#FFFFFF" id="path43216"/>
    <path d="M77.297,244.743 L77.873,238.542 C78.242,238.369 78.6,238.193 78.949,238.014 L78.35,244.078 C78.02,244.301 77.669,244.524 77.297,244.743" fill="#FFFFFF" id="path43214"/>
    <path d="M80.748,242.065 L81.28,236.689 C81.407,236.61 81.532,236.528 81.656,236.446 L81.114,241.629 C80.999,241.775 80.881,241.921 80.748,242.065" fill="#FFFFFF" id="path43212"/>
    <path d="M185.056,190.509 C188.779,187.161 192.001,182.047 194.486,175.649 L260.909,175.053 C258.565,179.577 255.741,183.554 252.48,186.782 C231.73,192.579 200.843,191.552 185.056,190.509" fill="#FFFFFF" id="path43210"/>
    <path d="M199.028,157.24 C199.619,152.792 199.942,148.094 199.942,143.212 C199.942,128.214 196.969,114.907 192.144,105.547 C197.929,108.263 206.258,110.05 215.723,110.493 C233.976,111.348 249.828,106.175 250.169,98.896 C250.189,98.434 250.246,97.686 250.315,96.795 C251.623,96.793 252.755,96.787 253.654,96.774 C263.052,106.41 268.614,122.889 268.581,141.139 C268.569,146.486 268.056,151.685 267.113,156.63 z" fill="#FFFFFF" id="path43208"/>
    <path d="M267.803,111.507 L310.83,111.507 C314.768,111.507 318.312,116.754 320.784,123.314 L271.593,123.314 C270.623,118.066 269.356,114.131 267.803,111.507" fill="#FFFFFF" id="path43206"/>
    <path d="M273.074,154.798 C273.563,150.863 273.819,147.233 273.829,143.335 C273.834,140.555 273.702,137.744 273.466,135.12 L323.666,135.12 C324.53,140.368 324.53,148.239 323.614,154.798 z" fill="#FFFFFF" id="path43204"/>
    <path d="M328.209,128.897 C325.524,115.213 319.491,106.862 311.66,105.222 L311.122,106.26 L267.207,106.26 C275.441,83.958 290.57,68.436 307.842,68.436 C325.42,68.436 341.454,82.627 349.685,107.41 C351.874,114.003 353.421,121.18 354.278,128.513 C351.984,140.075 346.038,147.113 339.107,152.584 C336.212,154.87 331.829,157.968 327.246,161.18 C330.057,150.604 330.222,139.156 328.209,128.897" fill="#FFFFFF" id="path43202"/>
    <path d="M341.597,203.319 C341.663,203.237 341.725,203.15 341.789,203.067 L373.983,203.753 C373.848,203.914 373.718,204.081 373.583,204.24 L373.59,203.886 z" fill="#FFFFFF" id="path43200"/>
    <path d="M345.416,197.896 C345.613,197.588 345.804,197.28 345.997,196.97 L378.393,197.776 C378.215,198.052 378.03,198.316 377.85,198.587 z" fill="#FFFFFF" id="path43198"/>
    <path d="M381.396,192.601 L348.935,191.792 C349.193,191.294 349.456,190.798 349.71,190.291 L382.089,191.213 C381.858,191.676 381.634,192.148 381.396,192.601" fill="#FFFFFF" id="path43196"/>
    <path d="M352.065,185.109 C352.34,184.454 352.614,183.799 352.878,183.131 L385.165,184.163 C384.925,184.794 384.678,185.414 384.427,186.03 z" fill="#FFFFFF" id="path43194"/>
    <path d="M386.942,178.972 L354.743,177.94 C355,177.164 355.247,176.378 355.487,175.589 L387.611,176.733 C387.397,177.489 387.172,178.231 386.942,178.972" fill="#FFFFFF" id="path43192"/>
    <path d="M388.939,171.53 L356.924,170.389 C357.139,169.524 357.338,168.649 357.534,167.771 L389.468,169.021 C389.299,169.864 389.126,170.702 388.939,171.53" fill="#FFFFFF" id="path43190"/>
    <path d="M390.401,165.557 L358.572,163.543 C358.691,162.856 358.797,162.669 358.904,162.669 L390.855,162.669 C390.716,162.669 390.568,164.461 390.401,165.557" fill="#FFFFFF" id="path43188"/>
    <path d="M391.377,157.422 L359.599,157.422 C359.811,154.798 359.976,153.076 360.092,151.088 L391.71,150.437 C391.642,152.395 391.529,154.798 391.377,157.422" fill="#FFFFFF" id="path43186"/>
    <path d="M391.792,144.206 L360.281,144.093 C360.293,143.435 360.316,142.779 360.316,142.118 C360.316,140.901 360.281,139.695 360.248,138.49 L391.633,138.713 C391.724,140.532 391.784,142.361 391.792,144.206" fill="#FFFFFF" id="path43184"/>
    <path d="M391.262,133.463 L359.993,133.241 C359.865,131.436 359.704,129.641 359.496,127.864 L390.625,128.197 C390.873,129.934 391.093,131.687 391.262,133.463" fill="#FFFFFF" id="path43182"/>
    <path d="M389.759,122.94 L358.749,122.609 C358.476,120.927 358.159,119.263 357.812,117.61 L388.713,118.048 C389.095,119.655 389.444,121.287 389.759,122.94" fill="#FFFFFF" id="path43180"/>
    <path d="M387.319,112.781 L356.564,112.345 C356.168,110.838 355.741,109.348 355.285,107.872 L385.946,108.418 C386.433,109.844 386.887,111.302 387.319,112.781" fill="#FFFFFF" id="path43178"/>
    <path d="M383.956,103.134 L353.509,102.593 C353.032,101.302 352.535,100.036 352.015,98.798 L382.363,99.445 C382.916,100.646 383.444,101.883 383.956,103.134" fill="#FFFFFF" id="path43176"/>
    <path d="M379.678,94.14 L349.586,93.498 C349.08,92.488 348.561,91.499 348.028,90.53 L378.026,91.278 C378.59,92.208 379.14,93.164 379.678,94.14" fill="#FFFFFF" id="path43174"/>
    <path d="M374.448,85.939 L344.818,85.201 C344.372,84.526 343.919,83.863 343.456,83.214 L372.983,84.054 C373.479,84.67 373.971,85.293 374.448,85.939" fill="#FFFFFF" id="path43172"/>
    <path d="M368.053,78.664 L339.213,77.842 C338.96,77.557 338.71,77.269 338.455,76.993 L367.26,77.915 C367.526,78.16 367.79,78.413 368.053,78.664" fill="#FFFFFF" id="path43170"/>
    <path d="M246.039,90.576 C246.143,90.512 246.244,90.446 246.344,90.38 L245.911,94.522 C245.809,94.653 245.729,94.784 245.609,94.913 z" fill="#FFFFFF" id="path43168"/>
    <path d="M243.292,92.074 C243.588,91.934 243.876,91.791 244.159,91.646 L243.676,96.534 C243.413,96.708 243.12,96.881 242.828,97.052 z" fill="#FFFFFF" id="path43166"/>
    <path d="M240.09,93.369 C240.555,93.208 241.004,93.038 241.445,92.867 L240.965,98.033 C240.544,98.227 240.095,98.418 239.634,98.604 z" fill="#FFFFFF" id="path43164"/>
    <path d="M236.5,94.443 C237.105,94.289 237.691,94.122 238.268,93.951 L237.806,99.278 C237.244,99.466 236.666,99.649 236.064,99.821 z" fill="#FFFFFF" id="path43162"/>
    <path d="M232.577,95.281 C233.297,95.154 234.002,95.014 234.693,94.864 L234.252,100.305 C233.574,100.472 232.881,100.63 232.159,100.774 z" fill="#FFFFFF" id="path43160"/>
    <path d="M228.382,95.877 C229.196,95.789 229.999,95.687 230.783,95.573 L230.364,101.099 C229.596,101.23 228.805,101.343 227.992,101.451 z" fill="#FFFFFF" id="path43158"/>
    <path d="M226.209,101.653 C225.364,101.74 224.502,101.814 223.618,101.873 L223.98,96.227 C224.869,96.182 225.744,96.126 226.601,96.052 L226.209,101.654 L226.201,101.773 L226.2,101.773 z" fill="#FFFFFF" id="path43156"/>
    <path d="M221.844,101.96 C220.948,101.998 220.031,102.001 219.102,102.012 L219.433,96.321 C219.583,96.323 219.736,96.332 219.887,96.332 C220.669,96.332 221.44,96.318 222.205,96.296 L221.844,101.975 L221.842,102.016 L221.839,102.016 z" fill="#FFFFFF" id="path43154"/>
    <path d="M217.329,103.636 L217.332,102.708 C216.398,102.697 215.46,101.43 214.526,101.426 L214.803,96.408 C215.167,96.429 215.525,96.756 215.892,96.774 C216.482,96.803 217.073,97.16 217.668,97.175 L217.345,103.636 z" fill="#FFFFFF" id="path43152"/>
    <path d="M210.155,95.762 C211.107,95.872 212.069,95.971 213.04,96.049 L212.738,101.855 C211.771,101.791 210.82,101.713 209.881,101.619 z" fill="#FFFFFF" id="path43150"/>
    <path d="M210.48,95.542 L209.605,101.443 C208.94,101.365 209.022,101.266 209.022,101.174 L209.022,95.214 C209.022,95.334 209.731,95.439 210.48,95.542" fill="#FFFFFF" id="path43148"/>
    <path d="M204.815,94.553 C205.511,94.704 206.399,94.837 207.711,94.969 L207.711,100.981 C206.399,100.864 204.897,100.73 204.19,100.595 z" fill="#FFFFFF" id="path43146"/>
    <path d="M199.615,93.792 C200.058,93.912 200.515,94.02 200.971,94.133 L200.944,100.221 C200.482,100.118 200.01,100.021 199.564,99.909 z" fill="#FFFFFF" id="path43144"/>
    <path d="M196.694,92.921 C197.075,93.046 197.465,93.164 197.855,93.281 L197.802,99.431 C197.403,99.319 196.999,99.208 196.615,99.089 z" fill="#FFFFFF" id="path43142"/>
    <path d="M194.005,91.952 C194.313,92.074 194.623,92.192 194.937,92.308 L194.858,98.501 C194.532,98.386 194.214,98.264 193.899,98.144 z" fill="#FFFFFF" id="path43140"/>
    <path d="M191.579,90.92 C191.712,90.984 191.842,91.048 191.978,91.111 C192.066,91.15 192.165,91.183 192.252,91.224 L192.146,97.429 C191.921,97.327 191.688,97.219 191.446,97.102 z" fill="#FFFFFF" id="path43138"/>
    <path d="M189.443,89.832 C189.569,89.902 189.701,89.972 189.832,90.041 L189.698,96.181 C189.563,96.1 189.424,96.017 189.287,95.934 z" fill="#FFFFFF" id="path43136"/>
    <path d="M187.633,88.726 C187.655,88.742 187.68,88.756 187.704,88.77 L187.55,94.735 C187.518,94.71 187.487,94.683 187.457,94.659 z" fill="#FFFFFF" id="path43134"/>
    <path d="M249.197,82.549 C248.977,87.286 236.996,92.397 220.106,92.397 C218.85,92.397 217.705,92.366 216.434,92.307 C207.847,91.906 200.179,90.208 194.274,87.527 C189.086,85.17 186.825,82.221 186.944,79.638 C187.126,75.75 194.593,71.616 207.711,70.258 L207.711,83.084 C207.711,84.391 210.335,85.292 212.958,85.821 L212.958,44.603 L218.206,44.603 L218.206,86.396 C223.453,86.519 228.7,85.331 232.636,83.084 L232.636,71.503 C243.131,73.95 249.38,78.585 249.197,82.549" fill="#FFFFFF" id="path43132"/>
    <path d="M231.324,24.756 C231.324,28.001 224.209,34.108 218.911,34.108 L214.006,34.108 C208.772,34.108 207.711,28.138 207.711,24.756 L207.711,14.329 C207.711,11.009 208.965,10.495 214.006,10.495 L218.911,10.495 C224.005,10.495 231.324,11.122 231.324,14.329 z" fill="#FFFFFF" id="path43130"/>
    <path d="M240.945,12.603 L278.258,9.871 C281.892,9.94 286.422,12.936 286.422,16.349 L286.422,21.134 C285.11,23.675 283.175,25.617 280.3,25.8 C274.708,26.156 249.69,24.203 241.819,23.457 L241.819,14.329 C241.819,13.746 241.015,13.17 240.945,12.603" fill="#FFFFFF" id="path43128"/>
    <path d="M196.538,12.792 C196.484,13.298 197.216,13.808 197.216,14.329 L197.216,22.406 C188.033,23.129 164.773,25.144 157.422,25.144 C153.828,25.144 151.301,24.382 149.989,23.213 L149.989,16.349 C149.989,12.936 151.784,9.94 155.418,9.871 z" fill="#FFFFFF" id="path43126"/>
    <path d="M59.191,256.904 C59.191,256.904 31.041,290.121 31.041,324.465 C31.041,353.857 48.587,364.64 69.215,360.236 C88.232,356.177 100.597,333.263 82.203,312.002 C55.965,281.673 59.191,256.904 59.191,256.904 z" fill="#1F67A3" id="path43262"/>
    <path d="M43.893,297.17 C43.893,297.17 43.821,297.437 43.689,297.934 C43.547,298.436 43.401,299.144 43.219,300.072 C43.03,300.989 42.88,302.124 42.684,303.406 C42.507,304.695 42.362,306.153 42.199,307.734 C42.061,309.32 41.945,311.037 41.863,312.846 C41.768,314.655 41.728,316.558 41.732,318.52 C41.724,320.483 41.814,322.499 41.922,324.539 C42.091,326.571 42.241,328.636 42.584,330.658 C42.863,332.695 43.291,334.69 43.793,336.621 C44.288,338.561 44.95,340.393 45.648,342.146 C46.415,343.857 47.201,345.508 48.156,346.943 C48.39,347.307 48.621,347.664 48.846,348.021 C49.101,348.357 49.348,348.686 49.594,349.012 C50.053,349.699 50.601,350.265 51.104,350.844 C51.586,351.449 52.163,351.895 52.658,352.402 C53.142,352.922 53.676,353.329 54.17,353.732 C55.139,354.57 56.097,355.152 56.859,355.707 C57.646,356.212 58.296,356.576 58.734,356.846 C59.173,357.118 59.41,357.262 59.41,357.262 C59.41,357.262 59.137,357.216 58.631,357.131 C58.134,357.019 57.365,356.935 56.434,356.66 C55.522,356.35 54.338,356.077 53.119,355.445 C51.852,354.901 50.483,354.12 49.104,353.096 C48.421,352.574 47.68,352.048 47.014,351.395 C46.673,351.075 46.328,350.745 45.977,350.412 C45.657,350.053 45.331,349.687 44.998,349.316 C43.667,347.826 42.517,346.062 41.457,344.17 C40.978,343.204 40.446,342.228 40.057,341.195 C39.849,340.68 39.64,340.163 39.43,339.643 C39.255,339.113 39.082,338.58 38.906,338.045 C38.22,335.901 37.733,333.671 37.395,331.438 C37.052,329.201 36.902,326.952 36.844,324.746 C36.815,322.543 36.886,320.379 37.096,318.301 C37.471,314.143 38.292,310.333 39.254,307.156 C39.713,305.56 40.242,304.131 40.756,302.883 C41.255,301.63 41.777,300.572 42.242,299.719 C42.68,298.863 43.137,298.216 43.42,297.801 C43.729,297.391 43.893,297.17 43.893,297.17 z" fill="#FFFFFF" id="path42752"/>
    <path d="M24.984,353.105 C24.984,353.105 11.089,369.795 11.092,387.447 C11.094,402.433 20.457,408.715 30.137,406.217 C39.814,403.722 46.266,392.357 36.811,381.426 C23.325,365.837 24.984,353.105 24.984,353.105 z" fill="#1F67A3" id="path43254"/>
    <path d="M21.311,364.805 C21.311,364.805 21.245,364.985 21.125,365.328 C20.996,365.666 20.837,366.176 20.631,366.812 C20.417,367.44 20.206,368.229 19.941,369.117 C19.708,370.012 19.447,371.025 19.16,372.129 C18.904,373.237 18.649,374.441 18.391,375.711 C18.156,376.985 17.943,378.333 17.748,379.725 C17.561,381.117 17.441,382.56 17.357,384.016 C17.256,385.476 17.286,386.953 17.381,388.414 C17.396,389.15 17.524,389.868 17.586,390.59 C17.719,391.3 17.832,391.998 17.998,392.703 C18.344,394.089 18.758,395.442 19.32,396.664 C19.893,397.879 20.539,399.004 21.32,399.932 C22.104,400.852 22.972,401.611 23.889,402.156 C25.728,403.25 27.624,403.556 28.936,403.643 C30.26,403.728 31.041,403.67 31.041,403.67 C31.041,403.67 30.853,403.724 30.506,403.822 C30.154,403.916 29.636,404.065 28.955,404.152 C27.618,404.352 25.533,404.457 23.223,403.486 C22.08,403.004 20.917,402.261 19.902,401.254 C18.885,400.252 17.976,399.04 17.266,397.682 C16.556,396.327 15.968,394.867 15.553,393.334 C15.355,392.574 15.205,391.771 15.045,390.984 C14.955,390.19 14.804,389.391 14.77,388.594 C14.675,386.995 14.691,385.4 14.828,383.85 C14.917,382.295 15.194,380.79 15.463,379.346 C15.734,377.901 16.102,376.529 16.48,375.24 C16.861,373.953 17.289,372.761 17.715,371.674 C18.565,369.496 19.468,367.769 20.154,366.592 C20.49,365.998 20.791,365.564 20.998,365.266 C21.201,364.966 21.311,364.805 21.311,364.805 z" fill="#FFFFFF" id="path42754"/>
    <path d="M64.824,370.057 C64.824,370.057 49.346,392.601 51.406,414.736 C53.153,433.527 65.625,440.318 77.473,436.057 C89.318,431.798 96.084,416.794 82.953,404.191 C64.229,386.214 64.824,370.057 64.824,370.057 z" fill="#1F67A3" id="path43258"/>
    <path d="M59.025,391.369 C59.025,391.369 58.534,394.687 58.18,399.629 C58.015,402.102 57.872,404.983 57.887,408.047 C57.887,409.579 57.977,411.154 58.082,412.742 C58.2,414.33 58.413,415.928 58.73,417.486 C59.023,419.046 59.474,420.556 60.09,421.93 C60.411,422.557 60.786,423.413 61.145,424.029 C61.493,424.69 61.888,425.325 62.299,425.943 C63.144,427.152 64.03,428.266 65.021,429.17 C66.013,430.073 67.074,430.778 68.125,431.324 C70.242,432.417 72.284,432.831 73.701,433.098 C74.414,433.216 74.979,433.314 75.369,433.355 C75.758,433.409 75.967,433.437 75.967,433.437 C75.967,433.437 75.757,433.457 75.367,433.496 C74.976,433.534 74.399,433.6 73.66,433.605 C72.923,433.62 72.02,433.614 70.982,433.486 C69.953,433.353 68.768,433.16 67.539,432.686 C66.312,432.235 64.997,431.595 63.791,430.658 C62.586,429.73 61.433,428.595 60.441,427.281 C59.952,426.626 59.475,425.944 59.033,425.203 C58.558,424.448 58.231,423.836 57.809,423.006 C57.05,421.405 56.52,419.709 56.166,418.008 C55.825,416.302 55.65,414.588 55.551,412.908 C55.444,411.229 55.494,409.577 55.568,407.992 C55.732,404.82 56.166,401.896 56.678,399.426 C57.175,396.951 57.757,394.928 58.221,393.535 C58.681,392.135 59.025,391.369 59.025,391.369 z" fill="#FFFFFF" id="path42756"/>
  </g>
</svg>
