<?xml version="1.0" standalone="no"?>
<!DOCTYPE svg PUBLIC "-//W3C//DTD SVG 20010904//EN"
 "http://www.w3.org/TR/2001/REC-SVG-20010904/DTD/svg10.dtd">
<svg version="1.0" xmlns="http://www.w3.org/2000/svg"
 width="512.000000pt" height="512.000000pt" viewBox="0 0 512.000000 512.000000"
 preserveAspectRatio="xMidYMid meet">

<g transform="translate(0.000000,512.000000) scale(0.100000,-0.100000)"
fill="#000000" stroke="none">
<path d="M2315 5109 c-597 -61 -1141 -318 -1563 -739 -1002 -1000 -1002 -2620
0 -3620 406 -405 901 -648 1493 -732 119 -17 512 -16 635 1 580 80 1089 330
1489 732 464 467 723 1061 748 1719 26 711 -242 1393 -749 1900 -393 394 -891
643 -1453 726 -122 18 -477 26 -600 13z m615 -378 c464 -84 859 -290 1185
-616 419 -419 645 -964 645 -1555 0 -841 -469 -1595 -1228 -1974 -302 -151
-625 -226 -972 -226 -590 0 -1137 227 -1555 645 -331 331 -536 730 -622 1210
-25 143 -25 547 0 690 86 480 291 879 622 1210 357 357 789 566 1310 635 123
16 484 5 615 -19z"/>
<path d="M2477 3766 c-112 -31 -190 -123 -190 -224 0 -131 103 -230 249 -240
164 -10 294 93 294 234 -1 161 -181 279 -353 230z"/>
<path d="M2481 2979 c-70 -12 -129 -45 -158 -88 l-23 -35 2 -677 3 -678 34
-35 c54 -55 121 -80 221 -81 77 0 92 3 152 33 117 58 108 -9 108 775 l0 676
-31 35 c-54 62 -190 95 -308 75z"/>
</g>
</svg>
