<svg width="32" height="32" viewBox="0 0 32 32" fill="none" xmlns="http://www.w3.org/2000/svg">
<circle cx="16" cy="16" r="16" fill="#DFD1FF"/>
<path d="M20.9196 12.6578C20.7347 12.5445 20.523 12.4837 20.3068 12.4818C20.0906 12.4798 19.8778 12.5369 19.691 12.6468L16.8565 14.3434L14.9269 15.4334L12.0705 17.1298C11.8836 17.2397 11.6709 17.2967 11.4547 17.2948C11.2384 17.2929 11.0267 17.2321 10.8419 17.1188L8.61058 15.7645C8.42336 15.6474 8.26933 15.4834 8.16343 15.2884C8.05753 15.0934 8.00337 14.8742 8.00619 14.6518L8.02974 12.0166C8.02404 11.793 8.07922 11.572 8.18927 11.3777C8.29932 11.1835 8.46003 11.0234 8.65392 10.9149L10.8595 9.62246C11.0474 9.51258 11.261 9.45564 11.4781 9.45758C11.6952 9.45953 11.9077 9.52027 12.0936 9.63349L14.2757 10.9651C14.463 11.0823 14.617 11.2463 14.7229 11.4413C14.8288 11.6362 14.8829 11.8555 14.8801 12.0779L14.8647 13.7996L16.7893 12.6541L16.8047 10.9324C16.8138 10.7089 16.7623 10.4873 16.6558 10.2912C16.5493 10.0951 16.3918 9.93208 16.2003 9.81968L12.158 7.33086C11.9722 7.22035 11.7609 7.16116 11.5452 7.15923C11.3296 7.1573 11.1172 7.21271 10.9295 7.31988L6.74995 9.75736C6.55981 9.86456 6.40163 10.0213 6.29188 10.2111C6.18213 10.401 6.12484 10.6171 6.12597 10.8369L6.08144 15.8194C6.07174 16.043 6.12296 16.2649 6.22952 16.4611C6.33608 16.6573 6.49391 16.8202 6.68583 16.9321L10.8213 19.4218C11.0071 19.5323 11.2184 19.5915 11.4341 19.5934C11.6498 19.5954 11.8621 19.54 12.0499 19.4328L14.8841 17.7695L16.8141 16.624L19.6481 14.9884C19.837 14.8733 20.0536 14.813 20.2742 14.814C20.4948 14.815 20.7109 14.8773 20.8987 14.994L23.0808 16.3257C23.268 16.4429 23.4221 16.6069 23.528 16.8018C23.6339 16.9968 23.688 17.2161 23.6852 17.4384L23.6615 20.0957C23.6666 20.3193 23.6111 20.5401 23.5011 20.7342C23.3911 20.9283 23.2308 21.0885 23.0373 21.1975L20.8319 22.4678C20.6451 22.5777 20.4323 22.6348 20.2161 22.6328C19.9998 22.6309 19.7881 22.5701 19.6033 22.4568L17.4212 21.1251C17.2339 21.008 17.0799 20.844 16.974 20.649C16.8681 20.4541 16.8139 20.2348 16.8168 20.0124L16.832 18.3128L14.9019 19.4583L14.8865 21.18C14.8774 21.4034 14.9289 21.6251 15.0354 21.8212C15.1419 22.0173 15.2994 22.1803 15.4909 22.2927L19.6262 24.8045C19.812 24.915 20.0233 24.9742 20.239 24.9761C20.4547 24.9781 20.667 24.9227 20.8548 24.8155L25.0343 22.378C25.2229 22.2634 25.3792 22.102 25.4885 21.9091C25.5977 21.7163 25.6563 21.4984 25.6585 21.2763L25.703 16.2938C25.7139 16.07 25.6633 15.8476 25.5566 15.6512C25.4499 15.4548 25.2914 15.2921 25.0986 15.1811L20.9196 12.6578Z" fill="#7950DD"/>
</svg>
