<svg width="33" height="32" viewBox="0 0 33 32" fill="none" xmlns="http://www.w3.org/2000/svg">
<g id="Gear" clip-path="url(#clip0_20051_3390)">
<path id="Vector" d="M16.5 21C19.2614 21 21.5 18.7614 21.5 16C21.5 13.2386 19.2614 11 16.5 11C13.7386 11 11.5 13.2386 11.5 16C11.5 18.7614 13.7386 21 16.5 21Z" stroke="#575D73" stroke-width="2" stroke-linecap="round" stroke-linejoin="round"/>
<path id="Vector_2" d="M5.67879 22.2612C5.12626 21.3095 4.70295 20.2884 4.42004 19.2249L6.51754 16.5999C6.49379 16.1986 6.49379 15.7962 6.51754 15.3949L4.42129 12.7699C4.70372 11.7063 5.12616 10.6848 5.67754 9.73242L9.01629 9.35742C9.28291 9.05704 9.56716 8.77279 9.86754 8.50617L10.2425 5.16867C11.1936 4.61992 12.2134 4.19999 13.275 3.91992L15.9 6.01742C16.3014 5.99367 16.7037 5.99367 17.105 6.01742L19.73 3.92117C20.7937 4.2036 21.8151 4.62604 22.7675 5.17742L23.1425 8.51617C23.4429 8.78279 23.7272 9.06704 23.9938 9.36742L27.3313 9.74242C27.8838 10.6941 28.3071 11.7152 28.59 12.7787L26.4925 15.4037C26.5163 15.805 26.5163 16.2074 26.4925 16.6087L28.5888 19.2337C28.3083 20.297 27.888 21.3184 27.3388 22.2712L24 22.6462C23.7334 22.9466 23.4492 23.2308 23.1488 23.4974L22.7738 26.8349C21.8221 27.3875 20.801 27.8108 19.7375 28.0937L17.1125 25.9962C16.7112 26.0199 16.3089 26.0199 15.9075 25.9962L13.2825 28.0924C12.2192 27.812 11.1978 27.3916 10.245 26.8424L9.87004 23.5037C9.56966 23.2371 9.28541 22.9528 9.01879 22.6524L5.67879 22.2612Z" stroke="#575D73" stroke-width="2" stroke-linecap="round" stroke-linejoin="round"/>
</g>
<defs>
<clipPath id="clip0_20051_3390">
<rect width="32" height="32" fill="white" transform="translate(0.5)"/>
</clipPath>
</defs>
</svg>
