<svg width="36" height="38" viewBox="0 0 36 38" fill="none" xmlns="http://www.w3.org/2000/svg">
<path d="M17.5701 37.562C18.5824 37.5614 19.5727 37.268 20.4207 36.7174C21.2686 36.1668 21.9376 35.3827 22.3464 34.4605C22.3936 34.3582 22.414 34.2456 22.4056 34.1333C22.3972 34.021 22.3603 33.9127 22.2984 33.8184C22.2365 33.7242 22.1515 33.6472 22.0516 33.5946C21.9516 33.5419 21.8398 33.5154 21.7268 33.5176H13.4133C13.3004 33.5157 13.1889 33.5424 13.0891 33.5952C12.9894 33.6479 12.9047 33.725 12.843 33.8192C12.7812 33.9133 12.7445 34.0216 12.7362 34.1337C12.7279 34.2459 12.7483 34.3583 12.7954 34.4605C13.204 35.3824 13.8728 36.1664 14.7204 36.717C15.5681 37.2675 16.558 37.5611 17.5701 37.562Z" fill="url(#paint0_linear_18477_24143)"/>
<path d="M30.3305 28.512C29.6812 28.512 29.0585 28.2551 28.5993 27.7979C28.1402 27.3407 27.8822 26.7206 27.8822 26.074V17.2169C27.8818 14.933 27.1168 12.7143 25.7083 10.9118C24.2997 9.10923 22.328 7.82561 20.1049 7.26387C20.0233 6.64294 19.7173 6.07291 19.244 5.66051C18.7708 5.2481 18.1628 5.02161 17.5339 5.02345C16.9051 5.02528 16.2984 5.25532 15.8276 5.67047C15.3568 6.08563 15.0541 6.65744 14.9762 7.27884C12.9935 7.79491 11.2099 8.88708 9.85282 10.4162C8.4957 11.9453 7.62645 13.8421 7.35582 15.8649C7.35582 15.9264 7.33912 15.9863 7.33244 16.0478C7.32576 16.1093 7.31407 16.2141 7.30739 16.2973C7.30071 16.3804 7.29403 16.4636 7.28734 16.5451C7.28066 16.6265 7.279 16.6831 7.27566 16.7529C7.27566 16.8943 7.26564 17.034 7.26397 17.177V26.0724C7.26399 26.7158 7.00857 27.3331 6.55339 27.7898C6.09822 28.2465 5.4802 28.5055 4.83406 28.5103C4.6823 28.5085 4.53167 28.5366 4.39078 28.5928C4.24989 28.649 4.12151 28.7323 4.01295 28.8379C3.90439 28.9436 3.8178 29.0695 3.7581 29.2084C3.69841 29.3474 3.66678 29.4967 3.66504 29.6478V29.6578C3.66504 29.9621 3.78644 30.254 4.00255 30.4692C4.21865 30.6843 4.51175 30.8052 4.81736 30.8052H30.3305C30.6283 30.794 30.9101 30.6682 31.1168 30.4544C31.3235 30.2406 31.439 29.9554 31.439 29.6586C31.439 29.3618 31.3235 29.0766 31.1168 28.8628C30.9101 28.649 30.6283 28.5233 30.3305 28.512Z" fill="url(#paint1_linear_18477_24143)"/>
<path d="M24.9565 5.52432C26.3652 5.8356 27.6391 6.58208 28.5964 7.65721C29.5538 8.73235 30.1455 10.0812 30.2872 11.5111C30.2939 11.5883 30.3159 11.6633 30.352 11.7319C30.388 11.8005 30.4373 11.8614 30.4971 11.9109C30.5569 11.9604 30.626 11.9975 30.7003 12.0203C30.7747 12.043 30.8528 12.0508 30.9302 12.0433C31.0862 12.0284 31.2301 11.9532 31.331 11.8337C31.3807 11.7742 31.418 11.7056 31.441 11.6317C31.4639 11.5577 31.4719 11.48 31.4646 11.403C31.3101 9.71821 30.6195 8.12651 29.4933 6.85974C28.3672 5.59297 26.8643 4.71729 25.2036 4.36023C25.163 4.35179 25.1216 4.34733 25.08 4.34692C24.9342 4.34726 24.7937 4.40124 24.6855 4.49848C24.5772 4.59571 24.5088 4.72935 24.4935 4.87373C24.4782 5.01811 24.517 5.16303 24.6024 5.28066C24.6879 5.39829 24.814 5.48033 24.9565 5.51102V5.52432Z" fill="url(#paint2_linear_18477_24143)"/>
<path d="M25.6195 1.72771C27.8121 2.21021 29.7953 3.37078 31.2855 5.04345C32.7757 6.71612 33.6965 8.81521 33.9163 11.0405C33.9232 11.1176 33.9453 11.1925 33.9814 11.261C34.0175 11.3295 34.0669 11.3902 34.1266 11.4397C34.1864 11.4892 34.2554 11.5264 34.3296 11.5492C34.4039 11.572 34.4819 11.58 34.5592 11.5726C34.7153 11.5578 34.8592 11.4826 34.9601 11.3631C35.0097 11.3036 35.0471 11.235 35.07 11.161C35.093 11.0871 35.101 11.0094 35.0937 10.9324C34.8592 8.45512 33.8387 6.11654 32.1801 4.25555C30.5214 2.39457 28.3107 1.10786 25.8684 0.581905C25.8277 0.573465 25.7863 0.569011 25.7448 0.568604C25.5989 0.568535 25.4581 0.622218 25.3495 0.719323C25.2409 0.816428 25.1722 0.950093 25.1567 1.09459C25.1411 1.23908 25.1798 1.3842 25.2653 1.502C25.3507 1.61981 25.4769 1.70198 25.6195 1.7327V1.72771Z" fill="url(#paint3_linear_18477_24143)"/>
<path d="M10.1817 5.52445C10.3242 5.49376 10.4502 5.41172 10.5357 5.29409C10.6211 5.17646 10.6599 5.03154 10.6446 4.88716C10.6293 4.74279 10.5609 4.60914 10.4527 4.5119C10.3444 4.41466 10.2039 4.36069 10.0581 4.36035C10.0165 4.36076 9.97515 4.36521 9.93449 4.37365C8.27655 4.72974 6.77573 5.60272 5.64988 6.86587C4.52403 8.12902 3.83174 9.7166 3.67353 11.3982C3.6662 11.4752 3.67423 11.5529 3.69716 11.6268C3.72008 11.7007 3.75746 11.7694 3.80713 11.8289C3.85646 11.8887 3.91736 11.9381 3.9862 11.9741C4.05505 12.0101 4.13045 12.032 4.20794 12.0384C4.28533 12.046 4.36345 12.0381 4.43779 12.0154C4.51212 11.9927 4.58119 11.9555 4.64099 11.906C4.70079 11.8565 4.75014 11.7957 4.78617 11.7271C4.8222 11.6584 4.8442 11.5834 4.8509 11.5062C4.99361 10.0772 5.58581 8.72949 6.54305 7.65534C7.5003 6.58119 8.7737 5.83545 10.1817 5.52445Z" fill="url(#paint4_linear_18477_24143)"/>
<path d="M9.51902 1.72782C9.66152 1.69713 9.78761 1.61509 9.87306 1.49746C9.95851 1.37983 9.9973 1.2349 9.98197 1.09053C9.96664 0.946152 9.89828 0.81251 9.79002 0.715272C9.68176 0.618034 9.54123 0.564061 9.39544 0.563721C9.3539 0.56403 9.3125 0.568485 9.27185 0.577022C6.82954 1.10298 4.61885 2.38968 2.96018 4.25067C1.3015 6.11166 0.281 8.45024 0.0465754 10.9275C0.039245 11.0045 0.0472746 11.0822 0.070203 11.1561C0.0931313 11.2301 0.130507 11.2987 0.180179 11.3582C0.229513 11.4181 0.290404 11.4675 0.359251 11.5035C0.428098 11.5394 0.503499 11.5613 0.580986 11.5678C0.658335 11.5751 0.736374 11.5671 0.810616 11.5443C0.884858 11.5215 0.953839 11.4843 1.01359 11.4348C1.07334 11.3854 1.12269 11.3246 1.15879 11.2561C1.19489 11.1876 1.21704 11.1127 1.22395 11.0356C1.44487 8.81152 2.36599 6.71385 3.85572 5.04223C5.34546 3.37062 7.32761 2.21058 9.51902 1.72782Z" fill="url(#paint5_linear_18477_24143)"/>
<defs>
<linearGradient id="paint0_linear_18477_24143" x1="23.158" y1="24.7652" x2="16.3952" y2="36.3098" gradientUnits="userSpaceOnUse">
<stop stop-color="#FF94A6"/>
<stop offset="0.32" stop-color="#E03DC1"/>
<stop offset="1" stop-color="#8247E5"/>
</linearGradient>
<linearGradient id="paint1_linear_18477_24143" x1="26.4176" y1="12.0167" x2="12.143" y2="32.3886" gradientUnits="userSpaceOnUse">
<stop stop-color="#FF94A6"/>
<stop offset="0.32" stop-color="#E03DC1"/>
<stop offset="1" stop-color="#8247E5"/>
</linearGradient>
<linearGradient id="paint2_linear_18477_24143" x1="37.9794" y1="1.58136" x2="3.21264" y2="24.7575" gradientUnits="userSpaceOnUse">
<stop stop-color="#FF94A6"/>
<stop offset="0.32" stop-color="#E03DC1"/>
<stop offset="1" stop-color="#8247E5"/>
</linearGradient>
<linearGradient id="paint3_linear_18477_24143" x1="37.6522" y1="1.09245" x2="2.88538" y2="24.2669" gradientUnits="userSpaceOnUse">
<stop stop-color="#FF94A6"/>
<stop offset="0.32" stop-color="#E03DC1"/>
<stop offset="1" stop-color="#8247E5"/>
</linearGradient>
<linearGradient id="paint4_linear_18477_24143" x1="31.4696" y1="-8.18197" x2="-3.2955" y2="14.9925" gradientUnits="userSpaceOnUse">
<stop stop-color="#FF94A6"/>
<stop offset="0.32" stop-color="#E03DC1"/>
<stop offset="1" stop-color="#8247E5"/>
</linearGradient>
<linearGradient id="paint5_linear_18477_24143" x1="29.7582" y1="-10.7496" x2="-4.99359" y2="12.4148" gradientUnits="userSpaceOnUse">
<stop stop-color="#FF94A6"/>
<stop offset="0.32" stop-color="#E03DC1"/>
<stop offset="1" stop-color="#8247E5"/>
</linearGradient>
</defs>
</svg>
