<svg width="21" height="25" viewBox="0 0 21 25" fill="none" xmlns="http://www.w3.org/2000/svg">
<g clip-path="url(#clip0_14371_45059)">
<path d="M16.8978 13.5242C16.9084 12.6036 17.1482 11.7008 17.5947 10.8999C18.0413 10.0991 18.6801 9.42644 19.4515 8.94468C18.9614 8.23441 18.3153 7.65002 17.5644 7.23785C16.8136 6.82569 15.9786 6.59707 15.1258 6.57013C13.3017 6.36871 11.5401 7.6302 10.6125 7.6302C9.68477 7.6302 8.23591 6.57013 6.70366 6.57013C5.7084 6.60183 4.73811 6.89473 3.88702 7.42039C3.03592 7.94605 2.33294 8.6866 1.84633 9.57012C-0.238356 13.2698 1.31474 18.6867 3.32646 21.6761C4.36881 23.139 5.50497 24.7609 7.03721 24.7079C8.56946 24.6549 9.12191 23.7327 10.9252 23.7327C12.7284 23.7327 13.2496 24.7079 14.8131 24.6761C16.3766 24.6443 17.4398 23.2026 18.4092 21.7291C19.1206 20.7039 19.6661 19.5694 20.0248 18.3687C19.0926 17.9639 18.2986 17.2882 17.7423 16.4264C17.1861 15.5647 16.8923 14.5551 16.8978 13.5242Z" fill="white"/>
<path d="M13.9373 4.60904C14.8132 3.5329 15.2464 2.15425 15.1464 0.760986C13.8087 0.905375 12.5734 1.55625 11.6858 2.58431C11.2492 3.08931 10.9148 3.677 10.702 4.31369C10.4891 4.95037 10.402 5.62353 10.4455 6.29455C11.1146 6.29865 11.7761 6.14923 12.3807 5.85741C12.9852 5.56559 13.5173 5.13889 13.9373 4.60904Z" fill="white"/>
</g>
<defs>
<clipPath id="clip0_14371_45059">
<rect width="19.2" height="24" fill="white" transform="translate(0.856445 0.760986)"/>
</clipPath>
</defs>
</svg>
