<svg width="21" height="22" viewBox="0 0 21 22" fill="none" xmlns="http://www.w3.org/2000/svg">
<g clip-path="url(#clip0_19055_29635)">
<path d="M10.5 14.5312C12.2259 14.5312 13.625 13.0622 13.625 11.25C13.625 9.43782 12.2259 7.96875 10.5 7.96875C8.77411 7.96875 7.375 9.43782 7.375 11.25C7.375 13.0622 8.77411 14.5312 10.5 14.5312Z" stroke="#494D5F" stroke-width="1.5" stroke-linecap="round" stroke-linejoin="round"/>
<path d="M3.73667 15.359C3.39134 14.7344 3.12677 14.0643 2.94995 13.3664L4.26089 11.6438C4.24605 11.3804 4.24605 11.1163 4.26089 10.853L2.95073 9.13032C3.12725 8.4323 3.39127 7.76199 3.73589 7.13696L5.82261 6.89087C5.98924 6.69374 6.1669 6.5072 6.35464 6.33224L6.58901 4.142C7.18342 3.78188 7.82077 3.5063 8.48433 3.32251L10.125 4.69899C10.3758 4.68341 10.6273 4.68341 10.8781 4.69899L12.5187 3.32333C13.1835 3.50867 13.8219 3.7859 14.4171 4.14774L14.6515 6.3388C14.8393 6.51376 15.0169 6.70031 15.1835 6.89743L17.2695 7.14353C17.6148 7.76808 17.8794 8.43815 18.0562 9.13606L16.7453 10.8587C16.7601 11.1221 16.7601 11.3861 16.7453 11.6495L18.0554 13.3722C17.8801 14.07 17.6174 14.7403 17.2742 15.3655L15.1875 15.6116C15.0208 15.8087 14.8432 15.9953 14.6554 16.1702L14.421 18.3605C13.8262 18.7231 13.1881 19.0009 12.5234 19.1865L10.8828 17.81C10.6319 17.8256 10.3805 17.8256 10.1296 17.81L8.48901 19.1857C7.82443 19.0017 7.18604 18.7258 6.59058 18.3654L6.3562 16.1743C6.16846 15.9994 5.9908 15.8128 5.82417 15.6157L3.73667 15.359Z" stroke="#494D5F" stroke-width="1.5" stroke-linecap="round" stroke-linejoin="round"/>
</g>
<defs>
<clipPath id="clip0_19055_29635">
<rect width="20" height="21" fill="white" transform="translate(0.5 0.75)"/>
</clipPath>
</defs>
</svg>
