<svg width="32" height="32" viewBox="0 0 32 32" fill="none" xmlns="http://www.w3.org/2000/svg">
<g clip-path="url(#clip0_18479_25944)">
<path d="M7 9.5C7 7.77609 7.68482 6.12279 8.90381 4.90381C10.1228 3.68482 11.7761 3 13.5 3C15.2239 3 16.8772 3.68482 18.0962 4.90381C19.3152 6.12279 20 7.77609 20 9.5" stroke="#D53A94" stroke-width="2" stroke-linecap="round" stroke-linejoin="round"/>
<path d="M7.99953 28L4.33453 21.75C4.00823 21.1761 3.92218 20.4964 4.09515 19.8593C4.26812 19.2222 4.68607 18.6794 5.25779 18.3493C5.82951 18.0192 6.50858 17.9287 7.14682 18.0974C7.78506 18.2661 8.33065 18.6805 8.66453 19.25L10.9995 23V9.5C10.9995 8.83696 11.2629 8.20107 11.7318 7.73223C12.2006 7.26339 12.8365 7 13.4995 7C14.1626 7 14.7985 7.26339 15.2673 7.73223C15.7361 8.20107 15.9995 8.83696 15.9995 9.5V16.5C15.9995 15.837 16.2629 15.2011 16.7318 14.7322C17.2006 14.2634 17.8365 14 18.4995 14C19.1626 14 19.7985 14.2634 20.2673 14.7322C20.7361 15.2011 20.9995 15.837 20.9995 16.5V18.5C20.9995 17.837 21.2629 17.2011 21.7318 16.7322C22.2006 16.2634 22.8365 16 23.4995 16C24.1626 16 24.7985 16.2634 25.2673 16.7322C25.7361 17.2011 25.9995 17.837 25.9995 18.5V23C25.9995 26 24.9995 28 24.9995 28" stroke="#D53A94" stroke-width="2" stroke-linecap="round" stroke-linejoin="round"/>
</g>
<defs>
<clipPath id="clip0_18479_25944">
<rect width="32" height="32" fill="white"/>
</clipPath>
</defs>
</svg>
