<svg width="38" height="35" viewBox="0 0 38 35" fill="none" xmlns="http://www.w3.org/2000/svg">
<path d="M38 0.512524V13.4672L0 28.7746L38 0.512524Z" fill="#00C9FF"/>
<path d="M30.8247 0V22.2974C30.8247 25.4133 29.5789 28.4017 27.3613 30.605C25.1437 32.8084 22.1361 34.0462 19 34.0462C15.8639 34.0462 12.8563 32.8084 10.6387 30.605C8.42115 28.4017 7.17534 25.4133 7.17534 22.2974V12.9019L14.2689 9.02304V22.2974C14.2025 22.8767 14.26 23.4634 14.4377 24.0192C14.6154 24.5749 14.9092 25.087 15.3 25.522C15.6908 25.957 16.1696 26.3051 16.7052 26.5434C17.2408 26.7817 17.821 26.905 18.4079 26.905C18.9947 26.905 19.575 26.7817 20.1105 26.5434C20.6461 26.3051 21.125 25.957 21.5157 25.522C21.9065 25.087 22.2004 24.5749 22.378 24.0192C22.5558 23.4634 22.6133 22.8767 22.5468 22.2974V4.49968L30.8247 0Z" fill="#0D67FE"/>
</svg>
