<?xml version="1.0" standalone="no"?>
<!DOCTYPE svg PUBLIC "-//W3C//DTD SVG 20010904//EN"
 "http://www.w3.org/TR/2001/REC-SVG-20010904/DTD/svg10.dtd">
<svg version="1.0" xmlns="http://www.w3.org/2000/svg"
 width="256.000000pt" height="256.000000pt" viewBox="0 0 256.000000 256.000000"
 preserveAspectRatio="xMidYMid meet">
<metadata>
Created by potrace 1.14, written by Peter Selinger 2001-2017
</metadata>
<g transform="translate(0.000000,256.000000) scale(0.100000,-0.100000)"
fill="#000000" stroke="none">
<path d="M671 2400 c-124 -43 -211 -99 -304 -195 -87 -89 -164 -245 -182 -365
-4 -24 -8 -48 -11 -51 -2 -4 7 -14 20 -22 30 -20 54 -5 62 38 24 135 78 252
154 338 85 94 215 174 336 206 53 14 68 31 50 56 -19 27 -36 26 -125 -5z"/>
<path d="M1770 2412 c-21 -17 -21 -18 -3 -39 10 -12 32 -24 48 -26 47 -7 133
-46 207 -94 149 -97 257 -267 282 -443 6 -42 31 -63 57 -49 18 9 25 30 19 54
-2 6 -7 30 -11 55 -38 192 -176 376 -359 478 -42 23 -196 82 -215 82 -2 0 -13
-8 -25 -18z"/>
<path d="M776 2188 c-180 -40 -357 -234 -360 -395 -1 -54 1 -58 23 -61 30 -5
39 5 47 53 24 156 150 291 311 334 48 13 62 37 36 61 -14 14 -26 15 -57 8z"/>
<path d="M1738 2193 c-19 -5 -30 -27 -22 -47 3 -7 24 -19 47 -26 109 -32 214
-111 263 -199 14 -25 34 -77 44 -116 17 -66 19 -70 46 -70 28 0 29 2 28 45 -1
64 -8 91 -46 162 -38 74 -124 162 -194 200 -56 30 -141 56 -166 51z"/>
<path d="M1241 2150 c-48 -11 -83 -40 -106 -87 -13 -28 -30 -46 -50 -53 -135
-52 -195 -89 -273 -168 -69 -70 -117 -148 -150 -245 -24 -70 -25 -80 -28 -414
-2 -275 -6 -347 -17 -370 -26 -50 -68 -78 -130 -86 -72 -9 -103 -67 -62 -115
l23 -26 818 -1 c647 -1 825 1 845 11 67 33 44 122 -33 129 -61 6 -108 37 -135
89 -12 23 -15 85 -15 348 -1 360 -6 396 -68 523 -40 82 -110 166 -186 223 -49
37 -181 102 -207 102 -11 0 -24 13 -34 38 -32 78 -110 120 -192 102z"/>
<path d="M1110 422 c-119 -3 -130 -7 -130 -41 0 -31 49 -101 96 -139 77 -60
217 -84 306 -51 93 34 174 103 196 169 19 52 9 55 -195 60 -103 3 -226 4 -273
2z"/>
</g>
</svg>
