<svg width="16" height="15" viewBox="0 0 16 15" fill="none" xmlns="http://www.w3.org/2000/svg">
<path d="M4.478 9.09959C2.61232 9.91491 1.0762 11.3357 0.118054 13.1322C0.0343168 13.2909 -0.0061408 13.4688 0.000754657 13.6481C0.00765012 13.8274 0.0616546 14.0017 0.157332 14.1535C0.248473 14.3087 0.378545 14.4374 0.53469 14.527C0.690835 14.6165 0.867649 14.6638 1.04765 14.6641H14.9523C15.1324 14.6638 15.3092 14.6165 15.4653 14.527C15.6215 14.4374 15.7515 14.3087 15.8427 14.1535C15.9383 14.0017 15.9923 13.8274 15.9992 13.6481C16.0061 13.4688 15.9657 13.2909 15.8819 13.1322C14.9238 11.3357 13.3877 9.91491 11.522 9.09959C12.0637 8.61284 12.4965 8.01717 12.7921 7.35157C13.0877 6.68597 13.2393 5.96545 13.2372 5.23717C13.2372 3.84819 12.6854 2.51609 11.7032 1.53393C10.7211 0.551772 9.38898 0 8 0C6.61101 0 5.27892 0.551772 4.29676 1.53393C3.3146 2.51609 2.76283 3.84819 2.76283 5.23717C2.76065 5.96545 2.91231 6.68597 3.20788 7.35157C3.50346 8.01717 3.93627 8.61284 4.478 9.09959Z" fill="#CF1C84"/>
</svg>
