<svg width="32" height="32" viewBox="0 0 32 32" fill="none" xmlns="http://www.w3.org/2000/svg">
<path fill-rule="evenodd" clip-rule="evenodd" d="M16 29C23.1797 29 29 23.1797 29 16C29 8.8203 23.1797 3 16 3C8.8203 3 3 8.8203 3 16C3 23.1797 8.8203 29 16 29ZM18.6644 18.586C18.5612 18.8141 18.3763 18.9952 18.1461 19.0935L11.2937 22.0203C10.4642 22.3746 9.62661 21.5363 9.98156 20.7072L12.9112 13.8637C13.0095 13.6341 13.1901 13.4497 13.4175 13.3465L20.5813 10.0971C21.4216 9.71595 22.2858 10.5792 21.9055 11.4199L18.6644 18.586Z" fill="#D53893"/>
</svg>
