<svg width="32" height="32" viewBox="0 0 32 32" fill="none" xmlns="http://www.w3.org/2000/svg">
<path d="M12.49 5.3995L12.8514 6.33191L13.2821 6.16497L13.4342 5.72883L12.49 5.3995ZM19.5148 5.41303L18.5691 5.7383L18.7188 6.17339L19.1466 6.34279L19.5148 5.41303ZM26.7396 21.3407L25.8865 21.8624L25.8909 21.8696L25.8954 21.8767L26.7396 21.3407ZM27 22.2186L27.9999 22.212L27.9999 22.212L27 22.2186ZM26.7512 23.0994L25.9001 22.5742L25.8956 22.5817L26.7512 23.0994ZM25.146 23.9733L25.152 22.9733H25.146V23.9733ZM6.85401 23.9733L6.85401 22.9733L6.84798 22.9733L6.85401 23.9733ZM5.92641 23.7418L6.40457 22.8636L6.40457 22.8636L5.92641 23.7418ZM5.24884 23.0994L6.10439 22.5816L6.09984 22.5742L5.24884 23.0994ZM5.00004 22.2186L4.00006 22.212L4.00006 22.212L5.00004 22.2186ZM5.26039 21.3407L6.10462 21.8767L6.10913 21.8696L6.11353 21.8624L5.26039 21.3407ZM6.76163 13.4867L7.76163 13.4867L7.76163 13.4853L6.76163 13.4867ZM7.46176 10.1407L8.37805 10.5413L8.37805 10.5413L7.46176 10.1407ZM9.46409 7.30414L8.7769 6.57767L8.7769 6.57767L9.46409 7.30414ZM12.4628 5.41007L12.8271 6.34137L12.8271 6.34137L12.4628 5.41007ZM13.4342 5.72883C13.7748 4.75221 14.7727 4 16 4V2C13.9551 2 12.1773 3.25948 11.5458 5.07017L13.4342 5.72883ZM16 4C17.2315 4 18.2316 4.75709 18.5691 5.7383L20.4604 5.08775C19.8343 3.26762 18.0515 2 16 2V4ZM26.2384 13.585C26.2384 9.46485 23.5837 5.94865 19.8829 4.48326L19.1466 6.34279C22.1544 7.53376 24.2384 10.3577 24.2384 13.585H26.2384ZM26.2384 14.3606V13.585H24.2384V14.3606H26.2384ZM27.5927 20.819C27.0245 19.8897 26.2384 17.9589 26.2384 14.3606H24.2384C24.2384 18.2558 25.0921 20.5633 25.8865 21.8624L27.5927 20.819ZM27.9999 22.212C27.9967 21.712 27.8511 21.2258 27.5838 20.8047L25.8954 21.8767C25.9649 21.9862 25.9992 22.1064 26 22.2251L27.9999 22.212ZM27.6021 23.6246C27.8641 23.2001 28.0032 22.7121 27.9999 22.212L26 22.2251C26.0008 22.3439 25.968 22.4643 25.9002 22.5742L27.6021 23.6246ZM26.5517 24.6201C26.9846 24.3844 27.3506 24.0402 27.6067 23.6172L25.8956 22.5817C25.8283 22.6929 25.7266 22.7921 25.5954 22.8636L26.5517 24.6201ZM25.14 24.9733C25.6321 24.9763 26.1191 24.8556 26.5517 24.6201L25.5954 22.8636C25.464 22.9351 25.3107 22.9743 25.152 22.9733L25.14 24.9733ZM6.85401 24.9733H25.146V22.9733H6.85401V24.9733ZM5.44826 24.6201C5.88088 24.8556 6.36789 24.9763 6.86004 24.9733L6.84798 22.9733C6.68929 22.9743 6.53605 22.9351 6.40457 22.8636L5.44826 24.6201ZM4.39332 23.6172C4.64936 24.0402 5.01535 24.3844 5.44826 24.6201L6.40457 22.8636C6.27338 22.7921 6.1717 22.6929 6.10436 22.5817L4.39332 23.6172ZM4.00006 22.212C3.99677 22.7121 4.1359 23.2001 4.39785 23.6246L6.09984 22.5742C6.03197 22.4643 5.99923 22.3439 6.00001 22.2251L4.00006 22.212ZM4.41616 20.8047C4.14886 21.2258 4.00334 21.712 4.00006 22.212L6.00001 22.2251C6.00079 22.1064 6.03512 21.9862 6.10462 21.8767L4.41616 20.8047ZM5.76163 14.3606C5.76163 17.9589 4.97551 19.8897 4.40725 20.819L6.11353 21.8624C6.90793 20.5633 7.76163 18.2558 7.76163 14.3606H5.76163ZM5.76163 13.4867V14.3606H7.76163V13.4867H5.76163ZM6.54547 9.74022C6.02684 10.9267 5.75992 12.2005 5.76163 13.488L7.76163 13.4853C7.76029 12.4768 7.96922 11.4766 8.37805 10.5413L6.54547 9.74022ZM8.7769 6.57767C7.82331 7.47971 7.06404 8.55388 6.54547 9.74022L8.37805 10.5413C8.78695 9.60581 9.38855 8.75211 10.1513 8.03062L8.7769 6.57767ZM12.0986 4.47877C10.8596 4.96336 9.73038 5.67575 8.7769 6.57767L10.1513 8.03062C10.9141 7.30901 11.823 6.7341 12.8271 6.34137L12.0986 4.47877ZM12.1286 4.46709C12.1186 4.47097 12.1086 4.47487 12.0986 4.47877L12.8271 6.34137C12.8352 6.3382 12.8433 6.33505 12.8514 6.33191L12.1286 4.46709Z" fill="#575D73"/>
<path d="M20 24C20 26.2091 18.2091 28 16 28C13.7909 28 12 26.2091 12 24" stroke="#575D73" stroke-width="2" stroke-linecap="round"/>
</svg>
