<svg width="28" height="28" viewBox="0 0 28 28" fill="none" xmlns="http://www.w3.org/2000/svg">
<path d="M27.4621 3.0375L20.9121 26.275C20.8028 26.6685 20.575 27.0188 20.2597 27.2782C19.9443 27.5376 19.5567 27.6936 19.1496 27.725H18.9746C18.5978 27.7242 18.229 27.6169 17.9106 27.4157C17.5921 27.2145 17.337 26.9274 17.1746 26.5875L12.7121 17.1625C12.6682 17.0679 12.6543 16.9621 12.6722 16.8594C12.6901 16.7566 12.7389 16.6618 12.8121 16.5875L19.2246 10.175C19.3249 10.084 19.4058 9.97363 19.4622 9.85048C19.5187 9.72732 19.5495 9.59399 19.5528 9.45856C19.5561 9.32314 19.5319 9.18845 19.4816 9.06267C19.4313 8.93688 19.356 8.82263 19.2602 8.72684C19.1644 8.63105 19.0502 8.55573 18.9244 8.50543C18.7986 8.45513 18.6639 8.43092 18.5285 8.43425C18.3931 8.43759 18.2597 8.4684 18.1366 8.52483C18.0134 8.58125 17.903 8.66211 17.8121 8.7625L11.3996 15.1875C11.3253 15.2607 11.2304 15.3095 11.1277 15.3273C11.0249 15.3452 10.9192 15.3313 10.8246 15.2875L1.44955 10.85C1.08262 10.6767 0.774565 10.3996 0.5635 10.053C0.352435 9.70641 0.24763 9.30554 0.262054 8.9C0.284179 8.48244 0.437434 8.08251 0.70001 7.75709C0.962586 7.43168 1.32111 7.19736 1.72455 7.0875L25.0121 0.524998C25.4194 0.408678 25.8531 0.424682 26.2507 0.570703C26.6483 0.716724 26.9893 0.985221 27.2246 1.3375C27.3824 1.58784 27.4852 1.86887 27.5261 2.16196C27.5671 2.45505 27.5452 2.75349 27.4621 3.0375Z" fill="url(#paint0_linear_136_2655)"/>
<defs>
<linearGradient id="paint0_linear_136_2655" x1="1.51656" y1="1.91151" x2="21.4139" y2="29.6759" gradientUnits="userSpaceOnUse">
<stop stop-color="#FD1B88"/>
<stop offset="0.609375" stop-color="#7952D5"/>
<stop offset="1" stop-color="#1BC8FF"/>
</linearGradient>
</defs>
</svg>