<svg width="31" height="29" viewBox="0 0 31 29" fill="none" xmlns="http://www.w3.org/2000/svg">
<path d="M28.9843 0.737305L17.2217 9.4736L19.3969 4.3193L28.9843 0.737305Z" fill="#E2761B" stroke="#E2761B" stroke-width="0.215525" stroke-linecap="round" stroke-linejoin="round"/>
<path d="M1.82227 0.737305L13.4904 9.55635L11.4215 4.3193L1.82227 0.737305Z" fill="#E4761B" stroke="#E4761B" stroke-width="0.215525" stroke-linecap="round" stroke-linejoin="round"/>
<path d="M24.7461 20.988L21.6133 25.7877L28.3162 27.6319L30.2432 21.0944L24.7461 20.988Z" fill="#E4761B" stroke="#E4761B" stroke-width="0.215525" stroke-linecap="round" stroke-linejoin="round"/>
<path d="M0.583008 21.0944L2.49813 27.6319L9.20108 25.7877L6.06831 20.988L0.583008 21.0944Z" fill="#E4761B" stroke="#E4761B" stroke-width="0.215525" stroke-linecap="round" stroke-linejoin="round"/>
<path d="M8.81999 12.878L6.95215 15.7034L13.6078 15.999L13.3714 8.8468L8.81999 12.878Z" fill="#E4761B" stroke="#E4761B" stroke-width="0.215525" stroke-linecap="round" stroke-linejoin="round"/>
<path d="M21.9819 12.8784L17.3715 8.7644L17.2178 15.9993L23.8616 15.7038L21.9819 12.8784Z" fill="#E4761B" stroke="#E4761B" stroke-width="0.215525" stroke-linecap="round" stroke-linejoin="round"/>
<path d="M9.20215 25.7879L13.1979 23.8373L9.74595 21.142L9.20215 25.7879Z" fill="#E4761B" stroke="#E4761B" stroke-width="0.215525" stroke-linecap="round" stroke-linejoin="round"/>
<path d="M17.6074 23.8373L21.615 25.7879L21.0594 21.142L17.6074 23.8373Z" fill="#E4761B" stroke="#E4761B" stroke-width="0.215525" stroke-linecap="round" stroke-linejoin="round"/>
<path d="M21.616 25.7876L17.6084 23.837L17.9276 26.4496L17.8921 27.5491L21.616 25.7876Z" fill="#D7C1B3" stroke="#D7C1B3" stroke-width="0.215525" stroke-linecap="round" stroke-linejoin="round"/>
<path d="M9.20312 25.7876L12.927 27.5491L12.9033 26.4496L13.1989 23.837L9.20312 25.7876Z" fill="#D7C1B3" stroke="#D7C1B3" stroke-width="0.215525" stroke-linecap="round" stroke-linejoin="round"/>
<path d="M12.989 19.4155L9.65527 18.4343L12.0078 17.3585L12.989 19.4155Z" fill="#233447" stroke="#233447" stroke-width="0.215525" stroke-linecap="round" stroke-linejoin="round"/>
<path d="M17.8232 19.4155L18.8044 17.3585L21.1688 18.4343L17.8232 19.4155Z" fill="#233447" stroke="#233447" stroke-width="0.215525" stroke-linecap="round" stroke-linejoin="round"/>
<path d="M9.20504 25.7872L9.77248 20.9875L6.07227 21.0939L9.20504 25.7872Z" fill="#CD6116" stroke="#CD6116" stroke-width="0.215525" stroke-linecap="round" stroke-linejoin="round"/>
<path d="M21.0518 20.9875L21.6192 25.7872L24.752 21.0939L21.0518 20.9875Z" fill="#CD6116" stroke="#CD6116" stroke-width="0.215525" stroke-linecap="round" stroke-linejoin="round"/>
<path d="M23.8636 15.7032L17.2197 15.9988L17.8345 19.4153L18.8157 17.3583L21.18 18.4341L23.8636 15.7032Z" fill="#CD6116" stroke="#CD6116" stroke-width="0.215525" stroke-linecap="round" stroke-linejoin="round"/>
<path d="M9.65532 18.4341L12.0197 17.3583L12.9891 19.4153L13.6156 15.9988L6.95996 15.7032L9.65532 18.4341Z" fill="#CD6116" stroke="#CD6116" stroke-width="0.215525" stroke-linecap="round" stroke-linejoin="round"/>
<path d="M6.95605 15.7037L9.74599 21.1418L9.65142 18.4346L6.95605 15.7037Z" fill="#E4751F" stroke="#E4751F" stroke-width="0.215525" stroke-linecap="round" stroke-linejoin="round"/>
<path d="M21.1797 18.4346L21.0615 21.1418L23.8633 15.7037L21.1797 18.4346Z" fill="#E4751F" stroke="#E4751F" stroke-width="0.215525" stroke-linecap="round" stroke-linejoin="round"/>
<path d="M13.6119 15.999L12.9854 19.4155L13.7656 23.4467L13.9429 18.1388L13.6119 15.999Z" fill="#E4751F" stroke="#E4751F" stroke-width="0.215525" stroke-linecap="round" stroke-linejoin="round"/>
<path d="M17.2157 15.999L16.8965 18.1269L17.0383 23.4467L17.8304 19.4155L17.2157 15.999Z" fill="#E4751F" stroke="#E4751F" stroke-width="0.215525" stroke-linecap="round" stroke-linejoin="round"/>
<path d="M17.837 19.416L17.0449 23.4472L17.6124 23.8374L21.0643 21.142L21.1825 18.4348L17.837 19.416Z" fill="#F6851B" stroke="#F6851B" stroke-width="0.215525" stroke-linecap="round" stroke-linejoin="round"/>
<path d="M9.65527 18.4348L9.74985 21.142L13.2018 23.8374L13.7693 23.4472L12.989 19.416L9.65527 18.4348Z" fill="#F6851B" stroke="#F6851B" stroke-width="0.215525" stroke-linecap="round" stroke-linejoin="round"/>
<path d="M17.897 27.5492L17.9325 26.4497L17.6369 26.1897H13.1801L12.9082 26.4497L12.9319 27.5492L9.20801 25.7877L10.5084 26.8517L13.1447 28.6841H17.6724L20.3205 26.8517L21.6209 25.7877L17.897 27.5492Z" fill="#C0AD9E" stroke="#C0AD9E" stroke-width="0.215525" stroke-linecap="round" stroke-linejoin="round"/>
<path d="M17.6094 23.8374L17.0419 23.4473H13.7673L13.1998 23.8374L12.9043 26.45L13.1762 26.1899H17.633L17.9286 26.45L17.6094 23.8374Z" fill="#161616" stroke="#161616" stroke-width="0.215525" stroke-linecap="round" stroke-linejoin="round"/>
<path d="M29.4804 10.041L30.4852 5.21776L28.9839 0.737305L17.6113 9.17805L21.9854 12.8783L28.1682 14.687L29.5395 13.0911L28.9484 12.6655L29.8942 11.8025L29.1612 11.235L30.1069 10.5139L29.4804 10.041Z" fill="#763D16" stroke="#763D16" stroke-width="0.215525" stroke-linecap="round" stroke-linejoin="round"/>
<path d="M0.337891 5.21776L1.34274 10.041L0.704366 10.5139L1.65011 11.235L0.928979 11.8025L1.87472 12.6655L1.28363 13.0911L2.64314 14.687L8.82593 12.8783L13.2 9.17805L1.82743 0.737305L0.337891 5.21776Z" fill="#763D16" stroke="#763D16" stroke-width="0.215525" stroke-linecap="round" stroke-linejoin="round"/>
<path d="M28.1684 14.6873L21.9856 12.8785L23.8652 15.7039L21.0635 21.142L24.7519 21.0947H30.249L28.1684 14.6873Z" fill="#F6851B" stroke="#F6851B" stroke-width="0.215525" stroke-linecap="round" stroke-linejoin="round"/>
<path d="M8.82767 12.8785L2.64488 14.6873L0.587891 21.0947H6.07319L9.74977 21.142L6.95983 15.7039L8.82767 12.8785Z" fill="#F6851B" stroke="#F6851B" stroke-width="0.215525" stroke-linecap="round" stroke-linejoin="round"/>
<path d="M17.2194 15.9995L17.6095 9.17833L19.4065 4.31958H11.4268L13.2 9.17833L13.6138 15.9995L13.7556 18.1511L13.7675 23.4472H17.0421L17.0657 18.1511L17.2194 15.9995Z" fill="#F6851B" stroke="#F6851B" stroke-width="0.215525" stroke-linecap="round" stroke-linejoin="round"/>
</svg>
