<svg width="28" height="25" viewBox="0 0 28 25" fill="none" xmlns="http://www.w3.org/2000/svg">
<g id="Group 4361">
<g id="Group 4361_2">
<g id="Group 4362">
<g id="Subtract">
<path fill-rule="evenodd" clip-rule="evenodd" d="M1 13.9999C1 6.82024 6.82024 1 13.9999 1C21.1795 1 26.9997 6.82024 26.9997 13.9999C26.9997 17.754 25.045 21.6269 22.5 24H22H5.5C2.95504 21.6269 1 17.754 1 13.9999ZM14.4303 19.9553L15.7622 16.2928C15.7854 16.2296 15.8221 16.1723 15.8697 16.1247C15.9173 16.0771 15.9746 16.0405 16.0377 16.0172L19.7003 14.6853C19.7882 14.6527 19.864 14.594 19.9175 14.517C19.9711 14.44 19.9998 14.3485 19.9998 14.2548C19.9998 14.161 19.9711 14.0695 19.9175 13.9926C19.864 13.9156 19.7882 13.8569 19.7003 13.8242L16.0377 12.4924C15.9746 12.4691 15.9173 12.4324 15.8697 12.3849C15.8221 12.3373 15.7854 12.28 15.7622 12.2168L14.4303 8.55423C14.3977 8.46634 14.3389 8.39054 14.262 8.33701C14.185 8.28348 14.0935 8.25479 13.9998 8.25479C13.906 8.25479 13.8145 8.28348 13.7375 8.33701C13.6606 8.39054 13.6018 8.46634 13.5692 8.55423L12.2373 12.2168C12.2141 12.28 12.1774 12.3373 12.1298 12.3849C12.0823 12.4324 12.0249 12.4691 11.9618 12.4924L8.2992 13.8242C8.21131 13.8569 8.13551 13.9156 8.08198 13.9926C8.02845 14.0695 7.99976 14.161 7.99976 14.2548C7.99976 14.3485 8.02845 14.44 8.08198 14.517C8.13551 14.594 8.21131 14.6527 8.2992 14.6853L11.9618 16.0172C12.0249 16.0405 12.0823 16.0771 12.1298 16.1247C12.1774 16.1723 12.2141 16.2296 12.2373 16.2928L13.5692 19.9553C13.6018 20.0432 13.6606 20.119 13.7375 20.1726C13.8145 20.2261 13.906 20.2548 13.9998 20.2548C14.0935 20.2548 14.185 20.2261 14.262 20.1726C14.3389 20.119 14.3977 20.0432 14.4303 19.9553Z" fill="#D53893"/>
<path d="M22.5 24V24.5C22.6266 24.5 22.7484 24.452 22.841 24.3657L22.5 24ZM5.5 24L5.15901 24.3657C5.25158 24.452 5.37343 24.5 5.5 24.5V24ZM15.7622 16.2928L15.293 16.1199L15.2923 16.1219L15.7622 16.2928ZM14.4303 19.9553L14.8991 20.1293L14.9002 20.1262L14.4303 19.9553ZM16.0377 16.0172L15.8668 15.5473L15.8648 15.548L16.0377 16.0172ZM19.7003 14.6853L19.8712 15.1553L19.8743 15.1541L19.7003 14.6853ZM19.9175 14.517L19.5071 14.2315L19.507 14.2315L19.9175 14.517ZM19.9175 13.9926L19.507 14.278L19.5071 14.2781L19.9175 13.9926ZM19.7003 13.8242L19.8743 13.3555L19.8712 13.3543L19.7003 13.8242ZM16.0377 12.4924L15.8648 12.9616L15.8668 12.9623L16.0377 12.4924ZM15.7622 12.2168L15.2923 12.3877L15.293 12.3897L15.7622 12.2168ZM14.4303 8.55423L14.9002 8.38336L14.8991 8.38025L14.4303 8.55423ZM14.262 8.33701L14.5475 7.92653L14.5475 7.92653L14.262 8.33701ZM13.7375 8.33701L13.452 7.92653L13.452 7.92653L13.7375 8.33701ZM13.5692 8.55423L13.1004 8.38024L13.0993 8.38336L13.5692 8.55423ZM12.2373 12.2168L12.7065 12.3897L12.7072 12.3877L12.2373 12.2168ZM11.9618 12.4924L12.1327 12.9623L12.1347 12.9615L11.9618 12.4924ZM8.2992 13.8242L8.12832 13.3543L8.12521 13.3555L8.2992 13.8242ZM8.08198 13.9926L7.67149 13.7071L7.67149 13.7071L8.08198 13.9926ZM8.08198 14.517L7.67149 14.8025L7.67149 14.8025L8.08198 14.517ZM8.2992 14.6853L8.12521 15.1541L8.12833 15.1552L8.2992 14.6853ZM11.9618 16.0172L12.1347 15.548L12.1327 15.5473L11.9618 16.0172ZM12.2373 16.2928L12.7072 16.1219L12.7065 16.1199L12.2373 16.2928ZM13.5692 19.9553L13.0993 20.1262L13.1004 20.1293L13.5692 19.9553ZM13.7375 20.1726L14.023 19.7621L14.023 19.7621L13.7375 20.1726ZM14.262 20.1726L13.9765 19.7621L13.9765 19.7621L14.262 20.1726ZM13.9999 0.5C6.54409 0.5 0.5 6.54409 0.5 13.9999H1.5C1.5 7.09638 7.09638 1.5 13.9999 1.5V0.5ZM27.4997 13.9999C27.4997 6.54409 21.4556 0.5 13.9999 0.5V1.5C20.9033 1.5 26.4997 7.09638 26.4997 13.9999H27.4997ZM22.841 24.3657C25.4735 21.911 27.4997 17.9106 27.4997 13.9999H26.4997C26.4997 17.5975 24.6164 21.3429 22.159 23.6343L22.841 24.3657ZM22 24.5H22.5V23.5H22V24.5ZM5.5 24.5H22V23.5H5.5V24.5ZM0.5 13.9999C0.5 17.9106 2.52649 21.911 5.15901 24.3657L5.84099 23.6343C3.38359 21.3429 1.5 17.5975 1.5 13.9999H0.5ZM15.2923 16.1219L13.9604 19.7845L14.9002 20.1262L16.2321 16.4636L15.2923 16.1219ZM15.5161 15.7712C15.4174 15.8699 15.3413 15.9889 15.293 16.1199L16.2313 16.4656C16.2296 16.4704 16.2268 16.4747 16.2232 16.4783L15.5161 15.7712ZM15.8648 15.548C15.7338 15.5963 15.6149 15.6724 15.5161 15.7712L16.2232 16.4783C16.2197 16.4819 16.2153 16.4846 16.2106 16.4864L15.8648 15.548ZM19.5294 14.2154L15.8668 15.5473L16.2086 16.4871L19.8712 15.1552L19.5294 14.2154ZM19.507 14.2315C19.5118 14.2247 19.5185 14.2195 19.5263 14.2166L19.8743 15.1541C20.0579 15.086 20.2162 14.9633 20.328 14.8025L19.507 14.2315ZM19.4998 14.2548C19.4998 14.2465 19.5023 14.2384 19.5071 14.2315L20.328 14.8025C20.4398 14.6417 20.4998 14.4506 20.4998 14.2548H19.4998ZM19.5071 14.2781C19.5023 14.2712 19.4998 14.2631 19.4998 14.2548H20.4998C20.4998 14.059 20.4398 13.8678 20.328 13.7071L19.5071 14.2781ZM19.5263 14.293C19.5185 14.2901 19.5118 14.2849 19.507 14.278L20.328 13.7071C20.2162 13.5463 20.0579 13.4236 19.8743 13.3555L19.5263 14.293ZM15.8668 12.9623L19.5294 14.2941L19.8712 13.3543L16.2086 12.0225L15.8668 12.9623ZM15.5161 12.7384C15.6149 12.8371 15.7338 12.9133 15.8648 12.9615L16.2106 12.0232C16.2153 12.025 16.2197 12.0277 16.2232 12.0313L15.5161 12.7384ZM15.293 12.3897C15.3413 12.5207 15.4174 12.6397 15.5161 12.7384L16.2232 12.0313C16.2268 12.0349 16.2296 12.0392 16.2313 12.044L15.293 12.3897ZM13.9604 8.72511L15.2923 12.3877L16.2321 12.046L14.9002 8.38336L13.9604 8.72511ZM13.9765 8.7475C13.9697 8.74275 13.9645 8.73603 13.9616 8.72822L14.8991 8.38025C14.8309 8.19666 14.7082 8.03833 14.5475 7.92653L13.9765 8.7475ZM13.9998 8.75479C13.9914 8.75479 13.9833 8.75225 13.9765 8.7475L14.5475 7.92653C14.3867 7.81472 14.1956 7.75479 13.9998 7.75479V8.75479ZM14.023 8.7475C14.0162 8.75225 14.0081 8.75479 13.9998 8.75479V7.75479C13.8039 7.75479 13.6128 7.81472 13.452 7.92653L14.023 8.7475ZM14.038 8.72822C14.0351 8.73603 14.0298 8.74275 14.023 8.7475L13.452 7.92653C13.2913 8.03833 13.1686 8.19666 13.1004 8.38025L14.038 8.72822ZM12.7072 12.3877L14.0391 8.72511L13.0993 8.38336L11.7675 12.046L12.7072 12.3877ZM12.4834 12.7384C12.5821 12.6397 12.6582 12.5207 12.7065 12.3897L11.7682 12.044C11.7699 12.0392 11.7727 12.0349 11.7763 12.0313L12.4834 12.7384ZM12.1347 12.9615C12.2657 12.9133 12.3847 12.8372 12.4834 12.7384L11.7763 12.0313C11.7799 12.0277 11.7842 12.025 11.7889 12.0232L12.1347 12.9615ZM8.47007 14.2941L12.1327 12.9623L11.7909 12.0225L8.12833 13.3543L8.47007 14.2941ZM8.49246 14.2781C8.48771 14.2849 8.48099 14.2901 8.47319 14.293L8.12521 13.3555C7.94163 13.4236 7.7833 13.5463 7.67149 13.7071L8.49246 14.2781ZM8.49976 14.2548C8.49976 14.2631 8.49721 14.2712 8.49246 14.2781L7.67149 13.7071C7.55968 13.8678 7.49976 14.059 7.49976 14.2548H8.49976ZM8.49246 14.2315C8.49721 14.2384 8.49976 14.2465 8.49976 14.2548H7.49976C7.49976 14.4506 7.55968 14.6417 7.67149 14.8025L8.49246 14.2315ZM8.47319 14.2166C8.48099 14.2195 8.48771 14.2247 8.49246 14.2315L7.67149 14.8025C7.7833 14.9633 7.94163 15.086 8.12521 15.1541L8.47319 14.2166ZM12.1327 15.5473L8.47007 14.2154L8.12833 15.1552L11.7909 16.4871L12.1327 15.5473ZM12.4834 15.7712C12.3847 15.6724 12.2657 15.5963 12.1347 15.548L11.7889 16.4864C11.7842 16.4846 11.7799 16.4819 11.7763 16.4783L12.4834 15.7712ZM12.7065 16.1199C12.6582 15.9889 12.5821 15.8699 12.4834 15.7712L11.7763 16.4783C11.7727 16.4747 11.7699 16.4704 11.7682 16.4656L12.7065 16.1199ZM14.0391 19.7845L12.7072 16.1219L11.7675 16.4636L13.0993 20.1262L14.0391 19.7845ZM14.023 19.7621C14.0298 19.7668 14.0351 19.7736 14.038 19.7814L13.1004 20.1293C13.1686 20.3129 13.2913 20.4713 13.452 20.5831L14.023 19.7621ZM13.9998 19.7548C14.0081 19.7548 14.0162 19.7573 14.023 19.7621L13.452 20.583C13.6128 20.6949 13.8039 20.7548 13.9998 20.7548V19.7548ZM13.9765 19.7621C13.9833 19.7573 13.9914 19.7548 13.9998 19.7548V20.7548C14.1956 20.7548 14.3867 20.6949 14.5475 20.583L13.9765 19.7621ZM13.9616 19.7814C13.9645 19.7736 13.9697 19.7668 13.9765 19.7621L14.5475 20.5831C14.7082 20.4713 14.8309 20.3129 14.8991 20.1293L13.9616 19.7814Z" fill="#D53893"/>
</g>
<path id="Vector 12" d="M2 24L25.6361 24" stroke="#D53893" stroke-width="2" stroke-linecap="round" stroke-linejoin="round"/>
</g>
</g>
</g>
</svg>
