<svg width="60" height="60" viewBox="0 0 60 60" fill="none" xmlns="http://www.w3.org/2000/svg">
<rect width="60" height="60" rx="30" fill="#333333"/>
<path d="M16 29C16.0017 27.4092 16.6343 25.8841 17.7592 24.7592C18.884 23.6343 20.4092 23.0017 22 23H26.975C27.3388 22.9788 33.6775 22.5325 39.7137 17.47C40.0052 17.2252 40.3605 17.0687 40.7379 17.0188C41.1153 16.9689 41.4991 17.0277 41.8441 17.1884C42.1892 17.3491 42.4813 17.6049 42.6861 17.9258C42.8908 18.2467 42.9997 18.6193 43 19V39C42.9999 39.3808 42.8912 39.7536 42.6866 40.0747C42.4819 40.3958 42.1898 40.6518 41.8447 40.8126C41.4996 40.9734 41.1157 41.0324 40.7382 40.9825C40.3607 40.9327 40.0053 40.7761 39.7137 40.5313C34.9925 36.5713 30.0887 35.4363 28 35.1188V39.0838C28.0004 39.4133 27.9194 39.7379 27.7641 40.0286C27.6088 40.3193 27.3841 40.5671 27.11 40.75L25.735 41.6663C25.4692 41.8436 25.1648 41.9548 24.8473 41.9903C24.5297 42.0259 24.2083 41.9849 23.9099 41.8706C23.6115 41.7564 23.3447 41.5724 23.1321 41.3339C22.9194 41.0955 22.7669 40.8095 22.6875 40.5L21.2162 34.955C19.7728 34.763 18.4483 34.0533 17.4888 32.958C16.5294 31.8626 16.0003 30.4561 16 29ZM41 38.9913V19C35.6487 23.4888 30.1713 24.625 28 24.905V33.09C30.1687 33.375 35.645 34.5088 41 38.9913ZM24.625 39.9913V40.005L26 39.0888V35H23.3L24.625 39.9913ZM22 33H26V25H22C20.9391 25 19.9217 25.4214 19.1716 26.1716C18.4214 26.9217 18 27.9391 18 29C18 30.0609 18.4214 31.0783 19.1716 31.8284C19.9217 32.5786 20.9391 33 22 33Z" fill="#D53A94"/>
</svg>
