<svg width="36" height="43" viewBox="0 0 36 43" fill="none" xmlns="http://www.w3.org/2000/svg">
<g clip-path="url(#clip0_5415_6869)">
<path d="M36 13.6605L34.6977 10.1239L35.6049 8.09503C35.6617 7.96701 35.6787 7.82487 35.6537 7.68706C35.6287 7.54925 35.5629 7.42214 35.4647 7.32223L32.9995 4.8331C32.4711 4.29661 31.8012 3.92136 31.0677 3.7511C30.3342 3.58083 29.5674 3.62256 28.8567 3.87143L28.1813 4.10979L24.4204 0.0354647L18.0004 0L11.5796 0.0503104L7.82286 4.15762L7.15398 3.92091C6.43875 3.66934 5.66661 3.62697 4.92816 3.79877C4.1897 3.97056 3.51555 4.3494 2.98481 4.89083L0.463516 7.42697C0.384984 7.50645 0.332265 7.60777 0.312252 7.71769C0.29224 7.82762 0.305866 7.94102 0.351348 8.04307L1.29735 10.1512L0 13.6844L4.65743 31.3937C5.09767 33.0668 6.11033 34.5327 7.51935 35.5365L16.7303 41.7791C17.0919 42.0683 17.5411 42.2258 18.0041 42.2258C18.4671 42.2258 18.9164 42.0683 19.278 41.7791L28.484 35.5274C29.8954 34.527 30.9074 33.0595 31.3409 31.3846L35.1406 16.8573L36 13.6605Z" fill="url(#paint0_linear_5415_6869)"/>
<path d="M19.052 26.1722C18.8086 26.0631 18.5575 25.9721 18.3006 25.9H17.8478C17.5911 25.9722 17.3399 26.0632 17.0965 26.1722L15.9575 26.6456L14.6709 27.2378L12.576 28.3298C12.4992 28.3537 12.4314 28.4003 12.3816 28.4634C12.3317 28.5265 12.3021 28.6032 12.2966 28.6834C12.291 28.7637 12.3099 28.8437 12.3506 28.913C12.3913 28.9824 12.4521 29.0378 12.5248 29.0721L14.3443 30.3496C14.7291 30.6245 15.1017 30.9203 15.4618 31.2371L15.974 31.6783L17.0462 32.6161L17.532 33.0449C17.6821 33.1693 17.871 33.2374 18.066 33.2374C18.261 33.2374 18.4499 33.1693 18.6 33.0449L20.6941 31.2156L21.8158 30.3273L23.6352 29.025C23.7074 28.9907 23.7674 28.9353 23.8075 28.8661C23.8476 28.7969 23.8658 28.7173 23.8597 28.6376C23.8537 28.5578 23.8236 28.4818 23.7735 28.4195C23.7234 28.3572 23.6557 28.3116 23.5791 28.2885L21.4875 27.2328L20.1935 26.6398L19.052 26.1722ZM31.9513 14.4499L32.0172 14.2602C32.0206 14.007 32.0049 13.7539 31.9702 13.503C31.7965 13.0532 31.5697 12.6257 31.2948 12.2296L30.1112 10.4927L29.2683 9.34789L27.6823 7.36846C27.5373 7.17539 27.3803 6.99166 27.2122 6.81835H27.1792L26.4748 6.94866L22.9886 7.62002C22.6359 7.63625 22.2835 7.58474 21.9502 7.46826L20.0359 6.84969L18.666 6.47112C18.2638 6.42906 17.8583 6.42906 17.4561 6.47112L16.0829 6.85381L14.1686 7.47568C13.8351 7.59137 13.4828 7.64286 13.1302 7.62744L9.64807 6.96763L8.94372 6.83732H8.91073C8.74196 7.01002 8.58491 7.1938 8.44062 7.38743L6.85708 9.36686C6.56401 9.738 6.28524 10.1196 6.02077 10.5116L4.83394 12.2486L4.27475 13.1814C4.1729 13.5397 4.11909 13.91 4.11475 14.2824L4.18073 14.4721C4.20886 14.5937 4.24495 14.7133 4.28877 14.8301L5.22323 15.9023L9.366 20.3057C9.50372 20.4659 9.59589 20.6602 9.63288 20.8683C9.66988 21.0763 9.65034 21.2905 9.57631 21.4884L8.88104 23.0934C8.72739 23.5181 8.7161 23.9813 8.84888 24.413L8.98414 24.7858C9.20673 25.3913 9.58819 25.9257 10.0885 26.333L10.7392 26.8633C10.9086 26.9848 11.1059 27.0614 11.3128 27.0862C11.5197 27.111 11.7295 27.0831 11.9228 27.0052L14.237 25.8975C14.6629 25.6865 15.0612 25.4239 15.423 25.1157L17.2755 23.4439C17.3498 23.3775 17.41 23.2969 17.4525 23.2068C17.495 23.1167 17.519 23.0189 17.5229 22.9193C17.5261 22.82 17.5096 22.721 17.4742 22.6281C17.4388 22.5352 17.3853 22.4503 17.3167 22.3783L13.1302 19.5617C12.9718 19.4494 12.859 19.2841 12.8122 19.0956C12.7654 18.9072 12.7879 18.7082 12.8754 18.5349L14.4968 15.4874C14.5894 15.301 14.6443 15.0983 14.6584 14.8907C14.6726 14.6831 14.6457 14.4747 14.5793 14.2775C14.3775 13.9011 14.0513 13.6064 13.6564 13.4437L8.57258 11.5302C8.20639 11.3982 8.22618 11.2333 8.61464 11.2102L11.6003 10.9141C12.0685 10.8842 12.5385 10.9259 12.9941 11.0378L15.5921 11.7636C15.7766 11.8191 15.9346 11.9397 16.0368 12.1029C16.139 12.2661 16.1786 12.4609 16.148 12.6511L15.1278 18.2273C15.0592 18.536 15.0422 18.854 15.0775 19.1683C15.1187 19.3011 15.4676 19.4652 15.8494 19.5584L17.4322 19.8883C17.8918 19.9733 18.3631 19.9733 18.8227 19.8883L20.2463 19.5584C20.6289 19.476 20.9737 19.292 21.0174 19.1584C21.0518 18.8443 21.0342 18.5266 20.9654 18.2182L19.9386 12.6436C19.9084 12.4535 19.9481 12.2589 20.0503 12.0958C20.1525 11.9326 20.3103 11.812 20.4945 11.7562L23.0925 11.0279C23.5481 10.916 24.0181 10.8743 24.4863 10.9042L27.472 11.1822C27.8629 11.2184 27.8844 11.3636 27.5165 11.5022L22.4335 13.4263C22.0383 13.588 21.7126 13.8835 21.5131 14.261C21.3798 14.6594 21.4095 15.0943 21.5956 15.4709L23.2195 18.5184C23.3074 18.6918 23.3301 18.8911 23.2835 19.0798C23.2368 19.2686 23.124 19.4343 22.9655 19.5469L18.7872 22.37C18.7194 22.4408 18.6662 22.5243 18.6307 22.6157C18.5953 22.7071 18.5783 22.8046 18.5808 22.9026C18.5832 23.0006 18.6051 23.0971 18.645 23.1866C18.685 23.2761 18.7423 23.3568 18.8136 23.4241L18.826 23.4356L20.6809 25.1074C21.0425 25.4145 21.4399 25.6767 21.8644 25.8885L24.1787 26.9895C24.372 27.0677 24.5819 27.0954 24.7889 27.07C24.9958 27.0446 25.1928 26.967 25.3614 26.8444L26.013 26.3124C26.5136 25.9042 26.8949 25.3686 27.1165 24.7619L27.2526 24.3891C27.3851 23.9573 27.3738 23.4942 27.2204 23.0694L26.5392 21.462C26.4658 21.2638 26.4466 21.0497 26.4835 20.8416C26.5205 20.6336 26.6123 20.4392 26.7495 20.2784L30.8923 15.8701L31.8242 14.7979C31.8739 14.6841 31.9163 14.5673 31.9513 14.4482V14.4499Z" fill="white"/>
</g>
<defs>
<linearGradient id="paint0_linear_5415_6869" x1="-0.00243305" y1="21.0581" x2="36.0294" y2="21.0581" gradientUnits="userSpaceOnUse">
<stop stop-color="#F1562B"/>
<stop offset="0.3" stop-color="#F1542B"/>
<stop offset="0.41" stop-color="#F04D2A"/>
<stop offset="0.49" stop-color="#EF4229"/>
<stop offset="0.5" stop-color="#EF4029"/>
<stop offset="0.56" stop-color="#E83E28"/>
<stop offset="0.67" stop-color="#E13C26"/>
<stop offset="1" stop-color="#DF3C26"/>
</linearGradient>
<clipPath id="clip0_5415_6869">
<rect width="36" height="42.2253" fill="white"/>
</clipPath>
</defs>
</svg>
