<?xml version="1.0" encoding="utf-8"?>
<!-- Generator: Adobe Illustrator 27.8.1, SVG Export Plug-In . SVG Version: 6.00 Build 0)  -->
<svg version="1.1" id="Layer_1" xmlns="http://www.w3.org/2000/svg" xmlns:xlink="http://www.w3.org/1999/xlink" x="0px" y="0px"
	 viewBox="0 0 56 56" style="enable-background:new 0 0 56 56;" xml:space="preserve">
<style type="text/css">
	.st0{fill:url(#SVGID_1_);}
	.st1{fill:url(#SVGID_00000161612104721522937140000017165133195370325951_);}
	.st2{fill:url(#SVGID_00000094599406019110905290000011068755180858082710_);}
	.st3{fill:url(#SVGID_00000109030848887194486590000005033836445549086102_);}
	.st4{fill:url(#SVGID_00000096743268383439175530000002757855457420888732_);}
	.st5{fill:url(#SVGID_00000140736728106878027380000016543948894743720625_);}
</style>
<linearGradient id="SVGID_1_" gradientUnits="userSpaceOnUse" x1="30.4243" y1="-346.6358" x2="21.7747" y2="-331.9325" gradientTransform="matrix(1 0 0 1 0 382.53)">
	<stop  offset="0" style="stop-color:#FF94A6"/>
	<stop  offset="0.32" style="stop-color:#E03DC1"/>
	<stop  offset="1" style="stop-color:#8247E5"/>
</linearGradient>
<path class="st0" d="M23.3,52.2c2.7,0,5-1.6,6.1-4c0.3-0.6-0.2-1.2-0.8-1.2H18c-0.6,0-1,0.6-0.8,1.2C18.3,50.6,20.6,52.2,23.3,52.2
	L23.3,52.2z"/>
<linearGradient id="SVGID_00000173138169451214699480000018399446588866366343_" gradientUnits="userSpaceOnUse" x1="34.5675" y1="38.3799" x2="16.3216" y2="12.4502" gradientTransform="matrix(1 0 0 -1 0 58)">
	<stop  offset="0" style="stop-color:#FF94A6"/>
	<stop  offset="0.32" style="stop-color:#E03DC1"/>
	<stop  offset="1" style="stop-color:#8247E5"/>
</linearGradient>
<path style="fill:url(#SVGID_00000173138169451214699480000018399446588866366343_);" d="M39.5,40.7c-1.7,0-3.1-1.4-3.1-3.1V26.3
	c0-6.1-4.2-11.3-9.9-12.7c-0.2-1.6-1.6-2.9-3.3-2.9s-3.1,1.3-3.3,2.9c-5.1,1.3-9,5.6-9.7,11c0,0.1,0,0.2,0,0.2c0,0.1,0,0.2,0,0.3
	s0,0.2,0,0.3c0,0.1,0,0.2,0,0.3c0,0.2,0,0.4,0,0.5c0,0,0,0,0,0.1v11.3c0,1.7-1.4,3.1-3.1,3.1c-0.8,0-1.5,0.6-1.5,1.5v0
	c0,0.8,0.7,1.5,1.5,1.5h32.4c0.8,0,1.5-0.7,1.5-1.5C41,41.3,40.3,40.7,39.5,40.7L39.5,40.7z"/>
<g>
	
		<linearGradient id="SVGID_00000159445850239662392470000010339100626042491055_" gradientUnits="userSpaceOnUse" x1="49.2605" y1="-376.2271" x2="4.9597" y2="-346.8206" gradientTransform="matrix(1 0 0 1 0 382.53)">
		<stop  offset="0" style="stop-color:#FF94A6"/>
		<stop  offset="0.32" style="stop-color:#E03DC1"/>
		<stop  offset="1" style="stop-color:#8247E5"/>
	</linearGradient>
	<path style="fill:url(#SVGID_00000159445850239662392470000010339100626042491055_);" d="M32.7,11.3c3.6,0.8,6.4,3.9,6.8,7.6
		c0,0.4,0.4,0.7,0.8,0.7c0.2,0,0.4-0.1,0.5-0.3c0.1-0.2,0.2-0.4,0.2-0.5c-0.2-2.2-1.1-4.2-2.5-5.8c-1.4-1.6-3.3-2.7-5.4-3.2
		c-0.1,0-0.1,0-0.2,0c-0.3,0-0.7,0.2-0.7,0.6C32,10.8,32.3,11.2,32.7,11.3z"/>
	
		<linearGradient id="SVGID_00000142885632954062058730000010645669475286336414_" gradientUnits="userSpaceOnUse" x1="48.8465" y1="-376.8535" x2="4.5435" y2="-347.4469" gradientTransform="matrix(1 0 0 1 0 382.53)">
		<stop  offset="0" style="stop-color:#FF94A6"/>
		<stop  offset="0.32" style="stop-color:#E03DC1"/>
		<stop  offset="1" style="stop-color:#8247E5"/>
	</linearGradient>
	<path style="fill:url(#SVGID_00000142885632954062058730000010645669475286336414_);" d="M33.6,6.5c5.7,1.2,10,6.1,10.5,11.9
		c0,0.4,0.4,0.7,0.8,0.7c0.2,0,0.4-0.1,0.5-0.3c0.1-0.2,0.2-0.4,0.2-0.5c-0.3-3.2-1.6-6.2-3.7-8.6c-2.1-2.4-4.9-4-8-4.7
		c-0.1,0-0.1,0-0.2,0c-0.3,0-0.7,0.2-0.7,0.6C32.9,6,33.1,6.4,33.6,6.5L33.6,6.5z"/>
	
		<linearGradient id="SVGID_00000103948893331341027840000000901939649387761550_" gradientUnits="userSpaceOnUse" x1="40.9892" y1="-388.6904" x2="-3.3138" y2="-359.2839" gradientTransform="matrix(1 0 0 1 0 382.53)">
		<stop  offset="0" style="stop-color:#FF94A6"/>
		<stop  offset="0.32" style="stop-color:#E03DC1"/>
		<stop  offset="1" style="stop-color:#8247E5"/>
	</linearGradient>
	<path style="fill:url(#SVGID_00000103948893331341027840000000901939649387761550_);" d="M13.9,11.3c0.4-0.1,0.7-0.5,0.6-0.9
		c-0.1-0.4-0.4-0.6-0.7-0.6c-0.1,0-0.1,0-0.2,0c-2.1,0.5-4,1.5-5.4,3.2c-1.5,1.6-2.3,3.6-2.5,5.8c0,0.2,0,0.4,0.2,0.5
		s0.3,0.3,0.5,0.3c0.4,0,0.8-0.3,0.8-0.7C7.5,15.2,10.3,12.1,13.9,11.3L13.9,11.3z"/>
	
		<linearGradient id="SVGID_00000132054940744755613840000012582964446641351327_" gradientUnits="userSpaceOnUse" x1="38.8134" y1="-391.9678" x2="-5.4704" y2="-362.574" gradientTransform="matrix(1 0 0 1 0 382.53)">
		<stop  offset="0" style="stop-color:#FF94A6"/>
		<stop  offset="0.32" style="stop-color:#E03DC1"/>
		<stop  offset="1" style="stop-color:#8247E5"/>
	</linearGradient>
	<path style="fill:url(#SVGID_00000132054940744755613840000012582964446641351327_);" d="M13.1,6.5c0.4-0.1,0.7-0.5,0.6-0.9
		C13.6,5.2,13.3,5,12.9,5c-0.1,0-0.1,0-0.2,0c-3.1,0.7-5.9,2.3-8,4.7c-2.1,2.4-3.4,5.4-3.7,8.6c0,0.2,0,0.4,0.2,0.5S1.5,19,1.7,19
		c0.4,0,0.8-0.3,0.8-0.7C3.1,12.6,7.4,7.7,13.1,6.5L13.1,6.5z"/>
</g>
</svg>
