<svg width="20" height="20" viewBox="0 0 20 20" fill="none" xmlns="http://www.w3.org/2000/svg">
<g clip-path="url(#clip0_19967_6552)">
<path d="M10 13C11.6569 13 13 11.6569 13 10C13 8.34315 11.6569 7 10 7C8.34315 7 7 8.34315 7 10C7 11.6569 8.34315 13 10 13Z" stroke="#494D5F" stroke-width="2" stroke-linecap="round" stroke-linejoin="round"/>
<path d="M2.83326 14.1396C2.4675 13.5097 2.18728 12.8339 2 12.13L3.3885 10.3926C3.37278 10.127 3.37278 9.86064 3.3885 9.59502L2.00083 7.85759C2.18779 7.15359 2.46743 6.47753 2.83244 5.84715L5.04261 5.59895C5.21911 5.40013 5.40728 5.21199 5.60612 5.03552L5.85437 2.82652C6.48394 2.46331 7.159 2.18537 7.86181 2L9.5995 3.38828C9.86517 3.37256 10.1315 3.37256 10.3972 3.38828L12.1349 2.00083C12.839 2.18776 13.5152 2.46736 14.1456 2.83231L14.3939 5.04214C14.5927 5.21861 14.7809 5.40675 14.9574 5.60556L17.1667 5.85377C17.5325 6.48368 17.8127 7.15949 18 7.86338L16.6115 9.60081C16.6272 9.86643 16.6272 10.1327 16.6115 10.3984L17.9992 12.1358C17.8135 12.8396 17.5353 13.5156 17.1717 14.1462L14.9615 14.3944C14.785 14.5933 14.5969 14.7814 14.398 14.9579L14.1498 17.1669C13.5198 17.5326 12.8438 17.8127 12.1398 18L10.4022 16.6117C10.1365 16.6274 9.87013 16.6274 9.60447 16.6117L7.86678 17.9992C7.16287 17.8135 6.48671 17.5353 5.85602 17.1718L5.60778 14.962C5.40893 14.7855 5.22076 14.5974 5.04427 14.3986L2.83326 14.1396Z" stroke="#494D5F" stroke-width="2" stroke-linecap="round" stroke-linejoin="round"/>
</g>
<defs>
<clipPath id="clip0_19967_6552">
<rect width="20" height="20" fill="white"/>
</clipPath>
</defs>
</svg>
