<svg width="23" height="27" viewBox="0 0 23 27" fill="none" xmlns="http://www.w3.org/2000/svg">
<path d="M15.9927 7.18516L5.58023 17.9687C5.23551 18.3562 5.0503 18.8639 5.06293 19.3866C5.07557 19.9094 5.28509 20.4072 5.64811 20.7769C6.01114 21.1466 6.49986 21.36 7.0131 21.3729C7.52634 21.3858 8.02478 21.1971 8.40523 20.846L20.8177 8.02544C21.5072 7.25045 21.8776 6.2351 21.8523 5.18962C21.8271 4.14413 21.408 3.14858 20.682 2.40909C19.9559 1.6696 18.9785 1.2428 17.952 1.21706C16.9255 1.19131 15.9286 1.5686 15.1677 2.27081L2.75523 15.0914C1.63138 16.2361 1 17.7886 1 19.4074C1 21.0262 1.63138 22.5787 2.75523 23.7234C3.87908 24.868 5.40336 25.5111 6.99273 25.5111C8.5821 25.5111 10.1064 24.868 11.2302 23.7234L21.4927 13.2963" stroke="#B6BCD6" stroke-width="2" stroke-linecap="round" stroke-linejoin="round"/>
</svg>
