<svg width="20" height="10" viewBox="0 0 20 10" fill="none" xmlns="http://www.w3.org/2000/svg">
<path d="M4.1957 9.18C6.6917 9.18 8.2877 7.416 8.2877 4.932C8.2877 4.896 8.2757 4.536 8.2637 4.428H5.1557V5.688H6.5237C6.2597 7.056 5.4197 7.668 4.3037 7.644C2.6597 7.62 1.8437 6.48 1.8437 4.68C1.8437 2.88 2.6597 1.692 4.3037 1.716C5.4077 1.728 6.1157 2.376 6.4277 3.384L8.0957 3.144C7.6637 1.26 6.4157 0.18 4.1957 0.18C1.9397 0.18 0.115703 1.812 0.115703 4.68C0.115703 7.608 2.0117 9.18 4.1957 9.18ZM10.4502 9H12.0822V0.36H10.4502V9ZM14.721 9H16.353V5.496H19.281V3.864H16.353V1.992H20.001V0.36H14.721V9Z" fill="#B6BCD6"/>
</svg>
