<?xml version="1.0" encoding="utf-8"?>
<!-- Generator: Adobe Illustrator 26.0.1, SVG Export Plug-In . SVG Version: 6.00 Build 0)  -->
<svg version="1.1" id="Layer_1" xmlns="http://www.w3.org/2000/svg" xmlns:xlink="http://www.w3.org/1999/xlink" x="0px" y="0px"
	 viewBox="0 0 115.7 43.6" style="enable-background:new 0 0 115.7 43.6;" xml:space="preserve">
<style type="text/css">
	.st0{fill:none;}
	.st1{fill:url(#SVGID_1_);}
	.st2{fill:url(#SVGID_00000031904574540661688930000009635952625138369452_);}
	.st3{fill:url(#SVGID_00000165936254885862089520000003504147200068294326_);}
	.st4{fill:url(#SVGID_00000163052401231864423820000002676149234871251849_);}
	.st5{fill:url(#SVGID_00000084494691846864248280000005524009013522637202_);}
	.st6{fill:url(#SVGID_00000013915808024402809580000017572120471951231405_);}
	.st7{fill:#FFFFFF;}
</style>
<rect class="st0" width="115.7" height="43.6"/>
<linearGradient id="SVGID_1_" gradientUnits="userSpaceOnUse" x1="27.773" y1="17.302" x2="19.9218" y2="3.4687" gradientTransform="matrix(1 0 0 -1 0 45.641)">
	<stop  offset="0" style="stop-color:#FF94A6"/>
	<stop  offset="0.32" style="stop-color:#E03DC1"/>
	<stop  offset="1" style="stop-color:#8247E5"/>
</linearGradient>
<path class="st1" d="M21.3,43.6c1.2,0,2.4-0.3,3.5-1c1-0.6,1.8-1.6,2.3-2.7c0.1-0.1,0.1-0.3,0.1-0.4c0-0.1-0.1-0.3-0.1-0.4
	C27,39.1,26.9,39,26.8,39s-0.3-0.1-0.4-0.1H16.3c-0.1,0-0.3,0-0.4,0.1c-0.1,0.1-0.2,0.2-0.3,0.3c-0.1,0.1-0.1,0.2-0.1,0.4
	c0,0.1,0,0.3,0.1,0.4c0.5,1.1,1.3,2,2.3,2.7C18.9,43.3,20.1,43.6,21.3,43.6L21.3,43.6z"/>
<linearGradient id="SVGID_00000171688182720645124630000012357700564364674433_" gradientUnits="userSpaceOnUse" x1="31.7356" y1="32.3834" x2="15.087" y2="7.86" gradientTransform="matrix(1 0 0 -1 0 45.641)">
	<stop  offset="0" style="stop-color:#FF94A6"/>
	<stop  offset="0.32" style="stop-color:#E03DC1"/>
	<stop  offset="1" style="stop-color:#8247E5"/>
</linearGradient>
<path style="fill:url(#SVGID_00000171688182720645124630000012357700564364674433_);" d="M36.9,33c-0.8,0-1.5-0.3-2.1-0.8
	c-0.6-0.5-0.9-1.3-0.9-2V19.6c0-2.7-0.9-5.3-2.6-7.4s-4.1-3.6-6.8-4.3c-0.1-0.7-0.5-1.4-1-1.9c-0.6-0.5-1.3-0.8-2.1-0.8
	c-0.8,0-1.5,0.3-2.1,0.8c-0.6,0.5-0.9,1.2-1,1.9c-2.4,0.6-4.6,1.9-6.2,3.7c-1.7,1.8-2.7,4-3,6.4c0,0.1,0,0.1,0,0.2
	c0,0.1,0,0.2,0,0.3c0,0.1,0,0.2,0,0.3c0,0.1,0,0.2,0,0.2c0,0.2,0,0.3,0,0.5v10.5c0,0.8-0.3,1.5-0.9,2C7.4,32.7,6.6,33,5.8,33
	c-0.2,0-0.4,0-0.5,0.1c-0.2,0.1-0.3,0.2-0.5,0.3c-0.1,0.1-0.2,0.3-0.3,0.4c-0.1,0.2-0.1,0.3-0.1,0.5v0c0,0.4,0.1,0.7,0.4,1
	c0.3,0.3,0.6,0.4,1,0.4h31.1c0.4,0,0.7-0.2,1-0.4c0.3-0.3,0.4-0.6,0.4-0.9c0-0.4-0.1-0.7-0.4-0.9C37.6,33.1,37.2,33,36.9,33L36.9,33
	z"/>
<linearGradient id="SVGID_00000043452474174409854290000006803934310139547288_" gradientUnits="userSpaceOnUse" x1="45.9153" y1="44.8286" x2="4.4241" y2="16.281" gradientTransform="matrix(1 0 0 -1 0 45.641)">
	<stop  offset="0" style="stop-color:#FF94A6"/>
	<stop  offset="0.32" style="stop-color:#E03DC1"/>
	<stop  offset="1" style="stop-color:#8247E5"/>
</linearGradient>
<path style="fill:url(#SVGID_00000043452474174409854290000006803934310139547288_);" d="M30.3,5.9c1.7,0.4,3.3,1.2,4.4,2.5
	c1.2,1.3,1.9,2.9,2.1,4.5c0,0.1,0,0.2,0.1,0.3c0,0.1,0.1,0.2,0.2,0.2c0.1,0.1,0.2,0.1,0.2,0.1s0.2,0,0.3,0c0.2,0,0.4-0.1,0.5-0.2
	c0.1-0.1,0.1-0.2,0.1-0.2c0-0.1,0-0.2,0-0.3c-0.2-2-1-3.9-2.4-5.4c-1.4-1.5-3.2-2.5-5.2-2.9c0,0-0.1,0-0.2,0c-0.2,0-0.3,0.1-0.5,0.2
	c-0.1,0.1-0.2,0.3-0.2,0.4c0,0.2,0,0.3,0.1,0.5C30,5.7,30.2,5.8,30.3,5.9L30.3,5.9z"/>
<linearGradient id="SVGID_00000160880215034809542530000000415767570040775102_" gradientUnits="userSpaceOnUse" x1="45.5836" y1="45.3082" x2="4.0923" y2="16.7626" gradientTransform="matrix(1 0 0 -1 0 45.641)">
	<stop  offset="0" style="stop-color:#FF94A6"/>
	<stop  offset="0.32" style="stop-color:#E03DC1"/>
	<stop  offset="1" style="stop-color:#8247E5"/>
</linearGradient>
<path style="fill:url(#SVGID_00000160880215034809542530000000415767570040775102_);" d="M31.1,1.4c2.7,0.6,5.1,1.9,6.9,3.9
	c1.8,2,2.9,4.4,3.2,7.1c0,0.1,0,0.2,0.1,0.3c0,0.1,0.1,0.2,0.2,0.2c0.1,0.1,0.2,0.1,0.2,0.1c0.1,0,0.2,0,0.3,0
	c0.2,0,0.4-0.1,0.5-0.2c0.1-0.1,0.1-0.2,0.1-0.2c0-0.1,0-0.2,0-0.3c-0.3-2.9-1.5-5.7-3.5-7.9c-2-2.2-4.7-3.7-7.7-4.3
	c0,0-0.1,0-0.2,0c-0.2,0-0.3,0.1-0.5,0.2c-0.1,0.1-0.2,0.3-0.2,0.4c0,0.2,0,0.3,0.1,0.5C30.8,1.2,31,1.3,31.1,1.4L31.1,1.4z"/>
<linearGradient id="SVGID_00000103232510840275754020000011174893604855012260_" gradientUnits="userSpaceOnUse" x1="37.5712" y1="56.9537" x2="-3.918" y2="28.4082" gradientTransform="matrix(1 0 0 -1 0 45.641)">
	<stop  offset="0" style="stop-color:#FF94A6"/>
	<stop  offset="0.32" style="stop-color:#E03DC1"/>
	<stop  offset="1" style="stop-color:#8247E5"/>
</linearGradient>
<path style="fill:url(#SVGID_00000103232510840275754020000011174893604855012260_);" d="M12.3,5.9c0.2,0,0.3-0.1,0.4-0.3
	s0.2-0.3,0.1-0.5c0-0.2-0.1-0.3-0.2-0.4c-0.1-0.1-0.3-0.2-0.5-0.2c-0.1,0-0.1,0-0.2,0c-2,0.4-3.8,1.4-5.2,2.9
	c-1.4,1.5-2.2,3.4-2.4,5.3c0,0.1,0,0.2,0,0.3c0,0.1,0.1,0.2,0.1,0.2c0.1,0.1,0.1,0.1,0.2,0.2c0.1,0,0.2,0.1,0.3,0.1
	c0.1,0,0.2,0,0.3,0c0.1,0,0.2-0.1,0.2-0.1c0.1-0.1,0.1-0.1,0.2-0.2c0-0.1,0.1-0.2,0.1-0.3C6,11.2,6.7,9.6,7.9,8.4
	C9.1,7.1,10.6,6.2,12.3,5.9L12.3,5.9z"/>
<linearGradient id="SVGID_00000021109356898720807730000001363622372860878493_" gradientUnits="userSpaceOnUse" x1="35.4538" y1="60.031" x2="-6.0185" y2="31.4984" gradientTransform="matrix(1 0 0 -1 0 45.641)">
	<stop  offset="0" style="stop-color:#FF94A6"/>
	<stop  offset="0.32" style="stop-color:#E03DC1"/>
	<stop  offset="1" style="stop-color:#8247E5"/>
</linearGradient>
<path style="fill:url(#SVGID_00000021109356898720807730000001363622372860878493_);" d="M11.5,1.4c0.2,0,0.3-0.1,0.4-0.3
	c0.1-0.1,0.2-0.3,0.1-0.5c0-0.2-0.1-0.3-0.2-0.4C11.7,0.1,11.6,0,11.4,0c-0.1,0-0.1,0-0.2,0c-3,0.6-5.7,2.1-7.7,4.3s-3.3,5-3.5,7.9
	c0,0.1,0,0.2,0,0.3c0,0.1,0.1,0.2,0.1,0.2c0.1,0.1,0.1,0.1,0.2,0.2c0.1,0,0.2,0.1,0.3,0.1c0.1,0,0.2,0,0.3,0c0.1,0,0.2-0.1,0.2-0.1
	c0.1-0.1,0.1-0.1,0.2-0.2s0.1-0.2,0.1-0.3c0.3-2.6,1.4-5.1,3.2-7.1C6.5,3.3,8.9,1.9,11.5,1.4L11.5,1.4z"/>
<path class="st7" d="M109.5,17c-0.8,0-1.6,0.1-2.4,0.4c-0.8,0.3-1.4,0.7-2,1.3V9.9c0,0,0,0,0,0c0,0,0,0,0,0c0,0,0,0,0,0s0,0,0,0
	h-3.5c0,0-0.1,0-0.1,0c0,0,0,0,0,0.1v23.7c0,0,0,0,0,0c0,0,0,0,0,0s0,0,0,0c0,0,0,0,0,0h3.5c0,0,0.1,0,0.1,0c0,0,0,0,0-0.1V24
	c0-0.9,0.3-1.7,0.9-2.3c0.6-0.6,1.4-1,2.3-1.1c0.5,0,0.9,0,1.4,0.2c0.4,0.2,0.8,0.4,1.2,0.7c0.3,0.3,0.6,0.7,0.8,1.1
	s0.3,0.9,0.3,1.3v9.7c0,0,0,0,0,0c0,0,0,0,0,0c0,0,0,0,0,0s0,0,0,0h3.5c0,0,0.1,0,0.1,0c0,0,0,0,0-0.1V23c0-1.6-0.6-3.1-1.8-4.2
	C112.7,17.7,111.1,17,109.5,17L109.5,17z"/>
<path class="st7" d="M82.9,16.4h-3.5c0,0-0.1,0-0.1,0c0,0,0,0,0,0.1V27c0,0.4-0.1,0.9-0.3,1.3s-0.4,0.8-0.8,1.1
	c-0.3,0.3-0.7,0.5-1.1,0.7c-0.4,0.1-0.9,0.2-1.3,0.2c-0.9-0.1-1.7-0.4-2.3-1c-0.6-0.6-0.9-1.4-0.9-2.2V16.5c0,0,0,0,0,0c0,0,0,0,0,0
	c0,0,0,0,0,0c0,0,0,0,0,0h-3.5c0,0-0.1,0-0.1,0c0,0,0,0,0,0.1v10.4c0,3.7,3,6.8,6.9,6.9c4,0.1,7.3-3,7.3-6.7V16.5
	C83,16.5,83,16.4,82.9,16.4C82.9,16.4,82.9,16.4,82.9,16.4L82.9,16.4z"/>
<path class="st7" d="M85.4,30c0.7,1.4,2.4,3.8,6.5,3.8c4.6,0,6.7-2.6,6.7-5.2c0-2.9-2-4.6-6-5.3c-2.1-0.3-2.9-1-2.9-2.1
	c0-1.1,1-1.8,2.4-1.8c1.3,0,2.4,0.7,2.8,1.8c0,0,0,0,0,0c0,0,0,0,0,0c0,0,0,0,0,0c0,0,0,0,0,0l2.9-1.2c0,0,0,0,0,0c0,0,0,0,0-0.1
	c-0.9-2.2-3.1-3.5-5.9-3.5c-4,0-6.1,2.4-6.1,4.8c0,2.8,1.9,4.6,5.9,5.2c2.1,0.4,3,1.1,3,2.2c0,1.2-1.1,1.9-2.9,1.9
	c-0.7,0-1.3-0.2-1.9-0.5c-0.6-0.3-1-0.8-1.3-1.4c0,0,0,0,0,0c0,0,0,0-0.1,0c0,0,0,0,0,0l-3,1.3c0,0,0,0,0,0
	C85.4,29.9,85.4,29.9,85.4,30C85.3,29.9,85.3,29.9,85.4,30C85.3,30,85.3,30,85.4,30L85.4,30z"/>
<path class="st7" d="M59.1,9.8h-8.8c0,0-0.1,0-0.1,0c0,0-0.1,0-0.1,0c0,0,0,0-0.1,0.1c0,0,0,0.1,0,0.1v23.5c0,0.1,0,0.1,0.1,0.2
	c0,0,0.1,0.1,0.2,0.1h3.3c0.1,0,0.1,0,0.2-0.1c0,0,0.1-0.1,0.1-0.2l0-9.2c0-0.1,0-0.1,0.1-0.2c0,0,0.1-0.1,0.2-0.1h5
	c4.1,0,7.3-3.1,7.3-7.1S63.2,9.8,59.1,9.8z M59.2,20.6h-2.3c-0.5,0-0.9,0.1-1.3,0.4c-0.4,0.3-0.6,0.6-0.8,1.1l-0.1,0.4
	c0,0,0,0.1-0.1,0.1c0,0-0.1,0-0.1,0H54c0,0-0.1,0-0.1-0.1c0,0-0.1-0.1-0.1-0.1v-8.7c0-0.1,0-0.1,0.1-0.2c0,0,0.1-0.1,0.2-0.1h4.9
	c0.9,0,1.8,0.3,2.5,0.9s1.1,1.4,1.2,2.3C62.9,18.7,61.3,20.5,59.2,20.6z"/>
</svg>
