<svg width="16" height="19" viewBox="0 0 16 19" fill="none" xmlns="http://www.w3.org/2000/svg">
<path d="M1.58691 1.66772L14.9338 16.3492" stroke="white" stroke-width="2" stroke-linecap="round" stroke-linejoin="round"/>
<path d="M5.58984 17.0166H10.9286" stroke="white" stroke-width="2" stroke-linecap="round" stroke-linejoin="round"/>
<path d="M5.29883 1.78445C6.21203 1.26002 7.24885 0.989294 8.30187 1.00032C11.6052 1.02535 14.2496 3.76979 14.2496 7.08148V7.67374C14.2496 9.901 14.5999 11.4275 15.0003 12.4536" stroke="white" stroke-width="2" stroke-linecap="round" stroke-linejoin="round"/>
<path d="M13.1148 14.3471H1.66989C1.55171 14.3475 1.43553 14.3166 1.33323 14.2574C1.23093 14.1982 1.14617 14.113 1.08763 14.0103C1.02909 13.9077 0.99886 13.7913 1.00003 13.6731C1.00121 13.5549 1.03374 13.4392 1.09431 13.3377C1.64486 12.3951 2.2705 10.66 2.2705 7.67365V7.00631C2.26981 5.78539 2.63918 4.59293 3.3299 3.58618" stroke="white" stroke-width="2" stroke-linecap="round" stroke-linejoin="round"/>
</svg>
