<svg width="14" height="13" viewBox="0 0 14 13" fill="none" xmlns="http://www.w3.org/2000/svg">
<path d="M7.875 9.5C7.875 9.59946 7.83549 9.69484 7.76517 9.76517C7.69484 9.83549 7.59946 9.875 7.5 9.875C7.26794 9.875 7.04538 9.78281 6.88128 9.61872C6.71719 9.45462 6.625 9.23206 6.625 9V6.5C6.625 6.46685 6.61183 6.43505 6.58839 6.41161C6.56495 6.38817 6.53315 6.375 6.5 6.375C6.40055 6.375 6.30516 6.33549 6.23484 6.26516C6.16451 6.19484 6.125 6.09946 6.125 6C6.125 5.90054 6.16451 5.80516 6.23484 5.73484C6.30516 5.66451 6.40055 5.625 6.5 5.625C6.73207 5.625 6.95463 5.71719 7.11872 5.88128C7.28282 6.04538 7.375 6.26794 7.375 6.5V9C7.375 9.03315 7.38817 9.06495 7.41161 9.08839C7.43506 9.11183 7.46685 9.125 7.5 9.125C7.59946 9.125 7.69484 9.16451 7.76517 9.23483C7.83549 9.30516 7.875 9.40054 7.875 9.5ZM6.75 4.375C6.87362 4.375 6.99445 4.33834 7.09723 4.26967C7.20002 4.20099 7.28012 4.10338 7.32743 3.98918C7.37473 3.87497 7.38711 3.74931 7.36299 3.62807C7.33888 3.50683 7.27935 3.39547 7.19195 3.30806C7.10454 3.22065 6.99317 3.16112 6.87193 3.13701C6.7507 3.11289 6.62503 3.12527 6.51083 3.17258C6.39662 3.21988 6.29901 3.29999 6.23033 3.40277C6.16166 3.50555 6.125 3.62639 6.125 3.75C6.125 3.91576 6.19085 4.07473 6.30806 4.19194C6.42527 4.30915 6.58424 4.375 6.75 4.375ZM13.375 6.5C13.375 7.76086 13.0011 8.9934 12.3006 10.0418C11.6001 11.0901 10.6045 11.9072 9.43961 12.3897C8.27473 12.8722 6.99293 12.9985 5.7563 12.7525C4.51967 12.5065 3.38376 11.8994 2.4922 11.0078C1.60064 10.1162 0.993478 8.98033 0.747497 7.7437C0.501516 6.50707 0.627762 5.22527 1.11027 4.06039C1.59278 2.89551 2.40988 1.89988 3.45824 1.19938C4.50661 0.498887 5.73915 0.125 7 0.125C8.69015 0.126985 10.3105 0.799272 11.5056 1.99439C12.7007 3.1895 13.373 4.80985 13.375 6.5ZM12.625 6.5C12.625 5.38748 12.2951 4.29994 11.677 3.37492C11.0589 2.44989 10.1804 1.72892 9.1526 1.30318C8.12476 0.877435 6.99376 0.766041 5.90262 0.983083C4.81148 1.20012 3.8092 1.73585 3.02253 2.52252C2.23586 3.30919 1.70013 4.31147 1.48309 5.40262C1.26604 6.49376 1.37744 7.62476 1.80318 8.65259C2.22892 9.68043 2.94989 10.5589 3.87492 11.177C4.79995 11.7951 5.88748 12.125 7 12.125C8.49134 12.1233 9.92112 11.5302 10.9757 10.4756C12.0302 9.42111 12.6233 7.99133 12.625 6.5Z" fill="#575D73" fill-opacity="0.8"/>
</svg>
