<svg width="16" height="15" viewBox="0 0 16 15" fill="none" xmlns="http://www.w3.org/2000/svg">
<path d="M7.25 11.25H8.75V6.75H7.25V11.25ZM8 5.25C8.2125 5.25 8.39075 5.178 8.53475 5.034C8.67825 4.8905 8.75 4.7125 8.75 4.5C8.75 4.2875 8.67825 4.10925 8.53475 3.96525C8.39075 3.82175 8.2125 3.75 8 3.75C7.7875 3.75 7.6095 3.82175 7.466 3.96525C7.322 4.10925 7.25 4.2875 7.25 4.5C7.25 4.7125 7.322 4.8905 7.466 5.034C7.6095 5.178 7.7875 5.25 8 5.25ZM8 15C6.9625 15 5.9875 14.803 5.075 14.409C4.1625 14.0155 3.36875 13.4813 2.69375 12.8063C2.01875 12.1313 1.4845 11.3375 1.091 10.425C0.697 9.5125 0.5 8.5375 0.5 7.5C0.5 6.4625 0.697 5.4875 1.091 4.575C1.4845 3.6625 2.01875 2.86875 2.69375 2.19375C3.36875 1.51875 4.1625 0.98425 5.075 0.59025C5.9875 0.19675 6.9625 0 8 0C9.0375 0 10.0125 0.19675 10.925 0.59025C11.8375 0.98425 12.6313 1.51875 13.3063 2.19375C13.9813 2.86875 14.5155 3.6625 14.909 4.575C15.303 5.4875 15.5 6.4625 15.5 7.5C15.5 8.5375 15.303 9.5125 14.909 10.425C14.5155 11.3375 13.9813 12.1313 13.3063 12.8063C12.6313 13.4813 11.8375 14.0155 10.925 14.409C10.0125 14.803 9.0375 15 8 15Z" fill="#BAC4D6"/>
</svg>
