<svg width="17" height="17" viewBox="0 0 17 17" fill="none" xmlns="http://www.w3.org/2000/svg">
<g clip-path="url(#clip0_15284_45077)">
<path d="M8.5 14.5C11.8137 14.5 14.5 11.8137 14.5 8.5C14.5 5.18629 11.8137 2.5 8.5 2.5C5.18629 2.5 2.5 5.18629 2.5 8.5C2.5 11.8137 5.18629 14.5 8.5 14.5Z" stroke="#797D8F" stroke-width="1.2" stroke-linecap="round" stroke-linejoin="round"/>
<path d="M8 8C8.13261 8 8.25979 8.05268 8.35355 8.14645C8.44732 8.24021 8.5 8.36739 8.5 8.5V11C8.5 11.1326 8.55268 11.2598 8.64645 11.3536C8.74021 11.4473 8.86739 11.5 9 11.5" stroke="#797D8F" stroke-width="1.2" stroke-linecap="round" stroke-linejoin="round"/>
<path d="M8.25 6.5C8.66421 6.5 9 6.16421 9 5.75C9 5.33579 8.66421 5 8.25 5C7.83579 5 7.5 5.33579 7.5 5.75C7.5 6.16421 7.83579 6.5 8.25 6.5Z" fill="#797D8F"/>
</g>
<defs>
<clipPath id="clip0_15284_45077">
<rect width="16" height="16" fill="white" transform="translate(0.5 0.5)"/>
</clipPath>
</defs>
</svg>
