<svg width="18" height="18" viewBox="0 0 18 18" fill="none" xmlns="http://www.w3.org/2000/svg">
<path d="M9 0.875C7.39303 0.875 5.82214 1.35152 4.486 2.24431C3.14985 3.1371 2.10844 4.40605 1.49348 5.8907C0.87852 7.37535 0.717618 9.00901 1.03112 10.5851C1.34463 12.1612 2.11846 13.6089 3.25476 14.7452C4.39106 15.8815 5.8388 16.6554 7.4149 16.9689C8.99099 17.2824 10.6247 17.1215 12.1093 16.5065C13.594 15.8916 14.8629 14.8502 15.7557 13.514C16.6485 12.1779 17.125 10.607 17.125 9C17.1209 6.84638 16.2635 4.78216 14.7407 3.25932C13.2178 1.73648 11.1536 0.87913 9 0.875ZM12.8672 7.57812L8.28907 11.9531C8.17071 12.0645 8.01406 12.126 7.85157 12.125C7.77214 12.1261 7.69328 12.1115 7.61953 12.082C7.54578 12.0525 7.47861 12.0087 7.42188 11.9531L5.13282 9.76562C5.06933 9.71023 5.01769 9.64257 4.98102 9.56672C4.94434 9.49086 4.92338 9.40837 4.9194 9.32421C4.91542 9.24004 4.92849 9.15594 4.95784 9.07696C4.98719 8.99798 5.03221 8.92575 5.09019 8.86461C5.14816 8.80347 5.2179 8.75469 5.29522 8.72119C5.37253 8.68769 5.45582 8.67017 5.54007 8.66968C5.62433 8.66919 5.70781 8.68574 5.78551 8.71834C5.86321 8.75094 5.93351 8.79891 5.99219 8.85938L7.85157 10.6328L12.0078 6.67188C12.1293 6.56585 12.2871 6.51091 12.4482 6.51853C12.6093 6.52615 12.7612 6.59575 12.8722 6.71277C12.9832 6.8298 13.0446 6.98519 13.0437 7.14646C13.0428 7.30773 12.9795 7.4624 12.8672 7.57812Z" fill="#D53893"/>
</svg>
