<svg xmlns="http://www.w3.org/2000/svg" width="32" height="33" viewBox="0 0 32 33" fill="none">
<g clip-path="url(#clip0_1010_42290)">
<path d="M16 3.5C13.4288 3.5 10.9154 4.26244 8.77759 5.6909C6.63975 7.11935 4.97351 9.14968 3.98957 11.5251C3.00563 13.9006 2.74819 16.5144 3.2498 19.0362C3.75141 21.5579 4.98953 23.8743 6.80762 25.6924C8.6257 27.5105 10.9421 28.7486 13.4638 29.2502C15.9856 29.7518 18.5995 29.4944 20.9749 28.5104C23.3503 27.5265 25.3807 25.8603 26.8091 23.7224C28.2376 21.5846 29 19.0712 29 16.5C28.9964 13.0533 27.6256 9.74882 25.1884 7.31163C22.7512 4.87445 19.4467 3.50364 16 3.5ZM15 10.5C15 10.2348 15.1054 9.98043 15.2929 9.79289C15.4804 9.60536 15.7348 9.5 16 9.5C16.2652 9.5 16.5196 9.60536 16.7071 9.79289C16.8946 9.98043 17 10.2348 17 10.5V17.5C17 17.7652 16.8946 18.0196 16.7071 18.2071C16.5196 18.3946 16.2652 18.5 16 18.5C15.7348 18.5 15.4804 18.3946 15.2929 18.2071C15.1054 18.0196 15 17.7652 15 17.5V10.5ZM16 23.5C15.7033 23.5 15.4133 23.412 15.1667 23.2472C14.92 23.0824 14.7277 22.8481 14.6142 22.574C14.5007 22.2999 14.4709 21.9983 14.5288 21.7074C14.5867 21.4164 14.7296 21.1491 14.9393 20.9393C15.1491 20.7296 15.4164 20.5867 15.7074 20.5288C15.9983 20.4709 16.2999 20.5007 16.574 20.6142C16.8481 20.7277 17.0824 20.92 17.2472 21.1666C17.412 21.4133 17.5 21.7033 17.5 22C17.5 22.3978 17.342 22.7794 17.0607 23.0607C16.7794 23.342 16.3978 23.5 16 23.5Z" fill="#E2B71D"/>
</g>
<defs>
<clipPath id="clip0_1010_42290">
<rect width="32" height="32" fill="white" transform="translate(0 0.5)"/>
</clipPath>
</defs>
</svg>