<svg width="25" height="27" viewBox="0 0 25 27" fill="none" xmlns="http://www.w3.org/2000/svg">
<path d="M7.77691 1.9673C7.42469 1.91305 7.40984 1.90668 7.57559 1.88139C7.89323 1.83289 8.64325 1.89899 9.1601 2.02102C10.3667 2.3058 11.4647 3.03533 12.6366 4.33097L12.948 4.67517L13.3934 4.60407C15.2699 4.30466 17.1788 4.54262 18.7755 5.27497C19.2147 5.47645 19.9072 5.87752 19.9937 5.98058C20.0213 6.01343 20.0719 6.22486 20.1062 6.45048C20.2248 7.23103 20.1654 7.82933 19.925 8.2762C19.7942 8.51938 19.7869 8.59644 19.8748 8.80455C19.9451 8.97062 20.1408 9.09354 20.3347 9.09327C20.7315 9.09274 21.1585 8.45588 21.3564 7.56975L21.435 7.21777L21.5907 7.3929C22.4448 8.35371 23.1157 9.66402 23.2309 10.5967L23.2609 10.8399L23.1173 10.6188C22.8703 10.2384 22.622 9.97944 22.3041 9.77058C21.7311 9.3941 21.1252 9.26597 19.5205 9.18201C18.0712 9.10618 17.2509 8.98327 16.4376 8.71993C15.0538 8.27196 14.3562 7.67533 12.7124 5.53398C11.9823 4.58285 11.531 4.05662 11.0822 3.63283C10.0621 2.6699 9.05989 2.16489 7.77691 1.9673Z" fill="#D53A94"/>
<path d="M20.3206 4.09093C20.3571 3.45359 20.4442 3.0332 20.6192 2.6493C20.6884 2.49733 20.7533 2.37296 20.7634 2.37296C20.7734 2.37296 20.7433 2.48513 20.6964 2.62219C20.5692 2.99478 20.5483 3.50439 20.636 4.0973C20.7472 4.84959 20.8105 4.95814 21.6113 5.77078C21.9869 6.15195 22.4238 6.63269 22.5822 6.83908L22.8701 7.21436L22.5822 6.94616C22.23 6.61818 21.4201 5.97854 21.2412 5.88711C21.1212 5.82579 21.1034 5.82685 21.0294 5.89998C20.9612 5.96736 20.9468 6.06861 20.9373 6.54727C20.9226 7.29328 20.8202 7.77212 20.573 8.25091C20.4394 8.50987 20.4183 8.4546 20.5393 8.1623C20.6296 7.94407 20.6388 7.84812 20.6381 7.12594C20.6367 5.67489 20.4632 5.32604 19.4457 4.72845C19.188 4.57706 18.7633 4.35873 18.502 4.24324C18.2407 4.12776 18.0331 4.02717 18.0406 4.01966C18.0695 3.99118 19.0617 4.27875 19.4611 4.43129C20.0552 4.65819 20.1532 4.68759 20.2254 4.66022C20.2738 4.64188 20.2971 4.50203 20.3206 4.09093Z" fill="#D53A94"/>
<path d="M8.46108 6.57326C7.74604 5.59583 7.30363 4.09721 7.39941 2.97692L7.42903 2.63024L7.59179 2.65973C7.89743 2.71509 8.42444 2.90985 8.67121 3.05867C9.3484 3.46703 9.64156 4.00467 9.93983 5.38524C10.0272 5.78962 10.1418 6.24723 10.1946 6.40216C10.2795 6.65152 10.6003 7.23399 10.8612 7.61229C11.0491 7.88473 10.9243 8.01384 10.5089 7.97661C9.8746 7.91975 9.01537 7.33095 8.46108 6.57326Z" fill="#D53A94"/>
<path d="M19.4534 13.8478C16.1118 12.5119 14.9349 11.3524 14.9349 9.39587C14.9349 9.10795 14.9449 8.87238 14.957 8.87238C14.9692 8.87238 15.0985 8.96739 15.2443 9.08354C15.9219 9.62317 16.6807 9.85365 18.7813 10.1579C20.0174 10.337 20.713 10.4816 21.3547 10.6929C23.3942 11.3645 24.6561 12.7275 24.957 14.5839C25.0445 15.1233 24.9932 16.1348 24.8514 16.668C24.7395 17.0891 24.398 17.8481 24.3074 17.8772C24.2823 17.8853 24.2576 17.7897 24.2512 17.6596C24.2168 16.9626 23.8621 16.2839 23.2662 15.7756C22.5888 15.1976 21.6787 14.7374 19.4534 13.8478Z" fill="#D53A94"/>
<path d="M17.1075 14.4028C17.0656 14.1554 16.993 13.8395 16.9461 13.7007L16.8608 13.4485L17.0192 13.625C17.2384 13.8692 17.4115 14.1818 17.5583 14.5981C17.6704 14.9158 17.683 15.0103 17.6821 15.5265C17.6813 16.0334 17.6673 16.1397 17.5638 16.4256C17.4007 16.8766 17.1983 17.1963 16.8586 17.5395C16.2482 18.1564 15.4634 18.4979 14.3309 18.6395C14.1341 18.6641 13.5603 18.7056 13.0559 18.7316C11.7848 18.7973 10.9481 18.9329 10.1964 19.195C10.0883 19.2327 9.99176 19.2556 9.98197 19.2459C9.95154 19.2158 10.4634 18.9129 10.8862 18.7107C11.4823 18.4255 12.0757 18.27 13.4052 18.0501C14.062 17.9415 14.7403 17.8097 14.9125 17.7573C16.539 17.2621 17.375 15.9844 17.1075 14.4028Z" fill="#D53A94"/>
<path d="M18.6393 17.1039C18.1953 16.1563 18.0933 15.2413 18.3366 14.388C18.3626 14.2969 18.4044 14.2222 18.4296 14.2222C18.4548 14.2222 18.5596 14.2785 18.6624 14.3472C18.867 14.4839 19.2773 14.7142 20.3705 15.306C21.7346 16.0445 22.5124 16.6163 23.0412 17.2696C23.5045 17.8418 23.7911 18.4934 23.9291 19.288C24.0072 19.7381 23.9614 20.8211 23.8451 21.2743C23.4783 22.7034 22.6259 23.8259 21.4101 24.481C21.232 24.5769 21.0721 24.6557 21.0548 24.6561C21.0375 24.6564 21.1024 24.4926 21.199 24.2919C21.608 23.443 21.6546 22.6173 21.3453 21.6982C21.156 21.1354 20.77 20.4487 19.9906 19.2882C19.0844 17.9388 18.8622 17.5797 18.6393 17.1039Z" fill="#D53A94"/>
<path d="M6.08803 22.2169C7.32806 21.1773 8.87096 20.4388 10.2764 20.2121C10.8821 20.1144 11.8911 20.1532 12.452 20.2957C13.351 20.5242 14.1553 21.0358 14.5735 21.6455C14.9823 22.2413 15.1576 22.7605 15.3402 23.9157C15.4122 24.3714 15.4906 24.829 15.5143 24.9326C15.6514 25.5313 15.9182 26.0099 16.2489 26.2502C16.774 26.6319 17.6784 26.6556 18.568 26.3111C18.719 26.2526 18.85 26.2122 18.8592 26.2213C18.8915 26.2531 18.4435 26.5508 18.1275 26.7076C17.7023 26.9185 17.3642 27 16.9149 27C16.1001 27 15.4237 26.5885 14.8592 25.7493C14.7482 25.5842 14.4985 25.0895 14.3044 24.6501C13.7085 23.3005 13.4142 22.8894 12.7223 22.4394C12.1201 22.0479 11.3435 21.9778 10.7593 22.2622C9.99185 22.6358 9.77774 23.6096 10.3274 24.2266C10.5458 24.4719 10.9532 24.6835 11.2863 24.7246C11.9095 24.8016 12.4451 24.3308 12.4451 23.7061C12.4451 23.3005 12.288 23.069 11.8927 22.8918C11.3529 22.6499 10.7725 22.9327 10.7753 23.4363C10.7765 23.651 10.8707 23.7859 11.0875 23.8833C11.2266 23.9458 11.2298 23.9507 11.1164 23.9273C10.621 23.8253 10.5049 23.2324 10.9032 22.8387C11.3814 22.3661 12.3703 22.5747 12.7098 23.2197C12.8525 23.4907 12.8691 24.0303 12.7447 24.3561C12.4663 25.0854 11.6547 25.4689 10.8314 25.2602C10.2708 25.1181 10.0425 24.9643 9.3667 24.2731C8.1923 23.0719 7.73638 22.8391 6.04329 22.5767L5.71885 22.5264L6.08803 22.2169Z" fill="#D53A94"/>
<path fill-rule="evenodd" clip-rule="evenodd" d="M0.577594 0.718473C4.49954 5.44483 7.20078 7.39484 7.50097 7.80683C7.74882 8.14701 7.65554 8.45283 7.23093 8.69252C6.99481 8.82578 6.50936 8.9608 6.26631 8.9608C5.99139 8.9608 5.89701 8.85551 5.89701 8.85551C5.73761 8.7054 5.64784 8.73165 4.82928 7.28897C3.69287 5.5381 2.74183 4.08568 2.71589 4.06136C2.65589 4.00512 2.65692 4.00703 4.71341 7.66054C5.04568 8.42202 4.7795 8.70154 4.7795 8.80999C4.7795 9.03062 4.71888 9.14659 4.44478 9.45016C3.98783 9.95632 3.78356 10.525 3.63611 11.7021C3.4708 13.0215 3.00598 13.9535 1.71781 15.5486C0.963762 16.4824 0.840378 16.6536 0.65011 17.0299C0.410451 17.5038 0.344554 17.7693 0.317845 18.3678C0.289616 19.0005 0.344596 19.4093 0.539293 20.0142C0.709743 20.5439 0.887662 20.8936 1.34251 21.5931C1.73503 22.1968 1.96105 22.6453 1.96105 22.8208C1.96105 22.9605 1.98789 22.9606 2.59614 22.8243C4.05176 22.4979 5.23372 21.9239 5.89847 21.2204C6.30988 20.785 6.40647 20.5446 6.4096 19.9479C6.41166 19.5576 6.39783 19.4759 6.29158 19.2514C6.11863 18.886 5.80377 18.5822 5.1098 18.1111C4.20052 17.4939 3.81215 16.997 3.70487 16.3137C3.61687 15.753 3.71896 15.3575 4.22198 14.3107C4.74264 13.2271 4.87166 12.7654 4.95894 11.6732C5.01531 10.9676 5.09338 10.6893 5.29756 10.466C5.51051 10.2331 5.70221 10.1542 6.22922 10.0827C7.0884 9.96613 7.63549 9.74542 8.08519 9.33397C8.4753 8.97703 8.63855 8.63309 8.6636 8.11535L8.68262 7.72291L8.46461 7.47054C7.67513 6.55655 0.0488853 0 0.000300494 0C-0.0100786 0 0.249714 0.323335 0.577594 0.718473ZM2.40422 19.0837C2.58272 18.7698 2.48788 18.3663 2.1893 18.1692C1.90719 17.9829 1.46894 18.0706 1.46894 18.3134C1.46894 18.3874 1.51019 18.4413 1.60315 18.4889C1.75969 18.5688 1.77105 18.6588 1.64789 18.8426C1.52316 19.0287 1.53323 19.1924 1.6763 19.3036C1.90687 19.4829 2.23328 19.3843 2.40422 19.0837Z" fill="#D53A94"/>
<path fill-rule="evenodd" clip-rule="evenodd" d="M9.22483 10.2885C8.82148 10.4115 8.4294 10.836 8.30803 11.2811C8.23399 11.5526 8.276 12.0288 8.3869 12.1759C8.56608 12.4135 8.73934 12.4761 9.2085 12.4728C10.1271 12.4665 10.9256 12.0753 11.0184 11.5863C11.0945 11.1855 10.7438 10.63 10.2607 10.3861C10.0115 10.2603 9.48131 10.2104 9.22483 10.2885ZM10.2986 11.1222C10.4403 10.9224 10.3783 10.7064 10.1374 10.5603C9.6786 10.2822 8.98482 10.5124 8.98482 10.9427C8.98482 11.1569 9.34661 11.3906 9.67825 11.3906C9.89898 11.3906 10.201 11.2599 10.2986 11.1222Z" fill="#D53A94"/>
</svg>
