<svg width="30" height="24" viewBox="0 0 30 24" fill="none" xmlns="http://www.w3.org/2000/svg">
<path d="M21.6649 12.3547C23.9193 12.3547 25.7468 10.5272 25.7468 8.27281C25.7468 6.01844 23.9193 4.19092 21.6649 4.19092C21.2383 4.19092 20.8269 4.25637 20.4403 4.37779C18.7843 4.89793 17.583 6.44509 17.583 8.27281C17.583 10.1005 18.7843 11.6477 20.4403 12.1678C20.8269 12.2893 21.2383 12.3547 21.6649 12.3547Z" stroke="#D53A94" stroke-width="2" stroke-miterlimit="10"/>
<path d="M17.0344 14.0523C18.3665 13.333 19.8456 12.9575 21.3468 12.9575C22.8479 12.9575 24.327 13.333 25.6591 14.0523C26.1004 14.2905 26.5213 14.5642 26.9183 14.8701C28.496 16.086 29.0003 18.1544 29.0003 20.1463V20.1463C29.0003 21.2484 28.1069 22.1418 27.0049 22.1418H16.2441" stroke="#D53A94" stroke-width="2" stroke-linecap="round" stroke-linejoin="round"/>
<path d="M9.96125 11.3957C12.7792 11.3957 15.0636 9.11125 15.0636 6.29329C15.0636 3.47533 12.7792 1.19092 9.96125 1.19092C7.14329 1.19092 4.85889 3.47533 4.85889 6.29329C4.85889 9.11125 7.14329 11.3957 9.96125 11.3957Z" stroke="#D53A94" stroke-width="2" stroke-miterlimit="10"/>
<path d="M1 20.0085C1 17.7472 1.62582 15.4099 3.46111 14.0889C3.94837 13.7382 4.466 13.4251 5.00945 13.1534C6.60798 12.3542 8.38289 11.937 10.1843 11.937C11.9856 11.937 13.7605 12.3542 15.3591 13.1534C15.9025 13.4251 16.4201 13.7382 16.9074 14.0889" stroke="#D53A94" stroke-width="2" stroke-linecap="round" stroke-linejoin="round"/>
</svg>
