<svg width="30" height="23" viewBox="0 0 30 23" fill="none" xmlns="http://www.w3.org/2000/svg">
<path d="M21.6649 12.1638C23.9193 12.1638 25.7468 10.3363 25.7468 8.08189C25.7468 5.82753 23.9193 4 21.6649 4C21.2383 4 20.8269 4.06545 20.4403 4.18687C18.7843 4.70701 17.583 6.25417 17.583 8.08189C17.583 9.90962 18.7843 11.4568 20.4403 11.9769C20.8269 12.0983 21.2383 12.1638 21.6649 12.1638Z" stroke="#D53A94" stroke-width="2" stroke-miterlimit="10"/>
<path d="M17.0344 13.8613C18.3665 13.1421 19.8456 12.7666 21.3468 12.7666C22.8479 12.7666 24.327 13.1421 25.6591 13.8613C26.0917 14.0949 26.5047 14.3625 26.8947 14.6611C28.4917 15.8838 29.0003 17.9739 29.0003 19.9851V19.9851C29.0003 21.0979 28.0982 22 26.9855 22H16.5" stroke="#D53A94" stroke-width="2" stroke-linecap="round" stroke-linejoin="round"/>
<path d="M9.96125 11.2047C12.7792 11.2047 15.0636 8.92033 15.0636 6.10237C15.0636 3.28441 12.7792 1 9.96125 1C7.14329 1 4.85889 3.28441 4.85889 6.10237C4.85889 8.92033 7.14329 11.2047 9.96125 11.2047Z" stroke="#D53A94" stroke-width="2" stroke-miterlimit="10"/>
<path d="M1 19.2727C1 15.2561 4.25611 12 8.27273 12H10.185H11.9479C16.0019 12 19.2455 15.3658 19.0956 19.417V19.417C19.0422 20.8587 17.858 22 16.4152 22H10H3.72727C2.22104 22 1 20.779 1 19.2727V19.2727Z" stroke="#D53A94" stroke-width="2"/>
</svg>
