<svg width="129" height="128" viewBox="0 0 129 128" fill="none" xmlns="http://www.w3.org/2000/svg">
<rect x="0.5" width="128" height="128" rx="32" fill="#787E99"/>
<path d="M81.0625 49.5938H75.3277L72.5121 45.3704C72.3623 45.1395 72.1566 44.9501 71.9142 44.8198C71.6717 44.6895 71.4002 44.6225 71.125 44.6251H57.875C57.5998 44.6225 57.3283 44.6895 57.0858 44.8198C56.8434 44.9501 56.6377 45.1395 56.4879 45.3704L53.6723 49.5938H47.9375C46.6214 49.5993 45.3607 50.1245 44.4301 51.0552C43.4994 51.9858 42.9742 53.2465 42.9688 54.5626V77.7501C42.9742 79.0662 43.4994 80.3268 44.4301 81.2575C45.3607 82.1881 46.6214 82.7134 47.9375 82.7188H81.0625C82.3786 82.7134 83.6393 82.1881 84.5699 81.2575C85.5006 80.3268 86.0258 79.0662 86.0312 77.7501V54.5626C86.0258 53.2465 85.5006 51.9858 84.5699 51.0552C83.6393 50.1245 82.3786 49.5993 81.0625 49.5938ZM71.9531 65.3282C71.9531 66.8023 71.516 68.2433 70.697 69.4689C69.8781 70.6946 68.7141 71.6499 67.3522 72.214C65.9903 72.7781 64.4917 72.9257 63.046 72.6381C61.6002 72.3505 60.2722 71.6407 59.2298 70.5983C58.1875 69.556 57.4777 68.228 57.1901 66.7822C56.9025 65.3365 57.0501 63.8379 57.6142 62.476C58.1783 61.1141 59.1336 59.9501 60.3593 59.1311C61.5849 58.3122 63.0259 57.8751 64.5 57.8751C66.4767 57.8751 68.3724 58.6603 69.7702 60.058C71.1679 61.4558 71.9531 63.3515 71.9531 65.3282Z" fill="#282A2E"/>
</svg>
