<svg width="30" height="23" viewBox="0 0 28 22" fill="none" xmlns="http://www.w3.org/2000/svg" display="none">
<path d="M20.6649 11.1638C22.9193 11.1638 24.7468 9.33626 24.7468 7.08189C24.7468 4.82753 22.9193 3 20.6649 3C20.2383 3 19.8269 3.06545 19.4403 3.18687C17.7843 3.70701 16.583 5.25417 16.583 7.08189C16.583 8.90962 17.7843 10.4568 19.4403 10.9769C19.8269 11.0983 20.2383 11.1638 20.6649 11.1638Z" fill="#D53A94"/>
<path d="M8.96125 10.2047C11.7792 10.2047 14.0636 7.92033 14.0636 5.10237C14.0636 2.28441 11.7792 0 8.96125 0C6.14329 0 3.85889 2.28441 3.85889 5.10237C3.85889 7.92033 6.14329 10.2047 8.96125 10.2047Z" fill="#D53A94"/>
<path fill-rule="evenodd" clip-rule="evenodd" d="M18.5301 21.1418C19.0503 20.5824 19.3685 19.8326 19.3685 19.0085C19.3685 16.7847 18.8007 14.2565 16.9336 12.6278C18.0184 12.186 19.1759 11.9575 20.3467 11.9575C21.8479 11.9575 23.327 12.333 24.6591 13.0523C25.1004 13.2905 25.5213 13.5642 25.9183 13.8701C27.496 15.086 28.0003 17.1544 28.0003 19.1463C28.0003 20.2484 27.1069 21.1418 26.0049 21.1418H18.5301Z" fill="#D53A94"/>
<path d="M0 19.0085C0 16.7472 0.625821 14.4099 2.46111 13.0889C2.94837 12.7382 3.466 12.4251 4.00945 12.1534C5.60798 11.3542 7.38289 10.937 9.18426 10.937C10.9856 10.937 12.7605 11.3542 14.3591 12.1534C14.9025 12.4251 15.4201 12.7382 15.9074 13.0889" fill="#D53A94"/>
<path d="M2.46111 13.0889C2.94837 12.7382 3.466 12.4251 4.00945 12.1534C5.60798 11.3542 7.38289 10.937 9.18426 10.937C10.9856 10.937 12.7605 11.3542 14.3591 12.1534C14.9025 12.4251 15.4201 12.7382 15.9074 13.0889C17.7427 14.4099 18.3685 16.7472 18.3685 19.0085C18.3685 20.1866 17.4134 21.1417 16.2352 21.1417H2.13328C0.955103 21.1417 0 20.1866 0 19.0085C0 16.7472 0.625821 14.4099 2.46111 13.0889Z" fill="#D53A94"/>
</svg>
