<svg width="15" height="20" viewBox="0 0 15 20" fill="none" xmlns="http://www.w3.org/2000/svg">
<path d="M13.8317 8.28369H13.0153V5.44596C13.0153 2.44303 10.541 0 7.5 0C4.45904 0 1.98431 2.44303 1.98431 5.44596V8.28369H1.16833C0.522968 8.28369 0 8.80005 0 9.43726V18.8464C0 19.4836 0.522968 20 1.16833 20H13.8317C14.477 20 15 19.4836 15 18.8464V9.43726C15 8.80005 14.477 8.28369 13.8317 8.28369ZM11.0474 8.28369H3.95255V5.44596C3.95255 3.5144 5.54371 1.94336 7.5 1.94336C9.45629 1.94336 11.0474 3.5144 11.0474 5.44596V8.28369Z" fill="#787E99"/>
</svg>
