<svg width="49" height="48" viewBox="0 0 49 48" fill="none" xmlns="http://www.w3.org/2000/svg">
<path d="M24.5 4.5C20.6433 4.5 16.8731 5.64366 13.6664 7.78634C10.4596 9.92903 7.96027 12.9745 6.48436 16.5377C5.00845 20.1008 4.62228 24.0216 5.3747 27.8043C6.12711 31.5869 7.9843 35.0615 10.7114 37.7886C13.4386 40.5157 16.9131 42.3729 20.6957 43.1253C24.4784 43.8777 28.3992 43.4916 31.9623 42.0156C35.5255 40.5397 38.571 38.0404 40.7137 34.8336C42.8564 31.6269 44 27.8567 44 24C43.9901 18.8313 41.9325 13.8772 38.2776 10.2224C34.6228 6.56755 29.6687 4.50991 24.5 4.5ZM33.7813 20.5875L22.7938 31.0875C22.5097 31.3547 22.1337 31.5024 21.7438 31.5C21.5531 31.5027 21.3639 31.4677 21.1869 31.3969C21.0099 31.3261 20.8487 31.2209 20.7125 31.0875L15.2188 25.8375C15.0664 25.7046 14.9425 25.5422 14.8544 25.3601C14.7664 25.1781 14.7161 24.9801 14.7066 24.7781C14.697 24.5761 14.7284 24.3743 14.7988 24.1847C14.8693 23.9952 14.9773 23.8218 15.1164 23.6751C15.2556 23.5283 15.423 23.4113 15.6085 23.3309C15.7941 23.2505 15.994 23.2084 16.1962 23.2072C16.3984 23.2061 16.5988 23.2458 16.7852 23.324C16.9717 23.4023 17.1404 23.5174 17.2813 23.6625L21.7438 27.9187L31.7188 18.4125C32.0104 18.158 32.3891 18.0262 32.7758 18.0445C33.1624 18.0628 33.527 18.2298 33.7933 18.5107C34.0597 18.7915 34.2071 19.1644 34.2049 19.5515C34.2026 19.9386 34.0508 20.3098 33.7813 20.5875Z" fill="#30CC8B"/>
</svg>
