<svg width="26" height="26" viewBox="0 0 26 26" fill="none" xmlns="http://www.w3.org/2000/svg">
<path d="M11.4138 12.0662C11.1058 12.5865 6.29732 12.6739 3.67362 11.1983C1.0506 9.72281 2.32473 5.21156 4.98547 4.02714C7.6462 2.84272 11.7217 11.5459 11.4131 12.0662H11.4138Z" stroke="#657795" stroke-width="2" stroke-linecap="round" stroke-linejoin="round"/>
<path d="M11.3771 13.8714C11.6857 14.3917 9.35894 18.4921 6.73592 19.9669C4.11221 21.4425 0.738974 18.1122 1.01602 15.2747C1.29307 12.4379 11.0685 13.3511 11.3764 13.8714H11.3771Z" stroke="#657795" stroke-width="2" stroke-linecap="round" stroke-linejoin="round"/>
<path d="M12.9634 14.8053C13.5799 14.8053 16.0617 18.8183 16.0617 21.7693C16.0617 24.7204 11.4143 25.9007 9.03063 24.2483C6.64694 22.5959 12.3469 14.806 12.9634 14.806V14.8053Z" stroke="#657795" stroke-width="2" stroke-linecap="round" stroke-linejoin="round"/>
<path d="M14.5874 13.9337C14.8953 13.4134 19.7038 13.326 22.3275 14.8015C24.9506 16.277 23.6764 20.7883 21.0157 21.9727C18.355 23.1571 14.2795 14.454 14.5874 13.9337Z" stroke="#657795" stroke-width="2" stroke-linecap="round" stroke-linejoin="round"/>
<path d="M14.6229 12.1279C14.3143 11.6076 16.6411 7.50721 19.2641 6.03236C21.8871 4.55683 25.2604 7.88779 24.9833 10.7246C24.7063 13.5614 14.9308 12.6482 14.6229 12.1279Z" stroke="#657795" stroke-width="2" stroke-linecap="round" stroke-linejoin="round"/>
<path d="M13.0362 11.1939C12.4197 11.1939 9.93791 7.1809 9.93791 4.23052C9.93791 1.28014 14.5853 0.0991663 16.9683 1.75157C19.352 3.40397 13.652 11.1939 13.0355 11.1939H13.0362Z" stroke="#657795" stroke-width="2" stroke-linecap="round" stroke-linejoin="round"/>
</svg>
