<svg width="24" height="25" viewBox="0 0 24 25" fill="none" xmlns="http://www.w3.org/2000/svg">
<path d="M12.4856 20.4999L11.2431 21.7424C10.1148 22.8525 8.59355 23.4718 7.01073 23.4653C5.4279 23.4589 3.91175 22.8273 2.79252 21.708C1.67328 20.5888 1.04165 19.0726 1.03521 17.4898C1.02876 15.907 1.64802 14.3858 2.75811 13.2574L5.77186 10.2499C6.85288 9.16673 8.30695 8.53752 9.83659 8.49105C11.3662 8.44458 12.8558 8.98435 14.0006 9.99995" stroke="#657795" stroke-width="2" stroke-linecap="round" stroke-linejoin="round"/>
<path d="M11.515 4.49963L12.7575 3.25713C13.8858 2.14705 15.4071 1.52778 16.9899 1.53423C18.5727 1.54067 20.0889 2.17231 21.2081 3.29154C22.3273 4.41077 22.959 5.92693 22.9654 7.50975C22.9718 9.09257 22.3526 10.6138 21.2425 11.7421L18.2288 14.7559C17.1469 15.8382 15.6924 16.4663 14.1628 16.5116C12.6331 16.5569 11.144 16.016 10 14.9996" stroke="#657795" stroke-width="2" stroke-linecap="round" stroke-linejoin="round"/>
</svg>
