<svg width="52" height="54" viewBox="0 0 52 54" fill="none" xmlns="http://www.w3.org/2000/svg">
<path d="M23 35H20C18.9391 35 17.9217 34.5786 17.1716 33.8284C16.4214 33.0783 16 32.0609 16 31V22C16 20.9391 16.4214 19.9217 17.1716 19.1716C17.9217 18.4214 18.9391 18 20 18H31C32.0609 18 33.0783 18.4214 33.8284 19.1716C34.5786 19.9217 35 20.9391 35 22V25M22 17V19M29 17V19M16 23H35M32.5 30.643L31 32.143" stroke="#D53A94" stroke-width="2" stroke-linecap="round" stroke-linejoin="round"/>
<path d="M31 37C33.7614 37 36 34.7614 36 32C36 29.2386 33.7614 27 31 27C28.2386 27 26 29.2386 26 32C26 34.7614 28.2386 37 31 37Z" stroke="#D53A94" stroke-width="2" stroke-linecap="round" stroke-linejoin="round"/>
<rect x="1.25" y="1.25" width="49.5" height="51.5" rx="13.75" stroke="#D53A94" stroke-width="2.5"/>
</svg>
